<?xml version="1.0" encoding="UTF-8" standalone="no"?>
<!-- Created with Inkscape (http://www.inkscape.org/) -->

<svg
   width="131.21919mm"
   height="131.2554mm"
   viewBox="0 0 131.21919 131.2554"
   version="1.1"
   id="svg1"
   xml:space="preserve"
   inkscape:export-filename="platform-xboxForDark.svg"
   inkscape:export-xdpi="96"
   inkscape:export-ydpi="96"
   xmlns:inkscape="http://www.inkscape.org/namespaces/inkscape"
   xmlns:sodipodi="http://sodipodi.sourceforge.net/DTD/sodipodi-0.dtd"
   xmlns="http://www.w3.org/2000/svg"
   xmlns:svg="http://www.w3.org/2000/svg"><sodipodi:namedview
     id="namedview1"
     pagecolor="#ffffff"
     bordercolor="#000000"
     borderopacity="0.25"
     inkscape:showpageshadow="2"
     inkscape:pageopacity="0.0"
     inkscape:pagecheckerboard="0"
     inkscape:deskcolor="#d1d1d1"
     inkscape:document-units="mm" /><defs
     id="defs1" /><g
     inkscape:label="Layer 1"
     inkscape:groupmode="layer"
     id="layer1"
     transform="translate(-55.370206,-139.27119)"><path
       d="m 151.11142,221.35783 c 11.72105,14.36688 17.11855,26.14084 14.39334,31.40605 -2.09021,3.99521 -15.00188,11.80041 -24.50042,14.79021 -7.83167,2.46062 -18.0975,3.51895 -26.56417,2.69875 -10.10708,-0.97896 -20.346448,-4.60375 -29.130618,-10.31875 -7.381877,-4.81542 -9.048752,-6.7998 -9.048752,-10.74209 0,-7.91104 8.704792,-21.77521 23.600832,-37.59729 8.466668,-8.96938 20.240628,-19.49979 21.537088,-19.20875 2.48708,0.55562 22.30437,19.87021 29.7127,28.97187 z M 103.14247,175.2145 c -7.858128,-7.11729 -15.372298,-14.26104 -22.86,-16.77458 -4.02167,-1.34938 -4.312712,-1.27 -7.593545,2.14312 -7.725833,8.04334 -14.155208,21.08729 -15.954375,32.385 -1.42875,9.04875 -1.613958,11.58875 -1.11125,16.00729 1.481667,13.36146 4.577292,22.59542 10.715625,31.98813 2.513542,3.86292 3.201458,4.57729 2.460625,2.61938 -1.11125,-2.91042 -0.07937,-9.92188 2.513542,-16.93334 3.783541,-10.31875 14.26104,-29.87146 31.829378,-51.435 z m 82.44416,16.80104 c -4.47146,-21.16666 -17.85937,-34.47521 -19.73791,-34.47521 -1.93146,0 -6.40292,1.7198 -9.525,3.67771 -6.1648,3.83646 -10.84792,8.30792 -17.01271,13.97 11.21833,14.10229 27.04041,36.88292 32.51729,53.52521 1.79917,5.47688 2.56646,10.87438 1.95792,13.83771 -0.4498,2.24896 -0.4498,2.24896 0.37041,1.21708 1.61396,-2.03729 5.26521,-8.28146 6.72042,-11.50937 1.95792,-4.28625 3.96875,-10.63625 4.92125,-15.53104 1.13771,-5.95313 1.03187,-18.7325 -0.21167,-24.71209 z M 90.627672,148.5445 c 12.620628,-0.66146 29.024798,9.12813 30.241878,9.36625 0.18521,0.0265 2.75167,-1.11125 5.715,-2.56646 16.90687,-8.22854 24.87083,-6.82625 28.41625,-6.6675 -16.90688,-10.39812 -40.40188,-13.22916 -61.886038,-3.09562 -6.19125,2.93687 -6.35,3.14854 -2.48709,2.96333 z"
       id="path1-8"
       style="fill:#121212;fill-opacity:1;stroke-width:0.265;stroke-dasharray:none" /></g></svg>
