<?xml version="1.0" encoding="UTF-8" standalone="no"?>
<!-- Created with Inkscape (http://www.inkscape.org/) -->

<svg
   width="11.28501mm"
   height="13.252212mm"
   viewBox="0 0 11.28501 13.252212"
   version="1.1"
   id="svg1"
   xml:space="preserve"
   inkscape:export-filename="moonForClearMode.svg"
   inkscape:export-xdpi="96"
   inkscape:export-ydpi="96"
   xmlns:inkscape="http://www.inkscape.org/namespaces/inkscape"
   xmlns:sodipodi="http://sodipodi.sourceforge.net/DTD/sodipodi-0.dtd"
   xmlns="http://www.w3.org/2000/svg"
   xmlns:svg="http://www.w3.org/2000/svg"><sodipodi:namedview
     id="namedview1"
     pagecolor="#ffffff"
     bordercolor="#000000"
     borderopacity="0.25"
     inkscape:showpageshadow="2"
     inkscape:pageopacity="0.0"
     inkscape:pagecheckerboard="0"
     inkscape:deskcolor="#d1d1d1"
     inkscape:document-units="mm" /><defs
     id="defs1" /><g
     inkscape:label="Layer 1"
     inkscape:groupmode="layer"
     id="layer1"
     transform="translate(-85.944315,-178.46447)"><g
       id="g4"
       transform="matrix(0.26458333,0,0,0.26458333,84.086679,177.30722)"
       style="fill:#121212;fill-opacity:1"><path
         d="M 35.021,8.568 35.568,7.749 36.105,6.941 37.314,5.128 C 37.462,4.905 37.402,4.605 37.181,4.456 36.956,4.307 36.656,4.367 36.507,4.591 L 35.212,6.535 34.667,7.352 34.114,8.18 C 32.362,7.501 30.409,7.12 28.346,7.12 26.285,7.12 24.332,7.501 22.58,8.18 L 22.03,7.352 21.485,6.535 20.188,4.59 C 20.04,4.367 19.739,4.307 19.515,4.455 19.293,4.603 19.233,4.904 19.381,5.127 l 1.208,1.813 0.539,0.808 0.547,0.819 c -4.115,1.916 -6.898,5.546 -6.898,9.701 h 27.142 c 0,-4.154 -2.783,-7.784 -6.898,-9.7 z m -12.489,5.823 c -0.805,0 -1.455,-0.651 -1.455,-1.454 0,-0.803 0.65,-1.453 1.455,-1.453 0.803,0 1.453,0.65 1.453,1.453 0,0.803 -0.65,1.454 -1.453,1.454 z m 11.631,0 c -0.803,0 -1.453,-0.651 -1.453,-1.454 0,-0.803 0.65,-1.453 1.453,-1.453 0.805,0 1.455,0.65 1.455,1.453 0,0.803 -0.65,1.454 -1.455,1.454 z"
         id="path1"
         style="fill:#121212;fill-opacity:1" /><path
         d="m 14.986,20.208 h -0.209 v 2.418 1.973 16.936 c 0,1.693 1.376,3.07 3.069,3.07 h 2.216 c -0.074,0.256 -0.116,0.527 -0.116,0.807 v 0.162 0.969 5.01 c 0,1.605 1.303,2.908 2.909,2.908 1.606,0 2.908,-1.303 2.908,-2.908 v -5.01 -0.969 -0.162 c 0,-0.279 -0.043,-0.551 -0.115,-0.807 h 5.4 c -0.074,0.256 -0.115,0.527 -0.115,0.807 v 0.162 0.969 5.01 c 0,1.605 1.303,2.908 2.908,2.908 1.605,0 2.908,-1.303 2.908,-2.908 v -5.01 -0.969 -0.162 c 0,-0.279 -0.041,-0.551 -0.115,-0.807 h 2.215 c 1.693,0 3.07,-1.377 3.07,-3.07 V 24.599 22.626 20.208 H 41.71 Z"
         id="path2"
         style="fill:#121212;fill-opacity:1" /><path
         d="m 9.929,20.208 c -1.606,0 -2.908,1.301 -2.908,2.909 v 12.439 c 0,1.605 1.302,2.908 2.908,2.908 1.605,0 2.908,-1.303 2.908,-2.908 v -12.44 c 0,-1.607 -1.302,-2.908 -2.908,-2.908 z"
         id="path3"
         style="fill:#121212;fill-opacity:1" /><path
         d="m 46.767,20.208 c -1.607,0 -2.908,1.301 -2.908,2.909 v 12.439 c 0,1.605 1.301,2.908 2.908,2.908 1.605,0 2.906,-1.303 2.906,-2.908 v -12.44 c 0,-1.607 -1.301,-2.908 -2.906,-2.908 z"
         id="path4"
         style="fill:#121212;fill-opacity:1" /></g></g></svg>
