<?xml version="1.0" encoding="UTF-8" standalone="no"?>
<!-- Created with Inkscape (http://www.inkscape.org/) -->

<svg
   width="13.017681mm"
   height="13.017504mm"
   viewBox="0 0 13.017681 13.017504"
   version="1.1"
   id="svg1"
   xml:space="preserve"
   inkscape:export-filename="platform-gamecube.svg"
   inkscape:export-xdpi="96"
   inkscape:export-ydpi="96"
   xmlns:inkscape="http://www.inkscape.org/namespaces/inkscape"
   xmlns:sodipodi="http://sodipodi.sourceforge.net/DTD/sodipodi-0.dtd"
   xmlns="http://www.w3.org/2000/svg"
   xmlns:svg="http://www.w3.org/2000/svg"><sodipodi:namedview
     id="namedview1"
     pagecolor="#ffffff"
     bordercolor="#000000"
     borderopacity="0.25"
     inkscape:showpageshadow="2"
     inkscape:pageopacity="0.0"
     inkscape:pagecheckerboard="0"
     inkscape:deskcolor="#d1d1d1"
     inkscape:document-units="mm" /><defs
     id="defs1" /><g
     inkscape:label="Layer 1"
     inkscape:groupmode="layer"
     id="layer1"
     transform="translate(-85.077982,-178.58183)"><g
       id="g2"
       transform="matrix(0.26458333,0,0,0.26458333,301.58652,-40.572544)"
       style="fill:#131313;fill-opacity:1"><path
         d="m -795.2,846.5 v 0 c -0.7,-0.1 -1.5,-0.2 -2.2,0 -1.7,0.5 -2.9,2 -3.4,4.2 -0.3,1.6 -0.2,3.4 0.2,4.8 0.7,2.2 2.3,3.5 4.3,3.4 1.9,0 3.5,-1.2 4.3,-3.4 0.5,-1.4 0.6,-3.2 0.2,-4.8 -0.5,-2.2 -1.8,-3.8 -3.4,-4.2 z"
         id="path1"
         style="fill:#131313;fill-opacity:1" /><path
         d="m -793.7,828.3 c -13.6,0 -24.6,11 -24.6,24.6 0,13.6 11,24.6 24.6,24.6 13.6,0 24.6,-11 24.6,-24.6 0.1,-13.6 -11,-24.6 -24.6,-24.6 z m -12.3,33.1 h -3.2 V 849 h 3.2 z m -1.6,-14.1 c -0.9,0 -1.7,-0.8 -1.7,-1.7 0,-0.9 0.8,-1.7 1.7,-1.7 0.9,0 1.7,0.8 1.7,1.7 0,0.9 -0.8,1.7 -1.7,1.7 z m 14.8,13.4 c -0.8,0.4 -1.5,0.6 -2.7,0.7 -0.6,0.1 -1.1,0 -1.7,0 -1.2,-0.1 -1.9,-0.3 -2.7,-0.7 -2.8,-1.3 -4.4,-4.2 -4.4,-7.9 0,-3.7 1.6,-6.7 4.4,-8.1 1.1,-0.5 2.2,-0.8 3.5,-0.8 1.3,0 2.4,0.3 3.5,0.8 2.8,1.4 4.4,4.4 4.4,8.1 0.1,3.7 -1.5,6.6 -4.3,7.9 z m 15.8,-2.3 c -0.8,1.7 -2.5,2.8 -4.9,3 -0.5,0.1 -1.6,0.1 -1.9,0 v 0 c -1.4,-0.2 -2.7,-0.4 -3.8,-1 0,0 0.7,-2.5 0.7,-2.5 1.8,0.6 4.3,1.4 6,0.7 0.9,-0.5 1.4,-1.3 1.2,-2.3 -0.2,-1.1 -0.9,-1.7 -3,-2.5 -2.3,-0.9 -3.7,-1.9 -4.3,-3.3 -0.3,-0.7 -0.4,-1.6 -0.2,-2.3 0.3,-2.1 2,-3.6 4.5,-4.1 0.7,-0.1 2.3,-0.1 3.1,0 1.1,0.2 2.4,0.6 2.4,0.8 0,0.1 -0.7,2.4 -0.7,2.4 -1.1,-0.4 -2.3,-0.7 -3.4,-0.8 -1.5,0 -3.1,0.9 -2.8,2.4 0.2,1 0.8,1.4 3.1,2.4 1.7,0.7 2.5,1.2 3.2,1.9 1,1 1.3,2.1 1.3,3.2 0,0.8 -0.1,1.2 -0.5,2 z"
         id="path2"
         style="fill:#131313;fill-opacity:1" /></g></g></svg>
