<?xml version="1.0" encoding="UTF-8" standalone="no"?>
<!-- Created with Inkscape (http://www.inkscape.org/) -->

<svg
   width="93.033569mm"
   height="111.125mm"
   viewBox="0 0 93.033569 111.125"
   version="1.1"
   id="svg1"
   xml:space="preserve"
   inkscape:export-filename="platform-macos.svg"
   inkscape:export-xdpi="96"
   inkscape:export-ydpi="96"
   xmlns:inkscape="http://www.inkscape.org/namespaces/inkscape"
   xmlns:sodipodi="http://sodipodi.sourceforge.net/DTD/sodipodi-0.dtd"
   xmlns="http://www.w3.org/2000/svg"
   xmlns:svg="http://www.w3.org/2000/svg"><sodipodi:namedview
     id="namedview1"
     pagecolor="#ffffff"
     bordercolor="#000000"
     borderopacity="0.25"
     inkscape:showpageshadow="2"
     inkscape:pageopacity="0.0"
     inkscape:pagecheckerboard="0"
     inkscape:deskcolor="#d1d1d1"
     inkscape:document-units="mm" /><defs
     id="defs1" /><g
     inkscape:label="Layer 1"
     inkscape:groupmode="layer"
     id="layer1"
     transform="translate(-45.070031,-129.52809)"><path
       d="m 97.631104,155.4427 c -1.64545,0.48815 -3.9714,0.86518 -6.94558,1.13241 0.13388,-6.63363 1.86372,-12.35551 5.21547,-17.1577 3.29009,-4.77123 8.847926,-8.06794 16.683026,-9.88933 0.0487,0.12753 0.11166,0.38285 0.17198,0.73739 0.0609,0.35454 0.12145,0.59769 0.17066,0.73157 0,0.17622 0.0119,0.40138 0.0362,0.66861 0.0124,0.26961 0.0243,0.48842 0.0243,0.67257 0,2.71515 -0.64638,5.73828 -1.93675,9.07733 -1.329,3.33904 -3.40175,6.41059 -6.20422,9.2149 -2.40109,2.39898 -4.81436,4.00765 -7.215176,4.81225 z m 29.918016,46.81034 c -3.0697,-4.40081 -4.60534,-9.37312 -4.60534,-14.89233 0,-5.03291 1.43881,-9.64063 4.33811,-13.82025 1.55998,-2.27938 4.09496,-4.89955 7.61603,-7.88379 -2.31563,-2.85274 -4.62968,-5.06942 -6.94531,-6.67835 -4.19259,-2.88925 -8.93339,-4.33996 -14.23379,-4.33996 -3.15701,0 -7.00881,0.75565 -11.54139,2.26722 -4.361916,1.52373 -7.555706,2.27145 -9.554896,2.27145 -1.51156,0 -4.58152,-0.66252 -9.213318,-2.00184 -4.678363,-1.33721 -8.615098,-1.99999 -11.820525,-1.99999 -7.665244,0 -13.978467,3.20331 -18.975123,9.61417 -5.032904,6.49605 -7.543536,14.83175 -7.543536,24.97058 0,10.78733 3.278452,21.97364 9.822921,33.5997 6.629929,11.52896 13.332354,17.29343 20.095633,17.29343 2.267215,0 5.215467,-0.75591 8.811948,-2.26721 3.60654,-1.47294 6.77519,-2.20663 9.49219,-2.20663 2.88978,0 6.2529,0.71306 10.078506,2.13334 4.04627,1.42663 7.16651,2.13783 9.34879,2.13783 5.70362,0 11.4173,-4.36033 17.1696,-13.08708 3.7301,-5.56393 6.47145,-11.12573 8.21399,-16.68966 -3.97351,-1.20729 -7.48241,-4.00976 -10.55449,-8.42063 z"
       id="path103"
       style="fill:#c7c7c7;fill-opacity:1;stroke-width:0.264583" /></g></svg>
