<?xml version="1.0" encoding="UTF-8" standalone="no"?>
<!-- Created with Inkscape (http://www.inkscape.org/) -->

<svg
   width="4.2333899mm"
   height="3.1750002mm"
   viewBox="0 0 4.2333899 3.1750002"
   version="1.1"
   id="svg1"
   xml:space="preserve"
   inkscape:export-filename="platform-switchForDark.svg"
   inkscape:export-xdpi="96"
   inkscape:export-ydpi="96"
   xmlns:inkscape="http://www.inkscape.org/namespaces/inkscape"
   xmlns:sodipodi="http://sodipodi.sourceforge.net/DTD/sodipodi-0.dtd"
   xmlns="http://www.w3.org/2000/svg"
   xmlns:svg="http://www.w3.org/2000/svg"><sodipodi:namedview
     id="namedview1"
     pagecolor="#ffffff"
     bordercolor="#000000"
     borderopacity="0.25"
     inkscape:showpageshadow="2"
     inkscape:pageopacity="0.0"
     inkscape:pagecheckerboard="0"
     inkscape:deskcolor="#d1d1d1"
     inkscape:document-units="mm" /><defs
     id="defs1" /><g
     inkscape:label="Layer 1"
     inkscape:groupmode="layer"
     id="layer1"
     transform="translate(-89.470125,-183.50308)"><g
       style="fill:#121212;fill-opacity:1"
       id="g1"
       transform="matrix(0.26458333,0,0,0.26458333,89.470187,183.50308)"><path
         d="m 8,1.248 c 1.857,0 3.526,0.641 4.65,1.794 a 4.978,4.978 0 0 1 2.518,1.09 C 13.907,1.482 11.295,0 8,0 4.75,0 2.12,1.48 0.844,4.122 A 4.979,4.979 0 0 1 3.133,3.075 C 4.236,1.872 5.974,1.248 8,1.248 Z"
         id="path1"
         style="fill:#121212;fill-opacity:1" /><path
         d="M 12,12 A 3.988,3.988 0 0 1 9.214,10.87 L 9.212,10.868 A 1.612,1.612 0 0 0 8.936,10.701 2.164,2.164 0 0 0 8,10.5 c -0.414,0 -0.729,0.103 -0.935,0.201 A 1.612,1.612 0 0 0 6.788,10.868 L 6.786,10.87 A 4,4 0 1 1 4,4 h 8 a 4,4 0 0 1 0,8 z"
         id="path2"
         style="fill:#121212;fill-opacity:1" /></g></g></svg>
