<?xml version="1.0" encoding="UTF-8" standalone="no"?>
<!-- Created with Inkscape (http://www.inkscape.org/) -->

<svg
   width="4.7624998mm"
   height="5.8208337mm"
   viewBox="0 0 4.7624998 5.8208337"
   version="1.1"
   id="svg1"
   xml:space="preserve"
   inkscape:export-filename="platform-anygameForDark.svg"
   inkscape:export-xdpi="96"
   inkscape:export-ydpi="96"
   xmlns:inkscape="http://www.inkscape.org/namespaces/inkscape"
   xmlns:sodipodi="http://sodipodi.sourceforge.net/DTD/sodipodi-0.dtd"
   xmlns="http://www.w3.org/2000/svg"
   xmlns:svg="http://www.w3.org/2000/svg"><sodipodi:namedview
     id="namedview1"
     pagecolor="#ffffff"
     bordercolor="#000000"
     borderopacity="0.25"
     inkscape:showpageshadow="2"
     inkscape:pageopacity="0.0"
     inkscape:pagecheckerboard="0"
     inkscape:deskcolor="#d1d1d1"
     inkscape:document-units="mm" /><defs
     id="defs1" /><g
     inkscape:label="Layer 1"
     inkscape:groupmode="layer"
     id="layer1"
     transform="translate(-89.205568,-182.18016)"><g
       style="fill:#131313;fill-opacity:1"
       id="g1"
       transform="matrix(0.26458333,0,0,0.26458333,88.411823,181.91558)"><path
         clip-rule="evenodd"
         d="M 5,3 H 19 V 21 H 5 Z M 3,3 C 3,1.89545 3.89551,1 5,1 h 14 c 1.1045,0 2,0.89545 2,2 v 18 c 0,1.1046 -0.8955,2 -2,2 H 5 C 3.89551,23 3,22.1046 3,21 Z m 5,3 h 8 v 4 H 8 Z M 6,6 C 6,4.89545 6.89551,4 8,4 h 8 c 1.1045,0 2,0.89545 2,2 v 4 c 0,1.1046 -0.8955,2 -2,2 H 8 C 6.89551,12 6,11.1046 6,10 Z m 3.5,13.5 c -0.55225,0 -1,-0.4477 -1,-1 v -1 h -1 c -0.55225,0 -1,-0.4477 -1,-1 0,-0.5523 0.44775,-1 1,-1 h 1 v -1 c 0,-0.5523 0.44775,-1 1,-1 0.5522,0 1,0.4477 1,1 v 1 h 1 c 0.5522,0 1,0.4477 1,1 0,0.5523 -0.4478,1 -1,1 h -1 v 1 c 0,0.5523 -0.4478,1 -1,1 z M 18,15 c 0,0.5523 -0.4478,1 -1,1 -0.5522,0 -1,-0.4477 -1,-1 0,-0.5523 0.4478,-1 1,-1 0.5522,0 1,0.4477 1,1 z m -3,4 c 0.5522,0 1,-0.4477 1,-1 0,-0.5523 -0.4478,-1 -1,-1 -0.5522,0 -1,0.4477 -1,1 0,0.5523 0.4478,1 1,1 z"
         fill="#000000"
         fill-rule="evenodd"
         id="path1"
         style="fill:#131313;fill-opacity:1" /></g></g></svg>
