<?xml version="1.0" encoding="UTF-8" standalone="no"?>
<!-- Created with Inkscape (http://www.inkscape.org/) -->

<svg
   width="4.2333736mm"
   height="4.2341733mm"
   viewBox="0 0 4.2333736 4.2341733"
   version="1.1"
   id="svg1"
   xml:space="preserve"
   inkscape:export-filename="platform-switch.svg"
   inkscape:export-xdpi="96"
   inkscape:export-ydpi="96"
   xmlns:inkscape="http://www.inkscape.org/namespaces/inkscape"
   xmlns:sodipodi="http://sodipodi.sourceforge.net/DTD/sodipodi-0.dtd"
   xmlns="http://www.w3.org/2000/svg"
   xmlns:svg="http://www.w3.org/2000/svg"><sodipodi:namedview
     id="namedview1"
     pagecolor="#ffffff"
     bordercolor="#000000"
     borderopacity="0.25"
     inkscape:showpageshadow="2"
     inkscape:pageopacity="0.0"
     inkscape:pagecheckerboard="0"
     inkscape:deskcolor="#d1d1d1"
     inkscape:document-units="mm" /><defs
     id="defs1" /><g
     inkscape:label="Layer 1"
     inkscape:groupmode="layer"
     id="layer1"
     transform="translate(-89.470133,-182.97349)"><g
       style="fill:#c6c6c6;fill-opacity:1"
       id="g1"
       transform="matrix(0.26458333,0,0,0.26458333,89.470169,182.97349)"><path
         d="M 9.34,8.005 C 9.34,3.625 9.35,0.033 9.363,0.023 9.373,0.01 10.036,0 10.831,0 c 1.153,0 1.51,0.01 1.743,0.05 1.73,0.298 3.045,1.6 3.373,3.326 0.046,0.242 0.053,0.809 0.053,4.61 0,4.06 0.005,4.537 -0.123,4.976 -0.022,0.076 -0.048,0.15 -0.08,0.242 a 4.136,4.136 0 0 1 -3.426,2.767 C 12.054,16.004 9.482,16.017 9.393,15.984 9.343,15.964 9.34,15.232 9.34,8.005 Z m 4.675,0.269 A 1.621,1.621 0 0 0 12.902,7.24 1.609,1.609 0 0 0 10.964,8.313 1.9,1.9 0 0 0 10.95,9.248 a 1.632,1.632 0 0 0 1.952,1.107 c 0.51,-0.136 0.908,-0.504 1.11,-1.028 0.11,-0.285 0.113,-0.742 0.003,-1.053 z M 3.71,3.317 C 3.502,3.357 3.184,3.516 3.015,3.665 2.667,3.966 2.495,4.394 2.521,4.897 c 0.013,0.262 0.03,0.332 0.136,0.544 0.155,0.321 0.39,0.556 0.712,0.715 0.222,0.11 0.278,0.123 0.567,0.133 0.261,0.01 0.354,0 0.53,-0.06 C 5.185,5.987 5.619,5.289 5.496,4.573 5.354,3.721 4.546,3.151 3.71,3.317 Z"
         id="path1"
         style="fill:#c6c6c6;fill-opacity:1" /><path
         d="M 3.425,0.053 A 4.136,4.136 0 0 0 0.145,3.068 C 0,3.628 -0.01,3.956 0.005,8.3 c 0.01,3.99 0.014,4.082 0.08,4.39 0.368,1.66 1.548,2.844 3.224,3.235 0.22,0.05 0.497,0.06 2.29,0.07 1.856,0.012 2.048,0.009 2.097,-0.04 0.05,-0.05 0.053,-0.69 0.053,-7.94 C 7.749,2.641 7.739,0.109 7.716,0.063 7.683,0.003 7.626,0 5.686,0.003 4.108,0.007 3.634,0.017 3.426,0.053 Z m 3,14.665 -1.35,-0.016 C 3.833,14.689 3.7,14.682 3.452,14.619 A 2.81,2.81 0 0 1 1.372,12.452 C 1.298,12.117 1.298,3.873 1.368,3.545 A 2.845,2.845 0 0 1 3.084,1.495 C 3.522,1.319 3.724,1.299 5.142,1.295 L 6.424,1.292 v 13.426 z"
         id="path2"
         style="fill:#c6c6c6;fill-opacity:1" /></g></g></svg>
