<?xml version="1.0" encoding="UTF-8" standalone="no"?>
<!-- Created with Inkscape (http://www.inkscape.org/) -->

<svg
   width="128.37874mm"
   height="120.35553mm"
   viewBox="0 0 128.37874 120.35553"
   version="1.1"
   id="svg1"
   xml:space="preserve"
   inkscape:export-filename="platform-nintendoForDark.svg"
   inkscape:export-xdpi="96"
   inkscape:export-ydpi="96"
   xmlns:inkscape="http://www.inkscape.org/namespaces/inkscape"
   xmlns:sodipodi="http://sodipodi.sourceforge.net/DTD/sodipodi-0.dtd"
   xmlns="http://www.w3.org/2000/svg"
   xmlns:svg="http://www.w3.org/2000/svg"><sodipodi:namedview
     id="namedview1"
     pagecolor="#ffffff"
     bordercolor="#000000"
     borderopacity="0.25"
     inkscape:showpageshadow="2"
     inkscape:pageopacity="0.0"
     inkscape:pagecheckerboard="0"
     inkscape:deskcolor="#d1d1d1"
     inkscape:document-units="mm" /><defs
     id="defs1" /><g
     inkscape:label="Layer 1"
     inkscape:groupmode="layer"
     id="layer1"
     transform="translate(-27.397452,-124.91282)"><g
       id="g17"
       transform="matrix(0.26458333,0,0,0.26458333,27.397451,120.90121)"
       style="fill:#c7c7c7;fill-opacity:1"><g
         id="g1"
         style="fill:#c7c7c7;fill-opacity:1">
	<path
   d="m 366.933,460.957 c 6.688,5.008 5.325,9.092 -3.024,9.092 H 181.955 c -8.352,0 -9.714,-4.084 -3.021,-9.092 L 215.3,433.65 c 6.692,-5.003 12.144,-15.9 12.144,-24.255 v -15.159 c 0,-8.354 6.814,-15.163 15.164,-15.163 h 60.648 c 8.354,0 15.168,6.81 15.168,15.163 v 15.159 c 0,8.354 5.446,19.252 12.144,24.255 z M 485.211,45.489 v 288.095 c 0,16.759 -13.563,30.321 -30.322,30.321 h -303.26 v 75.821 c 0,16.76 -13.579,30.322 -30.324,30.322 H 30.327 C 13.579,470.049 0,456.486 0,439.727 V 106.141 C 0,89.393 13.579,75.816 30.327,75.816 H 60.651 V 45.489 c 0,-16.746 13.565,-30.327 30.327,-30.327 h 363.911 c 16.758,10e-4 30.322,13.582 30.322,30.327 z M 30.327,136.467 h 90.978 V 106.141 H 30.327 Z m 0,60.651 h 90.978 V 166.794 H 30.327 Z m 30.324,166.787 c 0,-8.377 -6.781,-15.158 -15.161,-15.158 -8.382,0 -15.163,6.781 -15.163,15.158 0,8.387 6.781,15.168 15.163,15.168 8.38,0 15.161,-6.781 15.161,-15.168 z M 454.889,75.816 c 0,-16.764 -13.562,-30.327 -30.327,-30.327 H 121.304 c -16.764,0 -30.327,13.565 -30.327,30.327 h 30.327 c 16.746,0 30.324,13.577 30.324,30.325 v 212.274 h 272.933 c 16.765,0 30.327,-13.558 30.327,-30.321 V 75.816 Z"
   id="path1"
   style="fill:#c7c7c7;fill-opacity:1" />
</g><g
         id="g2"
         style="fill:#c7c7c7;fill-opacity:1">
</g><g
         id="g3"
         style="fill:#c7c7c7;fill-opacity:1">
</g><g
         id="g4"
         style="fill:#c7c7c7;fill-opacity:1">
</g><g
         id="g5"
         style="fill:#c7c7c7;fill-opacity:1">
</g><g
         id="g6"
         style="fill:#c7c7c7;fill-opacity:1">
</g><g
         id="g7"
         style="fill:#c7c7c7;fill-opacity:1">
</g><g
         id="g8"
         style="fill:#c7c7c7;fill-opacity:1">
</g><g
         id="g9"
         style="fill:#c7c7c7;fill-opacity:1">
</g><g
         id="g10"
         style="fill:#c7c7c7;fill-opacity:1">
</g><g
         id="g11"
         style="fill:#c7c7c7;fill-opacity:1">
</g><g
         id="g12"
         style="fill:#c7c7c7;fill-opacity:1">
</g><g
         id="g13"
         style="fill:#c7c7c7;fill-opacity:1">
</g><g
         id="g14"
         style="fill:#c7c7c7;fill-opacity:1">
</g><g
         id="g15"
         style="fill:#c7c7c7;fill-opacity:1">
</g><g
         id="g16"
         style="fill:#c7c7c7;fill-opacity:1">
</g></g></g></svg>
