<?xml version="1.0" encoding="UTF-8" standalone="no"?>
<!-- Created with Inkscape (http://www.inkscape.org/) -->

<svg
   width="13.229166mm"
   height="23.812502mm"
   viewBox="0 0 13.229166 23.812502"
   version="1.1"
   id="svg1"
   xml:space="preserve"
   inkscape:export-filename="platform-mobileForDark.svg"
   inkscape:export-xdpi="96"
   inkscape:export-ydpi="96"
   xmlns:inkscape="http://www.inkscape.org/namespaces/inkscape"
   xmlns:sodipodi="http://sodipodi.sourceforge.net/DTD/sodipodi-0.dtd"
   xmlns="http://www.w3.org/2000/svg"
   xmlns:svg="http://www.w3.org/2000/svg"><sodipodi:namedview
     id="namedview1"
     pagecolor="#ffffff"
     bordercolor="#000000"
     borderopacity="0.25"
     inkscape:showpageshadow="2"
     inkscape:pageopacity="0.0"
     inkscape:pagecheckerboard="0"
     inkscape:deskcolor="#d1d1d1"
     inkscape:document-units="mm" /><defs
     id="defs1" /><g
     inkscape:label="Layer 1"
     inkscape:groupmode="layer"
     id="layer1"
     transform="translate(-93.065958,-146.13427)"><g
       id="g5"
       transform="matrix(0.26458333,0,0,0.26458333,86.451375,144.81135)"
       style="fill:#131313;fill-opacity:1"><path
         d="M 25,8.076 V 91.924 C 25,93.623 26.377,95 28.076,95 H 71.924 C 73.623,95 75,93.623 75,91.924 V 8.076 C 75,6.377 73.623,5 71.924,5 H 28.076 C 26.377,5 25,6.377 25,8.076 Z m 25.587,84.868 c -2.114,0.401 -3.932,-1.418 -3.531,-3.531 0.223,-1.174 1.183,-2.134 2.357,-2.357 2.114,-0.401 3.932,1.418 3.531,3.531 -0.222,1.174 -1.183,2.135 -2.357,2.357 z M 68.984,85 H 31.016 C 30.455,85 30,84.564 30,84.025 V 13.975 C 30,13.436 30.455,13 31.016,13 H 68.985 C 69.545,13 70,13.436 70,13.975 v 70.05 C 70,84.564 69.545,85 68.984,85 Z M 43,9.5 C 43,10.328 42.328,11 41.5,11 40.672,11 40,10.328 40,9.5 40,8.672 40.672,8 41.5,8 42.328,8 43,8.672 43,9.5 Z m 18,0 v 0 c 0,0.828 -0.672,1.5 -1.5,1.5 h -13 C 45.672,11 45,10.328 45,9.5 v 0 C 45,8.672 45.672,8 46.5,8 h 13 C 60.328,8 61,8.672 61,9.5 Z"
         id="path1"
         style="fill:#131313;fill-opacity:1" /><g
         id="g4"
         style="fill:#131313;fill-opacity:1"><g
           id="g3"
           style="fill:#131313;fill-opacity:1"><g
             id="g2"
             style="fill:#131313;fill-opacity:1"><path
               d="m 45.484,52.69 c 0.927,1.567 2.63,2.579 4.516,2.579 1.883,0 3.585,-1.009 4.513,-2.573 4.85,0.109 7.673,0.358 9.103,0.573 -1.478,6.223 -7.088,10.75 -13.616,10.75 -6.533,0 -12.145,-4.532 -13.619,-10.761 1.425,-0.216 4.246,-0.465 9.103,-0.568 m 1.137,-1.771 c -6.035,0.093 -11.371,0.453 -12.242,1.086 0.977,7.76 7.596,13.764 15.621,13.764 8.024,0 14.642,-6.002 15.62,-13.76 -0.873,-0.62 -6.209,-0.984 -12.243,-1.085 -0.399,1.494 -1.758,2.596 -3.378,2.596 -1.62,-0.001 -2.98,-1.105 -3.378,-2.601 z"
               id="path2"
               style="fill:#131313;fill-opacity:1" /></g><circle
             cx="50"
             cy="50.019001"
             r="2.45"
             id="circle2"
             style="fill:#131313;fill-opacity:1" /></g><path
           d="m 50,34.231 c -8.698,0 -15.75,7.052 -15.75,15.75 0,0.13 0.007,0.258 0.01,0.387 0.057,-0.23 0.694,-0.428 1.745,-0.595 0.107,-7.33 5.835,-13.61 13.064,-14.11 C 49.573,35.629 50,36.034 50,36.539 v 0 c 0,0.46 -0.357,0.839 -0.816,0.869 -6.351,0.42 -11.393,5.703 -11.432,12.149 2.28,-0.223 5.456,-0.364 8.855,-0.421 0.379,-1.524 1.752,-2.655 3.393,-2.655 1.639,0 3.011,1.129 3.392,2.65 6.492,0.101 12.172,0.51 12.348,1.236 0.003,-0.129 0.01,-0.257 0.01,-0.387 0,-8.697 -7.052,-15.749 -15.75,-15.749 z"
           id="path3"
           style="fill:#131313;fill-opacity:1" /></g></g></g></svg>
