<?xml version="1.0" encoding="UTF-8" standalone="no"?>
<!-- Created with Inkscape (http://www.inkscape.org/) -->

<svg
   width="6.3499999mm"
   height="5.1085868mm"
   viewBox="0 0 6.3499999 5.1085868"
   version="1.1"
   id="svg1"
   xml:space="preserve"
   inkscape:export-filename="platform-atari.svg"
   inkscape:export-xdpi="96"
   inkscape:export-ydpi="96"
   xmlns:inkscape="http://www.inkscape.org/namespaces/inkscape"
   xmlns:sodipodi="http://sodipodi.sourceforge.net/DTD/sodipodi-0.dtd"
   xmlns="http://www.w3.org/2000/svg"
   xmlns:svg="http://www.w3.org/2000/svg"><sodipodi:namedview
     id="namedview1"
     pagecolor="#ffffff"
     bordercolor="#000000"
     borderopacity="0.25"
     inkscape:showpageshadow="2"
     inkscape:pageopacity="0.0"
     inkscape:pagecheckerboard="0"
     inkscape:deskcolor="#d1d1d1"
     inkscape:document-units="mm" /><defs
     id="defs1" /><g
     inkscape:label="Layer 1"
     inkscape:groupmode="layer"
     id="layer1"
     transform="translate(-74.780298,-233.65452)"><path
       d="m 74.780296,238.76283 c 0,0 0.834495,-0.0939 1.484841,-0.63077 0.618861,-0.51064 0.842698,-0.95038 0.997479,-1.44885 0.154517,-0.49874 0.177536,-1.69836 0.177536,-2.05423 v -0.97446 h -0.384969 v 0.36116 c -0.0064,0.54001 -0.05292,1.5658 -0.300302,2.23414 -0.597958,1.61052 -1.974585,1.75154 -1.974585,1.75154 z m 6.35,0 c 0,0 -0.834496,-0.0939 -1.484313,-0.63077 -0.619654,-0.51064 -0.843227,-0.95038 -0.998008,-1.44885 -0.154252,-0.49874 -0.177536,-1.69836 -0.177536,-2.05423 v -0.97446 h 0.38444 l 2.64e-4,0.36116 c 0.0063,0.54001 0.05345,1.5658 0.301096,2.23414 0.597429,1.61052 1.973792,1.75154 1.973792,1.75154 z m -3.529807,-5.10778 h 0.710407 v 5.10805 h -0.710142 z"
       id="path1-1"
       style="fill:#c6c6c6;fill-opacity:1;stroke-width:0.264583" /></g></svg>
