<?xml version="1.0" encoding="UTF-8" standalone="no"?>
<!-- Created with Inkscape (http://www.inkscape.org/) -->

<svg
   width="12.435618mm"
   height="13.758528mm"
   viewBox="0 0 12.435618 13.758528"
   version="1.1"
   id="svg1"
   xml:space="preserve"
   inkscape:export-filename="arrow-upForDarkMode.svg"
   inkscape:export-xdpi="96"
   inkscape:export-ydpi="96"
   xmlns:inkscape="http://www.inkscape.org/namespaces/inkscape"
   xmlns:sodipodi="http://sodipodi.sourceforge.net/DTD/sodipodi-0.dtd"
   xmlns="http://www.w3.org/2000/svg"
   xmlns:svg="http://www.w3.org/2000/svg"><sodipodi:namedview
     id="namedview1"
     pagecolor="#ffffff"
     bordercolor="#000000"
     borderopacity="0.25"
     inkscape:showpageshadow="2"
     inkscape:pageopacity="0.0"
     inkscape:pagecheckerboard="0"
     inkscape:deskcolor="#d1d1d1"
     inkscape:document-units="mm" /><defs
     id="defs1" /><g
     inkscape:label="Layer 1"
     inkscape:groupmode="layer"
     id="layer1"
     transform="translate(-131.77924,-117.69735)"><g
       id="g17"
       transform="matrix(0.26458333,0,0,0.26458333,131.77934,117.69755)"
       style="fill:#c6c6c6;fill-opacity:1"><g
         id="g1"
         style="fill:#c6c6c6;fill-opacity:1"><path
           d="M 45.243,41.757 31.455,26 45.243,10.242 c 2.343,-2.344 2.343,-6.143 0,-8.486 -2.345,-2.343 -6.144,-2.342 -8.486,10e-4 L 23.5,16.909 10.243,1.757 C 7.9,-0.585 4.102,-0.586 1.757,1.756 c -2.343,2.344 -2.343,6.143 0,8.486 L 15.545,26 1.757,41.757 c -2.343,2.343 -2.343,6.142 -10e-4,8.485 2.344,2.344 6.143,2.344 8.487,0 L 23.5,35.09 36.757,50.242 c 2.345,2.344 6.144,2.344 8.487,0 2.342,-2.343 2.342,-6.142 -10e-4,-8.485 z"
           id="path1"
           style="fill:#c6c6c6;fill-opacity:1" /></g><g
         id="g2"
         style="fill:#c6c6c6;fill-opacity:1" /><g
         id="g3"
         style="fill:#c6c6c6;fill-opacity:1" /><g
         id="g4"
         style="fill:#c6c6c6;fill-opacity:1" /><g
         id="g5"
         style="fill:#c6c6c6;fill-opacity:1" /><g
         id="g6"
         style="fill:#c6c6c6;fill-opacity:1" /><g
         id="g7"
         style="fill:#c6c6c6;fill-opacity:1" /><g
         id="g8"
         style="fill:#c6c6c6;fill-opacity:1" /><g
         id="g9"
         style="fill:#c6c6c6;fill-opacity:1" /><g
         id="g10"
         style="fill:#c6c6c6;fill-opacity:1" /><g
         id="g11"
         style="fill:#c6c6c6;fill-opacity:1" /><g
         id="g12"
         style="fill:#c6c6c6;fill-opacity:1" /><g
         id="g13"
         style="fill:#c6c6c6;fill-opacity:1" /><g
         id="g14"
         style="fill:#c6c6c6;fill-opacity:1" /><g
         id="g15"
         style="fill:#c6c6c6;fill-opacity:1" /><g
         id="g16"
         style="fill:#c6c6c6;fill-opacity:1" /></g></g></svg>
