<?xml version="1.0" encoding="UTF-8" standalone="no"?>
<!-- Created with Inkscape (http://www.inkscape.org/) -->

<svg
   width="183.08548mm"
   height="123.06799mm"
   viewBox="0 0 183.08548 123.06799"
   version="1.1"
   id="svg1"
   xml:space="preserve"
   inkscape:export-filename="ControllerForDarkMode.svg"
   inkscape:export-xdpi="96"
   inkscape:export-ydpi="96"
   xmlns:inkscape="http://www.inkscape.org/namespaces/inkscape"
   xmlns:sodipodi="http://sodipodi.sourceforge.net/DTD/sodipodi-0.dtd"
   xmlns:xlink="http://www.w3.org/1999/xlink"
   xmlns="http://www.w3.org/2000/svg"
   xmlns:svg="http://www.w3.org/2000/svg"><sodipodi:namedview
     id="namedview1"
     pagecolor="#ffffff"
     bordercolor="#000000"
     borderopacity="0.25"
     inkscape:showpageshadow="2"
     inkscape:pageopacity="0.0"
     inkscape:pagecheckerboard="0"
     inkscape:deskcolor="#d1d1d1"
     inkscape:document-units="mm" /><defs
     id="defs1"><linearGradient
       id="linearGradient7"><stop
         style="stop-color:#2643ff;stop-opacity:1;"
         offset="0.44935542"
         id="stop7" /><stop
         style="stop-color:#00aaff;stop-opacity:1;"
         offset="0.86924493"
         id="stop8" /></linearGradient><linearGradient
       xlink:href="#linearGradient7"
       id="linearGradient8"
       x1="37.976803"
       y1="103.13157"
       x2="218.92632"
       y2="103.13157"
       gradientUnits="userSpaceOnUse"
       gradientTransform="translate(-4.1338262,3.7204436)" /></defs><g
     inkscape:label="Layer 1"
     inkscape:groupmode="layer"
     id="layer1"
     transform="translate(-9.4162972,-62.241781)"><g
       id="g1"
       transform="matrix(1.0001029,0,0,0.99341702,-23.371325,17.616095)"><path
         style="fill:#000000"
         d="m 54.742543,164.03709 c 0,-0.61705 1.72454,-9.05933 2.41448,-11.81979 4.48897,-17.96045 12.77359,-35.45319 23.445455,-49.50436 1.275,-1.67874 3.05745,-4.026228 3.961,-5.216648 1.95818,-2.579882 3.95881,-6.327332 5.06622,-9.489722 0.84927,-2.42523 1.62534,-6.01616 1.62534,-7.52057 0,-0.49325 0.0301,-0.89682 0.0669,-0.89682 0.0368,0 0.90994,0.80367 1.94029,1.78594 2.18482,2.08284 4.067476,3.26567 6.767802,4.25206 l 1.94061,0.70888 22.3573,-0.002 22.35729,-0.002 1.98126,-0.73184 c 2.77094,-1.02353 4.57771,-2.1587 6.66365,-4.1867 l 1.7968,-1.74689 0.14265,0.95314 c 0.67515,4.51105 1.71299,7.96541 3.42925,11.41391 1.40277,2.81861 2.41974,4.34097 5.77093,8.63881 10.9191,14.00356 19.22964,30.63598 24.10199,48.23687 1.01256,3.65775 2.33053,9.44391 2.80241,12.30312 0.16812,1.01865 0.36048,2.11997 0.42747,2.4474 0.17774,0.86877 -0.20423,0.73613 -1.52532,-0.52966 -1.53229,-1.46814 -2.21568,-2.68516 -4.19683,-7.47399 -6.306,-15.24286 -13.70996,-30.36398 -16.21342,-33.1127 -0.81607,-0.89602 -1.90031,-1.70927 -3.00182,-2.25154 -2.2724,-1.1187 -3.84691,-1.19162 -13.97694,-0.64734 -23.91705,1.28505 -37.15785,1.28568 -61.080272,0.003 -10.33434,-0.55415 -11.70716,-0.49273 -13.97735,0.62533 -2.92829,1.44218 -4.09905,2.96863 -7.66552,9.99432 -3.682285,7.25386 -6.625815,13.63126 -10.252995,22.21401 -3.37956,7.99681 -3.8195,8.84505 -5.42398,10.45797 -1.25471,1.2613 -1.74466,1.56944 -1.74466,1.09724 z m 76.984427,-48.71177 c 0.15064,-0.28147 0.27389,-1.1064 0.27389,-1.83318 0,-2.20163 0.17345,-2.15296 -7.67291,-2.15296 -5.86664,0 -6.90061,0.0592 -7.25715,0.41577 -0.50441,0.50442 -0.57702,3.2859 -0.0983,3.76465 0.23113,0.23112 2.24395,0.31749 7.39901,0.31749 6.73052,0 7.0951,-0.0254 7.35543,-0.51177 z m -27.37507,-4.01244 c 1.96521,-0.73202 3.91511,-2.57377 4.94956,-4.67505 0.79013,-1.60499 0.87128,-1.9921 0.87128,-4.15663 0,-2.02601 -0.1054,-2.611588 -0.69722,-3.873768 -0.94747,-2.020662 -2.2805,-3.422682 -4.25887,-4.479282 -1.42301,-0.76 -1.97782,-0.90069 -3.90745,-0.99087 -1.817686,-0.085 -2.530446,10e-4 -3.716826,0.44844 -1.990176,0.75051 -3.438616,1.86779 -4.576876,3.530472 -3.20423,4.680458 -1.68832,11.031518 3.262966,13.670528 2.65779,1.41659 5.232496,1.58438 8.073436,0.52616 z m 47.37295,-0.22317 c 2.27978,-1.04138 3.40657,-2.14573 4.54993,-4.45924 0.90829,-1.83786 0.99249,-2.19504 0.97867,-4.15158 -0.0128,-1.81791 -0.13686,-2.39848 -0.82245,-3.850108 -0.98394,-2.083342 -2.64519,-3.792652 -4.58639,-4.719072 -1.27038,-0.60628 -1.79125,-0.69449 -4.10104,-0.69449 -2.22534,0 -2.84188,0.0966 -3.87941,0.60769 -1.85799,0.91529 -3.46391,2.47105 -4.47424,4.334482 -0.86069,1.58743 -0.90677,1.80687 -0.90677,4.318248 0,3.15163 0.46426,4.4055 2.39574,6.4704 2.84597,3.04258 7.05636,3.87475 10.84596,2.14367 z"
         id="path13" /><path
         style="fill:url(#linearGradient8);fill-opacity:1;stroke:#000000;stroke-width:5.29167;stroke-dasharray:none;stroke-opacity:1;paint-order:fill markers stroke"
         d="m 79.35297,50.673342 -0.2842,-1.963568 c -0.287805,-0.833521 -0.973321,-0.943932 -1.627695,-1.110965 -9.187958,-0.332816 -15.453779,1.89358 -21.650915,5.322301 0.061,0.740644 0.303073,1.481287 0.103346,2.221931 -1.53521,1.077638 -2.850372,2.326425 -3.513753,4.082153 l -3.772116,8.319325 -2.790333,7.130852 -2.842005,8.681034 -2.273605,7.750924 -2.01524,8.526013 -1.29182,7.337548 -0.981784,7.33754 -0.72342,8.371 -0.258364,6.09739 0.103346,5.8907 0.465055,7.49256 0.620074,6.25241 1.085129,6.6658 0.878439,3.56542 0.723419,1.60186 0.981784,1.47268 1.36933,1.49851 1.162638,0.90427 1.446839,0.82677 1.550185,0.59424 1.36933,0.31003 1.240148,0.12919 1.162639,-0.0775 0.826765,-0.36171 0.620074,-0.64591 0.413382,-0.85261 0.465056,-1.83438 0.852602,-4.59888 0.930111,-4.10799 1.059293,-4.31468 1.395166,-4.85725 1.679368,-5.14145 1.343493,-3.72044 1.36933,-3.48791 1.705202,-3.95298 1.653532,-3.64293 2.557804,-4.98643 2.480297,-4.49553 1.808549,-3.02287 2.50613,-3.9788 1.782712,-2.66115 1.601859,-2.27361 2.299441,-3.177878 2.066912,-2.686985 1.937732,-2.712823 1.627695,-2.712823 1.162637,-2.273605 0.826765,-1.937731 0.620075,-1.911895 0.516728,-2.144422 0.465056,-2.893679 1.627693,-7.595904 4.547208,5.11561 1.136804,1.214311 0.749252,0.658828 0.98179,0.788011 1.24015,0.813848 1.17555,0.645909 0.904276,0.387545 0.91719,0.310039 1.07221,0.2842 0.9947,0.167936 0.41339,0.05167 h 28.23919 l 9.40446,-0.103346 5.21895,-0.310036 1.60186,-0.465056 0.90427,-0.387545 0.95595,-0.568402 1.49851,-1.046374 1.1368,-0.904275 1.13681,-1.175557 4.72445,-5.372282 1.89998,9.280705 0.22222,0.948822 0.38108,1.666449 0.48444,1.582481 0.24544,0.723418 0.45214,1.143262 0.44568,1.033457 0.72988,1.498513 0.7105,1.330574 0.94949,1.576022 0.84614,1.201394 1.22077,1.685824 1.20139,1.621242 1.1368,1.51143 0.87844,1.143258 0.74926,1.027 1.03345,1.40808 1.88683,2.72169 2.32017,3.5442 1.79038,2.84998 1.69902,2.97787 1.40672,2.52113 1.93653,3.70863 1.37018,2.7769 1.37018,3.01441 1.35192,3.10574 1.22403,2.97787 1.35191,3.58074 1.55288,4.47593 1.16922,3.78171 0.80384,2.74036 1.11441,4.42112 0.84038,3.52594 0.475,2.44806 0.54807,2.92306 0.49327,2.28364 0.43846,1.15095 0.89518,0.7125 1.31538,0.45672 1.20576,-0.14615 2.5394,-0.65769 1.37019,-0.54807 1.47979,-0.98653 0.98654,-0.85865 1.38845,-1.64422 0.60288,-0.98653 0.71249,-1.82691 0.56635,-2.19229 0.67595,-3.32498 0.63942,-4.07401 0.54807,-4.22016 0.40192,-4.25671 0.29231,-4.73169 0.10961,-4.2567 -0.0183,-2.74037 -0.12788,-4.47593 -0.27404,-4.36632 -0.2375,-2.66729 -0.31057,-2.97786 -0.36538,-2.94133 -0.31058,-2.17402 -0.38365,-2.46633 -0.51153,-2.90478 -0.45673,-2.42979 -0.34711,-1.735568 -0.85865,-3.946129 -0.74904,-3.03267 -0.69422,-2.722097 -0.91346,-3.233632 -1.2423,-4.183626 -0.74903,-2.301906 -1.2423,-3.690358 -1.80864,-4.877851 -2.22883,-5.535538 -2.32018,-5.188426 -1.27883,-2.484596 -0.93173,-1.370185 -1.5346,-1.370182 c -0.41364,-0.253697 -0.5681,-0.71474 -0.63942,-1.2423 l 0.0548,-1.552872 c -7.43299,-4.230142 -13.24537,-4.835526 -21.60128,-5.156721 -0.7981,0.124339 -1.44582,0.449192 -1.6277,1.395166 l -0.31003,1.57602 -10.05037,-0.749255 -6.69163,-0.594238 -7.23419,-0.516729 -9.45613,-0.439219 -14.57174,-0.155016 -9.09441,0.20669 -7.5184,0.310036 -10.928797,0.775094 z"
         id="path1" /><ellipse
         style="fill:#000000;fill-opacity:1;stroke:#000000;stroke-width:3.26311;stroke-dasharray:none;stroke-opacity:1;paint-order:fill markers stroke"
         id="path2"
         cx="170.19382"
         cy="76.948975"
         rx="4.7676954"
         ry="4.6643496" /><ellipse
         style="fill:#000000;fill-opacity:1;stroke:#000000;stroke-width:3.26311;stroke-dasharray:none;stroke-opacity:1;paint-order:fill markers stroke"
         id="path2-8"
         cx="181.57199"
         cy="65.434929"
         rx="4.7676954"
         ry="4.6643496" /><ellipse
         style="fill:#000000;fill-opacity:1;stroke:#000000;stroke-width:3.26311;stroke-dasharray:none;stroke-opacity:1;paint-order:fill markers stroke"
         id="path2-0"
         cx="193.20552"
         cy="77.002419"
         rx="4.7676954"
         ry="4.6643496" /><ellipse
         style="fill:#000000;fill-opacity:1;stroke:#000000;stroke-width:3.26311;stroke-dasharray:none;stroke-opacity:1;paint-order:fill markers stroke"
         id="path2-07"
         cx="181.85332"
         cy="88.553185"
         rx="4.7676954"
         ry="4.6643496" /><path
         style="fill:#000000;fill-opacity:1;stroke:#000000;stroke-width:2.11667;stroke-dasharray:none;stroke-opacity:1;paint-order:fill markers stroke"
         d="m 66.744799,79.222579 4.030482,3.720444 -0.103346,9.611145 h -7.750924 l -0.310039,-9.301109 z"
         id="path3" /><path
         style="fill:#000000;fill-opacity:1;stroke:#000000;stroke-width:2.11667;stroke-dasharray:none;stroke-opacity:1;paint-order:fill markers stroke"
         d="m 69.225095,76.845629 4.237173,4.237172 h 8.887724 l -0.103343,-7.957616 -8.681036,-0.20669 z"
         id="path4" /><path
         style="fill:#000000;fill-opacity:1;stroke:#000000;stroke-width:2.11667;stroke-dasharray:none;stroke-opacity:1;paint-order:fill markers stroke"
         d="m 64.574541,76.948975 -4.030481,-3.927134 -9.404454,0.103344 -0.103346,7.85427 9.507801,-0.20669 z"
         id="path5" /><path
         style="fill:#000000;fill-opacity:1;stroke:#000000;stroke-width:2.11667;stroke-dasharray:none;stroke-opacity:1;paint-order:fill markers stroke"
         d="m 66.744799,74.468678 4.237172,-3.617097 -0.310036,-9.5078 h -7.544234 l -0.516729,9.094417 z"
         id="path6" /><path
         style="fill:none;fill-opacity:1;stroke:#000000;stroke-width:1.05833;stroke-dasharray:none;stroke-opacity:1;paint-order:fill markers stroke"
         d="m 87.020155,51.612144 1.132687,5.992265 1.242298,5.699961 0.949994,4.348046 1.205759,4.823042 3.982665,4.494202 c 2.802736,3.299838 5.644352,3.675771 8.440322,4.786503 l 38.69396,-0.146151 c 3.86614,-0.191232 7.21512,-1.933955 10.30377,-4.457663 l 4.09228,-4.603813 2.59421,-11.326844 1.97307,-9.609548 -9.9384,-0.803841 -14.32297,-0.876916 -11.29031,-0.146153 -10.77877,0.03654 -11.54607,0.474996 z"
         id="path7" /></g></g></svg>
