<?xml version="1.0" encoding="UTF-8" standalone="no"?>
<!-- Created with Inkscape (http://www.inkscape.org/) -->

<svg
   width="118.53332mm"
   height="118.53334mm"
   viewBox="0 0 118.53332 118.53334"
   version="1.1"
   id="svg1"
   xml:space="preserve"
   xmlns:inkscape="http://www.inkscape.org/namespaces/inkscape"
   xmlns:sodipodi="http://sodipodi.sourceforge.net/DTD/sodipodi-0.dtd"
   xmlns="http://www.w3.org/2000/svg"
   xmlns:svg="http://www.w3.org/2000/svg"><sodipodi:namedview
     id="namedview1"
     pagecolor="#ffffff"
     bordercolor="#000000"
     borderopacity="0.25"
     inkscape:showpageshadow="2"
     inkscape:pageopacity="0.0"
     inkscape:pagecheckerboard="0"
     inkscape:deskcolor="#d1d1d1"
     inkscape:document-units="mm" /><defs
     id="defs1" /><g
     inkscape:label="Layer 1"
     inkscape:groupmode="layer"
     id="layer1"
     transform="translate(-45.762803,-89.525083)"><path
       d="M 151.59613,89.525082 H 58.462805 c -7.011459,0 -12.7,5.688541 -12.7,12.699998 v 93.13334 c 0,7.01146 5.688541,12.7 12.7,12.7 h 93.133325 c 7.01146,0 12.7,-5.68854 12.7,-12.7 v -93.13334 c 0,-7.011457 -5.68854,-12.699998 -12.7,-12.699998 z M 119.13176,191.04571 c -2.2225,0.39688 -3.04271,-0.97896 -3.04271,-2.11667 0,-1.42875 0.0529,-8.73125 0.0529,-14.63146 0,-4.1275 -1.37583,-6.74687 -2.98979,-8.12271 9.78959,-1.08479 20.10834,-2.43416 20.10834,-19.34104 0,-4.81541 -1.7198,-7.22312 -4.52438,-10.31875 0.44979,-1.13771 1.95792,-5.82083 -0.44979,-11.90625 -3.67771,-1.13771 -12.09146,4.73604 -12.09146,4.73604 -3.4925,-0.97895 -7.27604,-1.48166 -11.00667,-1.48166 -3.73062,0 -7.514162,0.50271 -11.006662,1.48166 0,0 -8.41375,-5.87375 -12.091458,-4.73604 -2.407712,6.05896 -0.926045,10.74209 -0.449795,11.90625 -2.804583,3.09563 -4.1275,5.50334 -4.1275,10.31875 0,16.8275 9.868958,18.25625 19.658542,19.34104 -1.27,1.13771 -2.407709,3.09563 -2.804584,5.90021 -2.513541,1.13771 -8.942916,3.09563 -12.779375,-3.67771 -2.407708,-4.18041 -6.746875,-4.52437 -6.746875,-4.52437 -4.28625,-0.0529 -0.291041,2.69875 -0.291041,2.69875 2.8575,1.32292 4.868333,6.40292 4.868333,6.40292 2.566458,7.85812 14.843125,5.21229 14.843125,5.21229 0,3.67771 0.05292,9.65729 0.05292,10.74208 0,1.13771 -0.79375,2.51355 -3.042709,2.11667 -17.4625,-5.84729 -29.68625,-22.46313 -29.68625,-41.88354 0,-24.28875 18.57375,-42.73021 42.862499,-42.73021 24.28875,0 43.97374,18.44146 43.97374,42.73021 0.0265,19.42041 -11.82686,36.06271 -29.28936,41.88354 z M 93.176138,174.87967 c -0.502708,0.10583 -0.978958,-0.10584 -1.031875,-0.4498 -0.05292,-0.39687 0.291042,-0.74083 0.79375,-0.84666 0.502709,-0.0529 0.978959,0.15875 1.031875,0.50271 0.07938,0.34395 -0.264583,0.68791 -0.79375,0.79375 z m -2.513541,-0.23813 c 0,0.34396 -0.396875,0.635 -0.926042,0.635 -0.582083,0.0529 -0.978958,-0.23812 -0.978958,-0.635 0,-0.34396 0.396875,-0.635 0.926041,-0.635 0.502709,-0.0529 0.978959,0.23813 0.978959,0.635 z m -3.624792,-0.29104 c -0.105833,0.34396 -0.635,0.50271 -1.084792,0.34396 -0.502708,-0.10584 -0.846666,-0.50271 -0.740833,-0.84667 0.105833,-0.34396 0.635,-0.50271 1.084792,-0.39687 0.529166,0.15875 0.873125,0.55562 0.740833,0.89958 z m -3.254375,-1.42875 c -0.238125,0.29104 -0.740833,0.23812 -1.137708,-0.15875 -0.396875,-0.34396 -0.502709,-0.84667 -0.238125,-1.08479 0.238125,-0.29104 0.740833,-0.23813 1.137708,0.15875 0.343958,0.34396 0.47625,0.87312 0.238125,1.08479 z m -2.407708,-2.40771 c -0.238125,0.15875 -0.687917,0 -0.978959,-0.39687 -0.291041,-0.39688 -0.291041,-0.84667 0,-1.03188 0.291042,-0.23812 0.740834,-0.0529 0.978959,0.34396 0.291041,0.39687 0.291041,0.87312 0,1.08479 z m -1.719792,-2.56646 c -0.238125,0.23813 -0.635,0.10584 -0.926042,-0.15875 -0.291041,-0.34396 -0.343958,-0.74083 -0.105833,-0.92604 0.238125,-0.23812 0.635,-0.10583 0.926042,0.15875 0.291041,0.34396 0.343958,0.74083 0.105833,0.92604 z m -1.772708,-1.95791 c -0.105834,0.23812 -0.449792,0.29104 -0.740834,0.10583 -0.343958,-0.15875 -0.502708,-0.44979 -0.396875,-0.68792 0.105834,-0.15875 0.396875,-0.23812 0.740834,-0.10583 0.343958,0.18521 0.502708,0.47625 0.396875,0.68792 z"
       id="path1"
       style="stroke-width:0.264583"
       inkscape:export-filename="path1.png"
       inkscape:export-xdpi="96"
       inkscape:export-ydpi="96" /></g></svg>
