<?xml version="1.0" encoding="UTF-8" standalone="no"?>
<!-- Created with Inkscape (http://www.inkscape.org/) -->

<svg
   width="118.53332mm"
   height="118.53334mm"
   viewBox="0 0 118.53332 118.53334"
   version="1.1"
   id="svg1"
   xml:space="preserve"
   inkscape:export-filename="linkedinForDarkMode.svg"
   inkscape:export-xdpi="96"
   inkscape:export-ydpi="96"
   xmlns:inkscape="http://www.inkscape.org/namespaces/inkscape"
   xmlns:sodipodi="http://sodipodi.sourceforge.net/DTD/sodipodi-0.dtd"
   xmlns="http://www.w3.org/2000/svg"
   xmlns:svg="http://www.w3.org/2000/svg"><sodipodi:namedview
     id="namedview1"
     pagecolor="#ffffff"
     bordercolor="#000000"
     borderopacity="0.25"
     inkscape:showpageshadow="2"
     inkscape:pageopacity="0.0"
     inkscape:pagecheckerboard="0"
     inkscape:deskcolor="#d1d1d1"
     inkscape:document-units="mm" /><defs
     id="defs1" /><g
     inkscape:label="Layer 1"
     inkscape:groupmode="layer"
     id="layer1"
     transform="translate(-76.889597,-108.2468)"><path
       d="M 182.72292,108.24679 H 89.589595 c -7.01146,0 -12.700001,5.68854 -12.700001,12.69999 v 93.13335 c 0,7.01146 5.688541,12.7 12.700001,12.7 h 93.133325 c 7.01146,0 12.7,-5.68854 12.7,-12.7 v -93.13335 c 0,-7.01145 -5.68854,-12.69999 -12.7,-12.69999 z m -32.46437,101.52064 c -2.2225,0.39688 -3.04271,-0.97897 -3.04271,-2.11669 0,-1.42875 0.0529,-8.73125 0.0529,-14.63146 0,-4.1275 -1.37583,-6.74687 -2.98979,-8.12271 9.78959,-1.08479 20.10834,-2.43416 20.10834,-19.34104 0,-4.81541 -1.7198,-7.22312 -4.52438,-10.31875 0.44979,-1.13771 1.95792,-5.82083 -0.44979,-11.90625 -3.67771,-1.13771 -12.09146,4.73604 -12.09146,4.73604 -3.4925,-0.97895 -7.27604,-1.48166 -11.00667,-1.48166 -3.73062,0 -7.51416,0.50271 -11.00666,1.48166 0,0 -8.41375,-5.87375 -12.09146,-4.73604 -2.40771,6.05896 -0.92605,10.74209 -0.4498,11.90625 -2.80458,3.09563 -4.1275,5.50334 -4.1275,10.31875 0,16.8275 9.86896,18.25625 19.65855,19.34104 -1.27,1.13771 -2.40771,3.09563 -2.80459,5.90021 -2.51354,1.13771 -8.94291,3.09563 -12.77937,-3.67771 -2.40771,-4.18041 -6.74688,-4.52437 -6.74688,-4.52437 -4.28625,-0.0529 -0.29104,2.69875 -0.29104,2.69875 2.8575,1.32292 4.86833,6.40292 4.86833,6.40292 2.56646,7.85812 14.84313,5.21229 14.84313,5.21229 0,3.67771 0.0529,9.65729 0.0529,10.74208 0,1.13772 -0.79375,2.51356 -3.04271,2.11668 -17.4625,-5.8473 -29.686249,-22.46314 -29.686249,-41.88355 0,-24.28875 18.573749,-42.73021 42.862499,-42.73021 24.28875,0 43.97374,18.44146 43.97374,42.73021 0.0265,19.42041 -11.82686,36.06271 -29.28936,41.88355 z m -25.95562,-16.16606 c -0.50271,0.10583 -0.97896,-0.10584 -1.03188,-0.4498 -0.0529,-0.39687 0.29104,-0.74083 0.79375,-0.84666 0.50271,-0.0529 0.97896,0.15875 1.03188,0.50271 0.0794,0.34395 -0.26459,0.68791 -0.79375,0.79375 z m -2.51354,-0.23813 c 0,0.34396 -0.39688,0.635 -0.92605,0.635 -0.58208,0.0529 -0.97895,-0.23812 -0.97895,-0.635 0,-0.34396 0.39687,-0.635 0.92604,-0.635 0.50271,-0.0529 0.97896,0.23813 0.97896,0.635 z m -3.6248,-0.29104 c -0.10583,0.34396 -0.635,0.50271 -1.08479,0.34396 -0.50271,-0.10584 -0.84666,-0.50271 -0.74083,-0.84667 0.10583,-0.34396 0.635,-0.50271 1.08479,-0.39687 0.52917,0.15875 0.87313,0.55562 0.74083,0.89958 z m -3.25437,-1.42875 c -0.23813,0.29104 -0.74083,0.23812 -1.13771,-0.15875 -0.39687,-0.34396 -0.50271,-0.84667 -0.23812,-1.08479 0.23812,-0.29104 0.74083,-0.23813 1.1377,0.15875 0.34396,0.34396 0.47625,0.87312 0.23813,1.08479 z m -2.40771,-2.40771 c -0.23812,0.15875 -0.68792,0 -0.97896,-0.39687 -0.29104,-0.39688 -0.29104,-0.84667 0,-1.03188 0.29104,-0.23812 0.74084,-0.0529 0.97896,0.34396 0.29104,0.39687 0.29104,0.87312 0,1.08479 z m -1.71979,-2.56646 c -0.23813,0.23813 -0.635,0.10584 -0.92604,-0.15875 -0.29104,-0.34396 -0.34396,-0.74083 -0.10584,-0.92604 0.23813,-0.23812 0.635,-0.10583 0.92605,0.15875 0.29104,0.34396 0.34395,0.74083 0.10583,0.92604 z m -1.77271,-1.95791 c -0.10583,0.23812 -0.44979,0.29104 -0.74083,0.10583 -0.34396,-0.15875 -0.50271,-0.44979 -0.39688,-0.68792 0.10584,-0.15875 0.39688,-0.23812 0.74084,-0.10583 0.34395,0.18521 0.5027,0.47625 0.39687,0.68792 z"
       id="path1"
       style="fill:#c7c7c7;fill-opacity:1;stroke-width:0.264583"
       inkscape:export-filename="path1.png"
       inkscape:export-xdpi="96"
       inkscape:export-ydpi="96" /></g></svg>
