<?xml version="1.0" encoding="UTF-8" standalone="no"?>
<!-- Created with Inkscape (http://www.inkscape.org/) -->

<svg
   width="50.800564mm"
   height="52.174648mm"
   viewBox="0 0 50.800564 52.174648"
   version="1.1"
   id="svg1"
   xml:space="preserve"
   inkscape:export-filename="libraryForClearMode.svg"
   inkscape:export-xdpi="96"
   inkscape:export-ydpi="96"
   xmlns:inkscape="http://www.inkscape.org/namespaces/inkscape"
   xmlns:sodipodi="http://sodipodi.sourceforge.net/DTD/sodipodi-0.dtd"
   xmlns="http://www.w3.org/2000/svg"
   xmlns:svg="http://www.w3.org/2000/svg"><sodipodi:namedview
     id="namedview1"
     pagecolor="#ffffff"
     bordercolor="#000000"
     borderopacity="0.25"
     inkscape:showpageshadow="2"
     inkscape:pageopacity="0.0"
     inkscape:pagecheckerboard="0"
     inkscape:deskcolor="#d1d1d1"
     inkscape:document-units="mm" /><defs
     id="defs1" /><g
     inkscape:label="Layer 1"
     inkscape:groupmode="layer"
     id="layer1"
     transform="translate(-75.762506,-58.813128)"><g
       id="g2"
       transform="matrix(0.26458333,0,0,0.26458333,67.296402,51.720952)"><path
         d="M 218.8,103.7 138.8,31 a 16,16 0 0 0 -21.6,0 l -80,72.7 A 16,16 0 0 0 32,115.5 v 92.1 a 16.4,16.4 0 0 0 4,11 15.9,15.9 0 0 0 12,5.4 h 48 a 8,8 0 0 0 8,-8 v -48 a 8,8 0 0 1 8,-8 h 32 a 8,8 0 0 1 8,8 v 48 a 8,8 0 0 0 8,8 h 48 a 15.6,15.6 0 0 0 7.6,-1.9 16.1,16.1 0 0 0 8.4,-14.1 v -92.5 a 16,16 0 0 0 -5.2,-11.8 z"
         id="path1-1"
         style="fill:#e7e7e7;fill-opacity:1" /></g></g></svg>
