<?xml version="1.0" encoding="UTF-8" standalone="no"?>
<!-- Created with Inkscape (http://www.inkscape.org/) -->

<svg
   width="5.2916584mm"
   height="3.1750002mm"
   viewBox="0 0 5.2916584 3.1750002"
   version="1.1"
   id="svg1"
   xml:space="preserve"
   xmlns:inkscape="http://www.inkscape.org/namespaces/inkscape"
   xmlns:sodipodi="http://sodipodi.sourceforge.net/DTD/sodipodi-0.dtd"
   xmlns="http://www.w3.org/2000/svg"
   xmlns:svg="http://www.w3.org/2000/svg"><sodipodi:namedview
     id="namedview1"
     pagecolor="#ffffff"
     bordercolor="#000000"
     borderopacity="0.25"
     inkscape:showpageshadow="2"
     inkscape:pageopacity="0.0"
     inkscape:pagecheckerboard="0"
     inkscape:deskcolor="#d1d1d1"
     inkscape:document-units="mm" /><defs
     id="defs1" /><g
     inkscape:label="Layer 1"
     inkscape:groupmode="layer"
     id="layer1"
     transform="translate(-107.74737,-146.00994)"><path
       d="m 111.45153,146.00995 h -2.11666 a 1.5875,1.5875 0 0 0 0,3.175 h 2.11666 a 1.5875,1.5875 0 0 0 0,-3.175 z m -1.32291,1.85208 h -0.52917 v 0.52917 h -0.52917 v -0.52917 h -0.52916 v -0.52916 h 0.52916 v -0.52917 h 0.52917 v 0.52917 h 0.52917 z m 0.92604,0.52917 a 0.396875,0.396875 0 1 1 0,-0.79375 0.396875,0.396875 0 0 1 0,0.79375 z m 0.79375,-0.79375 a 0.396875,0.396875 0 1 1 0,-0.79375 0.396875,0.396875 0 0 1 0,0.79375 z"
       id="path1"
       style="fill:#808080;fill-opacity:1;stroke-width:0.264583" /></g></svg>
