<?xml version="1.0" encoding="UTF-8" standalone="no"?>
<!-- Created with Inkscape (http://www.inkscape.org/) -->

<svg
   width="11.277872mm"
   height="11.54244mm"
   viewBox="0 0 11.277872 11.54244"
   version="1.1"
   id="svg1"
   xml:space="preserve"
   inkscape:export-filename="cancelForDarkMode.svg"
   inkscape:export-xdpi="96"
   inkscape:export-ydpi="96"
   xmlns:inkscape="http://www.inkscape.org/namespaces/inkscape"
   xmlns:sodipodi="http://sodipodi.sourceforge.net/DTD/sodipodi-0.dtd"
   xmlns="http://www.w3.org/2000/svg"
   xmlns:svg="http://www.w3.org/2000/svg"><sodipodi:namedview
     id="namedview1"
     pagecolor="#ffffff"
     bordercolor="#000000"
     borderopacity="0.25"
     inkscape:showpageshadow="2"
     inkscape:pageopacity="0.0"
     inkscape:pagecheckerboard="0"
     inkscape:deskcolor="#d1d1d1"
     inkscape:document-units="mm" /><defs
     id="defs1" /><g
     inkscape:label="Layer 1"
     inkscape:groupmode="layer"
     id="layer1"
     transform="translate(-112.22747,-109.7612)"><path
       d="m 116.72539,109.7612 c -2.48667,0 -4.49792,2.01124 -4.49792,4.49791 0,2.48667 2.01125,4.49792 4.49792,4.49792 0.8878,0 1.70946,-0.26045 2.40605,-0.7028 l 3.24942,3.24941 1.12448,-1.12448 -3.20808,-3.1998 c 0.57671,-0.75654 0.92605,-1.69395 0.92605,-2.72025 0,-2.48667 -2.01125,-4.49791 -4.49792,-4.49791 z m 0,1.05833 c 1.90479,0 3.43958,1.53479 3.43958,3.43958 0,1.9048 -1.53479,3.43959 -3.43958,3.43959 -1.90479,0 -3.43958,-1.53479 -3.43958,-3.43959 0,-1.90479 1.53479,-3.43958 3.43958,-3.43958 z"
       id="path1"
       style="fill:#c7c7c7;fill-opacity:1;stroke-width:0.264583" /></g></svg>
