<?xml version="1.0" encoding="UTF-8" standalone="no"?>
<!-- Created with Inkscape (http://www.inkscape.org/) -->

<svg
   width="6.3499956mm"
   height="6.3500004mm"
   viewBox="0 0 6.3499956 6.3500004"
   version="1.1"
   id="svg1"
   xml:space="preserve"
   inkscape:export-filename="homeForDarkMode.svg"
   inkscape:export-xdpi="96"
   inkscape:export-ydpi="96"
   xmlns:inkscape="http://www.inkscape.org/namespaces/inkscape"
   xmlns:sodipodi="http://sodipodi.sourceforge.net/DTD/sodipodi-0.dtd"
   xmlns="http://www.w3.org/2000/svg"
   xmlns:svg="http://www.w3.org/2000/svg"><sodipodi:namedview
     id="namedview1"
     pagecolor="#ffffff"
     bordercolor="#000000"
     borderopacity="0.25"
     inkscape:showpageshadow="2"
     inkscape:pageopacity="0.0"
     inkscape:pagecheckerboard="0"
     inkscape:deskcolor="#d1d1d1"
     inkscape:document-units="mm" /><defs
     id="defs1" /><g
     inkscape:label="Layer 1"
     inkscape:groupmode="layer"
     id="layer1"
     transform="translate(-64.077943,-116.89006)"><g
       data-name="Square Menu"
       id="Square_Menu"
       transform="matrix(0.26458333,0,0,0.26458333,63.019607,115.83173)"
       style="fill:#131313;fill-opacity:1"><path
         d="M 12,15 H 7 A 3,3 0 0 1 4,12 V 7 A 3,3 0 0 1 7,4 h 5 a 3,3 0 0 1 3,3 v 5 a 3,3 0 0 1 -3,3 z"
         id="path1"
         style="fill:#131313;fill-opacity:1" /><path
         d="M 25,15 H 20 A 3,3 0 0 1 17,12 V 7 a 3,3 0 0 1 3,-3 h 5 a 3,3 0 0 1 3,3 v 5 a 3,3 0 0 1 -3,3 z"
         id="path2"
         style="fill:#131313;fill-opacity:1" /><path
         d="M 12,28 H 7 A 3,3 0 0 1 4,25 v -5 a 3,3 0 0 1 3,-3 h 5 a 3,3 0 0 1 3,3 v 5 a 3,3 0 0 1 -3,3 z"
         id="path3"
         style="fill:#131313;fill-opacity:1" /><path
         d="m 25,28 h -5 a 3,3 0 0 1 -3,-3 v -5 a 3,3 0 0 1 3,-3 h 5 a 3,3 0 0 1 3,3 v 5 a 3,3 0 0 1 -3,3 z"
         id="path4"
         style="fill:#131313;fill-opacity:1" /></g></g></svg>
