<?xml version="1.0" encoding="UTF-8" standalone="no"?>
<!-- Created with Inkscape (http://www.inkscape.org/) -->

<svg
   width="75mm"
   height="74.999992mm"
   viewBox="0 0 75 74.999992"
   version="1.1"
   id="svg1"
   xml:space="preserve"
   inkscape:export-filename="ControllerForClearMode.svg"
   inkscape:export-xdpi="96"
   inkscape:export-ydpi="96"
   xmlns:inkscape="http://www.inkscape.org/namespaces/inkscape"
   xmlns:sodipodi="http://sodipodi.sourceforge.net/DTD/sodipodi-0.dtd"
   xmlns="http://www.w3.org/2000/svg"
   xmlns:svg="http://www.w3.org/2000/svg"><sodipodi:namedview
     id="namedview1"
     pagecolor="#ffffff"
     bordercolor="#000000"
     borderopacity="0.25"
     inkscape:showpageshadow="2"
     inkscape:pageopacity="0.0"
     inkscape:pagecheckerboard="0"
     inkscape:deskcolor="#d1d1d1"
     inkscape:document-units="mm" /><defs
     id="defs1" /><g
     inkscape:label="Layer 1"
     inkscape:groupmode="layer"
     id="layer1"
     transform="translate(-74.609361,-152.50166)"><path
       style="fill:#121212;fill-opacity:1;stroke-width:0.850215"
       d="m 109.19725,227.42105 c -7.38953,-0.71749 -14.195915,-3.41909 -19.964632,-7.92442 -1.536344,-1.19987 -4.367256,-3.94185 -5.709677,-5.5303 -9.841201,-11.64486 -11.72002,-28.4174 -4.703937,-41.99295 1.757666,-3.40095 3.281968,-5.56777 5.894114,-8.3786 3.903067,-4.19993 8.200897,-7.21269 13.426867,-9.41217 1.635562,-0.68837 4.725795,-1.68095 5.233355,-1.68095 0.17423,0 0.65565,0.16953 1.06979,0.37673 0.57993,0.29013 0.82244,0.52072 1.05511,1.00326 0.49366,1.02381 0.40881,1.68826 -0.35359,2.76893 -1.68434,2.38749 -2.50159,3.69244 -3.1633,5.05101 -2.814905,5.77928 -3.550437,13.0154 -1.96775,19.3585 2.07847,8.33006 8.00458,15.46159 15.6834,18.87352 4.10174,1.82254 7.47838,2.546 11.72937,2.51309 3.93296,-0.0305 6.86102,-0.57664 10.15674,-1.89461 2.64417,-1.05741 4.6894,-2.2338 7.17132,-4.12486 0.66012,-0.50296 1.43672,-0.99285 1.7258,-1.08863 1.10124,-0.36488 2.40594,0.18748 2.87068,1.21533 0.38255,0.84607 0.36485,1.10004 -0.21807,3.12958 -2.42132,8.43025 -7.41494,15.6426 -14.22901,20.55119 -5.12913,3.69483 -11.0938,6.09258 -17.30082,6.95479 -2.02215,0.2809 -6.59907,0.40698 -8.40576,0.23156 z"
       id="path2" /></g></svg>
