<?xml version="1.0" encoding="UTF-8" standalone="no"?>
<!-- Created with Inkscape (http://www.inkscape.org/) -->

<svg
   width="118.3mm"
   height="118mm"
   viewBox="0 0 118.3 118"
   version="1.1"
   id="svg1"
   xml:space="preserve"
   xmlns="http://www.w3.org/2000/svg"
   xmlns:svg="http://www.w3.org/2000/svg"><defs
     id="defs1" /><g
     id="layer1"
     transform="translate(-49.16554,-11.121132)"><path
       style="fill:#121212;fill-opacity:1;stroke-width:1.33937"
       d="M 103.72217,128.9943 C 92.066411,127.86545 81.330476,123.61492 72.231287,116.52655 69.807961,114.63875 65.342668,110.3247 63.225224,107.82554 47.702369,89.504294 44.738845,63.11551 55.805547,41.756626 58.577972,36.4058 60.982304,32.99667 65.102529,28.57431 71.258967,21.966425 78.038077,17.226343 86.281174,13.765825 c 2.579826,-1.083033 7.454147,-2.644693 8.254737,-2.644693 0.27482,0 1.03418,0.266724 1.68742,0.592716 0.91475,0.456473 1.29726,0.819284 1.66426,1.578468 0.77867,1.610784 0.64483,2.656193 -0.55773,4.356456 -2.65676,3.756314 -3.94583,5.80943 -4.98958,7.946905 -4.440037,9.092758 -5.600217,20.477584 -3.103788,30.457379 3.278438,13.105957 12.625887,24.326246 24.737937,29.694348 6.46981,2.86745 11.7959,4.00571 18.50112,3.95392 6.2036,-0.048 10.82213,-0.90725 16.02057,-2.98085 4.17074,-1.663656 7.39675,-3.514518 11.31157,-6.489787 1.04122,-0.791325 2.26618,-1.562076 2.72215,-1.712768 1.73702,-0.574086 3.79497,0.294964 4.52802,1.912114 0.60342,1.331139 0.5755,1.730715 -0.34397,4.92388 -3.81923,13.263591 -11.69582,24.611017 -22.44388,32.333867 -8.09035,5.81319 -17.49862,9.58565 -27.28916,10.9422 -3.18961,0.44195 -10.40893,0.64032 -13.25868,0.36432 z"
       id="path2" /></g></svg>
