<?xml version="1.0" encoding="UTF-8" standalone="no"?>
<!-- Created with Inkscape (http://www.inkscape.org/) -->

<svg
   width="222.82675mm"
   height="273.00748mm"
   viewBox="0 0 222.82675 273.00748"
   version="1.1"
   id="svg1"
   xml:space="preserve"
   inkscape:export-filename="noImage.svg"
   inkscape:export-xdpi="96"
   inkscape:export-ydpi="96"
   xmlns:inkscape="http://www.inkscape.org/namespaces/inkscape"
   xmlns:sodipodi="http://sodipodi.sourceforge.net/DTD/sodipodi-0.dtd"
   xmlns="http://www.w3.org/2000/svg"
   xmlns:svg="http://www.w3.org/2000/svg"><sodipodi:namedview
     id="namedview1"
     pagecolor="#ffffff"
     bordercolor="#000000"
     borderopacity="0.25"
     inkscape:showpageshadow="2"
     inkscape:pageopacity="0.0"
     inkscape:pagecheckerboard="0"
     inkscape:deskcolor="#d1d1d1"
     inkscape:document-units="mm" /><defs
     id="defs1" /><g
     id="g11"
     transform="translate(5.8004052,16.886859)"><g
       inkscape:groupmode="layer"
       id="layer2"
       inkscape:label="Layer 2"
       transform="matrix(0.90804772,0,0,1.0031503,-5.5132241,-0.35201205)" /><rect
       style="fill:#e8e8e8;fill-opacity:1;stroke:#ffffff;stroke-width:13.9053;stroke-opacity:0;paint-order:fill markers stroke"
       id="rect9"
       width="208.92146"
       height="259.10217"
       x="1.1522452"
       y="-9.9342089" /><g
       inkscape:label="Layer 1"
       inkscape:groupmode="layer"
       id="layer1"
       transform="matrix(0.90804772,0,0,1.0031503,-19.289146,-14.400058)"><path
         style="fill:#c7c7c7;fill-opacity:1;stroke-width:0.419428"
         d="m 102.61726,145.8719 c -4.255706,-0.0452 -7.217229,-0.11971 -7.70522,-0.19379 -0.809509,-0.12287 -2.765351,-0.71301 -3.990468,-1.20405 -1.876624,-0.75219 -4.353105,-2.39242 -5.896657,-3.90551 -3.558265,-3.48806 -5.55149,-8.37421 -5.080711,-12.45478 0.344932,-2.98973 1.406581,-9.95383 2.475701,-16.2398 1.163872,-6.8431 1.526701,-8.19099 2.813396,-10.45178 0.843249,-1.481627 1.745902,-2.584231 3.176721,-3.880406 2.434909,-2.205781 5.018028,-3.514092 8.466293,-4.28805 1.955728,-0.438955 5.387985,-0.479145 41.123925,-0.48144 34.26547,-0.0032 37.051,0.02895 39.20431,0.438707 3.38942,0.644936 5.89162,1.869212 8.57875,4.197416 1.73021,1.499087 2.43484,2.348489 3.35857,4.048493 1.59339,2.93245 1.66013,3.18067 3.09852,11.52074 1.3459,7.80379 2.17836,13.18447 2.34988,15.18868 0.22346,2.61111 -0.97211,6.55607 -2.82933,9.33574 -1.05193,1.5744 -3.11301,3.69805 -4.66975,4.81151 -1.52706,1.09225 -3.8415,2.21437 -5.72404,2.77527 -1.79382,0.53443 -2.86196,0.70043 -5.11345,0.79463 -2.45608,0.10277 -63.78553,0.0931 -73.63644,-0.0116 z m 74.59416,-6.61306 c 1.46574,-0.078 2.02151,-0.15322 2.75331,-0.37249 3.01352,-0.90296 5.27606,-2.77654 6.4762,-5.3629 1.08717,-2.34292 1.15499,-3.83705 0.40535,-8.93093 -0.80666,-5.48131 -2.89553,-17.46621 -3.2705,-18.76436 -0.70995,-2.45805 -2.50843,-4.52788 -4.79274,-5.51589 -1.93122,-0.835283 -1.37715,-0.792266 -11.72658,-0.910309 -11.0344,-0.125853 -63.81029,-0.03806 -66.8996,0.111272 -2.867044,0.138589 -3.559148,0.249996 -4.708218,0.757877 -2.148296,0.94951 -3.788835,2.8909 -4.481344,5.30317 -0.519942,1.81114 -2.481726,13.37677 -3.529011,20.80515 -0.590817,4.19069 -0.396192,6.07704 0.839673,8.13822 0.976642,1.62885 2.569046,3.02304 4.438023,3.8856 1.726628,0.79686 2.584234,0.86132 12.771757,0.95974 11.00959,0.10637 69.36081,0.0217 71.72368,-0.10415 z m -52.52546,-3.52738 c -0.65545,-0.1861 -1.65189,-0.96032 -2.01018,-1.56192 -0.37006,-0.62133 -0.37351,-2.23528 -0.006,-2.84985 0.3549,-0.59366 1.00873,-1.1641 1.71781,-1.49873 0.58456,-0.27587 0.68704,-0.28817 2.68465,-0.32226 3.29414,-0.0562 4.58057,0.22869 5.34501,1.18368 0.51259,0.64035 0.72087,1.22279 0.72087,2.01586 0,1.23286 -0.65254,2.27192 -1.7781,2.83129 l -0.62371,0.30997 -2.75332,0.0232 c -2.15278,0.0181 -2.87188,-0.0106 -3.29692,-0.1312 z m 22.5115,0.0148 c -1.18315,-0.23537 -1.71454,-0.6317 -2.21918,-1.6552 -0.9261,-1.87829 0.1797,-3.9235 2.409,-4.45543 1.68077,-0.40107 4.85274,-0.29559 6.07909,0.20212 1.26333,0.51275 1.9847,1.56969 1.97991,2.90096 -0.005,1.42539 -0.9212,2.62565 -2.28035,2.98776 -0.7746,0.20638 -4.96075,0.22026 -5.96847,0.0198 z m -37.33576,-10.0344 c -0.69476,-0.21539 -1.30998,-0.60676 -1.72948,-1.10019 -0.45922,-0.54015 -0.65609,-1.42409 -0.73428,-3.29712 -0.0391,-0.9357 -0.1026,-1.74706 -0.14119,-1.80299 -0.0386,-0.056 -0.9997,-0.15315 -2.13579,-0.21601 -3.05839,-0.16924 -3.92244,-0.46881 -4.60714,-1.59746 -0.44048,-0.72606 -0.541204,-1.86127 -0.24599,-2.77231 0.28609,-0.88292 1.13697,-1.62768 2.14991,-1.8818 0.59118,-0.1483 2.74552,-0.31645 4.85672,-0.37904 0.0484,-0.002 0.0888,-0.70029 0.0899,-1.55302 0.005,-2.86075 0.53635,-4.00861 2.16547,-4.66694 0.8354,-0.33758 2.2462,-0.34173 2.99932,-0.009 0.73155,0.32338 1.36804,0.91025 1.71511,1.58137 0.25618,0.4954 0.30221,0.7854 0.40873,2.57524 0.0661,1.10935 0.13176,2.02952 0.14612,2.04485 0.0144,0.0154 0.91717,0.0715 2.0063,0.12477 2.24919,0.11008 2.94301,0.22265 3.64605,0.59154 1.2332,0.64709 1.84604,2.28353 1.38114,3.688 -0.49584,1.49793 -1.94557,2.23768 -4.39433,2.24227 -0.41886,0.002 -1.18816,0.0312 -1.70954,0.0676 l -0.94799,0.0663 -0.12617,2.00911 c -0.0694,1.10501 -0.19159,2.17467 -0.27151,2.377 -0.37868,0.95861 -1.18949,1.62985 -2.33851,1.93597 -0.80278,0.21389 -1.42786,0.20578 -2.18286,-0.0283 z m 51.7825,-0.0262 c -0.83019,-0.28634 -1.67947,-1.12286 -1.96403,-1.93451 -0.45275,-1.29138 0.092,-2.95175 1.20653,-3.67775 0.72912,-0.47492 1.34813,-0.61576 2.45384,-0.55835 1.03281,0.0537 1.91977,0.40524 2.45555,0.97338 1.29606,1.37433 1.18798,3.53633 -0.2313,4.62622 -1.00897,0.77482 -2.64069,1.01247 -3.92059,0.57101 z m -7.00694,-6.5419 c -0.73104,-0.21727 -1.13631,-0.43928 -1.59805,-0.87546 -0.56424,-0.53298 -0.78714,-0.9525 -0.89645,-1.68721 -0.23167,-1.55713 0.53875,-2.94991 1.9568,-3.53759 0.76457,-0.31683 2.30998,-0.30677 3.0603,0.0199 0.83079,0.36175 1.35935,0.8133 1.71709,1.46687 0.28727,0.52483 0.32964,0.72384 0.32964,1.54826 0,0.85324 -0.0344,1.00239 -0.35149,1.52106 -0.39975,0.65404 -1.22864,1.27277 -1.97366,1.47322 -0.72969,0.19634 -1.71714,0.22754 -2.24418,0.0709 z m 14.87961,0 c -0.73105,-0.21727 -1.13634,-0.43928 -1.59807,-0.87546 -0.71135,-0.67196 -0.93557,-1.22114 -0.93557,-2.29154 0,-1.27447 0.78541,-2.43204 1.98809,-2.93015 0.77266,-0.31999 2.31399,-0.31154 3.06813,0.0168 0.83079,0.36175 1.35936,0.81329 1.7171,1.46687 0.28728,0.52484 0.32965,0.72384 0.32965,1.54826 0,0.85324 -0.0344,1.00238 -0.35149,1.52107 -0.39976,0.65404 -1.22865,1.27275 -1.97367,1.47321 -0.72969,0.19634 -1.71713,0.22753 -2.24417,0.0709 z m -7.84144,-6.79853 c -0.70837,-0.24814 -1.39172,-0.82488 -1.80363,-1.52227 -0.26509,-0.44879 -0.31067,-0.65637 -0.31207,-1.42121 -0.002,-0.80463 0.0381,-0.96816 0.38968,-1.60882 0.66879,-1.21876 1.70372,-1.71572 3.38664,-1.62617 1.44006,0.0766 2.36632,0.6173 2.98312,1.74135 0.33618,0.61265 0.38299,0.79981 0.37642,1.50518 -0.009,0.98564 -0.39419,1.78647 -1.1308,2.35213 -1.00006,0.76799 -2.64999,1.01395 -3.88936,0.57981 z M 136.34165,89.115939 c -1.09462,-0.201093 -1.99325,-0.795444 -2.43927,-1.613316 -0.63751,-1.169011 -0.67108,-4.791956 -0.0644,-6.954892 0.52066,-1.856336 1.88709,-3.716933 3.90369,-5.315467 2.69278,-2.134509 3.75667,-2.374187 11.15468,-2.512994 6.59671,-0.123785 7.11142,-0.155826 7.89075,-0.491197 0.75137,-0.323332 1.73254,-1.187909 2.10267,-1.852791 0.34528,-0.620264 0.49108,-1.438355 0.49193,-2.76038 0.002,-1.900177 -0.3412,-2.858374 -1.34243,-3.756634 -0.90915,-0.815637 -1.55361,-1.028095 -3.42998,-1.130715 -0.88674,-0.04849 -7.38543,-0.09314 -14.44152,-0.09921 -7.05609,-0.0061 -15.25451,-0.05237 -18.21871,-0.102872 -4.91344,-0.0837 -5.46426,-0.111015 -6.23628,-0.30917 -2.13553,-0.548135 -4.4055,-1.70194 -5.54516,-2.81856 -1.85853,-1.820948 -2.58187,-3.810441 -2.75994,-7.591049 -0.0871,-1.850321 0.0654,-3.228765 0.44512,-4.020553 0.86568,-1.805352 3.98191,-2.232406 5.70014,-0.781157 0.87175,0.736297 1.00643,1.308329 1.18539,5.034727 0.13077,2.723276 0.18796,2.962058 0.84071,3.510793 l 0.39475,0.331841 18.86311,0.119481 c 10.37471,0.06571 19.52214,0.16246 20.32764,0.21499 1.70837,0.111413 2.35565,0.265719 3.84854,0.917483 3.53686,1.544122 6.50369,4.799047 7.35573,8.069999 0.32351,1.24196 0.29324,3.984595 -0.0568,5.141367 -0.31963,1.05646 -1.22051,2.734753 -1.98702,3.701749 -2.11829,2.672307 -5.33783,4.58035 -8.39897,4.977605 -0.45108,0.05853 -3.19267,0.153338 -6.09244,0.210673 -6.78009,0.134058 -7.61182,0.233716 -8.36391,1.002209 -0.47212,0.482412 -0.58788,1.079767 -0.72189,3.724954 -0.12875,2.541735 -0.22735,3.11524 -0.64574,3.755723 -0.67309,1.03043 -2.35526,1.655516 -3.76042,1.397365 z"
         id="path1" /></g><text
       xml:space="preserve"
       style="font-weight:bold;font-size:6.16826px;line-height:9.70408px;font-family:Orbitron;-inkscape-font-specification:'Orbitron Bold';letter-spacing:0.289137px;fill:#b2b2b2;fill-opacity:1;stroke:#ffffff;stroke-width:3.75049;stroke-opacity:0;paint-order:fill markers stroke"
       x="74.702042"
       y="136.65649"
       id="text11"
       transform="scale(0.96113182,1.04044)"><tspan
         sodipodi:role="line"
         id="tspan11"
         style="fill:#b2b2b2;fill-opacity:1;stroke-width:3.7505"
         x="74.702042"
         y="136.65649">IMAGE NOT FOUND</tspan></text></g></svg>
