<?xml version="1.0" encoding="UTF-8" standalone="no"?>
<!-- Created with Inkscape (http://www.inkscape.org/) -->

<svg
   width="563.14844mm"
   height="230.63805mm"
   viewBox="0 0 563.14844 230.63805"
   version="1.1"
   id="svg1"
   xml:space="preserve"
   inkscape:export-filename="NoImageForDarkModeGame.svg"
   inkscape:export-xdpi="96"
   inkscape:export-ydpi="96"
   xmlns:inkscape="http://www.inkscape.org/namespaces/inkscape"
   xmlns:sodipodi="http://sodipodi.sourceforge.net/DTD/sodipodi-0.dtd"
   xmlns="http://www.w3.org/2000/svg"
   xmlns:svg="http://www.w3.org/2000/svg"><sodipodi:namedview
     id="namedview1"
     pagecolor="#ffffff"
     bordercolor="#000000"
     borderopacity="0.25"
     inkscape:showpageshadow="2"
     inkscape:pageopacity="0.0"
     inkscape:pagecheckerboard="0"
     inkscape:deskcolor="#d1d1d1"
     inkscape:document-units="mm" /><defs
     id="defs1" /><g
     inkscape:label="Layer 1"
     inkscape:groupmode="layer"
     id="layer1"
     transform="translate(167.62641,18.358394)"><g
       id="g1"
       transform="translate(16.758429,-42.595295)"><rect
         style="fill:#131313;fill-opacity:1;stroke:none;stroke-width:21.5393;stroke-opacity:0;paint-order:fill markers stroke"
         id="rect9"
         width="563.14844"
         height="230.63803"
         x="-184.38484"
         y="24.236902" /><g
         inkscape:label="Layer 1"
         inkscape:groupmode="layer"
         id="layer1-1"
         transform="matrix(0.90804772,0,0,1.0031503,-21.460153,14.774813)"><path
           style="fill:#3e3e3e;fill-opacity:1;stroke-width:0.473366"
           d="m 91.924878,154.58564 c -4.78004,-0.0512 -8.106445,-0.13575 -8.654559,-0.21976 -0.909245,-0.13934 -3.106061,-0.80857 -4.48212,-1.36542 -2.107836,-0.853 -4.889436,-2.71305 -6.623163,-4.42892 -3.996668,-3.95553 -6.23547,-9.49652 -5.706688,-14.12399 0.387429,-3.39041 1.579881,-11.28783 2.780724,-18.41626 1.307268,-7.7602 1.7148,-9.28873 3.160024,-11.85251 0.947143,-1.68021 1.96101,-2.93057 3.568113,-4.400459 2.734906,-2.50141 5.636282,-3.98506 9.509396,-4.862741 2.196688,-0.497784 6.051822,-0.543361 46.190675,-0.545963 38.48719,-0.0036 41.61591,0.03283 44.03453,0.497503 3.80702,0.731367 6.61752,2.119721 9.63571,4.759963 1.94339,1.699987 2.73482,2.663237 3.77236,4.591067 1.78972,3.32545 1.86467,3.60694 3.48029,13.06474 1.51172,8.84966 2.44674,14.95146 2.6394,17.22428 0.25098,2.96104 -1.09189,7.43471 -3.17792,10.58691 -1.18155,1.7854 -3.49656,4.19366 -5.24511,5.45635 -1.7152,1.23863 -4.31479,2.51114 -6.42928,3.14721 -2.01482,0.60606 -3.21457,0.7943 -5.74346,0.90113 -2.75867,0.11656 -71.64433,0.10555 -82.708922,-0.0131 z m 83.784652,-7.49935 c 1.64632,-0.0884 2.27058,-0.17374 3.09253,-0.42241 3.3848,-1.02398 5.92611,-3.14865 7.27411,-6.08164 1.22111,-2.65692 1.29729,-4.35129 0.45528,-10.12785 -0.90603,-6.21592 -3.25226,-19.80704 -3.67344,-21.27916 -0.7974,-2.78748 -2.81747,-5.13471 -5.38323,-6.25512 -2.16916,-0.94724 -1.54682,-0.89845 -13.17138,-1.03232 -12.39391,-0.14271 -71.672126,-0.0432 -75.142069,0.12618 -3.220279,0.15717 -3.997655,0.28351 -5.288297,0.85945 -2.41298,1.07678 -4.255645,3.27835 -5.033476,6.01391 -0.584001,2.05387 -2.78749,15.16953 -3.963807,23.59346 -0.66361,4.75232 -0.445005,6.89148 0.943126,9.2289 1.09697,1.84715 2.88557,3.42818 4.984816,4.40635 1.93936,0.90366 2.902628,0.97675 14.345321,1.08836 12.366046,0.12068 77.906526,0.0247 80.560516,-0.11805 z m -58.99694,-4.00013 c -0.73621,-0.21103 -1.85542,-1.089 -2.25785,-1.77123 -0.41566,-0.70461 -0.41953,-2.53486 -0.006,-3.23179 0.39863,-0.67322 1.13301,-1.32012 1.92946,-1.69958 0.65658,-0.31285 0.77169,-0.32681 3.01541,-0.36547 3.69999,-0.0637 5.14493,0.25935 6.00356,1.34233 0.57574,0.72617 0.80967,1.38665 0.80967,2.28603 0,1.39808 -0.73293,2.57639 -1.99717,3.21073 l -0.70055,0.35151 -3.09254,0.0262 c -2.41802,0.0206 -3.22572,-0.0125 -3.70312,-0.1488 z m 25.28507,0.0168 c -1.32892,-0.26691 -1.92579,-0.71635 -2.49261,-1.87704 -1.04019,-2.13 0.20184,-4.44932 2.7058,-5.05253 1.88786,-0.45482 5.45064,-0.3352 6.82808,0.2292 1.41898,0.58147 2.22923,1.78006 2.22385,3.28975 -0.005,1.61642 -1.03469,2.97754 -2.56131,3.38818 -0.87003,0.23404 -5.57195,0.24978 -6.70381,0.0223 z m -41.93578,-11.3792 c -0.780366,-0.24427 -1.471375,-0.68809 -1.942574,-1.24765 -0.515786,-0.61254 -0.736923,-1.61494 -0.824741,-3.739 -0.0439,-1.0611 -0.115269,-1.9812 -0.158579,-2.04462 -0.04338,-0.0636 -1.122877,-0.17368 -2.398934,-0.24496 -3.435214,-0.19193 -4.405721,-0.53164 -5.174774,-1.81155 -0.494751,-0.82337 -0.607883,-2.11072 -0.276303,-3.14385 0.321337,-1.00126 1.277052,-1.84583 2.414801,-2.13401 0.664012,-0.16816 3.083787,-0.35887 5.455089,-0.42983 0.05442,-0.002 0.0998,-0.79415 0.100909,-1.76116 0.0052,-3.24416 0.602431,-4.54585 2.432259,-5.2924 0.938337,-0.38283 2.522947,-0.38754 3.368857,-0.01 0.82168,0.36672 1.5366,1.03224 1.92643,1.79331 0.28774,0.56179 0.33944,0.89067 0.45909,2.92038 0.0743,1.25802 0.148,2.30151 0.16412,2.31889 0.0162,0.0175 1.03018,0.0811 2.2535,0.14149 2.5263,0.12481 3.30559,0.25249 4.09526,0.67082 1.38514,0.73382 2.07349,2.58957 1.55131,4.18227 -0.55693,1.69869 -2.18529,2.53758 -4.93574,2.54277 -0.47047,0.002 -1.33456,0.0355 -1.92018,0.0766 l -1.06479,0.0752 -0.14171,2.27837 c -0.078,1.2531 -0.2152,2.46612 -0.30496,2.69557 -0.42534,1.08708 -1.33603,1.84827 -2.62663,2.19542 -0.90169,0.24257 -1.60378,0.23337 -2.4518,-0.0322 z m 58.16245,-0.0298 c -0.93249,-0.32472 -1.88641,-1.27335 -2.20601,-2.19376 -0.50854,-1.46446 0.10331,-3.34735 1.35517,-4.17065 0.81896,-0.53858 1.51424,-0.69829 2.75618,-0.63319 1.16005,0.0609 2.15628,0.45956 2.75808,1.10384 1.45574,1.55851 1.33436,4.01027 -0.2598,5.24623 -1.13329,0.87866 -2.96604,1.14815 -4.40362,0.64753 z m -7.87025,-7.41865 c -0.82111,-0.24639 -1.27632,-0.49815 -1.79493,-0.99278 -0.63376,-0.60442 -0.88414,-1.08016 -1.00692,-1.91334 -0.26019,-1.76582 0.60514,-3.34526 2.1979,-4.0117 0.85877,-0.35928 2.59458,-0.34788 3.43736,0.0226 0.93314,0.41023 1.52681,0.9223 1.92864,1.66346 0.32266,0.59517 0.37025,0.82086 0.37025,1.75576 0,0.9676 -0.0386,1.13673 -0.3948,1.72492 -0.44899,0.7417 -1.38,1.44334 -2.21682,1.67065 -0.8196,0.22266 -1.9287,0.25804 -2.52068,0.0804 z m 16.71288,0 c -0.82112,-0.24639 -1.27635,-0.49815 -1.79497,-0.99278 -0.79898,-0.76201 -1.05084,-1.38479 -1.05084,-2.59866 0,-1.44527 0.88218,-2.75798 2.23304,-3.32284 0.86787,-0.36288 2.59909,-0.35329 3.44614,0.019 0.93314,0.41023 1.52685,0.92228 1.92867,1.66345 0.32267,0.59519 0.37026,0.82087 0.37026,1.75576 0,0.96759 -0.0385,1.13672 -0.3948,1.72493 -0.449,0.74169 -1.38003,1.44332 -2.21684,1.67065 -0.81959,0.22266 -1.92868,0.25802 -2.52066,0.0804 z m -8.80756,-7.70967 c -0.79565,-0.28139 -1.56318,-0.93542 -2.02585,-1.72628 -0.29774,-0.50894 -0.34894,-0.74434 -0.35051,-1.61168 -0.002,-0.91246 0.0428,-1.09791 0.43768,-1.82443 0.75119,-1.3821 1.91364,-1.94567 3.80391,-1.84411 1.61747,0.087 2.65786,0.70003 3.35065,1.97472 0.37759,0.69477 0.43018,0.90702 0.4228,1.7069 -0.0102,1.11775 -0.44275,2.0259 -1.27013,2.66737 -1.12326,0.87091 -2.97648,1.14984 -4.36855,0.65751 z m -28.45507,-26.3424 c -1.22948,-0.228044 -2.23883,-0.902049 -2.73981,-1.829534 -0.71604,-1.325681 -0.75376,-5.434173 -0.0723,-7.886986 0.5848,-2.105123 2.11959,-4.215078 4.38464,-6.027847 3.02454,-2.420576 4.21952,-2.692374 12.52901,-2.849785 7.40946,-0.140376 7.98761,-0.17671 8.86294,-0.557028 0.84395,-0.366665 1.94601,-1.347113 2.36174,-2.101102 0.38781,-0.703392 0.55158,-1.631123 0.55254,-3.130327 0.002,-2.154839 -0.38324,-3.241453 -1.50784,-4.260098 -1.02115,-0.924949 -1.74501,-1.16588 -3.85256,-1.282254 -0.99599,-0.05499 -8.29537,-0.105627 -16.22081,-0.112505 -7.92546,-0.0069 -17.13396,-0.0594 -20.46339,-0.116658 -5.5188,-0.09492 -6.13748,-0.125894 -7.00462,-0.350605 -2.39864,-0.621597 -4.94828,-1.930034 -6.22837,-3.196304 -2.087509,-2.064991 -2.899961,-4.321116 -3.099978,-8.608403 -0.09776,-2.0983 0.07339,-3.661484 0.49996,-4.559387 0.972342,-2.047306 4.472528,-2.531593 6.402438,-0.885849 0.97916,0.834976 1.13043,1.483673 1.33145,5.709483 0.14688,3.08825 0.21112,3.359033 0.94428,3.981311 l 0.44339,0.376313 21.18716,0.135494 c 11.65296,0.07451 21.9274,0.184232 22.83214,0.243803 1.91886,0.126344 2.6459,0.301331 4.32271,1.040444 3.97263,1.751066 7.30498,5.442216 8.26199,9.151541 0.36338,1.408407 0.32938,4.518612 -0.0637,5.830413 -0.35901,1.198047 -1.37088,3.101265 -2.23184,4.197859 -2.37929,3.030449 -5.99549,5.194209 -9.43379,5.644703 -0.50664,0.06637 -3.58601,0.173888 -6.84307,0.238909 -7.61543,0.152023 -8.54964,0.265037 -9.39439,1.136525 -0.53028,0.547065 -0.66031,1.224476 -0.81083,4.224173 -0.14461,2.882378 -0.25535,3.532744 -0.7253,4.259065 -0.75602,1.168527 -2.64543,1.877388 -4.22373,1.584639 z"
           id="path1" /></g><text
         xml:space="preserve"
         style="font-weight:bold;font-size:8.28044px;line-height:13.027px;font-family:Orbitron;-inkscape-font-specification:'Orbitron Bold';letter-spacing:0.388145px;fill:#3e3e3e;fill-opacity:1;stroke:#ffffff;stroke-width:5.03476;stroke-opacity:0;paint-order:fill markers stroke"
         x="65.113449"
         y="159.53963"
         id="text11"
         transform="scale(0.8719486,1.1468566)"><tspan
           sodipodi:role="line"
           id="tspan11"
           style="fill:#3e3e3e;fill-opacity:1;stroke-width:5.03477"
           x="65.113449"
           y="159.53963">IMAGE NOT FOUND</tspan></text></g></g></svg>
