<?xml version="1.0" encoding="UTF-8" standalone="no"?>
<!-- Created with Inkscape (http://www.inkscape.org/) -->

<svg
   width="1094.6628mm"
   height="600.30328mm"
   viewBox="0 0 1094.6628 785.30328"
   version="1.1"
   id="svg1"
   xml:space="preserve"
   inkscape:export-filename="noscreenshot.svg"
   inkscape:export-xdpi="96"
   inkscape:export-ydpi="96"
   xmlns:inkscape="http://www.inkscape.org/namespaces/inkscape"
   xmlns:sodipodi="http://sodipodi.sourceforge.net/DTD/sodipodi-0.dtd"
   xmlns="http://www.w3.org/2000/svg"
   xmlns:svg="http://www.w3.org/2000/svg"><sodipodi:namedview
     id="namedview1"
     pagecolor="#ffffff"
     bordercolor="#000000"
     borderopacity="0.25"
     inkscape:showpageshadow="2"
     inkscape:pageopacity="0.0"
     inkscape:pagecheckerboard="0"
     inkscape:deskcolor="#d1d1d1"
     inkscape:document-units="mm" /><defs
     id="defs1" /><g
     id="g11"
     transform="matrix(2.123673,0,0,2.2971476,312.60685,148.70269)"><g
       inkscape:groupmode="layer"
       id="layer2"
       inkscape:label="Layer 2"
       transform="matrix(0.90804772,0,0,1.0031503,-5.5132241,-0.35201205)" /><rect
       style="fill:#e8e8e8;fill-opacity:1;stroke:#ffffff;stroke-width:23.6437;stroke-opacity:0;paint-order:fill markers stroke"
       id="rect9"
       width="491.81369"
       height="318.21646"
       x="-135.37918"
       y="-52.911777" /><g
       inkscape:label="Layer 1"
       inkscape:groupmode="layer"
       id="layer1"
       transform="matrix(0.90804772,0,0,1.0031503,-19.289146,-14.400058)"><path
         style="fill:#c7c7c7;fill-opacity:1;stroke-width:0.470095"
         d="m 105.14682,160.66969 c -4.8287,-0.05 -8.188955,-0.13254 -8.742645,-0.21455 -0.918506,-0.13603 -3.137683,-0.78939 -4.52775,-1.33304 -2.129293,-0.83277 -4.939208,-2.64871 -6.690584,-4.3239 -4.037351,-3.86172 -6.298944,-9.27131 -5.76478,-13.78902 0.391374,-3.31002 1.595964,-11.02016 2.80903,-17.97953 1.320576,-7.57618 1.732257,-9.06847 3.192193,-11.57145 0.956784,-1.64035 1.98097,-2.86108 3.604435,-4.29611 2.762746,-2.44208 5.693657,-3.89054 9.606195,-4.74741 2.219046,-0.48598 6.113416,-0.53048 46.660856,-0.53302 38.87898,-0.004 42.03956,0.032 44.48279,0.48571 3.84577,0.71402 6.68487,2.06945 9.73379,4.64707 1.96317,1.65968 2.76267,2.60008 3.81077,4.4822 1.80793,3.24659 1.88365,3.5214 3.51571,12.75492 1.52711,8.63979 2.47165,14.59689 2.66627,16.81581 0.25354,2.89083 -1.103,7.2584 -3.21028,10.33585 -1.19356,1.74306 -3.53214,4.09421 -5.29848,5.32696 -1.73267,1.20925 -4.35872,2.45158 -6.49473,3.07257 -2.03534,0.59168 -3.24729,0.77547 -5.80192,0.87976 -2.78677,0.11378 -72.37363,0.10307 -83.55087,-0.0128 z m 84.63753,-7.3215 c 1.66309,-0.0864 2.29369,-0.16964 3.12402,-0.4124 3.41926,-0.99969 5.98643,-3.07398 7.34816,-5.93741 1.23354,-2.59391 1.31049,-4.2481 0.45992,-9.88768 -0.91527,-6.0685 -3.28538,-19.33731 -3.71084,-20.77453 -0.80554,-2.72138 -2.84616,-5.01294 -5.43803,-6.1068 -2.19124,-0.92476 -1.56257,-0.87713 -13.30545,-1.00782 -12.52008,-0.13934 -72.40173,-0.0421 -75.90698,0.12319 -3.253058,0.15343 -4.038346,0.27678 -5.342125,0.83907 -2.437547,1.05122 -4.298969,3.20059 -5.084718,5.87128 -0.589947,2.00516 -2.815866,14.80979 -4.004157,23.03395 -0.670365,4.63963 -0.449536,6.72806 0.952726,9.01005 1.108138,1.80334 2.914943,3.34689 5.03556,4.30185 1.959101,0.88223 2.932179,0.95359 14.491344,1.06256 12.49192,0.11776 78.69957,0.024 81.38057,-0.11531 z m -59.5975,-3.90526 c -0.7437,-0.20604 -1.8743,-1.0632 -2.28083,-1.72924 -0.41988,-0.6879 -0.4238,-2.47474 -0.007,-3.15515 0.40269,-0.65726 1.14455,-1.28881 1.9491,-1.65929 0.66326,-0.30542 0.77954,-0.31904 3.04611,-0.35678 3.73767,-0.0622 5.1973,0.25319 6.06466,1.31049 0.58161,0.70894 0.81793,1.35378 0.81793,2.23181 0,1.36493 -0.7404,2.5153 -2.0175,3.1346 l -0.70769,0.34317 -3.12402,0.0257 c -2.44264,0.02 -3.25856,-0.0117 -3.74082,-0.14526 z m 25.54246,0.0164 c -1.34245,-0.26059 -1.94539,-0.69938 -2.51797,-1.83252 -1.0508,-2.07951 0.20389,-4.34382 2.73334,-4.93273 1.90707,-0.44404 5.50612,-0.32726 6.89758,0.22377 1.43343,0.56768 2.25192,1.73785 2.24649,3.21173 -0.006,1.57809 -1.04523,2.90693 -2.58738,3.30784 -0.87889,0.22848 -5.62866,0.24385 -6.77206,0.0219 z m -42.36266,-11.10936 c -0.7883,-0.23847 -1.48636,-0.67176 -1.96234,-1.21805 -0.52105,-0.59802 -0.74442,-1.57665 -0.83314,-3.65034 -0.0444,-1.03594 -0.11642,-1.93421 -0.1602,-1.99614 -0.0438,-0.062 -1.1343,-0.16955 -2.42335,-0.23915 -3.47018,-0.18737 -4.45057,-0.51903 -5.22746,-1.76859 -0.49978,-0.80384 -0.61406,-2.06066 -0.2791,-3.0693 0.3246,-0.9775 1.29004,-1.80205 2.43937,-2.08339 0.67078,-0.16419 3.11518,-0.35035 5.51063,-0.41965 0.0549,-0.002 0.10076,-0.77531 0.10201,-1.71939 0.006,-3.16721 0.60856,-4.43804 2.45703,-5.16689 0.94788,-0.37375 2.54863,-0.37834 3.40315,-0.01 0.83004,0.35802 1.55223,1.00776 1.94603,1.75078 0.29067,0.54847 0.3429,0.86954 0.46376,2.85112 0.075,1.22819 0.1495,2.24694 0.16579,2.26391 0.0163,0.017 1.04066,0.0792 2.27643,0.13813 2.55202,0.12188 3.33926,0.24651 4.13696,0.65491 1.39924,0.71642 2.09459,2.52816 1.5671,4.08309 -0.5626,1.6584 -2.20753,2.4774 -4.98599,2.48248 -0.47525,0.002 -1.34813,0.0345 -1.93971,0.0748 l -1.07563,0.0734 -0.14316,2.22434 c -0.0787,1.22339 -0.21738,2.40764 -0.30806,2.63165 -0.42967,1.0613 -1.34965,1.80445 -2.65337,2.14336 -0.91087,0.2368 -1.62011,0.22783 -2.47676,-0.0313 z m 58.75451,-0.029 c -0.94197,-0.31702 -1.9056,-1.24315 -2.22847,-2.14175 -0.51371,-1.42972 0.10439,-3.26796 1.36898,-4.07174 0.82729,-0.52579 1.52964,-0.68172 2.78422,-0.61816 1.17187,0.0594 2.17825,0.44865 2.78617,1.07765 1.47056,1.52156 1.34793,3.91517 -0.26244,5.12182 -1.14482,0.85782 -2.99624,1.12093 -4.44846,0.63218 z m -7.95036,-7.24272 c -0.82946,-0.24054 -1.2893,-0.48634 -1.81321,-0.96924 -0.64021,-0.59008 -0.89312,-1.05454 -1.01715,-1.86796 -0.26286,-1.72394 0.61129,-3.26593 2.22027,-3.91656 0.86751,-0.35077 2.62099,-0.33964 3.47234,0.022 0.94264,0.4005 1.54237,0.90043 1.94828,1.62401 0.32594,0.58106 0.37402,0.80139 0.37402,1.71412 0,0.94465 -0.039,1.10978 -0.39882,1.68401 -0.45357,0.72411 -1.39406,1.40912 -2.23939,1.63104 -0.82794,0.21738 -1.94834,0.25192 -2.54634,0.0785 z m 16.88301,0 c -0.82948,-0.24054 -1.28934,-0.48634 -1.81324,-0.96924 -0.80712,-0.74395 -1.06153,-1.35196 -1.06153,-2.53703 0,-1.411 0.89115,-2.69258 2.25576,-3.24405 0.87669,-0.35427 2.62555,-0.34491 3.48123,0.0186 0.94265,0.4005 1.54238,0.90042 1.94829,1.62401 0.32596,0.58107 0.37403,0.80139 0.37403,1.71412 0,0.94465 -0.039,1.10977 -0.39881,1.68402 -0.45359,0.72411 -1.39408,1.4091 -2.23941,1.63103 -0.82793,0.21738 -1.94832,0.25191 -2.54632,0.0785 z m -8.89722,-7.52684 c -0.80374,-0.27472 -1.5791,-0.91324 -2.04647,-1.68534 -0.30078,-0.49687 -0.3525,-0.72669 -0.35408,-1.57346 -0.002,-0.89083 0.0432,-1.07188 0.44214,-1.78117 0.75884,-1.34932 1.93311,-1.89952 3.84262,-1.80038 1.63395,0.0848 2.68492,0.68343 3.38477,1.9279 0.38144,0.67828 0.43455,0.88549 0.4271,1.66642 -0.0102,1.09123 -0.44726,1.97785 -1.28305,2.60411 -1.13471,0.85026 -3.00679,1.12257 -4.41303,0.64192 z m -28.74472,-25.7178 c -1.242,-0.222635 -2.26162,-0.880657 -2.7677,-1.786146 -0.72334,-1.294244 -0.76143,-5.305306 -0.0731,-7.699951 0.59076,-2.055201 2.14117,-4.115119 4.42929,-5.884899 3.05533,-2.363174 4.26247,-2.628528 12.65654,-2.782205 7.4849,-0.137046 8.06891,-0.172519 8.95317,-0.543817 0.85253,-0.35797 1.96581,-1.315167 2.38577,-2.051276 0.39177,-0.686711 0.5572,-1.592442 0.55817,-3.056092 0.002,-2.103738 -0.38714,-3.164584 -1.52318,-4.159073 -1.03156,-0.903014 -1.76279,-1.138232 -3.89179,-1.251845 -1.00613,-0.05368 -8.37981,-0.103118 -16.38593,-0.109838 -8.00613,-0.0068 -17.30838,-0.05798 -20.67168,-0.113893 -5.57499,-0.09267 -6.19997,-0.122907 -7.07594,-0.34229 -2.42306,-0.606856 -4.99866,-1.884265 -6.29176,-3.120505 -2.10876,-2.016022 -2.92949,-4.218644 -3.13154,-8.404258 -0.0988,-2.048541 0.0742,-3.574654 0.50505,-4.451265 0.98224,-1.998754 4.51804,-2.471557 6.46761,-0.86484 0.98912,0.815175 1.14194,1.448487 1.34499,5.574084 0.14838,3.015014 0.21327,3.279376 0.9539,3.886895 l 0.4479,0.36739 21.40285,0.132281 c 11.77156,0.07275 22.1506,0.179864 23.06456,0.238021 1.93838,0.123349 2.67281,0.294185 4.3667,1.015771 4.01307,1.70954 7.37935,5.313156 8.34611,8.934517 0.36707,1.375008 0.33272,4.411454 -0.0644,5.692148 -0.36266,1.169636 -1.38484,3.02772 -2.25455,4.098308 -2.4035,2.958584 -6.05652,5.07103 -9.52981,5.510842 -0.51181,0.0648 -3.62253,0.169765 -6.91273,0.233242 -7.69296,0.148419 -8.63667,0.258754 -9.49003,1.109573 -0.53568,0.534092 -0.66703,1.19544 -0.81908,4.123999 -0.14609,2.814024 -0.25796,3.448967 -0.73268,4.158064 -0.76372,1.140817 -2.67238,1.832867 -4.26673,1.547061 z"
         id="path1" /></g><text
       xml:space="preserve"
       style="font-weight:bold;font-size:11.5957px;line-height:18.2425px;font-family:Orbitron;-inkscape-font-specification:'Orbitron Bold';letter-spacing:0.543545px;fill:#b2b2b2;fill-opacity:1;stroke:#ffffff;stroke-width:7.0505;stroke-opacity:0;paint-order:fill markers stroke"
       x="41.179321"
       y="138.78087"
       id="text11"
       transform="scale(0.84209043,1.1875209)"><tspan
         sodipodi:role="line"
         id="tspan11"
         style="fill:#b2b2b2;fill-opacity:1;stroke-width:7.05052"
         x="41.179321"
         y="138.78087">SREENSHOT NOT FOUND</tspan></text></g></svg>
