<?xml version="1.0" encoding="UTF-8" standalone="no"?>
<!-- Created with Inkscape (http://www.inkscape.org/) -->

<svg
   width="117.19281mm"
   height="15.194422mm"
   viewBox="0 0 117.19281 15.194422"
   version="1.1"
   id="svg1"
   xml:space="preserve"
   xmlns:inkscape="http://www.inkscape.org/namespaces/inkscape"
   xmlns:sodipodi="http://sodipodi.sourceforge.net/DTD/sodipodi-0.dtd"
   xmlns="http://www.w3.org/2000/svg"
   xmlns:svg="http://www.w3.org/2000/svg"><sodipodi:namedview
     id="namedview1"
     pagecolor="#ffffff"
     bordercolor="#000000"
     borderopacity="0.25"
     inkscape:showpageshadow="2"
     inkscape:pageopacity="0.0"
     inkscape:pagecheckerboard="0"
     inkscape:deskcolor="#d1d1d1"
     inkscape:document-units="mm"
     inkscape:export-bgcolor="#00000000" /><defs
     id="defs1" /><g
     inkscape:label="Layer 1"
     inkscape:groupmode="layer"
     id="layer1"
     transform="translate(-46.085672,-167.4967)"><path
       style="fill:#0022ff;fill-opacity:1;stroke:none;stroke-opacity:1"
       d="m 51.136027,182.18996 c -0.553295,-0.45381 -5.050355,-11.70194 -5.050355,-12.63203 0,-1.32173 1.597263,-2.16833 3.525569,-1.86867 1.362538,0.21174 1.818752,0.55284 2.292414,1.71395 0.203149,0.498 0.415881,0.76589 0.472738,0.59532 0.06472,-0.19416 0.738259,-0.31013 1.801119,-0.31013 h 1.697743 v -1.09585 -1.09585 l 4.828646,0.13799 c 3.949701,0.11288 5.117614,0.2379 6.416146,0.68684 1.394263,0.48203 1.624142,0.5008 1.888528,0.15415 0.505028,-0.66215 1.927945,-0.90395 5.319621,-0.90395 h 3.242892 v 1.21804 1.21803 l 0.882061,-0.77446 c 1.184237,-1.03977 2.940908,-1.49749 5.142636,-1.33996 1.949521,0.13949 2.928858,0.55121 4.19664,1.76428 l 0.828629,0.79287 0.62658,-0.68159 c 0.94488,-1.02783 2.621454,-1.66294 5.147595,-1.94998 2.503423,-0.28446 3.894815,-0.0581 4.493195,0.73103 0.198917,0.26232 0.371685,1.1318 0.383927,1.93216 l 0.02226,1.45521 0.732159,-1.80696 c 0.80459,-1.98573 1.10443,-2.28598 2.28286,-2.28598 1.17842,0 1.47826,0.30025 2.28286,2.28598 l 0.73216,1.80696 0.0138,-1.35338 c 0.0183,-1.79056 0.68313,-2.6569 2.21517,-2.88664 0.62061,-0.0931 1.54005,-0.0662 2.04321,0.0596 0.82279,0.20578 1.05009,0.48982 2.25899,2.82287 0.73928,1.42674 1.4322,2.58779 1.53983,2.58011 0.10762,-0.008 0.70474,-1.05979 1.32694,-2.33804 0.6222,-1.27825 1.34395,-2.50052 1.60388,-2.71615 0.37341,-0.30976 1.576,-0.41134 5.72943,-0.48395 l 5.25681,-0.0919 v 0.65386 0.65387 l 0.98199,-0.50065 c 1.09568,-0.55861 3.30694,-0.66655 4.49089,-0.21923 0.92658,0.35009 2.12157,1.4622 2.64182,2.45859 0.56655,1.08507 0.59483,3.04251 0.0497,3.44118 -0.37013,0.2707 -0.3845,0.41463 -0.0969,0.97092 0.18571,0.35921 0.41922,1.14571 0.51892,1.74779 0.54535,3.29328 -2.01432,5.91677 -5.77284,5.91677 h -1.22608 v -2.52184 c 0,-2.007 -0.0817,-2.5532 -0.40024,-2.67544 -0.88044,-0.33785 -1.18726,0.4032 -1.18726,2.86749 v 2.36792 l -3.99273,-0.0852 c -3.82718,-0.0817 -4.01367,-0.11111 -4.49791,-0.70983 -0.27786,-0.34355 -0.50519,-0.90909 -0.50519,-1.25677 0,-0.54174 -0.12785,-0.63215 -0.89394,-0.63215 -0.74632,0 -0.94893,0.13275 -1.22692,0.80386 -0.18313,0.44213 -0.54694,0.91838 -0.80845,1.05833 -0.64165,0.34341 -3.06262,0.32313 -3.72468,-0.0312 -0.4216,-0.22563 -0.64605,-0.18393 -1.06801,0.19844 -0.42739,0.3873 -1.07113,0.50144 -3.21913,0.57077 -3.33421,0.10761 -4.00997,-0.12598 -4.63726,-1.603 l -0.4779,-1.12525 -0.32984,0.99944 c -0.56035,1.69787 -1.07073,1.85994 -5.380071,1.70842 -4.139699,-0.14555 -5.487935,-0.48449 -7.113883,-1.78842 -0.872457,-0.69966 -1.000859,-0.73377 -1.319033,-0.35039 -0.900785,1.08538 -3.60402,2.20483 -5.324188,2.20483 -1.030533,0 -3.225313,-0.74537 -4.25769,-1.44596 l -0.964836,-0.65476 v 1.06943 1.06942 l -3.992729,-0.0852 c -3.762803,-0.0803 -4.020303,-0.1193 -4.471571,-0.6773 l -0.478842,-0.59209 -1.283116,0.58069 c -1.133192,0.51283 -1.839588,0.59248 -6.045617,0.68169 -5.360278,0.11368 -6.054356,-0.0264 -6.604438,-1.33295 l -0.36288,-0.86192 -0.184594,0.73378 c -0.350455,1.39309 -1.924897,1.94322 -3.011274,1.05216 z m 2.83232,-5.42396 c 2.225886,-5.71277 2.145873,-5.22552 0.858101,-5.22552 -0.629938,0 -1.1326,0.13862 -1.199306,0.33073 -0.06316,0.1819 -0.394277,1.09238 -0.735812,2.02327 l -0.620973,1.69255 -0.612213,-1.69255 c -1.753623,-4.84812 -1.527263,-4.47066 -2.681066,-4.47066 -0.571627,0 -1.039323,0.11013 -1.039323,0.24475 0,0.23961 3.904338,10.54295 4.14328,10.93389 0.06671,0.10914 0.16491,0.19844 0.218233,0.19844 0.05332,0 0.804408,-1.8157 1.669079,-4.0349 z m 7.198575,3.10886 c 0,-0.81139 -0.08189,-0.92604 -0.661459,-0.92604 h -0.661458 v -4.7625 -4.7625 h -1.052228 -1.052228 l -0.07225,4.69635 c -0.07144,4.64391 -0.0789,4.6973 -0.667564,4.7809 -0.485238,0.0689 -0.595312,0.25237 -0.595312,0.99219 v 0.90764 h 2.38125 2.38125 z m 5.953125,0.20543 c 2.116161,-1.10136 2.780515,-2.31121 2.773772,-5.0513 -0.0092,-3.75053 -2.332055,-5.60517 -7.020129,-5.60517 h -1.442185 v 2.38125 2.38125 h 1.058333 1.058334 v -1.35674 -1.35673 l 1.124479,0.17948 c 1.498982,0.23926 2.275963,0.78818 2.761932,1.95127 0.49943,1.19531 0.329816,3.04245 -0.349392,3.80497 -0.59896,0.67243 -1.954726,1.27566 -2.867063,1.27566 -0.617633,0 -0.669956,-0.093 -0.669956,-1.19062 v -1.19063 h -1.058334 -1.058333 v 2.28133 2.28132 l 2.315104,-0.11727 c 1.653033,-0.0837 2.617766,-0.27478 3.373438,-0.66807 z m 8.598958,-0.33772 v -1.05834 h -1.5875 -1.5875 v -1.19062 -1.19063 h 2.248958 2.248959 v -1.05833 -1.05833 h -2.248959 -2.248958 v -1.32292 -1.32292 h 1.5875 1.5875 v -1.05833 -1.05833 h -2.645833 -2.645834 v 5.68854 5.68854 h 2.645834 2.645833 z m 9.202769,0.64742 c 2.168467,-0.90582 3.291936,-2.69664 3.310914,-5.27763 0.02744,-3.73241 -3.12263,-6.31622 -6.626704,-5.43547 -2.62764,0.66045 -4.101042,2.61328 -4.101042,5.43547 0,4.13855 3.752119,6.80847 7.416832,5.27763 z m -3.971899,-2.22596 c -1.548445,-1.218 -1.704008,-4.18711 -0.293292,-5.59782 0.919579,-0.91958 2.381266,-1.23659 3.522379,-0.76392 2.232363,0.92467 2.535886,5.02797 0.478516,6.46901 -0.848736,0.59447 -2.890582,0.5354 -3.707603,-0.10727 z m 2.696081,-2.24521 c 0.411321,-0.49561 0.267653,-1.20031 -0.32018,-1.5705 -0.916754,-0.57733 -1.949076,0.72361 -1.246222,1.5705 0.408678,0.49243 1.157724,0.49243 1.566402,0 z m 13.768882,1.3102 v -3.57187 h -2.116666 -2.116667 v 1.19062 1.19063 h 1.058333 1.058334 v 1.32292 c 0,1.31633 -0.0043,1.32291 -0.859896,1.32192 -1.998234,-0.002 -3.571897,-1.94926 -3.287758,-4.06768 0.284075,-2.11794 1.643751,-3.01883 4.610674,-3.05495 l 1.653646,-0.0201 v -1.05833 -1.05833 l -1.389062,0.004 c -4.720442,0.014 -7.058365,1.91798 -7.071794,5.75905 -0.01323,3.78303 2.058214,5.55482 6.542627,5.5962 l 1.918229,0.0177 z m 3.763332,0.53515 c 0.56722,-1.59744 1.06711,-2.94024 1.11086,-2.984 0.0438,-0.0438 0.55587,1.26324 1.13801,2.90444 l 1.05846,2.984 1.09487,0.0814 c 0.60219,0.0447 1.09488,-0.0215 1.09488,-0.14725 0,-0.21308 -0.43805,-1.36716 -3.22798,-8.50434 -0.77246,-1.97611 -1.13779,-2.63672 -1.29892,-2.34879 -0.3316,0.59254 -4.204345,10.59227 -4.204345,10.85595 0,0.12418 0.495642,0.18917 1.101428,0.14443 l 1.101427,-0.0814 z m 8.20066,-0.0721 0.0745,-3.10886 1.44938,2.84427 1.44938,2.84427 h 1.07009 1.0701 l 1.36769,-2.71198 1.3677,-2.71198 0.0154,1.65365 0.0154,1.65365 h 1.05833 1.05833 v -4.36563 -4.36562 h -1.01184 -1.01183 l -1.97301,4.15229 -1.973,4.1523 -2.02897,-4.1523 -2.02898,-4.15229 h -1.0716 -1.0716 v 5.68854 5.68854 h 1.04994 1.04993 z m 16.08184,2.05052 v -1.05834 h -1.5875 -1.5875 v -1.19062 -1.19063 h 2.24896 2.24896 v -1.05833 -1.05833 h -2.24896 -2.24896 v -1.32292 -1.32292 h 1.5875 1.5875 v -1.05833 -1.05833 h -2.64583 -2.64584 v 5.68854 5.68854 h 2.64584 2.64583 z m 7.80521,-0.0112 c 0.68662,-0.68576 0.79375,-0.98611 0.79375,-2.2255 0,-1.22329 -0.11315,-1.55084 -0.77395,-2.24057 -0.46566,-0.48605 -1.15071,-0.86855 -1.71979,-0.96026 -1.70015,-0.274 -2.13647,-0.56536 -2.13647,-1.42668 0,-1.36876 2.10721,-1.8244 2.51374,-0.54353 0.13022,0.4103 0.40053,0.52855 1.20825,0.52855 1.2502,0 1.36706,-0.4955 0.44099,-1.86971 -2.12263,-3.14977 -7.25726,-0.86714 -6.25058,2.77875 0.33733,1.22171 1.517,2.15999 2.99421,2.38151 0.80753,0.12109 1.30159,0.35485 1.48861,0.7043 0.36303,0.67833 0.0967,1.4906 -0.55667,1.69799 -0.39952,0.1268 -0.51563,0.40542 -0.51563,1.23723 0,1.07 0.003,1.073 0.85989,0.90212 0.47294,-0.0943 1.21708,-0.52819 1.65365,-0.9642 z m -67.34051,-4.66956 c 0.0022,-0.46436 -0.115011,-0.91787 -0.260532,-1.00781 -0.16387,-0.10127 -0.263041,0.37117 -0.260531,1.24116 0.0029,1.00451 0.07712,1.29162 0.260531,1.0078 0.141065,-0.21828 0.258304,-0.7768 0.260532,-1.24115 z m 79.43994,7.18094 c -1.9296,-0.51949 -2.72784,-0.97595 -3.81916,-2.18391 -1.21105,-1.34049 -1.64906,-2.64704 -1.65827,-4.9465 -0.0186,-4.63456 2.428,-6.91164 7.94908,-7.39841 1.95596,-0.17245 3.1801,0.095 3.72809,0.81454 0.27431,0.3602 0.40258,0.3546 1.18851,-0.0518 1.19017,-0.61546 4.12934,-0.80054 5.71056,-0.35959 1.86109,0.519 3.86019,2.59729 4.45005,4.62632 1.1304,3.88847 -0.42944,7.61295 -3.85142,9.19612 -1.63701,0.75737 -4.48771,0.77104 -5.98806,0.0287 l -1.08689,-0.53774 -0.71061,0.61124 c -0.60553,0.52085 -0.9921,0.60867 -2.61409,0.59383 -1.04691,-0.01 -2.53091,-0.18633 -3.29779,-0.3928 z m 4.96619,-2.5002 v -1.05834 h -1.86058 c -3.23565,0 -4.59118,-1.02133 -4.59118,-3.45926 0,-2.15137 0.85399,-3.13995 3.07189,-3.55604 l 0.96746,-0.18149 0.0817,1.28329 0.0817,1.28329 h 1.05834 1.05833 v -2.24895 -2.24896 l -1.25195,-0.0804 c -1.83578,-0.11796 -4.13743,0.38412 -5.306,1.15744 -1.33822,0.8856 -2.02939,2.41114 -2.02939,4.47926 0,3.7689 2.23053,5.62866 6.8014,5.67084 l 1.91823,0.0177 z m 8.08074,0.561 c 2.14207,-0.97301 3.16127,-2.93484 2.98258,-5.74111 -0.19787,-3.1074 -2.26048,-5.02043 -5.37478,-4.98496 -0.87312,0.01 -1.88515,0.17232 -2.24896,0.36082 -3.48691,1.80678 -4.20612,6.80656 -1.36346,9.47846 1.52073,1.42938 4.00304,1.79598 6.00462,0.88679 z m -4.53532,-2.51892 c -1.59094,-1.59094 -1.21023,-4.86572 0.67925,-5.84281 2.95269,-1.52689 5.78024,1.6985 4.39513,5.01353 -0.45503,1.08904 -1.59373,1.72886 -3.07687,1.72886 -0.89585,0 -1.2635,-0.16557 -1.99751,-0.89958 z m 2.91797,-1.89744 c 0.51825,-0.51824 0.52985,-1.01226 0.0335,-1.42422 -0.60913,-0.50554 -1.58917,-0.23536 -1.68852,0.46549 -0.1659,1.17026 0.85319,1.76059 1.65505,0.95873 z m -7.83543,0.48192 c -0.0662,-0.34888 -0.39714,-0.4829 -1.34232,-0.54366 -1.23779,-0.0796 -1.25439,-0.0927 -1.25439,-0.99219 0,-0.9462 -0.35359,-1.22154 -0.63315,-0.49303 -0.26347,0.6866 -0.18503,1.28094 0.25128,1.90386 0.33255,0.47478 0.66752,0.58804 1.73919,0.58804 1.12122,0 1.31366,-0.0719 1.23939,-0.46302 z"
       id="path46"
       inkscape:export-filename="ps-letter.svg"
       inkscape:export-xdpi="96"
       inkscape:export-ydpi="96" /></g></svg>
