<?xml version="1.0" encoding="UTF-8" standalone="no"?>
<!-- Created with Inkscape (http://www.inkscape.org/) -->

<svg
   width="118.24887mm"
   height="115.33154mm"
   viewBox="0 0 118.24887 115.33154"
   version="1.1"
   id="svg1"
   xml:space="preserve"
   xmlns="http://www.w3.org/2000/svg"
   xmlns:svg="http://www.w3.org/2000/svg"><defs
     id="defs1" /><g
     id="layer1"
     transform="translate(-44.154729,-25.772691)"><path
       style="fill:#e8e8e8;fill-opacity:1;stroke-width:0.811415"
       d="m 97.428109,128.73983 c -3.154231,-6.80042 -5.699905,-12.39859 -5.657052,-12.44039 0.04285,-0.0418 1.058412,0.18118 2.256801,0.49549 2.634388,0.69095 6.758762,1.2468 9.251152,1.2468 2.49239,0 6.61676,-0.55585 9.25115,-1.2468 1.19839,-0.31431 2.21395,-0.53728 2.2568,-0.49549 0.10312,0.10058 -11.35816,24.80478 -11.50795,24.80478 -0.0638,0 -2.69667,-5.56397 -5.850901,-12.36439 z m -35.523238,-5.89538 c 0.324122,-0.8379 2.453813,-6.35754 4.732645,-12.26589 2.278833,-5.90834 4.2625,-11.046593 4.40815,-11.41832 l 0.264818,-0.675876 0.858911,1.591996 c 1.817721,3.36916 4.887222,7.01315 8.171116,9.70041 2.232457,1.82686 3.014776,2.35571 5.759034,3.8932 l 1.718557,0.96284 -0.675108,0.25165 c -0.371309,0.13842 -5.631491,2.07016 -11.689293,4.29277 -6.057802,2.22261 -11.717076,4.29975 -12.576164,4.61588 l -1.561979,0.57478 z M 132.2637,119.6157 c -7.07806,-2.60451 -13.01714,-4.79077 -13.19796,-4.85836 -0.20325,-0.076 0.32792,-0.49081 1.39126,-1.08654 2.74582,-1.53836 3.52778,-2.06695 5.7605,-3.89403 3.2839,-2.68726 6.3534,-6.33125 8.17112,-9.70041 l 0.85892,-1.591996 0.26481,0.675876 c 0.14565,0.371727 2.12932,5.50998 4.40815,11.41832 2.27883,5.90835 4.40906,11.4294 4.73384,12.269 0.32479,0.83961 0.56533,1.52139 0.53454,1.51508 -0.0308,-0.006 -5.84711,-2.14243 -12.92518,-4.74694 z m -32.346908,-8.62087 c -4.161887,-0.45552 -8.768472,-2.09195 -12.326958,-4.37898 -2.497926,-1.60542 -6.539462,-5.48809 -8.006321,-7.691621 C 76.033348,93.591158 74.5591,88.379226 74.827025,82.108537 75.122562,75.191612 77.755497,69.128983 82.637086,64.124984 88.5888,58.024018 97.236154,54.851455 105.77169,55.6373 c 1.37098,0.126219 3.13042,0.373337 3.90989,0.549152 8.97751,2.024944 16.59048,8.359878 20.0869,16.714779 2.15826,5.157272 2.63655,12.119376 1.19011,17.323223 -1.4455,5.200472 -3.64662,8.926507 -7.49186,12.682166 -3.85225,3.76252 -7.86122,6.05011 -12.86871,7.34313 -3.62667,0.93648 -6.86726,1.16253 -10.681228,0.74508 z M 56.732001,89.126663 C 49.814682,86.061055 44.15491,83.501951 44.15473,83.439759 c -2.4e-4,-0.08281 24.026677,-10.785285 25.297025,-11.268238 0.106303,-0.04039 0.0366,0.417555 -0.154894,1.017705 -1.289886,4.042548 -1.841134,10.255357 -1.281044,14.437932 0.244481,1.825707 1.128465,5.701392 1.533791,6.724659 0.08622,0.217676 0.06735,0.385173 -0.04194,0.372223 -0.109294,-0.01298 -5.858341,-2.531769 -12.775661,-5.597377 z m 80.264269,5.256013 c 0.4162,-1.051233 1.29817,-4.90533 1.54593,-6.755518 0.56009,-4.182575 0.009,-10.395384 -1.28104,-14.437932 -0.1915,-0.60015 -0.2612,-1.058117 -0.1549,-1.017705 1.26896,0.482424 25.29735,11.185419 25.29735,11.268238 0,0.08599 -24.19422,10.857935 -25.34016,11.28215 -0.14294,0.05289 -0.16945,-0.08093 -0.0672,-0.339233 z M 66.87423,56.934914 C 64.514876,50.815726 62.301252,45.068016 61.955066,44.162227 l -0.629429,-1.646895 1.55694,0.57292 c 1.485056,0.546475 23.32721,8.562689 24.268034,8.906537 0.383908,0.140307 0.280624,0.258009 -0.695633,0.792768 -3.70583,2.029929 -7.404134,4.926783 -9.971196,7.810374 -1.634254,1.835763 -3.758031,4.840589 -4.561957,6.454485 -0.27635,0.554778 -0.55992,1.008594 -0.630156,1.008482 -0.07024,-1.04e-4 -2.058084,-5.006804 -4.417439,-11.125984 z m 67.76196,10.117502 c -0.80392,-1.613896 -2.9277,-4.618722 -4.56195,-6.454485 -2.56707,-2.883591 -6.26537,-5.780445 -9.9712,-7.810374 -0.97626,-0.534759 -1.07954,-0.652461 -0.69564,-0.792768 0.94083,-0.343848 22.78298,-8.360062 24.26804,-8.906537 l 1.55693,-0.57292 -0.62942,1.646895 c -4.54973,11.90432 -9.23556,23.898519 -9.3366,23.898671 -0.0702,1.12e-4 -0.35381,-0.453704 -0.63016,-1.008482 z M 95.544183,42.222706 c 2.096644,-4.509003 4.668607,-10.055255 5.715487,-12.325009 1.04687,-2.269755 1.95557,-4.126009 2.01934,-4.125007 0.20829,0.0032 11.50357,24.53315 11.33007,24.605431 -0.0928,0.03871 -0.82795,-0.128007 -1.6336,-0.370405 -5.53258,-1.664613 -13.895493,-1.672041 -19.319388,-0.01715 -0.765196,0.233471 -1.511129,0.425801 -1.657627,0.427404 -0.146499,0.0016 1.449074,-3.686256 3.545718,-8.195258 z"
       id="path1" /></g></svg>
