<?xml version="1.0" encoding="UTF-8" standalone="no"?>
<!-- Created with Inkscape (http://www.inkscape.org/) -->

<svg
   width="118.24887mm"
   height="115.33153mm"
   viewBox="0 0 118.24887 115.33153"
   version="1.1"
   id="svg1"
   xml:space="preserve"
   inkscape:export-filename="moon.svg"
   inkscape:export-xdpi="96"
   inkscape:export-ydpi="96"
   xmlns:inkscape="http://www.inkscape.org/namespaces/inkscape"
   xmlns:sodipodi="http://sodipodi.sourceforge.net/DTD/sodipodi-0.dtd"
   xmlns="http://www.w3.org/2000/svg"
   xmlns:svg="http://www.w3.org/2000/svg"><sodipodi:namedview
     id="namedview1"
     pagecolor="#ffffff"
     bordercolor="#000000"
     borderopacity="0.25"
     inkscape:showpageshadow="2"
     inkscape:pageopacity="0.0"
     inkscape:pagecheckerboard="0"
     inkscape:deskcolor="#d1d1d1"
     inkscape:document-units="mm" /><defs
     id="defs1" /><g
     inkscape:label="Layer 1"
     inkscape:groupmode="layer"
     id="layer1"
     transform="translate(-54.187627,-110.81139)"><path
       style="fill:#c7c7c7;fill-opacity:1;stroke-width:0.811415"
       d="m 107.46101,213.77852 c -3.15423,-6.80042 -5.69991,-12.39859 -5.65705,-12.44039 0.0429,-0.0418 1.05841,0.18118 2.2568,0.49549 2.63438,0.69095 6.75876,1.2468 9.25115,1.2468 2.49239,0 6.61676,-0.55585 9.25115,-1.2468 1.19839,-0.31431 2.21395,-0.53728 2.2568,-0.49549 0.10312,0.10058 -11.35816,24.80478 -11.50795,24.80478 -0.0638,0 -2.69667,-5.56397 -5.8509,-12.36439 z m -35.52324,-5.89538 c 0.324122,-0.8379 2.453813,-6.35754 4.732645,-12.26589 2.278833,-5.90834 4.2625,-11.04659 4.40815,-11.41832 l 0.264818,-0.67587 0.858911,1.59199 c 1.817721,3.36916 4.887222,7.01315 8.171116,9.70041 2.232457,1.82686 3.014776,2.35571 5.759034,3.8932 l 1.718557,0.96284 -0.675108,0.25165 c -0.371309,0.13842 -5.631491,2.07016 -11.689293,4.29277 -6.057802,2.22261 -11.717076,4.29975 -12.576164,4.61588 l -1.561979,0.57478 z m 70.35883,-3.22875 c -7.07806,-2.60451 -13.01714,-4.79077 -13.19796,-4.85836 -0.20325,-0.076 0.32792,-0.49081 1.39126,-1.08654 2.74582,-1.53836 3.52778,-2.06695 5.7605,-3.89403 3.2839,-2.68726 6.3534,-6.33125 8.17112,-9.70041 l 0.85892,-1.59199 0.26481,0.67587 c 0.14565,0.37173 2.12932,5.50998 4.40815,11.41832 2.27883,5.90835 4.40906,11.4294 4.73384,12.269 0.32479,0.83961 0.56533,1.52139 0.53454,1.51508 -0.0308,-0.006 -5.84711,-2.14243 -12.92518,-4.74694 z m -32.34691,-8.62087 c -4.16189,-0.45552 -8.76847,-2.09195 -12.326957,-4.37898 -2.497926,-1.60542 -6.539462,-5.48809 -8.006321,-7.69162 -3.550165,-5.33307 -5.024413,-10.545 -4.756488,-16.81569 0.295537,-6.91692 2.928472,-12.97955 7.810061,-17.98355 5.951714,-6.10097 14.599065,-9.27353 23.134605,-8.48769 1.37098,0.12622 3.13042,0.37334 3.90989,0.54916 8.97751,2.02494 16.59048,8.35987 20.0869,16.71477 2.15826,5.15728 2.63655,12.11938 1.19011,17.32323 -1.4455,5.20047 -3.64662,8.9265 -7.49186,12.68216 -3.85225,3.76252 -7.86122,6.05011 -12.86871,7.34313 -3.62667,0.93648 -6.86726,1.16253 -10.68123,0.74508 z M 66.7649,174.16536 c -6.917319,-3.06561 -12.577091,-5.62472 -12.577271,-5.68691 -2.4e-4,-0.0828 24.026677,-10.78528 25.297025,-11.26824 0.106303,-0.0404 0.0366,0.41756 -0.154894,1.01771 -1.289886,4.04255 -1.841134,10.25536 -1.281044,14.43793 0.244481,1.82571 1.128465,5.70139 1.533791,6.72466 0.08622,0.21768 0.06735,0.38517 -0.04194,0.37222 -0.109294,-0.013 -5.858341,-2.53177 -12.775661,-5.59737 z m 80.26427,5.25601 c 0.4162,-1.05123 1.29817,-4.90533 1.54593,-6.75552 0.56009,-4.18257 0.009,-10.39538 -1.28104,-14.43793 -0.1915,-0.60015 -0.2612,-1.05812 -0.1549,-1.01771 1.26896,0.48243 25.29735,11.18542 25.29735,11.26824 0,0.086 -24.19422,10.85794 -25.34016,11.28215 -0.14294,0.0529 -0.16945,-0.0809 -0.0672,-0.33923 z M 76.907129,141.97361 c -2.359354,-6.11919 -4.572978,-11.8669 -4.919164,-12.77269 l -0.629429,-1.64689 1.55694,0.57292 c 1.485056,0.54647 23.32721,8.56268 24.268034,8.90653 0.383908,0.14031 0.280624,0.25801 -0.695633,0.79277 -3.70583,2.02993 -7.404134,4.92678 -9.971196,7.81037 -1.634254,1.83577 -3.758031,4.84059 -4.561957,6.45449 -0.27635,0.55478 -0.55992,1.00859 -0.630156,1.00848 -0.07024,-1e-4 -2.058084,-5.0068 -4.417439,-11.12598 z m 67.761961,10.1175 c -0.80392,-1.6139 -2.9277,-4.61872 -4.56195,-6.45449 -2.56707,-2.88359 -6.26537,-5.78044 -9.9712,-7.81037 -0.97626,-0.53476 -1.07954,-0.65246 -0.69564,-0.79277 0.94083,-0.34385 22.78298,-8.36006 24.26804,-8.90653 l 1.55693,-0.57292 -0.62942,1.64689 c -4.54973,11.90432 -9.23556,23.89852 -9.3366,23.89867 -0.0702,1.1e-4 -0.35381,-0.4537 -0.63016,-1.00848 z M 105.57708,127.2614 c 2.09665,-4.509 4.66861,-10.05526 5.71549,-12.32501 1.04687,-2.26974 1.95557,-4.126 2.01934,-4.125 0.20829,0.003 11.50357,24.53314 11.33007,24.60542 -0.0928,0.0387 -0.82795,-0.128 -1.6336,-0.3704 -5.53258,-1.66461 -13.89549,-1.67204 -19.31939,-0.0172 -0.7652,0.23347 -1.51113,0.4258 -1.65763,0.4274 -0.1465,0.002 1.44908,-3.68625 3.54572,-8.19525 z"
       id="path1" /></g></svg>
