<svg width="194" height="22" viewBox="0 0 194 22" fill="none" xmlns="http://www.w3.org/2000/svg">
<path d="M10.9013 12.5867L17.7707 0.640011H21.0347L12.16 16H9.62133L0.746666 0.640011H4.01066L10.9013 12.5867ZM22.6118 16V0.640011H25.4278V16H22.6118ZM27.3206 0.640011H39.694C40.5189 0.640011 41.2229 0.931567 41.806 1.51468C42.3891 2.08357 42.6806 2.78045 42.6806 3.60534V13.0347C42.6806 13.8596 42.3891 14.5636 41.806 15.1467C41.2229 15.7156 40.5189 16 39.694 16H27.3206V0.640011ZM39.8433 13.0347V3.60534C39.8433 3.50579 39.7935 3.45601 39.694 3.45601H30.286C30.1864 3.45601 30.1366 3.50579 30.1366 3.60534V13.0347C30.1366 13.1342 30.1864 13.184 30.286 13.184H39.694C39.7935 13.184 39.8433 13.1342 39.8433 13.0347ZM59.235 0.640011V3.45601H47.9496V6.91201H57.0376V9.728H47.9496V13.184H59.235V16H45.1123V0.640011H59.235ZM63.9298 0.640011H73.3591C74.1698 0.640011 74.8667 0.931567 75.4498 1.51468C76.0329 2.08357 76.3244 2.78045 76.3244 3.60534V13.0347C76.3244 13.8596 76.0329 14.5636 75.4498 15.1467C74.8667 15.7156 74.1698 16 73.3591 16H63.9298C63.1049 16 62.4009 15.7156 61.8178 15.1467C61.2489 14.5636 60.9645 13.8596 60.9645 13.0347V3.60534C60.9645 2.78045 61.2489 2.08357 61.8178 1.51468C62.4009 0.931567 63.1049 0.640011 63.9298 0.640011ZM63.9298 13.184H73.3591C73.4444 13.184 73.4871 13.1342 73.4871 13.0347V3.60534C73.4871 3.50579 73.4444 3.45601 73.3591 3.45601H63.9298C63.8302 3.45601 63.7805 3.50579 63.7805 3.60534V13.0347C63.7805 13.1342 63.8302 13.184 63.9298 13.184ZM94.0338 3.60534V4.80001H91.1964V3.60534C91.1964 3.50579 91.1466 3.45601 91.0471 3.45601H81.6391C81.5395 3.45601 81.4898 3.50579 81.4898 3.60534V13.0347C81.4898 13.1342 81.5395 13.184 81.6391 13.184H91.0471C91.1466 13.184 91.1964 13.1342 91.1964 13.0347V10.1333H87.7191V7.31734H94.0338V13.0347C94.0338 13.8596 93.7422 14.5636 93.1591 15.1467C92.576 15.7156 91.872 16 91.0471 16H81.6391C80.8142 16 80.1102 15.7156 79.5271 15.1467C78.9582 14.5636 78.6738 13.8596 78.6738 13.0347V3.60534C78.6738 2.78045 78.9582 2.08357 79.5271 1.51468C80.1102 0.931567 80.8142 0.640011 81.6391 0.640011H91.0471C91.872 0.640011 92.576 0.931567 93.1591 1.51468C93.7422 2.08357 94.0338 2.78045 94.0338 3.60534ZM99.3901 0.640011H108.798C109.623 0.640011 110.327 0.931567 110.91 1.51468C111.493 2.08357 111.785 2.78045 111.785 3.60534V16H108.947V10.8373H99.2408V16H96.4248V3.60534C96.4248 2.78045 96.7092 2.08357 97.2781 1.51468C97.8612 0.931567 98.5652 0.640011 99.3901 0.640011ZM99.2408 8.02134H108.947V3.60534C108.947 3.50579 108.898 3.45601 108.798 3.45601H99.3901C99.2905 3.45601 99.2408 3.50579 99.2408 3.60534V8.02134ZM122.877 7.29601L128.445 0.640011H131.538V16H128.701V4.73601L122.877 11.6693L117.031 4.73601V16H114.215V0.640011H117.287L122.877 7.29601ZM148.172 0.640011V3.45601H136.887V6.91201H145.975V9.728H136.887V13.184H148.172V16H134.05V0.640011H148.172Z" fill="#2643FF"/>
<path d="M10.9013 12.5867L10.2516 12.9614L10.9023 14.0895L11.5515 12.9605L10.9013 12.5867ZM17.7707 0.640011V-0.109989H17.3368L17.1205 0.266158L17.7707 0.640011ZM21.0347 0.640011L21.684 1.01522L22.3342 -0.109989H21.0347V0.640011ZM12.16 16V16.75H12.5928L12.8094 16.3752L12.16 16ZM9.62133 16L8.97193 16.3752L9.18847 16.75H9.62133V16ZM0.746666 0.640011V-0.109989H-0.552853L0.0972673 1.01522L0.746666 0.640011ZM4.01066 0.640011L4.66034 0.265286L4.44389 -0.109989H4.01066V0.640011ZM11.5515 12.9605L18.4208 1.01386L17.1205 0.266158L10.2511 12.2128L11.5515 12.9605ZM17.7707 1.39001H21.0347V-0.109989H17.7707V1.39001ZM20.3853 0.264803L11.5106 15.6248L12.8094 16.3752L21.684 1.01522L20.3853 0.264803ZM12.16 15.25H9.62133V16.75H12.16V15.25ZM10.2707 15.6248L1.39606 0.264803L0.0972673 1.01522L8.97193 16.3752L10.2707 15.6248ZM0.746666 1.39001H4.01066V-0.109989H0.746666V1.39001ZM3.36099 1.01474L10.2516 12.9614L11.551 12.2119L4.66034 0.265286L3.36099 1.01474ZM22.6118 16H21.8618V16.75H22.6118V16ZM22.6118 0.640011V-0.109989H21.8618V0.640011H22.6118ZM25.4278 0.640011H26.1778V-0.109989H25.4278V0.640011ZM25.4278 16V16.75H26.1778V16H25.4278ZM23.3618 16V0.640011H21.8618V16H23.3618ZM22.6118 1.39001H25.4278V-0.109989H22.6118V1.39001ZM24.6778 0.640011V16H26.1778V0.640011H24.6778ZM25.4278 15.25H22.6118V16.75H25.4278V15.25ZM27.3206 0.640011V-0.109989H26.5706V0.640011H27.3206ZM41.806 1.51468L41.2756 2.04505L41.2822 2.05151L41.806 1.51468ZM41.806 15.1467L42.3298 15.6835L42.3363 15.677L41.806 15.1467ZM27.3206 16H26.5706V16.75H27.3206V16ZM27.3206 1.39001H39.694V-0.109989H27.3206V1.39001ZM39.694 1.39001C40.32 1.39001 40.8332 1.6026 41.2756 2.04501L42.3363 0.984347C41.6125 0.260537 40.7177 -0.109989 39.694 -0.109989V1.39001ZM41.2822 2.05151C41.7186 2.47727 41.9306 2.97971 41.9306 3.60534H43.4306C43.4306 2.5812 43.0595 1.68986 42.3297 0.977841L41.2822 2.05151ZM41.9306 3.60534V13.0347H43.4306V3.60534H41.9306ZM41.9306 13.0347C41.9306 13.6607 41.718 14.1739 41.2756 14.6163L42.3363 15.677C43.0601 14.9532 43.4306 14.0584 43.4306 13.0347H41.9306ZM41.2822 14.6098C40.8412 15.0401 40.3259 15.25 39.694 15.25V16.75C40.7118 16.75 41.6046 16.391 42.3297 15.6835L41.2822 14.6098ZM39.694 15.25H27.3206V16.75H39.694V15.25ZM28.0706 16V0.640011H26.5706V16H28.0706ZM40.5933 13.0347V3.60534H39.0933V13.0347H40.5933ZM40.5933 3.60534C40.5933 3.43995 40.5514 3.17816 40.3363 2.96301C40.1211 2.74786 39.8594 2.70601 39.694 2.70601V4.20601C39.6281 4.20601 39.441 4.18904 39.2756 4.02367C39.1103 3.8583 39.0933 3.67118 39.0933 3.60534H40.5933ZM39.694 2.70601H30.286V4.20601H39.694V2.70601ZM30.286 2.70601C30.1206 2.70601 29.8588 2.74786 29.6436 2.96301C29.4285 3.17816 29.3866 3.43996 29.3866 3.60534H30.8866C30.8866 3.67117 30.8697 3.8583 30.7043 4.02367C30.5389 4.18904 30.3518 4.20601 30.286 4.20601V2.70601ZM29.3866 3.60534V13.0347H30.8866V3.60534H29.3866ZM29.3866 13.0347C29.3866 13.2001 29.4285 13.4618 29.6436 13.677C29.8588 13.8921 30.1206 13.934 30.286 13.934V12.434C30.3518 12.434 30.5389 12.451 30.7043 12.6163C30.8697 12.7817 30.8866 12.9688 30.8866 13.0347H29.3866ZM30.286 13.934H39.694V12.434H30.286V13.934ZM39.694 13.934C39.8594 13.934 40.1212 13.8921 40.3363 13.677C40.5514 13.4619 40.5933 13.2001 40.5933 13.0347H39.0933C39.0933 12.9688 39.1103 12.7817 39.2756 12.6163C39.441 12.451 39.6281 12.434 39.694 12.434V13.934ZM59.235 0.640011H59.985V-0.109989H59.235V0.640011ZM59.235 3.45601V4.20601H59.985V3.45601H59.235ZM47.9496 3.45601V2.70601H47.1996V3.45601H47.9496ZM47.9496 6.91201H47.1996V7.66201H47.9496V6.91201ZM57.0376 6.91201H57.7876V6.16201H57.0376V6.91201ZM57.0376 9.728V10.478H57.7876V9.728H57.0376ZM47.9496 9.728V8.978H47.1996V9.728H47.9496ZM47.9496 13.184H47.1996V13.934H47.9496V13.184ZM59.235 13.184H59.985V12.434H59.235V13.184ZM59.235 16V16.75H59.985V16H59.235ZM45.1123 16H44.3623V16.75H45.1123V16ZM45.1123 0.640011V-0.109989H44.3623V0.640011H45.1123ZM58.485 0.640011V3.45601H59.985V0.640011H58.485ZM59.235 2.70601H47.9496V4.20601H59.235V2.70601ZM47.1996 3.45601V6.91201H48.6996V3.45601H47.1996ZM47.9496 7.66201H57.0376V6.16201H47.9496V7.66201ZM56.2876 6.91201V9.728H57.7876V6.91201H56.2876ZM57.0376 8.978H47.9496V10.478H57.0376V8.978ZM47.1996 9.728V13.184H48.6996V9.728H47.1996ZM47.9496 13.934H59.235V12.434H47.9496V13.934ZM58.485 13.184V16H59.985V13.184H58.485ZM59.235 15.25H45.1123V16.75H59.235V15.25ZM45.8623 16V0.640011H44.3623V16H45.8623ZM45.1123 1.39001H59.235V-0.109989H45.1123V1.39001ZM75.4498 1.51468L74.9194 2.04505L74.926 2.05151L75.4498 1.51468ZM75.4498 15.1467L75.9736 15.6835L75.9801 15.677L75.4498 15.1467ZM61.8178 15.1467L61.2809 15.6704L61.2874 15.677L61.294 15.6835L61.8178 15.1467ZM61.8178 1.51468L62.3481 2.04501L62.3481 2.04501L61.8178 1.51468ZM63.9298 1.39001H73.3591V-0.109989H63.9298V1.39001ZM73.3591 1.39001C73.967 1.39001 74.4743 1.59983 74.9194 2.04501L75.9801 0.984347C75.2591 0.263306 74.3725 -0.109989 73.3591 -0.109989V1.39001ZM74.926 2.05151C75.3624 2.47727 75.5744 2.97971 75.5744 3.60534H77.0744C77.0744 2.5812 76.7033 1.68986 75.9735 0.977841L74.926 2.05151ZM75.5744 3.60534V13.0347H77.0744V3.60534H75.5744ZM75.5744 13.0347C75.5744 13.6607 75.3619 14.1739 74.9194 14.6163L75.9801 15.677C76.7039 14.9532 77.0744 14.0584 77.0744 13.0347H75.5744ZM74.926 14.6098C74.4822 15.0428 73.973 15.25 73.3591 15.25V16.75C74.3666 16.75 75.2511 16.3883 75.9735 15.6835L74.926 14.6098ZM73.3591 15.25H63.9298V16.75H73.3591V15.25ZM63.9298 15.25C63.2978 15.25 62.7826 15.0401 62.3415 14.6098L61.294 15.6835C62.0192 16.391 62.9119 16.75 63.9298 16.75V15.25ZM62.3546 14.6229C61.9243 14.1819 61.7145 13.6666 61.7145 13.0347H60.2145C60.2145 14.0525 60.5735 14.9453 61.2809 15.6704L62.3546 14.6229ZM61.7145 13.0347V3.60534H60.2145V13.0347H61.7145ZM61.7145 3.60534C61.7145 2.97373 61.9238 2.46931 62.3481 2.04501L61.2875 0.984347C60.574 1.69782 60.2145 2.58718 60.2145 3.60534H61.7145ZM62.3481 2.04501C62.7905 1.6026 63.3037 1.39001 63.9298 1.39001V-0.109989C62.9061 -0.109989 62.0113 0.260537 61.2875 0.984347L62.3481 2.04501ZM63.9298 13.934H73.3591V12.434H63.9298V13.934ZM73.3591 13.934C73.5502 13.934 73.8205 13.8729 74.0246 13.6348C74.2097 13.4188 74.2371 13.1742 74.2371 13.0347H72.7371C72.7371 12.9947 72.7432 12.8248 72.8857 12.6586C73.0471 12.4702 73.2534 12.434 73.3591 12.434V13.934ZM74.2371 13.0347V3.60534H72.7371V13.0347H74.2371ZM74.2371 3.60534C74.2371 3.46582 74.2097 3.22123 74.0246 3.00525C73.8205 2.76714 73.5502 2.70601 73.3591 2.70601V4.20601C73.2534 4.20601 73.0471 4.16977 72.8857 3.98144C72.7432 3.81524 72.7371 3.64531 72.7371 3.60534H74.2371ZM73.3591 2.70601H63.9298V4.20601H73.3591V2.70601ZM63.9298 2.70601C63.7644 2.70601 63.5026 2.74786 63.2875 2.96301C63.0723 3.17816 63.0305 3.43996 63.0305 3.60534H64.5304C64.5304 3.67117 64.5135 3.8583 64.3481 4.02367C64.1827 4.18904 63.9956 4.20601 63.9298 4.20601V2.70601ZM63.0305 3.60534V13.0347H64.5304V3.60534H63.0305ZM63.0305 13.0347C63.0305 13.2001 63.0723 13.4618 63.2875 13.677C63.5026 13.8921 63.7644 13.934 63.9298 13.934V12.434C63.9956 12.434 64.1827 12.451 64.3481 12.6163C64.5135 12.7817 64.5304 12.9688 64.5304 13.0347H63.0305ZM94.0338 4.80001V5.55001H94.7838V4.80001H94.0338ZM91.1964 4.80001H90.4464V5.55001H91.1964V4.80001ZM91.1964 10.1333H91.9464V9.38334H91.1964V10.1333ZM87.7191 10.1333H86.9691V10.8833H87.7191V10.1333ZM87.7191 7.31734V6.56734H86.9691V7.31734H87.7191ZM94.0338 7.31734H94.7838V6.56734H94.0338V7.31734ZM93.1591 15.1467L93.6829 15.6835L93.6894 15.677L93.1591 15.1467ZM79.5271 15.1467L78.9903 15.6704L78.9967 15.677L79.0034 15.6835L79.5271 15.1467ZM79.5271 1.51468L80.0574 2.04501V2.04501L79.5271 1.51468ZM93.1591 1.51468L92.6287 2.04505L92.6353 2.05151L93.1591 1.51468ZM93.2838 3.60534V4.80001H94.7838V3.60534H93.2838ZM94.0338 4.05001H91.1964V5.55001H94.0338V4.05001ZM91.9464 4.80001V3.60534H90.4464V4.80001H91.9464ZM91.9464 3.60534C91.9464 3.43996 91.9046 3.17816 91.6894 2.96301C91.4743 2.74786 91.2125 2.70601 91.0471 2.70601V4.20601C90.9813 4.20601 90.7941 4.18904 90.6288 4.02367C90.4634 3.8583 90.4464 3.67117 90.4464 3.60534H91.9464ZM91.0471 2.70601H81.6391V4.20601H91.0471V2.70601ZM81.6391 2.70601C81.4737 2.70601 81.2119 2.74786 80.9968 2.96301C80.7816 3.17816 80.7398 3.43996 80.7398 3.60534H82.2398C82.2398 3.67117 82.2228 3.8583 82.0574 4.02367C81.8921 4.18904 81.7049 4.20601 81.6391 4.20601V2.70601ZM80.7398 3.60534V13.0347H82.2398V3.60534H80.7398ZM80.7398 13.0347C80.7398 13.2001 80.7816 13.4618 80.9968 13.677C81.2119 13.8921 81.4737 13.934 81.6391 13.934V12.434C81.7049 12.434 81.8921 12.451 82.0574 12.6163C82.2228 12.7817 82.2398 12.9688 82.2398 13.0347H80.7398ZM81.6391 13.934H91.0471V12.434H81.6391V13.934ZM91.0471 13.934C91.2125 13.934 91.4743 13.8921 91.6894 13.677C91.9046 13.4618 91.9464 13.2001 91.9464 13.0347H90.4464C90.4464 12.9688 90.4634 12.7817 90.6288 12.6163C90.7941 12.451 90.9813 12.434 91.0471 12.434V13.934ZM91.9464 13.0347V10.1333H90.4464V13.0347H91.9464ZM91.1964 9.38334H87.7191V10.8833H91.1964V9.38334ZM88.4691 10.1333V7.31734H86.9691V10.1333H88.4691ZM87.7191 8.06734H94.0338V6.56734H87.7191V8.06734ZM93.2838 7.31734V13.0347H94.7838V7.31734H93.2838ZM93.2838 13.0347C93.2838 13.6607 93.0712 14.1739 92.6288 14.6163L93.6894 15.677C94.4132 14.9532 94.7838 14.0584 94.7838 13.0347H93.2838ZM92.6353 14.6098C92.1943 15.0401 91.679 15.25 91.0471 15.25V16.75C92.0649 16.75 92.9577 16.391 93.6828 15.6835L92.6353 14.6098ZM91.0471 15.25H81.6391V16.75H91.0471V15.25ZM81.6391 15.25C81.0072 15.25 80.4919 15.0401 80.0508 14.6098L79.0034 15.6835C79.7285 16.391 80.6213 16.75 81.6391 16.75V15.25ZM80.0639 14.6229C79.6336 14.1819 79.4238 13.6666 79.4238 13.0347H77.9238C77.9238 14.0525 78.2828 14.9453 78.9903 15.6704L80.0639 14.6229ZM79.4238 13.0347V3.60534H77.9238V13.0347H79.4238ZM79.4238 3.60534C79.4238 2.97373 79.6331 2.46931 80.0574 2.04501L78.9968 0.984347C78.2833 1.69782 77.9238 2.58718 77.9238 3.60534H79.4238ZM80.0574 2.04501C80.4998 1.6026 81.0131 1.39001 81.6391 1.39001V-0.109989C80.6154 -0.109989 79.7206 0.260537 78.9968 0.984347L80.0574 2.04501ZM81.6391 1.39001H91.0471V-0.109989H81.6391V1.39001ZM91.0471 1.39001C91.6731 1.39001 92.1863 1.6026 92.6288 2.04501L93.6894 0.984347C92.9656 0.260537 92.0708 -0.109989 91.0471 -0.109989V1.39001ZM92.6353 2.05151C93.0717 2.47727 93.2838 2.97971 93.2838 3.60534H94.7838C94.7838 2.5812 94.4127 1.68986 93.6828 0.977841L92.6353 2.05151ZM110.91 1.51468L110.38 2.04505L110.386 2.05151L110.91 1.51468ZM111.785 16V16.75H112.535V16H111.785ZM108.947 16H108.197V16.75H108.947V16ZM108.947 10.8373H109.697V10.0873H108.947V10.8373ZM99.2408 10.8373V10.0873H98.4908V10.8373H99.2408ZM99.2408 16V16.75H99.9908V16H99.2408ZM96.4248 16H95.6748V16.75H96.4248V16ZM97.2781 1.51468L97.8084 2.04501V2.04501L97.2781 1.51468ZM99.2408 8.02134H98.4908V8.77134H99.2408V8.02134ZM108.947 8.02134V8.77134H109.697V8.02134H108.947ZM99.3901 1.39001H108.798V-0.109989H99.3901V1.39001ZM108.798 1.39001C109.424 1.39001 109.937 1.6026 110.38 2.04501L111.44 0.984347C110.717 0.260537 109.822 -0.109989 108.798 -0.109989V1.39001ZM110.386 2.05151C110.823 2.47727 111.035 2.97971 111.035 3.60534H112.535C112.535 2.5812 112.164 1.68986 111.434 0.977841L110.386 2.05151ZM111.035 3.60534V16H112.535V3.60534H111.035ZM111.785 15.25H108.947V16.75H111.785V15.25ZM109.697 16V10.8373H108.197V16H109.697ZM108.947 10.0873H99.2408V11.5873H108.947V10.0873ZM98.4908 10.8373V16H99.9908V10.8373H98.4908ZM99.2408 15.25H96.4248V16.75H99.2408V15.25ZM97.1748 16V3.60534H95.6748V16H97.1748ZM97.1748 3.60534C97.1748 2.97373 97.3841 2.46931 97.8084 2.04501L96.7478 0.984347C96.0343 1.69782 95.6748 2.58718 95.6748 3.60534H97.1748ZM97.8084 2.04501C98.2508 1.6026 98.764 1.39001 99.3901 1.39001V-0.109989C98.3664 -0.109989 97.4716 0.260537 96.7478 0.984347L97.8084 2.04501ZM99.2408 8.77134H108.947V7.27134H99.2408V8.77134ZM109.697 8.02134V3.60534H108.197V8.02134H109.697ZM109.697 3.60534C109.697 3.43995 109.656 3.17816 109.44 2.96301C109.225 2.74786 108.963 2.70601 108.798 2.70601V4.20601C108.732 4.20601 108.545 4.18904 108.38 4.02367C108.214 3.8583 108.197 3.67118 108.197 3.60534H109.697ZM108.798 2.70601H99.3901V4.20601H108.798V2.70601ZM99.3901 2.70601C99.2247 2.70601 98.9629 2.74786 98.7478 2.96301C98.5326 3.17816 98.4908 3.43996 98.4908 3.60534H99.9908C99.9908 3.67117 99.9738 3.8583 99.8084 4.02367C99.643 4.18904 99.4559 4.20601 99.3901 4.20601V2.70601ZM98.4908 3.60534V8.02134H99.9908V3.60534H98.4908ZM122.877 7.29601L122.302 7.77831L122.878 8.46358L123.452 7.77723L122.877 7.29601ZM128.445 0.640011V-0.109989H128.094L127.869 0.158786L128.445 0.640011ZM131.538 0.640011H132.288V-0.109989H131.538V0.640011ZM131.538 16V16.75H132.288V16H131.538ZM128.701 16H127.951V16.75H128.701V16ZM128.701 4.73601H129.451V2.67709L128.126 4.25361L128.701 4.73601ZM122.877 11.6693L122.303 12.1528L122.878 12.8341L123.451 12.1517L122.877 11.6693ZM117.031 4.73601L117.605 4.25258L116.281 2.68284V4.73601H117.031ZM117.031 16V16.75H117.781V16H117.031ZM114.215 16H113.465V16.75H114.215V16ZM114.215 0.640011V-0.109989H113.465V0.640011H114.215ZM117.287 0.640011L117.862 0.157704L117.637 -0.109989H117.287V0.640011ZM123.452 7.77723L129.02 1.12124L127.869 0.158786L122.301 6.81478L123.452 7.77723ZM128.445 1.39001H131.538V-0.109989H128.445V1.39001ZM130.788 0.640011V16H132.288V0.640011H130.788ZM131.538 15.25H128.701V16.75H131.538V15.25ZM129.451 16V4.73601H127.951V16H129.451ZM128.126 4.25361L122.302 11.1869L123.451 12.1517L129.275 5.2184L128.126 4.25361ZM123.45 11.1859L117.605 4.25258L116.458 5.21944L122.303 12.1528L123.45 11.1859ZM116.281 4.73601V16H117.781V4.73601H116.281ZM117.031 15.25H114.215V16.75H117.031V15.25ZM114.965 16V0.640011H113.465V16H114.965ZM114.215 1.39001H117.287V-0.109989H114.215V1.39001ZM116.713 1.12232L122.302 7.77831L123.451 6.8137L117.862 0.157704L116.713 1.12232ZM148.172 0.640011H148.922V-0.109989H148.172V0.640011ZM148.172 3.45601V4.20601H148.922V3.45601H148.172ZM136.887 3.45601V2.70601H136.137V3.45601H136.887ZM136.887 6.91201H136.137V7.66201H136.887V6.91201ZM145.975 6.91201H146.725V6.16201H145.975V6.91201ZM145.975 9.728V10.478H146.725V9.728H145.975ZM136.887 9.728V8.978H136.137V9.728H136.887ZM136.887 13.184H136.137V13.934H136.887V13.184ZM148.172 13.184H148.922V12.434H148.172V13.184ZM148.172 16V16.75H148.922V16H148.172ZM134.05 16H133.3V16.75H134.05V16ZM134.05 0.640011V-0.109989H133.3V0.640011H134.05ZM147.422 0.640011V3.45601H148.922V0.640011H147.422ZM148.172 2.70601H136.887V4.20601H148.172V2.70601ZM136.137 3.45601V6.91201H137.637V3.45601H136.137ZM136.887 7.66201H145.975V6.16201H136.887V7.66201ZM145.225 6.91201V9.728H146.725V6.91201H145.225ZM145.975 8.978H136.887V10.478H145.975V8.978ZM136.137 9.728V13.184H137.637V9.728H136.137ZM136.887 13.934H148.172V12.434H136.887V13.934ZM147.422 13.184V16H148.922V13.184H147.422ZM148.172 15.25H134.05V16.75H148.172V15.25ZM134.8 16V0.640011H133.3V16H134.8ZM134.05 1.39001H148.172V-0.109989H134.05V1.39001Z" fill="#2643FF"/>
<path d="M153.576 19V11.32H155.624V12.7173H154.973V17.6027H155.624V19H153.576ZM156.482 12.728V11.32H164.162V12.856L158.53 17.592H164.162V19H156.482V17.464L162.114 12.728H156.482ZM166.757 11.32H171.471C171.877 11.32 172.225 11.4658 172.517 11.7573C172.808 12.0418 172.954 12.3902 172.954 12.8026V17.5173C172.954 17.9298 172.808 18.2818 172.517 18.5733C172.225 18.8578 171.877 19 171.471 19H166.757C166.344 19 165.992 18.8578 165.701 18.5733C165.416 18.2818 165.274 17.9298 165.274 17.5173V12.8026C165.274 12.3902 165.416 12.0418 165.701 11.7573C165.992 11.4658 166.344 11.32 166.757 11.32ZM166.757 17.592H171.471C171.514 17.592 171.535 17.5671 171.535 17.5173V12.8026C171.535 12.7529 171.514 12.728 171.471 12.728H166.757C166.707 12.728 166.682 12.7529 166.682 12.8026V17.5173C166.682 17.5671 166.707 17.592 166.757 17.592ZM180.39 16.952V11.32H181.809V19H180.273L175.537 13.368V19H174.129V11.32H175.665L180.39 16.952ZM190.086 11.32V12.728H184.444V14.456H188.988V15.864H184.444V17.592H190.086V19H183.025V11.32H190.086ZM191.117 12.7173V11.32H193.165V19H191.117V17.6027H191.757V12.7173H191.117Z" fill="#2643FF"/>
<path d="M153.576 19H153.198V19.378H153.576V19ZM153.576 11.32V10.942H153.198V11.32H153.576ZM155.624 11.32H156.002V10.942H155.624V11.32ZM155.624 12.7173V13.0953H156.002V12.7173H155.624ZM154.973 12.7173V12.3394H154.595V12.7173H154.973ZM154.973 17.6027H154.595V17.9806H154.973V17.6027ZM155.624 17.6027H156.002V17.2247H155.624V17.6027ZM155.624 19V19.378H156.002V19H155.624ZM153.954 19V11.32H153.198V19H153.954ZM153.576 11.6979H155.624V10.942H153.576V11.6979ZM155.246 11.32V12.7173H156.002V11.32H155.246ZM155.624 12.3394H154.973V13.0953H155.624V12.3394ZM154.595 12.7173V17.6027H155.351V12.7173H154.595ZM154.973 17.9806H155.624V17.2247H154.973V17.9806ZM155.246 17.6027V19H156.002V17.6027H155.246ZM155.624 18.622H153.576V19.378H155.624V18.622ZM156.482 12.728H156.104V13.1059H156.482V12.728ZM156.482 11.32V10.942H156.104V11.32H156.482ZM164.162 11.32H164.539V10.942H164.162V11.32ZM164.162 12.856L164.405 13.1453L164.539 13.032V12.856H164.162ZM158.53 17.592L158.286 17.3027L157.493 17.9699H158.53V17.592ZM164.162 17.592H164.539V17.214H164.162V17.592ZM164.162 19V19.378H164.539V19H164.162ZM156.482 19H156.104V19.378H156.482V19ZM156.482 17.464L156.238 17.1747L156.104 17.288V17.464H156.482ZM162.114 12.728L162.357 13.0173L163.15 12.35H162.114V12.728ZM156.859 12.728V11.32H156.104V12.728H156.859ZM156.482 11.6979H164.162V10.942H156.482V11.6979ZM163.784 11.32V12.856H164.539V11.32H163.784ZM163.918 12.5667L158.286 17.3027L158.773 17.8813L164.405 13.1453L163.918 12.5667ZM158.53 17.9699H164.162V17.214H158.53V17.9699ZM163.784 17.592V19H164.539V17.592H163.784ZM164.162 18.622H156.482V19.378H164.162V18.622ZM156.859 19V17.464H156.104V19H156.859ZM156.725 17.7533L162.357 13.0173L161.87 12.4387L156.238 17.1747L156.725 17.7533ZM162.114 12.35H156.482V13.1059H162.114V12.35ZM172.517 11.7573L172.249 12.0246L172.253 12.0278L172.517 11.7573ZM172.517 18.5733L172.781 18.8439L172.784 18.8406L172.517 18.5733ZM165.701 18.5733L165.43 18.8373L165.437 18.8439L165.701 18.5733ZM165.701 11.7573L165.968 12.0246V12.0246L165.701 11.7573ZM166.757 11.6979H171.471V10.942H166.757V11.6979ZM171.471 11.6979C171.774 11.6979 172.027 11.8025 172.249 12.0246L172.784 11.4901C172.423 11.129 171.979 10.942 171.471 10.942V11.6979ZM172.253 12.0278C172.47 12.2402 172.576 12.4906 172.576 12.8026H173.332C173.332 12.2898 173.146 11.8434 172.781 11.4868L172.253 12.0278ZM172.576 12.8026V17.5173H173.332V12.8026H172.576ZM172.576 17.5173C172.576 17.8296 172.47 18.0854 172.249 18.3061L172.784 18.8406C173.146 18.4781 173.332 18.03 173.332 17.5173H172.576ZM172.253 18.3028C172.031 18.5188 171.777 18.622 171.471 18.622V19.378C171.976 19.378 172.419 19.1968 172.781 18.8439L172.253 18.3028ZM171.471 18.622H166.757V19.378H171.471V18.622ZM166.757 18.622C166.441 18.622 166.185 18.5174 165.965 18.3028L165.437 18.8439C165.8 19.1981 166.247 19.378 166.757 19.378V18.622ZM165.971 18.3094C165.757 18.0894 165.652 17.8325 165.652 17.5173H164.896C164.896 18.027 165.076 18.4741 165.43 18.8373L165.971 18.3094ZM165.652 17.5173V12.8026H164.896V17.5173H165.652ZM165.652 12.8026C165.652 12.4876 165.756 12.2361 165.968 12.0246L165.433 11.4901C165.076 11.8474 164.896 12.2928 164.896 12.8026H165.652ZM165.968 12.0246C166.189 11.8039 166.444 11.6979 166.757 11.6979V10.942C166.244 10.942 165.796 11.1276 165.433 11.4901L165.968 12.0246ZM166.757 17.9699H171.471V17.214H166.757V17.9699ZM171.471 17.9699C171.567 17.9699 171.704 17.9392 171.806 17.8193C171.899 17.7106 171.913 17.5874 171.913 17.5173H171.157C171.157 17.497 171.16 17.4112 171.232 17.3274C171.314 17.2324 171.418 17.214 171.471 17.214V17.9699ZM171.913 17.5173V12.8026H171.157V17.5173H171.913ZM171.913 12.8026C171.913 12.7325 171.899 12.6094 171.806 12.5007C171.704 12.3808 171.567 12.35 171.471 12.35V13.1059C171.418 13.1059 171.314 13.0876 171.232 12.9926C171.16 12.9088 171.157 12.823 171.157 12.8026H171.913ZM171.471 12.35H166.757V13.1059H171.471V12.35ZM166.757 12.35C166.673 12.35 166.542 12.3711 166.433 12.4794C166.325 12.5877 166.304 12.7195 166.304 12.8026H167.06C167.06 12.836 167.051 12.9305 166.968 13.0139C166.884 13.0973 166.79 13.1059 166.757 13.1059V12.35ZM166.304 12.8026V17.5173H167.06V12.8026H166.304ZM166.304 17.5173C166.304 17.6005 166.325 17.7323 166.433 17.8406C166.542 17.9489 166.673 17.9699 166.757 17.9699V17.214C166.79 17.214 166.884 17.2226 166.968 17.3061C167.051 17.3895 167.06 17.484 167.06 17.5173H166.304ZM180.39 16.952L180.1 17.1949L180.768 17.9905V16.952H180.39ZM180.39 11.32V10.942H180.012V11.32H180.39ZM181.809 11.32H182.187V10.942H181.809V11.32ZM181.809 19V19.378H182.187V19H181.809ZM180.273 19L179.983 19.2433L180.097 19.378H180.273V19ZM175.537 13.368L175.826 13.1247L175.159 12.3313V13.368H175.537ZM175.537 19V19.378H175.915V19H175.537ZM174.129 19H173.751V19.378H174.129V19ZM174.129 11.32V10.942H173.751V11.32H174.129ZM175.665 11.32L175.954 11.077L175.841 10.942H175.665V11.32ZM180.768 16.952V11.32H180.012V16.952H180.768ZM180.39 11.6979H181.809V10.942H180.39V11.6979ZM181.431 11.32V19H182.187V11.32H181.431ZM181.809 18.622H180.273V19.378H181.809V18.622ZM180.562 18.7567L175.826 13.1247L175.247 13.6112L179.983 19.2433L180.562 18.7567ZM175.159 13.368V19H175.915V13.368H175.159ZM175.537 18.622H174.129V19.378H175.537V18.622ZM174.507 19V11.32H173.751V19H174.507ZM174.129 11.6979H175.665V10.942H174.129V11.6979ZM175.375 11.5629L180.1 17.1949L180.68 16.7091L175.954 11.077L175.375 11.5629ZM190.086 11.32H190.464V10.942H190.086V11.32ZM190.086 12.728V13.1059H190.464V12.728H190.086ZM184.444 12.728V12.35H184.066V12.728H184.444ZM184.444 14.456H184.066V14.8339H184.444V14.456ZM188.988 14.456H189.366V14.078H188.988V14.456ZM188.988 15.864V16.2419H189.366V15.864H188.988ZM184.444 15.864V15.486H184.066V15.864H184.444ZM184.444 17.592H184.066V17.9699H184.444V17.592ZM190.086 17.592H190.464V17.214H190.086V17.592ZM190.086 19V19.378H190.464V19H190.086ZM183.025 19H182.647V19.378H183.025V19ZM183.025 11.32V10.942H182.647V11.32H183.025ZM189.708 11.32V12.728H190.464V11.32H189.708ZM190.086 12.35H184.444V13.1059H190.086V12.35ZM184.066 12.728V14.456H184.822V12.728H184.066ZM184.444 14.8339H188.988V14.078H184.444V14.8339ZM188.61 14.456V15.864H189.366V14.456H188.61ZM188.988 15.486H184.444V16.2419H188.988V15.486ZM184.066 15.864V17.592H184.822V15.864H184.066ZM184.444 17.9699H190.086V17.214H184.444V17.9699ZM189.708 17.592V19H190.464V17.592H189.708ZM190.086 18.622H183.025V19.378H190.086V18.622ZM183.403 19V11.32H182.647V19H183.403ZM183.025 11.6979H190.086V10.942H183.025V11.6979ZM191.117 12.7173H190.739V13.0953H191.117V12.7173ZM191.117 11.32V10.942H190.739V11.32H191.117ZM193.165 11.32H193.543V10.942H193.165V11.32ZM193.165 19V19.378H193.543V19H193.165ZM191.117 19H190.739V19.378H191.117V19ZM191.117 17.6027V17.2247H190.739V17.6027H191.117ZM191.757 17.6027V17.9806H192.135V17.6027H191.757ZM191.757 12.7173H192.135V12.3394H191.757V12.7173ZM191.495 12.7173V11.32H190.739V12.7173H191.495ZM191.117 11.6979H193.165V10.942H191.117V11.6979ZM192.787 11.32V19H193.543V11.32H192.787ZM193.165 18.622H191.117V19.378H193.165V18.622ZM191.495 19V17.6027H190.739V19H191.495ZM191.117 17.9806H191.757V17.2247H191.117V17.9806ZM192.135 17.6027V12.7173H191.379V17.6027H192.135ZM191.757 12.3394H191.117V13.0953H191.757V12.3394Z" fill="#2643FF"/>
</svg>
