<?xml version="1.0" encoding="UTF-8" standalone="no"?>
<!-- Created with Inkscape (http://www.inkscape.org/) -->

<svg
   width="51.354527mm"
   height="5.1562099mm"
   viewBox="0 0 51.354527 5.1562099"
   version="1.1"
   id="svg1"
   xml:space="preserve"
   xmlns:inkscape="http://www.inkscape.org/namespaces/inkscape"
   xmlns:sodipodi="http://sodipodi.sourceforge.net/DTD/sodipodi-0.dtd"
   xmlns="http://www.w3.org/2000/svg"
   xmlns:svg="http://www.w3.org/2000/svg"><sodipodi:namedview
     id="namedview1"
     pagecolor="#ffffff"
     bordercolor="#000000"
     borderopacity="0.25"
     inkscape:showpageshadow="2"
     inkscape:pageopacity="0.0"
     inkscape:pagecheckerboard="0"
     inkscape:deskcolor="#d1d1d1"
     inkscape:document-units="mm" /><defs
     id="defs1" /><g
     inkscape:label="Layer 1"
     inkscape:groupmode="layer"
     id="layer1"
     transform="translate(-79.146265,-145.9219)"><g
       style="fill:#06df59;fill-opacity:1"
       id="g1"
       transform="matrix(0.26458333,0,0,0.26458333,79.292542,145.951)"><path
         d="M 10.9013,12.5867 17.7707,0.640011 h 3.264 L 12.16,16 H 9.62133 L 0.746666,0.640011 H 4.01066 Z M 22.6118,16 V 0.640011 h 2.816 V 16 Z M 27.3206,0.640011 H 39.694 c 0.8249,0 1.5289,0.291556 2.112,0.874669 0.5831,0.56889 0.8746,1.26577 0.8746,2.09066 v 9.42936 c 0,0.8249 -0.2915,1.5289 -0.8746,2.112 C 41.2229,15.7156 40.5189,16 39.694,16 H 27.3206 Z M 39.8433,13.0347 V 3.60534 c 0,-0.09955 -0.0498,-0.14933 -0.1493,-0.14933 h -9.408 c -0.0996,0 -0.1494,0.04978 -0.1494,0.14933 v 9.42936 c 0,0.0995 0.0498,0.1493 0.1494,0.1493 h 9.408 c 0.0995,0 0.1493,-0.0498 0.1493,-0.1493 z M 59.235,0.640011 V 3.45601 H 47.9496 v 3.456 h 9.088 V 9.728 h -9.088 v 3.456 H 59.235 V 16 H 45.1123 V 0.640011 Z m 4.6948,0 h 9.4293 c 0.8107,0 1.5076,0.291556 2.0907,0.874669 0.5831,0.56889 0.8746,1.26577 0.8746,2.09066 v 9.42936 c 0,0.8249 -0.2915,1.5289 -0.8746,2.112 C 74.8667,15.7156 74.1698,16 73.3591,16 h -9.4293 c -0.8249,0 -1.5289,-0.2844 -2.112,-0.8533 -0.5689,-0.5831 -0.8533,-1.2871 -0.8533,-2.112 V 3.60534 c 0,-0.82489 0.2844,-1.52177 0.8533,-2.09066 0.5831,-0.583113 1.2871,-0.874669 2.112,-0.874669 z m 0,12.543989 h 9.4293 c 0.0853,0 0.128,-0.0498 0.128,-0.1493 V 3.60534 c 0,-0.09955 -0.0427,-0.14933 -0.128,-0.14933 h -9.4293 c -0.0996,0 -0.1493,0.04978 -0.1493,0.14933 v 9.42936 c 0,0.0995 0.0497,0.1493 0.1493,0.1493 z M 94.0338,3.60534 V 4.80001 H 91.1964 V 3.60534 c 0,-0.09955 -0.0498,-0.14933 -0.1493,-0.14933 h -9.408 c -0.0996,0 -0.1493,0.04978 -0.1493,0.14933 v 9.42936 c 0,0.0995 0.0497,0.1493 0.1493,0.1493 h 9.408 c 0.0995,0 0.1493,-0.0498 0.1493,-0.1493 V 10.1333 H 87.7191 V 7.31734 h 6.3147 v 5.71736 c 0,0.8249 -0.2916,1.5289 -0.8747,2.112 C 92.576,15.7156 91.872,16 91.0471,16 h -9.408 c -0.8249,0 -1.5289,-0.2844 -2.112,-0.8533 -0.5689,-0.5831 -0.8533,-1.2871 -0.8533,-2.112 V 3.60534 c 0,-0.82489 0.2844,-1.52177 0.8533,-2.09066 0.5831,-0.583113 1.2871,-0.874669 2.112,-0.874669 h 9.408 c 0.8249,0 1.5289,0.291556 2.112,0.874669 0.5831,0.56889 0.8747,1.26577 0.8747,2.09066 z m 5.3563,-2.965329 h 9.4079 c 0.825,0 1.529,0.291556 2.112,0.874669 0.583,0.56889 0.875,1.26577 0.875,2.09066 V 16 h -2.838 V 10.8373 H 99.2408 V 16 h -2.816 V 3.60534 c 0,-0.82489 0.2844,-1.52177 0.8533,-2.09066 0.5831,-0.583113 1.2871,-0.874669 2.112,-0.874669 z M 99.2408,8.02134 h 9.7062 v -4.416 c 0,-0.09955 -0.049,-0.14933 -0.149,-0.14933 h -9.4079 c -0.0996,0 -0.1493,0.04978 -0.1493,0.14933 z m 23.6362,-0.72533 5.568,-6.655999 h 3.093 V 16 h -2.837 V 4.73601 l -5.824,6.93329 -5.846,-6.93329 V 16 h -2.816 V 0.640011 h 3.072 z M 148.172,0.640011 V 3.45601 h -11.285 v 3.456 h 9.088 V 9.728 h -9.088 v 3.456 h 11.285 V 16 H 134.05 V 0.640011 Z"
         fill="#2643ff"
         id="path1"
         style="fill:#06df59;fill-opacity:1" /><path
         d="m 10.9013,12.5867 -0.6497,0.3747 0.6507,1.1281 0.6492,-1.129 z M 17.7707,0.640011 v -0.75 h -0.4339 l -0.2163,0.376147 z m 3.264,0 0.6493,0.375209 0.6502,-1.125209 H 21.0347 Z M 12.16,16 v 0.75 h 0.4328 l 0.2166,-0.3748 z M 9.62133,16 8.97193,16.3752 9.18847,16.75 H 9.62133 Z M 0.746666,0.640011 v -0.75 H -0.552853 L 0.0972673,1.01522 Z m 3.263994,0 L 4.66034,0.265286 4.44389,-0.109989 H 4.01066 Z M 11.5515,12.9605 18.4208,1.01386 17.1205,0.266158 10.2511,12.2128 Z M 17.7707,1.39001 h 3.264 v -1.499999 h -3.264 z M 20.3853,0.264803 11.5106,15.6248 12.8094,16.3752 21.684,1.01522 Z M 12.16,15.25 H 9.62133 v 1.5 H 12.16 Z M 10.2707,15.6248 1.39606,0.264803 0.0972673,1.01522 8.97193,16.3752 Z M 0.746666,1.39001 H 4.01066 V -0.109989 H 0.746666 Z M 3.36099,1.01474 10.2516,12.9614 11.551,12.2119 4.66034,0.265286 Z M 22.6118,16 h -0.75 v 0.75 h 0.75 z m 0,-15.359989 v -0.75 h -0.75 v 0.75 z m 2.816,0 h 0.75 v -0.75 h -0.75 z M 25.4278,16 v 0.75 h 0.75 V 16 Z m -2.066,0 V 0.640011 h -1.5 V 16 Z m -0.75,-14.60999 h 2.816 v -1.499999 h -2.816 z m 2.066,-0.749999 V 16 h 1.5 V 0.640011 Z M 25.4278,15.25 h -2.816 v 1.5 h 2.816 z M 27.3206,0.640011 v -0.75 h -0.75 v 0.75 z M 41.806,1.51468 41.2756,2.04505 41.2822,2.05151 Z m 0,13.63202 0.5238,0.5368 0.0065,-0.0065 z M 27.3206,16 h -0.75 v 0.75 h 0.75 z m 0,-14.60999 H 39.694 V -0.109989 H 27.3206 Z m 12.3734,0 c 0.626,0 1.1392,0.21259 1.5816,0.655 L 42.3363,0.984347 C 41.6125,0.260537 40.7177,-0.109989 39.694,-0.109989 Z m 1.5882,0.6615 c 0.4364,0.42576 0.6484,0.9282 0.6484,1.55383 h 1.5 c 0,-1.02414 -0.3711,-1.91548 -1.1009,-2.627499 z m 0.6484,1.55383 v 9.42936 h 1.5 V 3.60534 Z m 0,9.42936 c 0,0.626 -0.2126,1.1392 -0.655,1.5816 l 1.0607,1.0607 c 0.7238,-0.7238 1.0943,-1.6186 1.0943,-2.6423 z m -0.6484,1.5751 C 40.8412,15.0401 40.3259,15.25 39.694,15.25 v 1.5 c 1.0178,0 1.9106,-0.359 2.6357,-1.0665 z M 39.694,15.25 H 27.3206 v 1.5 H 39.694 Z M 28.0706,16 V 0.640011 h -1.5 V 16 Z M 40.5933,13.0347 V 3.60534 h -1.5 v 9.42936 z m 0,-9.42936 c 0,-0.16539 -0.0419,-0.42718 -0.257,-0.64233 -0.2152,-0.21515 -0.4769,-0.257 -0.6423,-0.257 v 1.5 c -0.0659,0 -0.253,-0.01697 -0.4184,-0.18234 C 39.1103,3.8583 39.0933,3.67118 39.0933,3.60534 Z M 39.694,2.70601 h -9.408 v 1.5 h 9.408 z m -9.408,0 c -0.1654,0 -0.4272,0.04185 -0.6424,0.257 -0.2151,0.21515 -0.257,0.47695 -0.257,0.64233 h 1.5 c 0,0.06583 -0.0169,0.25296 -0.1823,0.41833 -0.1654,0.16537 -0.3525,0.18234 -0.4183,0.18234 z m -0.8994,0.89933 v 9.42936 h 1.5 V 3.60534 Z m 0,9.42936 c 0,0.1654 0.0419,0.4271 0.257,0.6423 0.2152,0.2151 0.477,0.257 0.6424,0.257 v -1.5 c 0.0658,0 0.2529,0.017 0.4183,0.1823 0.1654,0.1654 0.1823,0.3525 0.1823,0.4184 z m 0.8994,0.8993 h 9.408 v -1.5 h -9.408 z m 9.408,0 c 0.1654,0 0.4272,-0.0419 0.6423,-0.257 0.2151,-0.2151 0.257,-0.4769 0.257,-0.6423 h -1.5 c 0,-0.0659 0.017,-0.253 0.1823,-0.4184 C 39.441,12.451 39.6281,12.434 39.694,12.434 Z M 59.235,0.640011 h 0.75 v -0.75 h -0.75 z m 0,2.815999 v 0.75 h 0.75 v -0.75 z m -11.2854,0 v -0.75 h -0.75 v 0.75 z m 0,3.456 h -0.75 v 0.75 h 0.75 z m 9.088,0 h 0.75 v -0.75 h -0.75 z m 0,2.81599 v 0.75 h 0.75 v -0.75 z m -9.088,0 v -0.75 h -0.75 v 0.75 z m 0,3.456 h -0.75 v 0.75 h 0.75 z m 11.2854,0 h 0.75 v -0.75 h -0.75 z m 0,2.816 v 0.75 h 0.75 V 16 Z m -14.1227,0 h -0.75 v 0.75 h 0.75 z m 0,-15.359989 v -0.75 h -0.75 v 0.75 z m 13.3727,0 V 3.45601 h 1.5 V 0.640011 Z m 0.75,2.065999 H 47.9496 v 1.5 H 59.235 Z m -12.0354,0.75 v 3.456 h 1.5 v -3.456 z m 0.75,4.206 h 9.088 v -1.5 h -9.088 z m 8.338,-0.75 V 9.728 h 1.5 V 6.91201 Z m 0.75,2.06599 h -9.088 v 1.5 h 9.088 z m -9.838,0.75 v 3.456 h 1.5 V 9.728 Z m 0.75,4.206 H 59.235 v -1.5 H 47.9496 Z M 58.485,13.184 V 16 h 1.5 v -2.816 z m 0.75,2.066 H 45.1123 v 1.5 H 59.235 Z M 45.8623,16 V 0.640011 h -1.5 V 16 Z M 45.1123,1.39001 H 59.235 V -0.109989 H 45.1123 Z m 30.3375,0.12467 -0.5304,0.53037 0.0066,0.00646 z m 0,13.63202 0.5238,0.5368 0.0065,-0.0065 z m -13.632,0 -0.5369,0.5237 0.0065,0.0066 0.0066,0.0065 z m 0,-13.63202 0.5303,0.53033 v 0 z m 2.112,-0.12467 h 9.4293 v -1.499999 h -9.4293 z m 9.4293,0 c 0.6079,0 1.1152,0.20982 1.5603,0.655 l 1.0607,-1.060663 c -0.721,-0.721041 -1.6076,-1.094336 -2.621,-1.094336 z m 1.5669,0.6615 c 0.4364,0.42576 0.6484,0.9282 0.6484,1.55383 h 1.5 c 0,-1.02414 -0.3711,-1.91548 -1.1009,-2.627499 z m 0.6484,1.55383 v 9.42936 h 1.5 V 3.60534 Z m 0,9.42936 c 0,0.626 -0.2125,1.1392 -0.655,1.5816 l 1.0607,1.0607 c 0.7238,-0.7238 1.0943,-1.6186 1.0943,-2.6423 z m -0.6484,1.5751 c -0.4438,0.433 -0.953,0.6402 -1.5669,0.6402 v 1.5 c 1.0075,0 1.892,-0.3617 2.6144,-1.0665 z M 73.3591,15.25 h -9.4293 v 1.5 h 9.4293 z m -9.4293,0 c -0.632,0 -1.1472,-0.2099 -1.5883,-0.6402 l -1.0475,1.0737 c 0.7252,0.7075 1.6179,1.0665 2.6358,1.0665 z m -1.5752,-0.6271 c -0.4303,-0.441 -0.6401,-0.9563 -0.6401,-1.5882 h -1.5 c 0,1.0178 0.359,1.9106 1.0664,2.6357 z M 61.7145,13.0347 V 3.60534 h -1.5 v 9.42936 z m 0,-9.42936 c 0,-0.63161 0.2093,-1.13603 0.6336,-1.56033 L 61.2875,0.984347 C 60.574,1.69782 60.2145,2.58718 60.2145,3.60534 Z m 0.6336,-1.56033 c 0.4424,-0.44241 0.9556,-0.655 1.5817,-0.655 v -1.499999 c -1.0237,0 -1.9185,0.370526 -2.6423,1.094336 z M 63.9298,13.934 h 9.4293 v -1.5 h -9.4293 z m 9.4293,0 c 0.1911,0 0.4614,-0.0611 0.6655,-0.2992 0.1851,-0.216 0.2125,-0.4606 0.2125,-0.6001 h -1.5 c 0,-0.04 0.0061,-0.2099 0.1486,-0.3761 0.1614,-0.1884 0.3677,-0.2246 0.4734,-0.2246 z m 0.878,-0.8993 V 3.60534 h -1.5 v 9.42936 z m 0,-9.42936 c 0,-0.13952 -0.0274,-0.38411 -0.2125,-0.60009 C 73.8205,2.76714 73.5502,2.70601 73.3591,2.70601 v 1.5 c -0.1057,0 -0.312,-0.03624 -0.4734,-0.22457 -0.1425,-0.1662 -0.1486,-0.33613 -0.1486,-0.3761 z m -0.878,-0.89933 h -9.4293 v 1.5 h 9.4293 z m -9.4293,0 c -0.1654,0 -0.4272,0.04185 -0.6423,0.257 -0.2152,0.21515 -0.257,0.47695 -0.257,0.64233 h 1.4999 c 0,0.06583 -0.0169,0.25296 -0.1823,0.41833 -0.1654,0.16537 -0.3525,0.18234 -0.4183,0.18234 z m -0.8993,0.89933 v 9.42936 h 1.4999 V 3.60534 Z m 0,9.42936 c 0,0.1654 0.0418,0.4271 0.257,0.6423 0.2151,0.2151 0.4769,0.257 0.6423,0.257 v -1.5 c 0.0658,0 0.2529,0.017 0.4183,0.1823 0.1654,0.1654 0.1823,0.3525 0.1823,0.4184 z M 94.0338,4.80001 v 0.75 h 0.75 v -0.75 z m -2.8374,0 h -0.75 v 0.75 h 0.75 z m 0,5.33329 h 0.75 V 9.38334 h -0.75 z m -3.4773,0 h -0.75 v 0.75 h 0.75 z m 0,-2.81596 v -0.75 h -0.75 v 0.75 z m 6.3147,0 h 0.75 v -0.75 h -0.75 z m -0.8747,7.82936 0.5238,0.5368 0.0065,-0.0065 z m -13.632,0 -0.5368,0.5237 0.0064,0.0066 0.0067,0.0065 z m 0,-13.63202 0.5303,0.53033 v 0 z m 13.632,0 -0.5304,0.53037 0.0066,0.00646 z m 0.1247,2.09066 v 1.19467 h 1.5 V 3.60534 Z m 0.75,0.44467 h -2.8374 v 1.5 h 2.8374 z m -2.0874,0.75 V 3.60534 h -1.5 v 1.19467 z m 0,-1.19467 c 0,-0.16538 -0.0418,-0.42718 -0.257,-0.64233 -0.2151,-0.21515 -0.4769,-0.257 -0.6423,-0.257 v 1.5 c -0.0658,0 -0.253,-0.01697 -0.4183,-0.18234 C 90.4634,3.8583 90.4464,3.67117 90.4464,3.60534 Z M 91.0471,2.70601 h -9.408 v 1.5 h 9.408 z m -9.408,0 c -0.1654,0 -0.4272,0.04185 -0.6423,0.257 -0.2152,0.21515 -0.257,0.47695 -0.257,0.64233 h 1.5 c 0,0.06583 -0.017,0.25296 -0.1824,0.41833 -0.1653,0.16537 -0.3525,0.18234 -0.4183,0.18234 z m -0.8993,0.89933 v 9.42936 h 1.5 V 3.60534 Z m 0,9.42936 c 0,0.1654 0.0418,0.4271 0.257,0.6423 0.2151,0.2151 0.4769,0.257 0.6423,0.257 v -1.5 c 0.0658,0 0.253,0.017 0.4183,0.1823 0.1654,0.1654 0.1824,0.3525 0.1824,0.4184 z m 0.8993,0.8993 h 9.408 v -1.5 h -9.408 z m 9.408,0 c 0.1654,0 0.4272,-0.0419 0.6423,-0.257 0.2152,-0.2152 0.257,-0.4769 0.257,-0.6423 h -1.5 c 0,-0.0659 0.017,-0.253 0.1824,-0.4184 0.1653,-0.1653 0.3525,-0.1823 0.4183,-0.1823 z m 0.8993,-0.8993 v -2.9014 h -1.5 v 2.9014 z m -0.75,-3.65136 h -3.4773 v 1.49996 h 3.4773 z M 88.4691,10.1333 V 7.31734 h -1.5 v 2.81596 z m -0.75,-2.06596 h 6.3147 v -1.5 h -6.3147 z m 5.5647,-0.75 v 5.71736 h 1.5 V 7.31734 Z m 0,5.71736 c 0,0.626 -0.2126,1.1392 -0.655,1.5816 l 1.0606,1.0607 c 0.7238,-0.7238 1.0944,-1.6186 1.0944,-2.6423 z m -0.6485,1.5751 C 92.1943,15.0401 91.679,15.25 91.0471,15.25 v 1.5 c 1.0178,0 1.9106,-0.359 2.6357,-1.0665 z M 91.0471,15.25 h -9.408 v 1.5 h 9.408 z m -9.408,0 c -0.6319,0 -1.1472,-0.2099 -1.5883,-0.6402 l -1.0474,1.0737 c 0.7251,0.7075 1.6179,1.0665 2.6357,1.0665 z m -1.5752,-0.6271 c -0.4303,-0.441 -0.6401,-0.9563 -0.6401,-1.5882 h -1.5 c 0,1.0178 0.359,1.9106 1.0665,2.6357 z M 79.4238,13.0347 V 3.60534 h -1.5 v 9.42936 z m 0,-9.42936 c 0,-0.63161 0.2093,-1.13603 0.6336,-1.56033 L 78.9968,0.984347 C 78.2833,1.69782 77.9238,2.58718 77.9238,3.60534 Z m 0.6336,-1.56033 c 0.4424,-0.44241 0.9557,-0.655 1.5817,-0.655 v -1.499999 c -1.0237,0 -1.9185,0.370526 -2.6423,1.094336 z m 1.5817,-0.655 h 9.408 v -1.499999 h -9.408 z m 9.408,0 c 0.626,0 1.1392,0.21259 1.5817,0.655 l 1.0606,-1.060663 c -0.7238,-0.72381 -1.6186,-1.094336 -2.6423,-1.094336 z m 1.5882,0.6615 c 0.4364,0.42576 0.6485,0.9282 0.6485,1.55383 h 1.5 c 0,-1.02414 -0.3711,-1.91548 -1.101,-2.627499 z m 18.2747,-0.53683 -0.53,0.53037 0.006,0.00646 z M 111.785,16 v 0.75 h 0.75 V 16 Z m -2.838,0 h -0.75 v 0.75 h 0.75 z m 0,-5.1627 h 0.75 v -0.75 h -0.75 z m -9.7062,0 v -0.75 h -0.75 v 0.75 z m 0,5.1627 v 0.75 h 0.75 V 16 Z m -2.816,0 h -0.75 v 0.75 h 0.75 z m 0.8533,-14.48532 0.5303,0.53033 v 0 z m 1.9627,6.50666 h -0.75 v 0.75 h 0.75 z m 9.7062,0 v 0.75 h 0.75 v -0.75 z M 99.3901,1.39001 h 9.4079 v -1.499999 h -9.4079 z m 9.4079,0 c 0.626,0 1.139,0.21259 1.582,0.655 l 1.06,-1.060663 c -0.723,-0.72381 -1.618,-1.094336 -2.642,-1.094336 z m 1.588,0.6615 c 0.437,0.42576 0.649,0.9282 0.649,1.55383 h 1.5 c 0,-1.02414 -0.371,-1.91548 -1.101,-2.627499 z m 0.649,1.55383 V 16 h 1.5 V 3.60534 Z m 0.75,11.64466 h -2.838 v 1.5 h 2.838 z M 109.697,16 v -5.1627 h -1.5 V 16 Z m -0.75,-5.9127 h -9.7062 v 1.5 h 9.7062 z m -10.4562,0.75 V 16 h 1.5 v -5.1627 z m 0.75,4.4127 h -2.816 v 1.5 h 2.816 z M 97.1748,16 V 3.60534 h -1.5 V 16 Z m 0,-12.39466 c 0,-0.63161 0.2093,-1.13603 0.6336,-1.56033 L 96.7478,0.984347 C 96.0343,1.69782 95.6748,2.58718 95.6748,3.60534 Z m 0.6336,-1.56033 c 0.4424,-0.44241 0.9556,-0.655 1.5817,-0.655 v -1.499999 c -1.0237,0 -1.9185,0.370526 -2.6423,1.094336 z m 1.4324,6.72633 h 9.7062 v -1.5 h -9.7062 z m 10.4562,-0.75 v -4.416 h -1.5 v 4.416 z m 0,-4.416 c 0,-0.16539 -0.041,-0.42718 -0.257,-0.64233 -0.215,-0.21515 -0.477,-0.257 -0.642,-0.257 v 1.5 c -0.066,0 -0.253,-0.01697 -0.418,-0.18234 -0.166,-0.16537 -0.183,-0.35249 -0.183,-0.41833 z m -0.899,-0.89933 h -9.4079 v 1.5 h 9.4079 z m -9.4079,0 c -0.1654,0 -0.4272,0.04185 -0.6423,0.257 -0.2152,0.21515 -0.257,0.47695 -0.257,0.64233 h 1.5 c 0,0.06583 -0.017,0.25296 -0.1824,0.41833 -0.1654,0.16537 -0.3525,0.18234 -0.4183,0.18234 z m -0.8993,0.89933 v 4.416 h 1.5 v -4.416 z m 24.3862,3.69067 -0.575,0.4823 0.576,0.68527 0.574,-0.68635 z m 5.568,-6.655999 v -0.75 h -0.351 l -0.225,0.268775 z m 3.093,0 h 0.75 v -0.75 h -0.75 z M 131.538,16 v 0.75 h 0.75 V 16 Z m -2.837,0 h -0.75 v 0.75 h 0.75 z m 0,-11.26399 h 0.75 V 2.67709 l -1.325,1.57652 z m -5.824,6.93329 -0.574,0.4835 0.575,0.6813 0.573,-0.6824 z m -5.846,-6.93329 0.574,-0.48343 -1.324,-1.56974 v 2.05317 z m 0,11.26399 v 0.75 h 0.75 V 16 Z m -2.816,0 h -0.75 v 0.75 h 0.75 z m 0,-15.359989 v -0.75 h -0.75 v 0.75 z m 3.072,0 0.575,-0.482307 -0.225,-0.267693 h -0.35 z m 6.165,7.137219 5.568,-6.65599 -1.151,-0.962454 -5.568,6.655994 z m 4.993,-6.38722 h 3.093 v -1.499999 h -3.093 z m 2.343,-0.749999 V 16 h 1.5 V 0.640011 Z M 131.538,15.25 h -2.837 v 1.5 h 2.837 z M 129.451,16 V 4.73601 h -1.5 V 16 Z m -1.325,-11.74639 -5.824,6.93329 1.149,0.9648 5.824,-6.9333 z m -4.676,6.93229 -5.845,-6.93332 -1.147,0.96686 5.845,6.93336 z M 116.281,4.73601 V 16 h 1.5 V 4.73601 Z m 0.75,10.51399 h -2.816 v 1.5 h 2.816 z M 114.965,16 V 0.640011 h -1.5 V 16 Z m -0.75,-14.60999 h 3.072 v -1.499999 h -3.072 z m 2.498,-0.26769 5.589,6.65599 1.149,-0.96461 -5.589,-6.655996 z m 31.459,-0.482309 h 0.75 v -0.75 h -0.75 z m 0,2.815999 v 0.75 h 0.75 v -0.75 z m -11.285,0 v -0.75 h -0.75 v 0.75 z m 0,3.456 h -0.75 v 0.75 h 0.75 z m 9.088,0 h 0.75 v -0.75 h -0.75 z m 0,2.81599 v 0.75 h 0.75 v -0.75 z m -9.088,0 v -0.75 h -0.75 v 0.75 z m 0,3.456 h -0.75 v 0.75 h 0.75 z m 11.285,0 h 0.75 v -0.75 h -0.75 z m 0,2.816 v 0.75 h 0.75 V 16 Z m -14.122,0 h -0.75 v 0.75 h 0.75 z m 0,-15.359989 v -0.75 h -0.75 v 0.75 z m 13.372,0 V 3.45601 h 1.5 V 0.640011 Z m 0.75,2.065999 h -11.285 v 1.5 h 11.285 z m -12.035,0.75 v 3.456 h 1.5 v -3.456 z m 0.75,4.206 h 9.088 v -1.5 h -9.088 z m 8.338,-0.75 V 9.728 h 1.5 V 6.91201 Z m 0.75,2.06599 h -9.088 v 1.5 h 9.088 z m -9.838,0.75 v 3.456 h 1.5 V 9.728 Z m 0.75,4.206 h 11.285 v -1.5 h -11.285 z m 10.535,-0.75 V 16 h 1.5 v -2.816 z m 0.75,2.066 H 134.05 v 1.5 h 14.122 z M 134.8,16 V 0.640011 h -1.5 V 16 Z M 134.05,1.39001 h 14.122 V -0.109989 H 134.05 Z"
         fill="#2643ff"
         id="path2"
         style="fill:#06df59;fill-opacity:1" /><path
         d="m 153.576,19 v -7.68 h 2.048 v 1.3973 h -0.651 v 4.8854 h 0.651 V 19 Z m 2.906,-6.272 V 11.32 h 7.68 v 1.536 l -5.632,4.736 h 5.632 V 19 h -7.68 v -1.536 l 5.632,-4.736 z m 10.275,-1.408 h 4.714 c 0.406,0 0.754,0.1458 1.046,0.4373 0.291,0.2845 0.437,0.6329 0.437,1.0453 v 4.7147 c 0,0.4125 -0.146,0.7645 -0.437,1.056 C 172.225,18.8578 171.877,19 171.471,19 h -4.714 c -0.413,0 -0.765,-0.1422 -1.056,-0.4267 -0.285,-0.2915 -0.427,-0.6435 -0.427,-1.056 v -4.7147 c 0,-0.4124 0.142,-0.7608 0.427,-1.0453 0.291,-0.2915 0.643,-0.4373 1.056,-0.4373 z m 0,6.272 h 4.714 c 0.043,0 0.064,-0.0249 0.064,-0.0747 v -4.7147 c 0,-0.0497 -0.021,-0.0746 -0.064,-0.0746 h -4.714 c -0.05,0 -0.075,0.0249 -0.075,0.0746 v 4.7147 c 0,0.0498 0.025,0.0747 0.075,0.0747 z m 13.633,-0.64 V 11.32 h 1.419 V 19 h -1.536 l -4.736,-5.632 V 19 h -1.408 v -7.68 h 1.536 z m 9.696,-5.632 v 1.408 h -5.642 v 1.728 h 4.544 v 1.408 h -4.544 v 1.728 h 5.642 V 19 h -7.061 v -7.68 z m 1.031,1.3973 V 11.32 h 2.048 V 19 h -2.048 v -1.3973 h 0.64 v -4.8854 z"
         fill="#2643ff"
         id="path3"
         style="fill:#06df59;fill-opacity:1" /><path
         d="m 153.576,19 h -0.378 v 0.378 h 0.378 z m 0,-7.68 v -0.378 h -0.378 v 0.378 z m 2.048,0 h 0.378 v -0.378 h -0.378 z m 0,1.3973 v 0.378 h 0.378 v -0.378 z m -0.651,0 v -0.3779 h -0.378 v 0.3779 z m 0,4.8854 h -0.378 v 0.3779 h 0.378 z m 0.651,0 h 0.378 v -0.378 h -0.378 z m 0,1.3973 v 0.378 h 0.378 V 19 Z m -1.67,0 v -7.68 h -0.756 V 19 Z m -0.378,-7.3021 h 2.048 V 10.942 h -2.048 z m 1.67,-0.3779 v 1.3973 h 0.756 V 11.32 Z m 0.378,1.0194 h -0.651 v 0.7559 h 0.651 z m -1.029,0.3779 v 4.8854 h 0.756 v -4.8854 z m 0.378,5.2633 h 0.651 v -0.7559 h -0.651 z m 0.273,-0.3779 V 19 h 0.756 v -1.3973 z m 0.378,1.0193 h -2.048 v 0.756 h 2.048 z m 0.858,-5.894 h -0.378 v 0.3779 h 0.378 z m 0,-1.408 v -0.378 h -0.378 v 0.378 z m 7.68,0 h 0.377 v -0.378 h -0.377 z m 0,1.536 0.243,0.2893 0.134,-0.1133 v -0.176 z m -5.632,4.736 -0.244,-0.2893 -0.793,0.6672 h 1.037 z m 5.632,0 h 0.377 v -0.378 h -0.377 z m 0,1.408 v 0.378 h 0.377 V 19 Z m -7.68,0 h -0.378 v 0.378 h 0.378 z m 0,-1.536 -0.244,-0.2893 -0.134,0.1133 v 0.176 z m 5.632,-4.736 0.243,0.2893 0.793,-0.6673 h -1.036 z m -5.255,0 V 11.32 h -0.755 v 1.408 z m -0.377,-1.0301 h 7.68 V 10.942 h -7.68 z m 7.302,-0.3779 v 1.536 h 0.755 V 11.32 Z m 0.134,1.2467 -5.632,4.736 0.487,0.5786 5.632,-4.736 z m -5.388,5.4032 h 5.632 V 17.214 h -5.632 z m 5.254,-0.3779 V 19 h 0.755 v -1.408 z m 0.378,1.03 h -7.68 v 0.756 h 7.68 z M 156.859,19 v -1.536 h -0.755 V 19 Z m -0.134,-1.2467 5.632,-4.736 -0.487,-0.5786 -5.632,4.736 z m 5.389,-5.4033 h -5.632 v 0.7559 h 5.632 z m 10.403,-0.5927 -0.268,0.2673 0.004,0.0032 z m 0,6.816 0.264,0.2706 0.003,-0.0033 z m -6.816,0 -0.271,0.264 0.007,0.0066 z m 0,-6.816 0.267,0.2673 v 0 z m 1.056,-0.0594 h 4.714 V 10.942 h -4.714 z m 4.714,0 c 0.303,0 0.556,0.1046 0.778,0.3267 l 0.535,-0.5345 c -0.361,-0.3611 -0.805,-0.5481 -1.313,-0.5481 z m 0.782,0.3299 c 0.217,0.2124 0.323,0.4628 0.323,0.7748 h 0.756 c 0,-0.5128 -0.186,-0.9592 -0.551,-1.3158 z m 0.323,0.7748 v 4.7147 h 0.756 v -4.7147 z m 0,4.7147 c 0,0.3123 -0.106,0.5681 -0.327,0.7888 l 0.535,0.5345 c 0.362,-0.3625 0.548,-0.8106 0.548,-1.3233 z m -0.323,0.7855 c -0.222,0.216 -0.476,0.3192 -0.782,0.3192 v 0.756 c 0.505,0 0.948,-0.1812 1.31,-0.5341 z m -0.782,0.3192 h -4.714 v 0.756 h 4.714 z m -4.714,0 c -0.316,0 -0.572,-0.1046 -0.792,-0.3192 l -0.528,0.5411 c 0.363,0.3542 0.81,0.5341 1.32,0.5341 z m -0.786,-0.3126 c -0.214,-0.22 -0.319,-0.4769 -0.319,-0.7921 h -0.756 c 0,0.5097 0.18,0.9568 0.534,1.32 z m -0.319,-0.7921 v -4.7147 h -0.756 v 4.7147 z m 0,-4.7147 c 0,-0.315 0.104,-0.5665 0.316,-0.778 l -0.535,-0.5345 c -0.357,0.3573 -0.537,0.8027 -0.537,1.3125 z m 0.316,-0.778 c 0.221,-0.2207 0.476,-0.3267 0.789,-0.3267 V 10.942 c -0.513,0 -0.961,0.1856 -1.324,0.5481 z m 0.789,5.9453 h 4.714 V 17.214 h -4.714 z m 4.714,0 c 0.096,0 0.233,-0.0307 0.335,-0.1506 0.093,-0.1087 0.107,-0.2319 0.107,-0.302 h -0.756 c 0,-0.0203 0.003,-0.1061 0.075,-0.1899 0.082,-0.095 0.186,-0.1134 0.239,-0.1134 z m 0.442,-0.4526 v -4.7147 h -0.756 v 4.7147 z m 0,-4.7147 c 0,-0.0701 -0.014,-0.1932 -0.107,-0.3019 -0.102,-0.1199 -0.239,-0.1507 -0.335,-0.1507 v 0.7559 c -0.053,0 -0.157,-0.0183 -0.239,-0.1133 -0.072,-0.0838 -0.075,-0.1696 -0.075,-0.19 z M 171.471,12.35 h -4.714 v 0.7559 h 4.714 z m -4.714,0 c -0.084,0 -0.215,0.0211 -0.324,0.1294 -0.108,0.1083 -0.129,0.2401 -0.129,0.3232 h 0.756 c 0,0.0334 -0.009,0.1279 -0.092,0.2113 -0.084,0.0834 -0.178,0.092 -0.211,0.092 z m -0.453,0.4526 v 4.7147 h 0.756 v -4.7147 z m 0,4.7147 c 0,0.0832 0.021,0.215 0.129,0.3233 0.109,0.1083 0.24,0.1293 0.324,0.1293 V 17.214 c 0.033,0 0.127,0.0086 0.211,0.0921 0.083,0.0834 0.092,0.1779 0.092,0.2112 z m 14.086,-0.5653 -0.29,0.2429 0.668,0.7956 V 16.952 Z m 0,-5.632 v -0.378 h -0.378 v 0.378 z m 1.419,0 h 0.378 v -0.378 h -0.378 z m 0,7.68 v 0.378 h 0.378 V 19 Z m -1.536,0 -0.29,0.2433 0.114,0.1347 h 0.176 z m -4.736,-5.632 0.289,-0.2433 -0.667,-0.7934 v 1.0367 z m 0,5.632 v 0.378 h 0.378 V 19 Z m -1.408,0 h -0.378 v 0.378 h 0.378 z m 0,-7.68 v -0.378 h -0.378 v 0.378 z m 1.536,0 0.289,-0.243 -0.113,-0.135 h -0.176 z m 5.103,5.632 V 11.32 h -0.756 v 5.632 z m -0.378,-5.2541 h 1.419 V 10.942 H 180.39 Z M 181.431,11.32 V 19 h 0.756 v -7.68 z m 0.378,7.302 h -1.536 v 0.756 h 1.536 z m -1.247,0.1347 -4.736,-5.632 -0.579,0.4865 4.736,5.6321 z M 175.159,13.368 V 19 h 0.756 v -5.632 z m 0.378,5.254 h -1.408 v 0.756 h 1.408 z M 174.507,19 v -7.68 h -0.756 V 19 Z m -0.378,-7.3021 h 1.536 V 10.942 h -1.536 z m 1.246,-0.135 4.725,5.632 0.58,-0.4858 -4.726,-5.6321 z M 190.086,11.32 h 0.378 v -0.378 h -0.378 z m 0,1.408 v 0.3779 h 0.378 V 12.728 Z m -5.642,0 V 12.35 h -0.378 v 0.378 z m 0,1.728 h -0.378 v 0.3779 h 0.378 z m 4.544,0 h 0.378 v -0.378 h -0.378 z m 0,1.408 v 0.3779 h 0.378 V 15.864 Z m -4.544,0 v -0.378 h -0.378 v 0.378 z m 0,1.728 h -0.378 v 0.3779 h 0.378 z m 5.642,0 h 0.378 v -0.378 h -0.378 z m 0,1.408 v 0.378 h 0.378 V 19 Z m -7.061,0 h -0.378 v 0.378 h 0.378 z m 0,-7.68 v -0.378 h -0.378 v 0.378 z m 6.683,0 v 1.408 h 0.756 V 11.32 Z m 0.378,1.03 h -5.642 v 0.7559 h 5.642 z m -6.02,0.378 v 1.728 h 0.756 v -1.728 z m 0.378,2.1059 h 4.544 V 14.078 h -4.544 z m 4.166,-0.3779 v 1.408 h 0.756 v -1.408 z m 0.378,1.03 h -4.544 v 0.7559 h 4.544 z m -4.922,0.378 v 1.728 h 0.756 v -1.728 z m 0.378,2.1059 h 5.642 V 17.214 h -5.642 z m 5.264,-0.3779 V 19 h 0.756 v -1.408 z m 0.378,1.03 h -7.061 v 0.756 h 7.061 z M 183.403,19 v -7.68 h -0.756 V 19 Z m -0.378,-7.3021 h 7.061 V 10.942 h -7.061 z m 8.092,1.0194 h -0.378 v 0.378 h 0.378 z m 0,-1.3973 v -0.378 h -0.378 v 0.378 z m 2.048,0 h 0.378 v -0.378 h -0.378 z m 0,7.68 v 0.378 h 0.378 V 19 Z m -2.048,0 h -0.378 v 0.378 h 0.378 z m 0,-1.3973 v -0.378 h -0.378 v 0.378 z m 0.64,0 v 0.3779 h 0.378 v -0.3779 z m 0,-4.8854 h 0.378 v -0.3779 h -0.378 z m -0.262,0 V 11.32 h -0.756 v 1.3973 z m -0.378,-1.0194 h 2.048 V 10.942 h -2.048 z m 1.67,-0.3779 V 19 h 0.756 v -7.68 z m 0.378,7.302 h -2.048 v 0.756 h 2.048 z M 191.495,19 v -1.3973 h -0.756 V 19 Z m -0.378,-1.0194 h 0.64 v -0.7559 h -0.64 z m 1.018,-0.3779 v -4.8854 h -0.756 v 4.8854 z m -0.378,-5.2633 h -0.64 v 0.7559 h 0.64 z"
         fill="#2643ff"
         id="path4"
         style="fill:#06df59;fill-opacity:1" /></g></g></svg>
