<svg width="151" height="30" viewBox="0 0 151 30" fill="none" xmlns="http://www.w3.org/2000/svg">
<path d="M10.9013 12.5867L17.7707 0.640011H21.0347L12.16 16H9.62133L0.746666 0.640011H4.01066L10.9013 12.5867ZM22.6118 16V0.640011H25.4278V16H22.6118ZM27.3206 0.640011H39.694C40.5189 0.640011 41.2229 0.931567 41.806 1.51468C42.3891 2.08357 42.6806 2.78045 42.6806 3.60534V13.0347C42.6806 13.8596 42.3891 14.5636 41.806 15.1467C41.2229 15.7156 40.5189 16 39.694 16H27.3206V0.640011ZM39.8433 13.0347V3.60534C39.8433 3.50579 39.7935 3.45601 39.694 3.45601H30.286C30.1864 3.45601 30.1366 3.50579 30.1366 3.60534V13.0347C30.1366 13.1342 30.1864 13.184 30.286 13.184H39.694C39.7935 13.184 39.8433 13.1342 39.8433 13.0347ZM59.235 0.640011V3.45601H47.9496V6.91201H57.0376V9.728H47.9496V13.184H59.235V16H45.1123V0.640011H59.235ZM63.9298 0.640011H73.3591C74.1698 0.640011 74.8667 0.931567 75.4498 1.51468C76.0329 2.08357 76.3244 2.78045 76.3244 3.60534V13.0347C76.3244 13.8596 76.0329 14.5636 75.4498 15.1467C74.8667 15.7156 74.1698 16 73.3591 16H63.9298C63.1049 16 62.4009 15.7156 61.8178 15.1467C61.2489 14.5636 60.9645 13.8596 60.9645 13.0347V3.60534C60.9645 2.78045 61.2489 2.08357 61.8178 1.51468C62.4009 0.931567 63.1049 0.640011 63.9298 0.640011ZM63.9298 13.184H73.3591C73.4444 13.184 73.4871 13.1342 73.4871 13.0347V3.60534C73.4871 3.50579 73.4444 3.45601 73.3591 3.45601H63.9298C63.8302 3.45601 63.7805 3.50579 63.7805 3.60534V13.0347C63.7805 13.1342 63.8302 13.184 63.9298 13.184ZM94.0338 3.60534V4.80001H91.1964V3.60534C91.1964 3.50579 91.1466 3.45601 91.0471 3.45601H81.6391C81.5395 3.45601 81.4898 3.50579 81.4898 3.60534V13.0347C81.4898 13.1342 81.5395 13.184 81.6391 13.184H91.0471C91.1466 13.184 91.1964 13.1342 91.1964 13.0347V10.1333H87.7191V7.31734H94.0338V13.0347C94.0338 13.8596 93.7422 14.5636 93.1591 15.1467C92.576 15.7156 91.872 16 91.0471 16H81.6391C80.8142 16 80.1102 15.7156 79.5271 15.1467C78.9582 14.5636 78.6738 13.8596 78.6738 13.0347V3.60534C78.6738 2.78045 78.9582 2.08357 79.5271 1.51468C80.1102 0.931567 80.8142 0.640011 81.6391 0.640011H91.0471C91.872 0.640011 92.576 0.931567 93.1591 1.51468C93.7422 2.08357 94.0338 2.78045 94.0338 3.60534ZM99.3901 0.640011H108.798C109.623 0.640011 110.327 0.931567 110.91 1.51468C111.493 2.08357 111.785 2.78045 111.785 3.60534V16H108.947V10.8373H99.2408V16H96.4248V3.60534C96.4248 2.78045 96.7092 2.08357 97.2781 1.51468C97.8612 0.931567 98.5652 0.640011 99.3901 0.640011ZM99.2408 8.02134H108.947V3.60534C108.947 3.50579 108.898 3.45601 108.798 3.45601H99.3901C99.2905 3.45601 99.2408 3.50579 99.2408 3.60534V8.02134ZM122.877 7.29601L128.445 0.640011H131.538V16H128.701V4.73601L122.877 11.6693L117.031 4.73601V16H114.215V0.640011H117.287L122.877 7.29601ZM148.172 0.640011V3.45601H136.887V6.91201H145.975V9.728H136.887V13.184H148.172V16H134.05V0.640011H148.172Z" fill="#2643FF"/>
<path d="M10.9013 12.5867L10.2516 12.9614L10.9023 14.0895L11.5515 12.9605L10.9013 12.5867ZM17.7707 0.640011V-0.109989H17.3368L17.1205 0.266158L17.7707 0.640011ZM21.0347 0.640011L21.6841 1.01522L22.3342 -0.109989H21.0347V0.640011ZM12.16 16V16.75H12.5928L12.8094 16.3752L12.16 16ZM9.62133 16L8.97193 16.3752L9.18847 16.75H9.62133V16ZM0.746666 0.640011V-0.109989H-0.552853L0.0972673 1.01522L0.746666 0.640011ZM4.01066 0.640011L4.66034 0.265286L4.44389 -0.109989H4.01066V0.640011ZM11.5515 12.9605L18.4208 1.01386L17.1205 0.266158L10.2511 12.2128L11.5515 12.9605ZM17.7707 1.39001H21.0347V-0.109989H17.7707V1.39001ZM20.3853 0.264803L11.5106 15.6248L12.8094 16.3752L21.6841 1.01522L20.3853 0.264803ZM12.16 15.25H9.62133V16.75H12.16V15.25ZM10.2707 15.6248L1.39606 0.264803L0.0972673 1.01522L8.97193 16.3752L10.2707 15.6248ZM0.746666 1.39001H4.01066V-0.109989H0.746666V1.39001ZM3.36099 1.01474L10.2516 12.9614L11.551 12.2119L4.66034 0.265286L3.36099 1.01474ZM22.6118 16H21.8618V16.75H22.6118V16ZM22.6118 0.640011V-0.109989H21.8618V0.640011H22.6118ZM25.4278 0.640011H26.1778V-0.109989H25.4278V0.640011ZM25.4278 16V16.75H26.1778V16H25.4278ZM23.3618 16V0.640011H21.8618V16H23.3618ZM22.6118 1.39001H25.4278V-0.109989H22.6118V1.39001ZM24.6778 0.640011V16H26.1778V0.640011H24.6778ZM25.4278 15.25H22.6118V16.75H25.4278V15.25ZM27.3206 0.640011V-0.109989H26.5706V0.640011H27.3206ZM41.806 1.51468L41.2756 2.04505L41.2822 2.05151L41.806 1.51468ZM41.806 15.1467L42.3298 15.6835L42.3363 15.677L41.806 15.1467ZM27.3206 16H26.5706V16.75H27.3206V16ZM27.3206 1.39001H39.694V-0.109989H27.3206V1.39001ZM39.694 1.39001C40.32 1.39001 40.8332 1.6026 41.2756 2.04501L42.3363 0.984347C41.6125 0.260537 40.7177 -0.109989 39.694 -0.109989V1.39001ZM41.2822 2.05151C41.7186 2.47727 41.9306 2.97971 41.9306 3.60534H43.4306C43.4306 2.5812 43.0595 1.68986 42.3297 0.977841L41.2822 2.05151ZM41.9306 3.60534V13.0347H43.4306V3.60534H41.9306ZM41.9306 13.0347C41.9306 13.6607 41.718 14.1739 41.2756 14.6163L42.3363 15.677C43.0601 14.9532 43.4306 14.0584 43.4306 13.0347H41.9306ZM41.2822 14.6098C40.8412 15.0401 40.3259 15.25 39.694 15.25V16.75C40.7118 16.75 41.6046 16.391 42.3297 15.6835L41.2822 14.6098ZM39.694 15.25H27.3206V16.75H39.694V15.25ZM28.0706 16V0.640011H26.5706V16H28.0706ZM40.5933 13.0347V3.60534H39.0933V13.0347H40.5933ZM40.5933 3.60534C40.5933 3.43995 40.5514 3.17816 40.3363 2.96301C40.1211 2.74786 39.8594 2.70601 39.694 2.70601V4.20601C39.6281 4.20601 39.441 4.18904 39.2756 4.02368C39.1103 3.8583 39.0933 3.67117 39.0933 3.60534H40.5933ZM39.694 2.70601H30.286V4.20601H39.694V2.70601ZM30.286 2.70601C30.1206 2.70601 29.8588 2.74786 29.6436 2.96301C29.4285 3.17816 29.3866 3.43996 29.3866 3.60534H30.8866C30.8866 3.67117 30.8697 3.8583 30.7043 4.02367C30.5389 4.18904 30.3518 4.20601 30.286 4.20601V2.70601ZM29.3866 3.60534V13.0347H30.8866V3.60534H29.3866ZM29.3866 13.0347C29.3866 13.2001 29.4285 13.4618 29.6436 13.677C29.8588 13.8921 30.1206 13.934 30.286 13.934V12.434C30.3518 12.434 30.5389 12.451 30.7043 12.6163C30.8697 12.7817 30.8866 12.9688 30.8866 13.0347H29.3866ZM30.286 13.934H39.694V12.434H30.286V13.934ZM39.694 13.934C39.8594 13.934 40.1212 13.8921 40.3363 13.677C40.5514 13.4619 40.5933 13.2001 40.5933 13.0347H39.0933C39.0933 12.9688 39.1103 12.7817 39.2756 12.6163C39.441 12.451 39.6281 12.434 39.694 12.434V13.934ZM59.235 0.640011H59.985V-0.109989H59.235V0.640011ZM59.235 3.45601V4.20601H59.985V3.45601H59.235ZM47.9496 3.45601V2.70601H47.1996V3.45601H47.9496ZM47.9496 6.91201H47.1996V7.66201H47.9496V6.91201ZM57.0376 6.91201H57.7876V6.16201H57.0376V6.91201ZM57.0376 9.728V10.478H57.7876V9.728H57.0376ZM47.9496 9.728V8.978H47.1996V9.728H47.9496ZM47.9496 13.184H47.1996V13.934H47.9496V13.184ZM59.235 13.184H59.985V12.434H59.235V13.184ZM59.235 16V16.75H59.985V16H59.235ZM45.1123 16H44.3623V16.75H45.1123V16ZM45.1123 0.640011V-0.109989H44.3623V0.640011H45.1123ZM58.485 0.640011V3.45601H59.985V0.640011H58.485ZM59.235 2.70601H47.9496V4.20601H59.235V2.70601ZM47.1996 3.45601V6.91201H48.6996V3.45601H47.1996ZM47.9496 7.66201H57.0376V6.16201H47.9496V7.66201ZM56.2876 6.91201V9.728H57.7876V6.91201H56.2876ZM57.0376 8.978H47.9496V10.478H57.0376V8.978ZM47.1996 9.728V13.184H48.6996V9.728H47.1996ZM47.9496 13.934H59.235V12.434H47.9496V13.934ZM58.485 13.184V16H59.985V13.184H58.485ZM59.235 15.25H45.1123V16.75H59.235V15.25ZM45.8623 16V0.640011H44.3623V16H45.8623ZM45.1123 1.39001H59.235V-0.109989H45.1123V1.39001ZM75.4498 1.51468L74.9194 2.04505L74.926 2.05151L75.4498 1.51468ZM75.4498 15.1467L75.9736 15.6835L75.9801 15.677L75.4498 15.1467ZM61.8178 15.1467L61.2809 15.6704L61.2874 15.677L61.294 15.6835L61.8178 15.1467ZM61.8178 1.51468L62.3481 2.04501L62.3481 2.04501L61.8178 1.51468ZM63.9298 1.39001H73.3591V-0.109989H63.9298V1.39001ZM73.3591 1.39001C73.967 1.39001 74.4743 1.59983 74.9194 2.04501L75.9801 0.984347C75.2591 0.263306 74.3725 -0.109989 73.3591 -0.109989V1.39001ZM74.926 2.05151C75.3624 2.47727 75.5744 2.97971 75.5744 3.60534H77.0744C77.0744 2.5812 76.7033 1.68986 75.9735 0.977841L74.926 2.05151ZM75.5744 3.60534V13.0347H77.0744V3.60534H75.5744ZM75.5744 13.0347C75.5744 13.6607 75.3619 14.1739 74.9194 14.6163L75.9801 15.677C76.7039 14.9532 77.0744 14.0584 77.0744 13.0347H75.5744ZM74.926 14.6098C74.4822 15.0428 73.973 15.25 73.3591 15.25V16.75C74.3666 16.75 75.2511 16.3883 75.9735 15.6835L74.926 14.6098ZM73.3591 15.25H63.9298V16.75H73.3591V15.25ZM63.9298 15.25C63.2978 15.25 62.7826 15.0401 62.3415 14.6098L61.294 15.6835C62.0192 16.391 62.9119 16.75 63.9298 16.75V15.25ZM62.3546 14.6229C61.9243 14.1819 61.7145 13.6666 61.7145 13.0347H60.2145C60.2145 14.0525 60.5735 14.9453 61.2809 15.6704L62.3546 14.6229ZM61.7145 13.0347V3.60534H60.2145V13.0347H61.7145ZM61.7145 3.60534C61.7145 2.97373 61.9238 2.46931 62.3481 2.04501L61.2875 0.984347C60.574 1.69782 60.2145 2.58718 60.2145 3.60534H61.7145ZM62.3481 2.04501C62.7905 1.6026 63.3037 1.39001 63.9298 1.39001V-0.109989C62.9061 -0.109989 62.0113 0.260537 61.2875 0.984347L62.3481 2.04501ZM63.9298 13.934H73.3591V12.434H63.9298V13.934ZM73.3591 13.934C73.5502 13.934 73.8205 13.8729 74.0246 13.6348C74.2097 13.4188 74.2371 13.1742 74.2371 13.0347H72.7371C72.7371 12.9947 72.7432 12.8248 72.8857 12.6586C73.0471 12.4702 73.2534 12.434 73.3591 12.434V13.934ZM74.2371 13.0347V3.60534H72.7371V13.0347H74.2371ZM74.2371 3.60534C74.2371 3.46582 74.2097 3.22123 74.0246 3.00525C73.8205 2.76714 73.5502 2.70601 73.3591 2.70601V4.20601C73.2534 4.20601 73.0471 4.16977 72.8857 3.98144C72.7432 3.81524 72.7371 3.64531 72.7371 3.60534H74.2371ZM73.3591 2.70601H63.9298V4.20601H73.3591V2.70601ZM63.9298 2.70601C63.7644 2.70601 63.5026 2.74786 63.2875 2.96301C63.0723 3.17816 63.0305 3.43996 63.0305 3.60534H64.5305C64.5305 3.67117 64.5135 3.8583 64.3481 4.02367C64.1827 4.18904 63.9956 4.20601 63.9298 4.20601V2.70601ZM63.0305 3.60534V13.0347H64.5305V3.60534H63.0305ZM63.0305 13.0347C63.0305 13.2001 63.0723 13.4618 63.2875 13.677C63.5026 13.8921 63.7644 13.934 63.9298 13.934V12.434C63.9956 12.434 64.1827 12.451 64.3481 12.6163C64.5135 12.7817 64.5305 12.9688 64.5305 13.0347H63.0305ZM94.0338 4.80001V5.55001H94.7838V4.80001H94.0338ZM91.1964 4.80001H90.4464V5.55001H91.1964V4.80001ZM91.1964 10.1333H91.9464V9.38334H91.1964V10.1333ZM87.7191 10.1333H86.9691V10.8833H87.7191V10.1333ZM87.7191 7.31734V6.56734H86.9691V7.31734H87.7191ZM94.0338 7.31734H94.7838V6.56734H94.0338V7.31734ZM93.1591 15.1467L93.6829 15.6835L93.6894 15.677L93.1591 15.1467ZM79.5271 15.1467L78.9903 15.6704L78.9967 15.677L79.0034 15.6835L79.5271 15.1467ZM79.5271 1.51468L80.0574 2.04501L80.0574 2.04501L79.5271 1.51468ZM93.1591 1.51468L92.6287 2.04505L92.6353 2.05151L93.1591 1.51468ZM93.2838 3.60534V4.80001H94.7838V3.60534H93.2838ZM94.0338 4.05001H91.1964V5.55001H94.0338V4.05001ZM91.9464 4.80001V3.60534H90.4464V4.80001H91.9464ZM91.9464 3.60534C91.9464 3.43996 91.9046 3.17816 91.6894 2.96301C91.4743 2.74786 91.2125 2.70601 91.0471 2.70601V4.20601C90.9813 4.20601 90.7941 4.18904 90.6288 4.02367C90.4634 3.8583 90.4464 3.67117 90.4464 3.60534H91.9464ZM91.0471 2.70601H81.6391V4.20601H91.0471V2.70601ZM81.6391 2.70601C81.4737 2.70601 81.2119 2.74786 80.9968 2.96301C80.7816 3.17816 80.7398 3.43996 80.7398 3.60534H82.2398C82.2398 3.67117 82.2228 3.8583 82.0574 4.02367C81.8921 4.18904 81.7049 4.20601 81.6391 4.20601V2.70601ZM80.7398 3.60534V13.0347H82.2398V3.60534H80.7398ZM80.7398 13.0347C80.7398 13.2001 80.7816 13.4618 80.9968 13.677C81.2119 13.8921 81.4737 13.934 81.6391 13.934V12.434C81.7049 12.434 81.8921 12.451 82.0574 12.6163C82.2228 12.7817 82.2398 12.9688 82.2398 13.0347H80.7398ZM81.6391 13.934H91.0471V12.434H81.6391V13.934ZM91.0471 13.934C91.2125 13.934 91.4743 13.8921 91.6894 13.677C91.9046 13.4618 91.9464 13.2001 91.9464 13.0347H90.4464C90.4464 12.9688 90.4634 12.7817 90.6288 12.6163C90.7941 12.451 90.9813 12.434 91.0471 12.434V13.934ZM91.9464 13.0347V10.1333H90.4464V13.0347H91.9464ZM91.1964 9.38334H87.7191V10.8833H91.1964V9.38334ZM88.4691 10.1333V7.31734H86.9691V10.1333H88.4691ZM87.7191 8.06734H94.0338V6.56734H87.7191V8.06734ZM93.2838 7.31734V13.0347H94.7838V7.31734H93.2838ZM93.2838 13.0347C93.2838 13.6607 93.0712 14.1739 92.6288 14.6163L93.6894 15.677C94.4132 14.9532 94.7838 14.0584 94.7838 13.0347H93.2838ZM92.6353 14.6098C92.1943 15.0401 91.679 15.25 91.0471 15.25V16.75C92.0649 16.75 92.9577 16.391 93.6828 15.6835L92.6353 14.6098ZM91.0471 15.25H81.6391V16.75H91.0471V15.25ZM81.6391 15.25C81.0072 15.25 80.4919 15.0401 80.0508 14.6098L79.0034 15.6835C79.7285 16.391 80.6213 16.75 81.6391 16.75V15.25ZM80.0639 14.6229C79.6336 14.1819 79.4238 13.6666 79.4238 13.0347H77.9238C77.9238 14.0525 78.2828 14.9453 78.9903 15.6704L80.0639 14.6229ZM79.4238 13.0347V3.60534H77.9238V13.0347H79.4238ZM79.4238 3.60534C79.4238 2.97373 79.6331 2.46931 80.0574 2.04501L78.9968 0.984347C78.2833 1.69782 77.9238 2.58718 77.9238 3.60534H79.4238ZM80.0574 2.04501C80.4998 1.6026 81.0131 1.39001 81.6391 1.39001V-0.109989C80.6154 -0.109989 79.7206 0.260537 78.9968 0.984347L80.0574 2.04501ZM81.6391 1.39001H91.0471V-0.109989H81.6391V1.39001ZM91.0471 1.39001C91.6731 1.39001 92.1863 1.6026 92.6288 2.04501L93.6894 0.984347C92.9656 0.260537 92.0708 -0.109989 91.0471 -0.109989V1.39001ZM92.6353 2.05151C93.0717 2.47727 93.2838 2.97971 93.2838 3.60534H94.7838C94.7838 2.5812 94.4127 1.68986 93.6828 0.977841L92.6353 2.05151ZM110.91 1.51468L110.38 2.04505L110.386 2.05151L110.91 1.51468ZM111.785 16V16.75H112.535V16H111.785ZM108.947 16H108.197V16.75H108.947V16ZM108.947 10.8373H109.697V10.0873H108.947V10.8373ZM99.2408 10.8373V10.0873H98.4908V10.8373H99.2408ZM99.2408 16V16.75H99.9908V16H99.2408ZM96.4248 16H95.6748V16.75H96.4248V16ZM97.2781 1.51468L97.8084 2.04501L97.8084 2.04501L97.2781 1.51468ZM99.2408 8.02134H98.4908V8.77134H99.2408V8.02134ZM108.947 8.02134V8.77134H109.697V8.02134H108.947ZM99.3901 1.39001H108.798V-0.109989H99.3901V1.39001ZM108.798 1.39001C109.424 1.39001 109.937 1.6026 110.38 2.04501L111.44 0.984347C110.717 0.260537 109.822 -0.109989 108.798 -0.109989V1.39001ZM110.386 2.05151C110.823 2.47727 111.035 2.97971 111.035 3.60534H112.535C112.535 2.5812 112.164 1.68986 111.434 0.977841L110.386 2.05151ZM111.035 3.60534V16H112.535V3.60534H111.035ZM111.785 15.25H108.947V16.75H111.785V15.25ZM109.697 16V10.8373H108.197V16H109.697ZM108.947 10.0873H99.2408V11.5873H108.947V10.0873ZM98.4908 10.8373V16H99.9908V10.8373H98.4908ZM99.2408 15.25H96.4248V16.75H99.2408V15.25ZM97.1748 16V3.60534H95.6748V16H97.1748ZM97.1748 3.60534C97.1748 2.97373 97.3841 2.46931 97.8084 2.04501L96.7478 0.984347C96.0343 1.69782 95.6748 2.58718 95.6748 3.60534H97.1748ZM97.8084 2.04501C98.2508 1.6026 98.764 1.39001 99.3901 1.39001V-0.109989C98.3664 -0.109989 97.4716 0.260537 96.7478 0.984347L97.8084 2.04501ZM99.2408 8.77134H108.947V7.27134H99.2408V8.77134ZM109.697 8.02134V3.60534H108.197V8.02134H109.697ZM109.697 3.60534C109.697 3.43995 109.656 3.17816 109.44 2.96301C109.225 2.74786 108.963 2.70601 108.798 2.70601V4.20601C108.732 4.20601 108.545 4.18904 108.38 4.02368C108.214 3.8583 108.197 3.67117 108.197 3.60534H109.697ZM108.798 2.70601H99.3901V4.20601H108.798V2.70601ZM99.3901 2.70601C99.2247 2.70601 98.9629 2.74786 98.7478 2.96301C98.5326 3.17816 98.4908 3.43996 98.4908 3.60534H99.9908C99.9908 3.67117 99.9738 3.8583 99.8084 4.02367C99.643 4.18904 99.4559 4.20601 99.3901 4.20601V2.70601ZM98.4908 3.60534V8.02134H99.9908V3.60534H98.4908ZM122.877 7.29601L122.302 7.77831L122.878 8.46358L123.452 7.77723L122.877 7.29601ZM128.445 0.640011V-0.109989H128.094L127.869 0.158786L128.445 0.640011ZM131.538 0.640011H132.288V-0.109989H131.538V0.640011ZM131.538 16V16.75H132.288V16H131.538ZM128.701 16H127.951V16.75H128.701V16ZM128.701 4.73601H129.451V2.67709L128.126 4.25361L128.701 4.73601ZM122.877 11.6693L122.303 12.1528L122.878 12.8341L123.451 12.1517L122.877 11.6693ZM117.031 4.73601L117.605 4.25258L116.281 2.68284V4.73601H117.031ZM117.031 16V16.75H117.781V16H117.031ZM114.215 16H113.465V16.75H114.215V16ZM114.215 0.640011V-0.109989H113.465V0.640011H114.215ZM117.287 0.640011L117.862 0.157704L117.637 -0.109989H117.287V0.640011ZM123.452 7.77723L129.02 1.12124L127.869 0.158786L122.301 6.81478L123.452 7.77723ZM128.445 1.39001H131.538V-0.109989H128.445V1.39001ZM130.788 0.640011V16H132.288V0.640011H130.788ZM131.538 15.25H128.701V16.75H131.538V15.25ZM129.451 16V4.73601H127.951V16H129.451ZM128.126 4.25361L122.302 11.1869L123.451 12.1517L129.275 5.2184L128.126 4.25361ZM123.45 11.1859L117.605 4.25258L116.458 5.21944L122.303 12.1528L123.45 11.1859ZM116.281 4.73601V16H117.781V4.73601H116.281ZM117.031 15.25H114.215V16.75H117.031V15.25ZM114.965 16V0.640011H113.465V16H114.965ZM114.215 1.39001H117.287V-0.109989H114.215V1.39001ZM116.713 1.12232L122.302 7.77831L123.451 6.8137L117.862 0.157704L116.713 1.12232ZM148.172 0.640011H148.922V-0.109989H148.172V0.640011ZM148.172 3.45601V4.20601H148.922V3.45601H148.172ZM136.887 3.45601V2.70601H136.137V3.45601H136.887ZM136.887 6.91201H136.137V7.66201H136.887V6.91201ZM145.975 6.91201H146.725V6.16201H145.975V6.91201ZM145.975 9.728V10.478H146.725V9.728H145.975ZM136.887 9.728V8.978H136.137V9.728H136.887ZM136.887 13.184H136.137V13.934H136.887V13.184ZM148.172 13.184H148.922V12.434H148.172V13.184ZM148.172 16V16.75H148.922V16H148.172ZM134.05 16H133.3V16.75H134.05V16ZM134.05 0.640011V-0.109989H133.3V0.640011H134.05ZM147.422 0.640011V3.45601H148.922V0.640011H147.422ZM148.172 2.70601H136.887V4.20601H148.172V2.70601ZM136.137 3.45601V6.91201H137.637V3.45601H136.137ZM136.887 7.66201H145.975V6.16201H136.887V7.66201ZM145.225 6.91201V9.728H146.725V6.91201H145.225ZM145.975 8.978H136.887V10.478H145.975V8.978ZM136.137 9.728V13.184H137.637V9.728H136.137ZM136.887 13.934H148.172V12.434H136.887V13.934ZM147.422 13.184V16H148.922V13.184H147.422ZM148.172 15.25H134.05V16.75H148.172V15.25ZM134.8 16V0.640011H133.3V16H134.8ZM134.05 1.39001H148.172V-0.109989H134.05V1.39001Z" fill="#2643FF"/>
<path d="M55.576 29V21.32H57.624V22.7173H56.9733V27.6027H57.624V29H55.576ZM58.4815 22.728V21.32H66.1615V22.856L60.5295 27.592H66.1615V29H58.4815V27.464L64.1135 22.728H58.4815ZM68.7566 21.32H73.4713C73.8766 21.32 74.2251 21.4658 74.5166 21.7573C74.8082 22.0418 74.954 22.3902 74.954 22.8026V27.5173C74.954 27.9298 74.8082 28.2818 74.5166 28.5733C74.2251 28.8578 73.8766 29 73.4713 29H68.7566C68.3442 29 67.9922 28.8578 67.7006 28.5733C67.4162 28.2818 67.274 27.9298 67.274 27.5173V22.8026C67.274 22.3902 67.4162 22.0418 67.7006 21.7573C67.9922 21.4658 68.3442 21.32 68.7566 21.32ZM68.7566 27.592H73.4713C73.514 27.592 73.5353 27.5671 73.5353 27.5173V22.8026C73.5353 22.7529 73.514 22.728 73.4713 22.728H68.7566C68.7068 22.728 68.682 22.7529 68.682 22.8026V27.5173C68.682 27.5671 68.7068 27.592 68.7566 27.592ZM82.39 26.952V21.32H83.8087V29H82.2727L77.5367 23.368V29H76.1286V21.32H77.6647L82.39 26.952ZM92.0864 21.32V22.728H86.4437V24.456H90.9877V25.864H86.4437V27.592H92.0864V29H85.025V21.32H92.0864ZM93.117 22.7173V21.32H95.165V29H93.117V27.6027H93.757V22.7173H93.117Z" fill="#2643FF"/>
<path d="M55.576 29H55.198V29.378H55.576V29ZM55.576 21.32V20.942H55.198V21.32H55.576ZM57.624 21.32H58.002V20.942H57.624V21.32ZM57.624 22.7173V23.0953H58.002V22.7173H57.624ZM56.9733 22.7173V22.3394H56.5954V22.7173H56.9733ZM56.9733 27.6027H56.5954V27.9806H56.9733V27.6027ZM57.624 27.6027H58.002V27.2247H57.624V27.6027ZM57.624 29V29.378H58.002V29H57.624ZM55.954 29V21.32H55.198V29H55.954ZM55.576 21.6979H57.624V20.942H55.576V21.6979ZM57.2461 21.32V22.7173H58.002V21.32H57.2461ZM57.624 22.3394H56.9733V23.0953H57.624V22.3394ZM56.5954 22.7173V27.6027H57.3513V22.7173H56.5954ZM56.9733 27.9806H57.624V27.2247H56.9733V27.9806ZM57.2461 27.6027V29H58.002V27.6027H57.2461ZM57.624 28.622H55.576V29.378H57.624V28.622ZM58.4815 22.728H58.1036V23.1059H58.4815V22.728ZM58.4815 21.32V20.942H58.1036V21.32H58.4815ZM66.1615 21.32H66.5395V20.942H66.1615V21.32ZM66.1615 22.856L66.4048 23.1453L66.5395 23.032V22.856H66.1615ZM60.5295 27.592L60.2863 27.3027L59.4928 27.9699H60.5295V27.592ZM66.1615 27.592H66.5395V27.214H66.1615V27.592ZM66.1615 29V29.378H66.5395V29H66.1615ZM58.4815 29H58.1036V29.378H58.4815V29ZM58.4815 27.464L58.2383 27.1747L58.1036 27.288V27.464H58.4815ZM64.1135 22.728L64.3568 23.0173L65.1502 22.35H64.1135V22.728ZM58.8595 22.728V21.32H58.1036V22.728H58.8595ZM58.4815 21.6979H66.1615V20.942H58.4815V21.6979ZM65.7836 21.32V22.856H66.5395V21.32H65.7836ZM65.9183 22.5667L60.2863 27.3027L60.7728 27.8813L66.4048 23.1453L65.9183 22.5667ZM60.5295 27.9699H66.1615V27.214H60.5295V27.9699ZM65.7836 27.592V29H66.5395V27.592H65.7836ZM66.1615 28.622H58.4815V29.378H66.1615V28.622ZM58.8595 29V27.464H58.1036V29H58.8595ZM58.7248 27.7533L64.3568 23.0173L63.8703 22.4387L58.2383 27.1747L58.7248 27.7533ZM64.1135 22.35H58.4815V23.1059H64.1135V22.35ZM74.5166 21.7573L74.2494 22.0246L74.2527 22.0278L74.5166 21.7573ZM74.5166 28.5733L74.7806 28.8439L74.7839 28.8406L74.5166 28.5733ZM67.7006 28.5733L67.43 28.8373L67.4367 28.8439L67.7006 28.5733ZM67.7006 21.7573L67.9679 22.0246L67.9679 22.0246L67.7006 21.7573ZM68.7566 21.6979H73.4713V20.942H68.7566V21.6979ZM73.4713 21.6979C73.7745 21.6979 74.0273 21.8025 74.2494 22.0246L74.7839 21.4901C74.4228 21.129 73.9788 20.942 73.4713 20.942V21.6979ZM74.2527 22.0278C74.4703 22.2402 74.576 22.4906 74.576 22.8026H75.3319C75.3319 22.2898 75.1461 21.8434 74.7806 21.4868L74.2527 22.0278ZM74.576 22.8026V27.5173H75.3319V22.8026H74.576ZM74.576 27.5173C74.576 27.8296 74.47 28.0854 74.2494 28.3061L74.7839 28.8406C75.1464 28.4781 75.3319 28.03 75.3319 27.5173H74.576ZM74.2527 28.3028C74.0314 28.5188 73.7775 28.622 73.4713 28.622V29.378C73.9758 29.378 74.4188 29.1968 74.7806 28.8439L74.2527 28.3028ZM73.4713 28.622H68.7566V29.378H73.4713V28.622ZM68.7566 28.622C68.4414 28.622 68.1845 28.5174 67.9646 28.3028L67.4367 28.8439C67.7998 29.1981 68.2469 29.378 68.7566 29.378V28.622ZM67.9712 28.3094C67.7565 28.0894 67.6519 27.8325 67.6519 27.5173H66.896C66.896 28.027 67.0758 28.4741 67.4301 28.8373L67.9712 28.3094ZM67.6519 27.5173V22.8026H66.896V27.5173H67.6519ZM67.6519 22.8026C67.6519 22.4876 67.7563 22.2361 67.9679 22.0246L67.4334 21.4901C67.0761 21.8474 66.896 22.2928 66.896 22.8026H67.6519ZM67.9679 22.0246C68.1885 21.8039 68.4444 21.6979 68.7566 21.6979V20.942C68.244 20.942 67.7958 21.1276 67.4334 21.4901L67.9679 22.0246ZM68.7566 27.9699H73.4713V27.214H68.7566V27.9699ZM73.4713 27.9699C73.5674 27.9699 73.7035 27.9392 73.8063 27.8193C73.8995 27.7106 73.9133 27.5874 73.9133 27.5173H73.1574C73.1574 27.497 73.1605 27.4112 73.2323 27.3274C73.3138 27.2324 73.4179 27.214 73.4713 27.214V27.9699ZM73.9133 27.5173V22.8026H73.1574V27.5173H73.9133ZM73.9133 22.8026C73.9133 22.7325 73.8995 22.6094 73.8063 22.5007C73.7035 22.3808 73.5674 22.35 73.4713 22.35V23.1059C73.4179 23.1059 73.3138 23.0876 73.2323 22.9926C73.1605 22.9088 73.1574 22.823 73.1574 22.8026H73.9133ZM73.4713 22.35H68.7566V23.1059H73.4713V22.35ZM68.7566 22.35C68.6735 22.35 68.5417 22.3711 68.4334 22.4794C68.325 22.5877 68.304 22.7195 68.304 22.8026H69.0599C69.0599 22.836 69.0513 22.9305 68.9679 23.0139C68.8844 23.0973 68.79 23.1059 68.7566 23.1059V22.35ZM68.304 22.8026V27.5173H69.0599V22.8026H68.304ZM68.304 27.5173C68.304 27.6005 68.325 27.7323 68.4334 27.8406C68.5417 27.9489 68.6735 27.9699 68.7566 27.9699V27.214C68.79 27.214 68.8844 27.2226 68.9679 27.3061C69.0513 27.3895 69.0599 27.484 69.0599 27.5173H68.304ZM82.39 26.952L82.1005 27.1949L82.768 27.9905V26.952H82.39ZM82.39 21.32V20.942H82.012V21.32H82.39ZM83.8087 21.32H84.1866V20.942H83.8087V21.32ZM83.8087 29V29.378H84.1866V29H83.8087ZM82.2727 29L81.9834 29.2433L82.0967 29.378H82.2727V29ZM77.5367 23.368L77.8259 23.1247L77.1587 22.3313V23.368H77.5367ZM77.5367 29V29.378H77.9146V29H77.5367ZM76.1286 29H75.7507V29.378H76.1286V29ZM76.1286 21.32V20.942H75.7507V21.32H76.1286ZM77.6647 21.32L77.9542 21.077L77.8409 20.942H77.6647V21.32ZM82.768 26.952V21.32H82.012V26.952H82.768ZM82.39 21.6979H83.8087V20.942H82.39V21.6979ZM83.4307 21.32V29H84.1866V21.32H83.4307ZM83.8087 28.622H82.2727V29.378H83.8087V28.622ZM82.5619 28.7567L77.8259 23.1247L77.2474 23.6112L81.9834 29.2433L82.5619 28.7567ZM77.1587 23.368V29H77.9146V23.368H77.1587ZM77.5367 28.622H76.1286V29.378H77.5367V28.622ZM76.5066 29V21.32H75.7507V29H76.5066ZM76.1286 21.6979H77.6647V20.942H76.1286V21.6979ZM77.3751 21.5629L82.1005 27.1949L82.6795 26.7091L77.9542 21.077L77.3751 21.5629ZM92.0864 21.32H92.4643V20.942H92.0864V21.32ZM92.0864 22.728V23.1059H92.4643V22.728H92.0864ZM86.4437 22.728V22.35H86.0657V22.728H86.4437ZM86.4437 24.456H86.0657V24.8339H86.4437V24.456ZM90.9877 24.456H91.3656V24.078H90.9877V24.456ZM90.9877 25.864V26.2419H91.3656V25.864H90.9877ZM86.4437 25.864V25.486H86.0657V25.864H86.4437ZM86.4437 27.592H86.0657V27.9699H86.4437V27.592ZM92.0864 27.592H92.4643V27.214H92.0864V27.592ZM92.0864 29V29.378H92.4643V29H92.0864ZM85.025 29H84.6471V29.378H85.025V29ZM85.025 21.32V20.942H84.6471V21.32H85.025ZM91.7084 21.32V22.728H92.4643V21.32H91.7084ZM92.0864 22.35H86.4437V23.1059H92.0864V22.35ZM86.0657 22.728V24.456H86.8216V22.728H86.0657ZM86.4437 24.8339H90.9877V24.078H86.4437V24.8339ZM90.6097 24.456V25.864H91.3656V24.456H90.6097ZM90.9877 25.486H86.4437V26.2419H90.9877V25.486ZM86.0657 25.864V27.592H86.8216V25.864H86.0657ZM86.4437 27.9699H92.0864V27.214H86.4437V27.9699ZM91.7084 27.592V29H92.4643V27.592H91.7084ZM92.0864 28.622H85.025V29.378H92.0864V28.622ZM85.403 29V21.32H84.6471V29H85.403ZM85.025 21.6979H92.0864V20.942H85.025V21.6979ZM93.117 22.7173H92.7391V23.0953H93.117V22.7173ZM93.117 21.32V20.942H92.7391V21.32H93.117ZM95.165 21.32H95.543V20.942H95.165V21.32ZM95.165 29V29.378H95.543V29H95.165ZM93.117 29H92.7391V29.378H93.117V29ZM93.117 27.6027V27.2247H92.7391V27.6027H93.117ZM93.757 27.6027V27.9806H94.135V27.6027H93.757ZM93.757 22.7173H94.135V22.3394H93.757V22.7173ZM93.495 22.7173V21.32H92.7391V22.7173H93.495ZM93.117 21.6979H95.165V20.942H93.117V21.6979ZM94.7871 21.32V29H95.543V21.32H94.7871ZM95.165 28.622H93.117V29.378H95.165V28.622ZM93.495 29V27.6027H92.7391V29H93.495ZM93.117 27.9806H93.757V27.2247H93.117V27.9806ZM94.135 27.6027V22.7173H93.3791V27.6027H94.135ZM93.757 22.3394H93.117V23.0953H93.757V22.3394Z" fill="#2643FF"/>
</svg>
