<?xml version="1.0" encoding="UTF-8" standalone="no"?>
<!-- Created with Inkscape (http://www.inkscape.org/) -->

<svg
   width="39.305302mm"
   height="7.7751555mm"
   viewBox="0 0 39.305302 7.7751555"
   version="1.1"
   id="svg1"
   xml:space="preserve"
   inkscape:export-filename="TitleForDarkMode.svg"
   inkscape:export-xdpi="96"
   inkscape:export-ydpi="96"
   xmlns:inkscape="http://www.inkscape.org/namespaces/inkscape"
   xmlns:sodipodi="http://sodipodi.sourceforge.net/DTD/sodipodi-0.dtd"
   xmlns="http://www.w3.org/2000/svg"
   xmlns:svg="http://www.w3.org/2000/svg"><sodipodi:namedview
     id="namedview1"
     pagecolor="#ffffff"
     bordercolor="#000000"
     borderopacity="0.25"
     inkscape:showpageshadow="2"
     inkscape:pageopacity="0.0"
     inkscape:pagecheckerboard="0"
     inkscape:deskcolor="#d1d1d1"
     inkscape:document-units="mm" /><defs
     id="defs1" /><g
     inkscape:label="Layer 1"
     inkscape:groupmode="layer"
     id="layer1"
     transform="translate(-116.50361,-130.61831)"><g
       style="fill:#06df59;fill-opacity:1"
       id="g17"
       transform="matrix(0.26458333,0,0,0.26458333,116.64899,130.62117)"><path
         d="M 10.8342,12.6077 17.6613,0.734549 h 3.2439 L 12.0851,16 H 9.56211 L 0.742071,0.734549 H 3.98598 Z M 22.4726,16 V 0.734549 h 2.7987 V 16 Z M 27.1525,0.734549 h 12.2972 c 0.8198,0 1.5194,0.289761 2.099,0.869281 0.5795,0.56539 0.8692,1.25799 0.8692,2.0778 v 9.37127 c 0,0.8198 -0.2897,1.5195 -0.8692,2.099 C 40.9691,15.7173 40.2695,16 39.4497,16 H 27.1525 Z M 39.5981,13.0529 V 3.68163 c 0,-0.09894 -0.0495,-0.14841 -0.1484,-0.14841 h -9.3501 c -0.099,0 -0.1484,0.04947 -0.1484,0.14841 v 9.37127 c 0,0.099 0.0494,0.1484 0.1484,0.1484 h 9.3501 c 0.0989,0 0.1484,-0.0494 0.1484,-0.1484 z M 58.8704,0.734549 V 3.53322 H 47.6545 v 3.43472 h 9.0321 V 9.76661 H 47.6545 V 13.2013 H 58.8704 V 16 H 44.8346 V 0.734549 Z m 4.6659,0 h 9.3713 c 0.8057,0 1.4983,0.289761 2.0778,0.869281 0.5795,0.56539 0.8693,1.25799 0.8693,2.0778 v 9.37127 c 0,0.8198 -0.2898,1.5195 -0.8693,2.099 C 74.4059,15.7173 73.7133,16 72.9076,16 h -9.3713 c -0.8198,0 -1.5195,-0.2827 -2.099,-0.8481 -0.5654,-0.5795 -0.8481,-1.2792 -0.8481,-2.099 V 3.68163 c 0,-0.81981 0.2827,-1.51241 0.8481,-2.0778 0.5795,-0.57952 1.2792,-0.869281 2.099,-0.869281 z m 0,12.466751 h 9.3713 c 0.0848,0 0.1272,-0.0494 0.1272,-0.1484 V 3.68163 c 0,-0.09894 -0.0424,-0.14841 -0.1272,-0.14841 h -9.3713 c -0.0989,0 -0.1484,0.04947 -0.1484,0.14841 v 9.37127 c 0,0.099 0.0495,0.1484 0.1484,0.1484 z M 93.455,3.68163 V 4.86894 H 90.6351 V 3.68163 c 0,-0.09894 -0.0494,-0.14841 -0.1484,-0.14841 h -9.3501 c -0.0989,0 -0.1484,0.04947 -0.1484,0.14841 v 9.37127 c 0,0.099 0.0495,0.1484 0.1484,0.1484 h 9.3501 c 0.099,0 0.1484,-0.0494 0.1484,-0.1484 V 10.1694 H 87.1792 V 7.37078 h 6.2758 v 5.68212 c 0,0.8198 -0.2898,1.5195 -0.8693,2.099 C 92.0062,15.7173 91.3065,16 90.4867,16 h -9.3501 c -0.8198,0 -1.5194,-0.2827 -2.099,-0.8481 -0.5654,-0.5795 -0.848,-1.2792 -0.848,-2.099 V 3.68163 c 0,-0.81981 0.2826,-1.51241 0.848,-2.0778 0.5796,-0.57952 1.2792,-0.869281 2.099,-0.869281 h 9.3501 c 0.8198,0 1.5195,0.289761 2.099,0.869281 0.5795,0.56539 0.8693,1.25799 0.8693,2.0778 z m 5.3234,-2.947081 h 9.3496 c 0.82,0 1.52,0.289761 2.099,0.869281 0.58,0.56539 0.87,1.25799 0.87,2.0778 V 16 h -2.82 V 10.8691 H 98.63 V 16 H 95.8313 V 3.68163 c 0,-0.81981 0.2827,-1.51241 0.8481,-2.0778 0.5795,-0.57952 1.2792,-0.869281 2.099,-0.869281 z M 98.63,8.07045 h 9.647 V 3.68163 c 0,-0.09894 -0.05,-0.14841 -0.149,-0.14841 h -9.3496 c -0.099,0 -0.1484,0.04947 -0.1484,0.14841 z m 23.49,-0.72087 5.534,-6.615031 h 3.074 V 16 h -2.819 V 4.80534 L 122.12,11.696 116.311,4.80534 V 16 h -2.799 V 0.734549 h 3.054 z M 147.26,0.734549 V 3.53322 h -11.215 v 3.43472 h 9.032 v 2.79867 h -9.032 V 13.2013 H 147.26 V 16 H 133.225 V 0.734549 Z"
         fill="#3aff33"
         id="path1"
         style="fill:#06df59;fill-opacity:1" /><path
         d="m 10.8342,12.6077 -0.6456,0.3724 0.6466,1.1212 0.6452,-1.1221 z M 17.6613,0.734549 v -0.7453837 h -0.4312 l -0.215,0.3738317 z m 3.2439,0 0.6454,0.372901 0.6461,-1.1182847 H 20.9052 Z M 12.0851,16 v 0.7454 h 0.4302 l 0.2153,-0.3725 z m -2.52299,0 -0.6454,0.3729 0.21521,0.3725 H 9.56211 Z M 0.742071,0.734549 v -0.7453837 h -1.29152 L 0.0966691,1.10745 Z m 3.243909,0 L 4.63166,0.36213 4.41654,-0.0108347 H 3.98598 Z M 11.4804,12.9792 18.3075,1.1061 17.0151,0.362997 10.1881,12.2361 Z M 17.6613,1.47993 h 3.2439 v -1.4907647 h -3.2439 z m 2.5985,-1.11828 -8.8201,15.26545 1.2909,0.7458 8.82,-15.26545 z M 12.0851,15.2546 H 9.56211 v 1.4908 H 12.0851 Z M 10.2075,15.6271 1.38747,0.36165 0.0966691,1.10745 8.91671,16.3729 Z M 0.742071,1.47993 H 3.98598 V -0.0108347 H 0.742071 Z M 3.3403,1.10697 10.1886,12.9801 11.4799,12.2353 4.63166,0.36213 Z M 22.4726,16 h -0.7453 v 0.7454 h 0.7453 z m 0,-15.265451 V -0.0108347 H 21.7273 V 0.734549 Z m 2.7987,0 h 0.7454 V -0.0108347 H 25.2713 Z M 25.2713,16 v 0.7454 h 0.7454 V 16 Z M 23.218,16 V 0.734549 H 21.7273 V 16 Z M 22.4726,1.47993 h 2.7987 V -0.0108347 H 22.4726 Z M 24.5259,0.734549 V 16 h 1.4908 V 0.734549 Z M 25.2713,15.2546 h -2.7987 v 1.4908 h 2.7987 z M 27.1525,0.734549 V -0.0108347 H 26.4071 V 0.734549 Z m 14.3962,0.869281 -0.5271,0.52711 0.0065,0.00642 z m 0,13.54807 0.5205,0.5336 0.0065,-0.0065 z M 27.1525,16 h -0.7454 v 0.7454 h 0.7454 z m 0,-14.52007 H 39.4497 V -0.0108347 H 27.1525 Z m 12.2972,0 c 0.6222,0 1.1322,0.21128 1.5719,0.65097 l 1.0541,-1.05413 c -0.7193,-0.719359 -1.6086,-1.0876047 -2.626,-1.0876047 z m 1.5784,0.65743 c 0.4338,0.42314 0.6445,0.92249 0.6445,1.54427 h 1.4907 c 0,-1.01784 -0.3688,-1.90369 -1.0941,-2.61133 z m 0.6445,1.54427 v 9.37127 h 1.4907 V 3.68163 Z m 0,9.37127 c 0,0.6222 -0.2113,1.1323 -0.651,1.572 l 1.0541,1.0541 c 0.7194,-0.7194 1.0876,-1.6086 1.0876,-2.6261 z m -0.6445,1.5655 c -0.4383,0.4277 -0.9504,0.6362 -1.5784,0.6362 v 1.4908 c 1.0115,0 1.8988,-0.3568 2.6195,-1.0599 z m -1.5784,0.6362 H 27.1525 v 1.4908 H 39.4497 Z M 27.8979,16 V 0.734549 H 26.4071 V 16 Z M 40.3435,13.0529 V 3.68163 h -1.4908 v 9.37127 z m 0,-9.37127 C 40.3435,3.51726 40.3019,3.25707 40.088,3.04325 39.8742,2.82943 39.614,2.78783 39.4497,2.78783 V 4.2786 c -0.0655,0 -0.2514,-0.01686 -0.4158,-0.18121 C 38.8696,3.93303 38.8527,3.74706 38.8527,3.68163 Z M 39.4497,2.78783 H 30.0996 V 4.2786 h 9.3501 z m -9.3501,0 c -0.1644,0 -0.4246,0.0416 -0.6384,0.25542 -0.2138,0.21383 -0.2554,0.47401 -0.2554,0.63838 h 1.4907 c 0,0.06543 -0.0168,0.2514 -0.1812,0.41576 C 30.351,4.26174 30.165,4.2786 30.0996,4.2786 Z m -0.8938,0.8938 v 9.37127 h 1.4907 V 3.68163 Z m 0,9.37127 c 0,0.1644 0.0416,0.4246 0.2554,0.6384 0.2138,0.2138 0.474,0.2554 0.6384,0.2554 V 12.456 c 0.0654,0 0.2514,0.0168 0.4157,0.1812 0.1644,0.1643 0.1812,0.3503 0.1812,0.4157 z m 0.8938,0.8938 h 9.3501 V 12.456 h -9.3501 z m 9.3501,0 c 0.1643,0 0.4245,-0.0416 0.6383,-0.2554 0.2139,-0.2138 0.2555,-0.474 0.2555,-0.6384 h -1.4908 c 0,-0.0654 0.0169,-0.2514 0.1812,-0.4157 0.1644,-0.1644 0.3503,-0.1812 0.4158,-0.1812 z M 58.8704,0.734549 h 0.7454 v -0.7453837 h -0.7454 z m 0,2.798671 V 4.2786 h 0.7454 V 3.53322 Z m -11.2159,0 V 2.78783 h -0.7454 v 0.74539 z m 0,3.43472 h -0.7454 v 0.74538 h 0.7454 z m 9.0321,0 H 57.432 V 6.22256 h -0.7454 z m 0,2.79867 V 10.512 H 57.432 V 9.76661 Z m -9.0321,0 V 9.02122 h -0.7454 v 0.74539 z m 0,3.43469 h -0.7454 v 0.7454 h 0.7454 z m 11.2159,0 h 0.7454 V 12.456 h -0.7454 z m 0,2.7987 v 0.7454 h 0.7454 V 16 Z m -14.0358,0 h -0.7453 v 0.7454 h 0.7453 z m 0,-15.265451 V -0.0108347 H 44.0893 V 0.734549 Z m 13.2904,0 V 3.53322 h 1.4908 V 0.734549 Z M 58.8704,2.78783 H 47.6545 V 4.2786 H 58.8704 Z M 46.9091,3.53322 v 3.43472 h 1.4908 V 3.53322 Z m 0.7454,4.1801 h 9.0321 V 6.22256 H 47.6545 Z M 55.9412,6.96794 V 9.76661 H 57.432 V 6.96794 Z m 0.7454,2.05328 H 47.6545 V 10.512 h 9.0321 z m -9.7775,0.74539 v 3.43469 h 1.4908 V 9.76661 Z m 0.7454,4.18009 H 58.8704 V 12.456 H 47.6545 Z M 58.125,13.2013 V 16 h 1.4908 v -2.7987 z m 0.7454,2.0533 H 44.8346 v 1.4908 H 58.8704 Z M 45.58,16 V 0.734549 H 44.0893 V 16 Z M 44.8346,1.47993 H 58.8704 V -0.0108347 H 44.8346 Z m 30.1508,0.1239 -0.5271,0.52711 0.0066,0.00642 z m 0,13.54807 0.5206,0.5336 0.0065,-0.0065 z m -13.5481,0 -0.5335,0.5205 0.0064,0.0066 0.0066,0.0065 z m 0,-13.54807 0.5271,0.52707 v 0 z m 2.099,-0.1239 h 9.3713 v -1.4907647 h -9.3713 z m 9.3713,0 c 0.6042,0 1.1083,0.20853 1.5507,0.65097 L 75.5125,1.07677 C 74.7959,0.360162 73.9148,-0.0108347 72.9076,-0.0108347 Z m 1.5573,0.65743 c 0.4337,0.42314 0.6444,0.92249 0.6444,1.54427 h 1.4908 c 0,-1.01784 -0.3688,-1.90369 -1.0942,-2.61133 z m 0.6444,1.54427 v 9.37127 h 1.4908 V 3.68163 Z m 0,9.37127 c 0,0.6222 -0.2113,1.1323 -0.651,1.572 l 1.0542,1.0541 c 0.7193,-0.7194 1.0876,-1.6086 1.0876,-2.6261 z m -0.6444,1.5655 c -0.4411,0.4303 -0.9472,0.6362 -1.5573,0.6362 v 1.4908 c 1.0012,0 1.8803,-0.3595 2.5983,-1.0599 z m -1.5573,0.6362 h -9.3713 v 1.4908 h 9.3713 z m -9.3713,0 c -0.628,0 -1.1401,-0.2085 -1.5785,-0.6362 l -1.041,1.0671 c 0.7207,0.7031 1.6079,1.0599 2.6195,1.0599 z M 61.9708,14.6314 C 61.5432,14.193 61.3346,13.681 61.3346,13.0529 h -1.4908 c 0,1.0116 0.3569,1.8988 1.06,2.6195 z M 61.3346,13.0529 V 3.68163 h -1.4908 v 9.37127 z m 0,-9.37127 c 0,-0.62773 0.2081,-1.12904 0.6298,-1.55073 L 60.9102,1.07677 c -0.709,0.70908 -1.0664,1.59296 -1.0664,2.60486 z M 61.9644,2.1309 c 0.4397,-0.43969 0.9497,-0.65097 1.5719,-0.65097 v -1.4907647 c -1.0174,0 -1.9067,0.3682457 -2.6261,1.0876047 z m 1.5719,11.8158 h 9.3713 V 12.456 h -9.3713 z m 9.3713,0 c 0.1899,0 0.4585,-0.0607 0.6613,-0.2974 0.184,-0.2146 0.2113,-0.4577 0.2113,-0.5964 h -1.4908 c 0,-0.0397 0.0061,-0.2086 0.1477,-0.3738 0.1604,-0.1871 0.3654,-0.2231 0.4705,-0.2231 z m 0.8726,-0.8938 V 3.68163 h -1.4908 v 9.37127 z m 0,-9.37127 c 0,-0.13866 -0.0273,-0.38175 -0.2113,-0.5964 -0.2028,-0.23664 -0.4714,-0.2974 -0.6613,-0.2974 V 4.2786 c -0.1051,0 -0.3101,-0.03602 -0.4705,-0.22319 C 72.2955,3.89023 72.2894,3.72135 72.2894,3.68163 Z M 72.9076,2.78783 H 63.5363 V 4.2786 h 9.3713 z m -9.3713,0 c -0.1644,0 -0.4245,0.0416 -0.6384,0.25542 -0.2138,0.21383 -0.2554,0.47401 -0.2554,0.63838 h 1.4908 c 0,0.06543 -0.0169,0.2514 -0.1812,0.41576 -0.1644,0.16435 -0.3504,0.18121 -0.4158,0.18121 z m -0.8938,0.8938 v 9.37127 h 1.4908 V 3.68163 Z m 0,9.37127 c 0,0.1644 0.0416,0.4246 0.2554,0.6384 0.2139,0.2138 0.474,0.2554 0.6384,0.2554 V 12.456 c 0.0654,0 0.2514,0.0168 0.4158,0.1812 0.1643,0.1643 0.1812,0.3503 0.1812,0.4157 z M 93.455,4.86894 v 0.74538 h 0.7454 V 4.86894 Z m -2.8199,0 h -0.7453 v 0.74538 h 0.7453 z m 0,5.30046 h 0.7454 V 9.42406 h -0.7454 z m -3.4559,0 h -0.7454 v 0.7454 h 0.7454 z m 0,-2.79862 V 6.6254 h -0.7454 v 0.74538 z m 6.2758,0 h 0.7454 V 6.6254 H 93.455 Z m -0.8693,7.78112 0.5206,0.5336 0.0065,-0.0065 z m -13.5481,0 -0.5335,0.5205 0.0064,0.0066 0.0066,0.0065 z m 0,-13.54807 0.5271,0.52707 v 0 z m 13.5481,0 -0.5271,0.52711 0.0066,0.00642 z m 0.1239,2.0778 v 1.18731 h 1.4908 V 3.68163 Z M 93.455,4.12356 H 90.6351 V 5.61432 H 93.455 Z M 91.3805,4.86894 V 3.68163 h -1.4907 v 1.18731 z m 0,-1.18731 c 0,-0.16437 -0.0416,-0.42455 -0.2554,-0.63838 C 90.9113,2.82943 90.6511,2.78783 90.4867,2.78783 V 4.2786 C 90.4213,4.2786 90.2353,4.26174 90.071,4.09738 89.9066,3.93303 89.8898,3.74705 89.8898,3.68163 Z M 90.4867,2.78783 H 81.1366 V 4.2786 h 9.3501 z m -9.3501,0 c -0.1643,0 -0.4245,0.0416 -0.6383,0.25542 -0.2139,0.21383 -0.2555,0.47401 -0.2555,0.63838 h 1.4908 c 0,0.06543 -0.0169,0.2514 -0.1812,0.41576 C 81.388,4.26174 81.2021,4.2786 81.1366,4.2786 Z m -0.8938,0.8938 v 9.37127 h 1.4908 V 3.68163 Z m 0,9.37127 c 0,0.1644 0.0416,0.4246 0.2555,0.6384 0.2138,0.2138 0.474,0.2554 0.6383,0.2554 V 12.456 c 0.0655,0 0.2514,0.0168 0.4158,0.1812 0.1643,0.1643 0.1812,0.3503 0.1812,0.4157 z m 0.8938,0.8938 h 9.3501 V 12.456 h -9.3501 z m 9.3501,0 c 0.1644,0 0.4246,-0.0416 0.6384,-0.2554 0.2138,-0.2138 0.2554,-0.474 0.2554,-0.6384 h -1.4907 c 0,-0.0654 0.0168,-0.2514 0.1812,-0.4157 0.1643,-0.1644 0.3503,-0.1812 0.4157,-0.1812 z m 0.8938,-0.8938 v -2.8835 h -1.4907 v 2.8835 z M 90.6351,9.42406 h -3.4559 v 1.49074 h 3.4559 z M 87.9246,10.1694 V 7.37078 H 86.4338 V 10.1694 Z M 87.1792,8.11616 H 93.455 V 6.6254 h -6.2758 z m 5.5304,-0.74538 v 5.68212 h 1.4908 V 7.37078 Z m 0,5.68212 c 0,0.6222 -0.2113,1.1323 -0.6509,1.572 l 1.0541,1.0541 c 0.7193,-0.7194 1.0876,-1.6086 1.0876,-2.6261 z m -0.6444,1.5655 c -0.4383,0.4277 -0.9504,0.6362 -1.5785,0.6362 v 1.4908 c 1.0116,0 1.8989,-0.3568 2.6195,-1.0599 z m -1.5785,0.6362 h -9.3501 v 1.4908 h 9.3501 z m -9.3501,0 c -0.628,0 -1.1401,-0.2085 -1.5784,-0.6362 l -1.0411,1.0671 c 0.7207,0.7031 1.608,1.0599 2.6195,1.0599 z M 79.5712,14.6314 C 79.1435,14.193 78.9349,13.681 78.9349,13.0529 h -1.4907 c 0,1.0116 0.3568,1.8988 1.0599,2.6195 z M 78.9349,13.0529 V 3.68163 h -1.4907 v 9.37127 z m 0,-9.37127 c 0,-0.62773 0.2081,-1.12904 0.6298,-1.55073 L 78.5106,1.07677 C 77.8015,1.78585 77.4442,2.66973 77.4442,3.68163 Z M 79.5647,2.1309 c 0.4397,-0.43969 0.9497,-0.65097 1.5719,-0.65097 v -1.4907647 c -1.0174,0 -1.9067,0.3682457 -2.626,1.0876047 z m 1.5719,-0.65097 h 9.3501 v -1.4907647 h -9.3501 z m 9.3501,0 c 0.6222,0 1.1323,0.21128 1.572,0.65097 L 93.1128,1.07677 C 92.3934,0.357411 91.5042,-0.0108347 90.4867,-0.0108347 Z m 1.5785,0.65743 c 0.4337,0.42314 0.6444,0.92249 0.6444,1.54427 h 1.4908 c 0,-1.01784 -0.3688,-1.90369 -1.0942,-2.61133 z M 110.227,1.60383 109.7,2.13094 109.707,2.13736 Z M 111.097,16 v 0.7454 h 0.745 V 16 Z m -2.82,0 h -0.746 v 0.7454 h 0.746 z m 0,-5.1309 h 0.745 v -0.7454 h -0.745 z m -9.647,0 v -0.7454 h -0.7454 v 0.7454 z m 0,5.1309 v 0.7454 h 0.7453 V 16 Z m -2.7987,0 h -0.7454 v 0.7454 h 0.7454 z m 0.8481,-14.39617 0.527,0.52707 v 0 z M 98.63,8.07045 H 97.8846 V 8.81583 H 98.63 Z m 9.647,0 v 0.74538 h 0.745 V 8.07045 Z M 98.7784,1.47993 h 9.3496 v -1.4907647 h -9.3496 z m 9.3496,0 c 0.623,0 1.133,0.21128 1.572,0.65097 l 1.055,-1.05413 c -0.72,-0.719359 -1.609,-1.0876047 -2.627,-1.0876047 z m 1.579,0.65743 c 0.434,0.42314 0.644,0.92249 0.644,1.54427 h 1.491 c 0,-1.01784 -0.369,-1.90369 -1.094,-2.61133 z m 0.644,1.54427 V 16 h 1.491 V 3.68163 Z m 0.746,11.57297 h -2.82 v 1.4908 h 2.82 z M 109.022,16 v -5.1309 h -1.491 V 16 Z m -0.745,-5.8763 H 98.63 v 1.4908 h 9.647 z M 97.8846,10.8691 V 16 h 1.4907 v -5.1309 z m 0.7454,4.3855 h -2.7987 v 1.4908 H 98.63 Z M 96.5767,16 V 3.68163 H 95.0859 V 16 Z m 0,-12.31837 c 0,-0.62773 0.208,-1.12904 0.6297,-1.55073 L 96.1523,1.07677 C 95.4432,1.78585 95.0859,2.66973 95.0859,3.68163 Z M 97.2064,2.1309 c 0.4397,-0.43969 0.9498,-0.65097 1.572,-0.65097 v -1.4907647 c -1.0175,0 -1.9067,0.3682457 -2.6261,1.0876047 z M 98.63,8.81583 h 9.647 V 7.32506 H 98.63 Z M 109.022,8.07045 V 3.68163 h -1.491 v 4.38882 z m 0,-4.38882 c 0,-0.16437 -0.041,-0.42456 -0.255,-0.63838 -0.214,-0.21382 -0.474,-0.25542 -0.639,-0.25542 V 4.2786 c -0.065,0 -0.251,-0.01686 -0.415,-0.18121 -0.165,-0.16436 -0.182,-0.35033 -0.182,-0.41576 z m -0.894,-0.8938 H 98.7784 V 4.2786 h 9.3496 z m -9.3496,0 c -0.1644,0 -0.4246,0.0416 -0.6384,0.25542 -0.2138,0.21383 -0.2554,0.47401 -0.2554,0.63838 h 1.4907 c 0,0.06543 -0.0168,0.2514 -0.1812,0.41576 -0.1643,0.16435 -0.3503,0.18121 -0.4157,0.18121 z m -0.8938,0.8938 v 4.38882 h 1.4907 V 3.68163 Z m 24.2354,3.66795 -0.57,0.47934 0.572,0.68105 0.57,-0.68213 z m 5.534,-6.615031 v -0.7453837 h -0.348 l -0.224,0.2671197 z m 3.074,0 h 0.746 v -0.7453837 h -0.746 z M 130.728,16 v 0.7454 h 0.746 V 16 Z m -2.819,0 h -0.746 v 0.7454 h 0.746 z m 0,-11.19466 h 0.745 V 2.75909 l -1.316,1.56682 z m -5.789,6.89066 -0.569,0.4804 0.571,0.6772 0.569,-0.6782 z m -5.809,-6.89066 0.57,-0.48046 -1.315,-1.56007 v 2.04053 z m 0,11.19466 v 0.7454 h 0.745 V 16 Z m -2.799,0 h -0.745 v 0.7454 h 0.745 z m 0,-15.265451 v -0.7453837 h -0.745 V 0.734549 Z m 3.054,0 0.57,-0.479339 -0.223,-0.2660447 h -0.347 z m 6.126,7.093291 5.534,-6.61503 -1.144,-0.956525 -5.533,6.615025 z m 4.962,-6.34791 h 3.074 v -1.4907647 h -3.074 z m 2.329,-0.745381 V 16 h 1.491 V 0.734549 Z m 0.745,14.520051 h -2.819 v 1.4908 h 2.819 z M 128.654,16 V 4.80534 h -1.491 V 16 Z m -1.316,-11.67409 -5.788,6.89069 1.141,0.9588 5.788,-6.89064 z m -4.648,6.88959 -5.809,-6.89062 -1.14,0.96091 5.81,6.89061 z M 115.566,4.80534 V 16 h 1.49 V 4.80534 Z m 0.745,10.44926 h -2.799 v 1.4908 h 2.799 z M 114.258,16 V 0.734549 h -1.491 V 16 Z M 113.512,1.47993 h 3.054 v -1.4907647 h -3.054 z m 2.483,-0.26604 5.555,6.61503 1.141,-0.95868 -5.555,-6.61503 z M 147.26,0.734549 h 0.746 v -0.7453837 h -0.746 z m 0,2.798671 V 4.2786 h 0.746 V 3.53322 Z m -11.215,0 V 2.78783 h -0.746 v 0.74539 z m 0,3.43472 h -0.746 v 0.74538 h 0.746 z m 9.032,0 h 0.745 V 6.22256 h -0.745 z m 0,2.79867 V 10.512 h 0.745 V 9.76661 Z m -9.032,0 V 9.02122 h -0.746 v 0.74539 z m 0,3.43469 h -0.746 v 0.7454 h 0.746 z m 11.215,0 h 0.746 V 12.456 h -0.746 z m 0,2.7987 v 0.7454 h 0.746 V 16 Z m -14.035,0 h -0.746 v 0.7454 h 0.746 z m 0,-15.265451 v -0.7453837 h -0.746 V 0.734549 Z m 13.29,0 V 3.53322 h 1.491 V 0.734549 Z M 147.26,2.78783 H 136.045 V 4.2786 h 11.215 z m -11.961,0.74539 v 3.43472 h 1.491 V 3.53322 Z m 0.746,4.1801 h 9.032 V 6.22256 h -9.032 z m 8.286,-0.74538 v 2.79867 h 1.491 V 6.96794 Z m 0.746,2.05328 h -9.032 V 10.512 h 9.032 z m -9.778,0.74539 v 3.43469 h 1.491 V 9.76661 Z m 0.746,4.18009 H 147.26 V 12.456 h -11.215 z m 10.47,-0.7454 V 16 h 1.491 v -2.7987 z m 0.745,2.0533 h -14.035 v 1.4908 H 147.26 Z M 133.97,16 V 0.734549 h -1.491 V 16 Z M 133.225,1.47993 h 14.035 v -1.4907647 h -14.035 z"
         fill="#3aff33"
         id="path2"
         style="fill:#06df59;fill-opacity:1" /><path
         d="m 56.5725,29 v -7.6328 h 2.0354 v 1.3888 h -0.6467 v 4.8553 h 0.6467 V 29 Z m 2.8876,-6.2334 v -1.3994 h 7.6327 v 1.5266 l -5.5973,4.7069 h 5.5973 V 29 h -7.6327 v -1.5266 l 5.5973,-4.7068 z M 69.672,21.3672 h 4.6856 c 0.4029,0 0.7492,0.1449 1.0389,0.4347 0.2898,0.2827 0.4347,0.629 0.4347,1.0389 v 4.6857 c 0,0.4099 -0.1449,0.7597 -0.4347,1.0495 C 75.1068,28.8587 74.7605,29 74.3576,29 H 69.672 c -0.41,0 -0.7598,-0.1413 -1.0495,-0.424 -0.2827,-0.2898 -0.4241,-0.6396 -0.4241,-1.0495 v -4.6857 c 0,-0.4099 0.1414,-0.7562 0.4241,-1.0389 0.2897,-0.2898 0.6395,-0.4347 1.0495,-0.4347 z m 0,6.2335 h 4.6856 c 0.0424,0 0.0636,-0.0248 0.0636,-0.0742 v -4.6857 c 0,-0.0495 -0.0212,-0.0742 -0.0636,-0.0742 H 69.672 c -0.0495,0 -0.0743,0.0247 -0.0743,0.0742 v 4.6857 c 0,0.0494 0.0248,0.0742 0.0743,0.0742 z m 13.5494,-0.6361 v -5.5974 h 1.41 V 29 H 83.1048 L 78.3979,23.4026 V 29 h -1.3993 v -7.6328 h 1.5266 z m 9.6367,-5.5974 v 1.3994 h -5.608 v 1.7174 h 4.5161 v 1.3993 h -4.5161 v 1.7174 h 5.608 V 29 h -7.0179 v -7.6328 z m 1.0243,1.3888 v -1.3888 h 2.0354 V 29 h -2.0354 v -1.3887 h 0.6361 V 22.756 Z"
         fill="#3aff33"
         id="path3"
         style="fill:#06df59;fill-opacity:1" /><path
         d="m 56.5725,29 h -0.3757 v 0.3756 h 0.3757 z m 0,-7.6328 v -0.3756 h -0.3757 v 0.3756 z m 2.0354,0 h 0.3756 v -0.3756 h -0.3756 z m 0,1.3888 v 0.3756 h 0.3756 V 22.756 Z m -0.6467,0 v -0.3756 h -0.3756 v 0.3756 z m 0,4.8553 h -0.3756 v 0.3756 h 0.3756 z m 0.6467,0 h 0.3756 v -0.3757 h -0.3756 z m 0,1.3887 v 0.3756 h 0.3756 V 29 Z m -1.6598,0 V 21.3672 H 56.1968 V 29 Z m -0.3756,-7.2571 h 2.0354 v -0.7513 h -2.0354 z m 1.6597,-0.3757 v 1.3888 h 0.7513 v -1.3888 z m 0.3757,1.0132 h -0.6467 v 0.7512 h 0.6467 z m -1.0223,0.3756 v 4.8553 h 0.7512 V 22.756 Z m 0.3756,5.2309 h 0.6467 v -0.7513 h -0.6467 z m 0.271,-0.3756 V 29 h 0.7513 v -1.3887 z m 0.3757,1.0131 h -2.0354 v 0.7512 h 2.0354 z m 0.8522,-5.8578 h -0.3756 v 0.3756 h 0.3756 z m 0,-1.3994 v -0.3756 h -0.3756 v 0.3756 z m 7.6327,0 h 0.3757 v -0.3756 h -0.3757 z m 0,1.5266 0.2418,0.2875 0.1339,-0.1126 v -0.1749 z m -5.5973,4.7069 -0.2418,-0.2875 -0.7885,0.6631 h 1.0303 z m 5.5973,0 h 0.3757 V 27.225 h -0.3757 z m 0,1.3993 v 0.3756 h 0.3757 V 29 Z m -7.6327,0 h -0.3756 v 0.3756 h 0.3756 z m 0,-1.5266 -0.2418,-0.2874 -0.1338,0.1125 v 0.1749 z m 5.5973,-4.7068 0.2418,0.2875 0.7886,-0.6631 h -1.0304 z m -5.2217,0 v -1.3994 h -0.7512 v 1.3994 z m -0.3756,-1.0237 h 7.6327 v -0.7513 h -7.6327 z m 7.2571,-0.3757 v 1.5266 h 0.7513 v -1.5266 z m 0.1339,1.2391 -5.5974,4.7069 0.4835,0.575 5.5974,-4.7069 z m -5.3556,5.37 h 5.5973 V 27.225 h -5.5973 z m 5.2217,-0.3756 V 29 h 0.7513 v -1.3993 z m 0.3756,1.0237 h -7.6327 v 0.7512 h 7.6327 z M 59.8357,29 V 27.4734 H 59.0845 V 29 Z m -0.1339,-1.2391 5.5974,-4.7068 -0.4835,-0.575 -5.5974,4.7069 z m 5.3556,-5.3699 h -5.5973 v 0.7512 h 5.5973 z m 10.3391,-0.5891 -0.2656,0.2656 0.0033,0.0033 z m 0,6.7741 0.2624,0.2688 0.0032,-0.0032 z m -6.774,0 -0.269,0.2623 0.0066,0.0065 z m 0,-6.7741 0.2656,0.2656 v 0 z m 1.0495,-0.059 h 4.6856 V 20.9916 H 69.672 Z m 4.6856,0 c 0.3013,0 0.5526,0.1039 0.7733,0.3246 l 0.5312,-0.5312 C 75.3033,21.1774 74.862,20.9916 74.3576,20.9916 Z m 0.7766,0.3279 c 0.2163,0.211 0.3213,0.4599 0.3213,0.77 h 0.7513 c 0,-0.5097 -0.1847,-0.9534 -0.548,-1.3078 z m 0.3213,0.77 v 4.6857 h 0.7513 v -4.6857 z m 0,4.6857 c 0,0.3103 -0.1053,0.5646 -0.3246,0.7838 l 0.5312,0.5313 c 0.3603,-0.3603 0.5447,-0.8056 0.5447,-1.3151 z m -0.3213,0.7806 c -0.22,0.2146 -0.4723,0.3173 -0.7766,0.3173 v 0.7512 c 0.5014,0 0.9417,-0.18 1.3012,-0.5308 z m -0.7766,0.3173 H 69.672 v 0.7512 h 4.6856 z m -4.6856,0 c -0.3133,0 -0.5686,-0.104 -0.7872,-0.3173 l -0.5247,0.5377 c 0.3609,0.3521 0.8053,0.5308 1.3119,0.5308 z M 68.8913,28.3136 C 68.678,28.095 68.574,27.8397 68.574,27.5265 h -0.7512 c 0,0.5065 0.1787,0.9509 0.5308,1.3118 z M 68.574,27.5265 v -4.6857 h -0.7512 v 4.6857 z m 0,-4.6857 c 0,-0.3131 0.1038,-0.563 0.3141,-0.7733 l -0.5313,-0.5312 c -0.3551,0.3551 -0.534,0.7978 -0.534,1.3045 z m 0.3141,-0.7733 c 0.2193,-0.2193 0.4735,-0.3246 0.7839,-0.3246 v -0.7513 c -0.5095,0 -0.9549,0.1845 -1.3152,0.5447 z m 0.7839,5.9088 h 4.6856 V 27.225 H 69.672 Z m 4.6856,0 c 0.0955,0 0.2308,-0.0306 0.3329,-0.1497 0.0927,-0.1081 0.1064,-0.2305 0.1064,-0.3001 h -0.7513 c 0,-0.0203 0.0031,-0.1055 0.0745,-0.1888 0.081,-0.0945 0.1844,-0.1127 0.2375,-0.1127 z m 0.4393,-0.4498 v -4.6857 h -0.7513 v 4.6857 z m 0,-4.6857 c 0,-0.0697 -0.0137,-0.192 -0.1064,-0.3001 -0.1021,-0.1192 -0.2374,-0.1497 -0.3329,-0.1497 v 0.7512 c -0.0531,0 -0.1565,-0.0182 -0.2375,-0.1126 -0.0714,-0.0833 -0.0745,-0.1686 -0.0745,-0.1888 z M 74.3576,22.391 H 69.672 v 0.7512 h 4.6856 z m -4.6856,0 c -0.0827,0 -0.2137,0.0209 -0.3213,0.1285 -0.1077,0.1077 -0.1286,0.2387 -0.1286,0.3213 h 0.7513 c 0,0.0332 -0.0086,0.127 -0.0915,0.2099 -0.0829,0.083 -0.1768,0.0915 -0.2099,0.0915 z m -0.4499,0.4498 v 4.6857 h 0.7513 v -4.6857 z m 0,4.6857 c 0,0.0826 0.0209,0.2136 0.1286,0.3212 0.1076,0.1077 0.2386,0.1286 0.3213,0.1286 V 27.225 c 0.0331,0 0.127,0.0086 0.2099,0.0915 0.0829,0.0829 0.0915,0.1768 0.0915,0.21 z m 13.9993,-0.5619 -0.2877,0.2414 0.6633,0.7907 v -1.0321 z m 0,-5.5974 v -0.3756 h -0.3756 v 0.3756 z m 1.41,0 h 0.3756 v -0.3756 h -0.3756 z m 0,7.6328 v 0.3756 H 85.007 V 29 Z m -1.5266,0 -0.2875,0.2418 0.1126,0.1338 h 0.1749 z m -4.7069,-5.5974 0.2875,-0.2417 -0.6631,-0.7886 v 1.0303 z m 0,5.5974 v 0.3756 h 0.3757 V 29 Z m -1.3993,0 H 76.623 v 0.3756 h 0.3756 z m 0,-7.6328 V 20.9916 H 76.623 v 0.3756 z m 1.5266,0 0.2877,-0.2414 -0.1126,-0.1342 h -0.1751 z m 5.0718,5.5974 v -5.5974 h -0.7512 v 5.5974 z m -0.3756,-5.2217 h 1.41 v -0.7513 h -1.41 z m 1.0343,-0.3757 V 29 h 0.7513 v -7.6328 z m 0.3757,7.2572 h -1.5266 v 0.7512 h 1.5266 z m -1.2391,0.1338 -4.7069,-5.5973 -0.5749,0.4835 4.7068,5.5974 z m -5.37,-5.3556 V 29 h 0.7513 v -5.5974 z m 0.3756,5.2218 h -1.3993 v 0.7512 h 1.3993 z M 77.3742,29 V 21.3672 H 76.623 V 29 Z m -0.3756,-7.2571 h 1.5266 v -0.7513 h -1.5266 z m 1.2388,-0.1342 4.6963,5.5973 0.5755,-0.4828 -4.6963,-5.5974 z m 14.6207,-0.2415 h 0.3756 v -0.3756 h -0.3756 z m 0,1.3994 v 0.3756 h 0.3756 v -0.3756 z m -5.608,0 V 22.391 h -0.3756 v 0.3756 z m 0,1.7174 h -0.3756 v 0.3756 h 0.3756 z m 4.5161,0 h 0.3756 v -0.3757 h -0.3756 z m 0,1.3993 v 0.3756 h 0.3756 v -0.3756 z m -4.5161,0 v -0.3756 h -0.3756 v 0.3756 z m 0,1.7174 h -0.3756 v 0.3756 h 0.3756 z m 5.608,0 h 0.3756 V 27.225 h -0.3756 z m 0,1.3993 v 0.3756 h 0.3756 V 29 Z m -7.0179,0 h -0.3756 v 0.3756 h 0.3756 z m 0,-7.6328 v -0.3756 h -0.3756 v 0.3756 z m 6.6423,0 v 1.3994 h 0.7512 v -1.3994 z m 0.3756,1.0238 h -5.608 v 0.7512 h 5.608 z m -5.9836,0.3756 v 1.7174 h 0.7513 v -1.7174 z m 0.3756,2.093 h 4.5161 v -0.7513 h -4.5161 z m 4.1405,-0.3756 v 1.3993 h 0.7512 V 24.484 Z m 0.3756,1.0237 h -4.5161 v 0.7512 h 4.5161 z m -4.8917,0.3756 v 1.7174 h 0.7513 v -1.7174 z m 0.3756,2.093 h 5.608 V 27.225 h -5.608 z m 5.2324,-0.3756 V 29 h 0.7512 v -1.3993 z m 0.3756,1.0237 h -7.0179 v 0.7512 h 7.0179 z M 86.2158,29 V 21.3672 H 85.4646 V 29 Z m -0.3756,-7.2571 h 7.0179 v -0.7513 h -7.0179 z m 8.0422,1.0131 h -0.3756 v 0.3756 h 0.3756 z m 0,-1.3888 v -0.3756 h -0.3756 v 0.3756 z m 2.0354,0 h 0.3757 v -0.3756 h -0.3757 z m 0,7.6328 v 0.3756 h 0.3757 V 29 Z m -2.0354,0 h -0.3756 v 0.3756 h 0.3756 z m 0,-1.3887 v -0.3757 h -0.3756 v 0.3757 z m 0.6361,0 v 0.3756 h 0.3756 v -0.3756 z m 0,-4.8553 h 0.3756 v -0.3756 h -0.3756 z m -0.2604,0 v -1.3888 h -0.7513 v 1.3888 z m -0.3757,-1.0131 h 2.0354 v -0.7513 h -2.0354 z m 1.6598,-0.3757 V 29 h 0.7513 v -7.6328 z m 0.3756,7.2572 h -2.0354 v 0.7512 h 2.0354 z M 94.2581,29 V 27.6113 H 93.5068 V 29 Z m -0.3757,-1.0131 h 0.6361 v -0.7513 h -0.6361 z m 1.0117,-0.3756 V 22.756 h -0.7512 v 4.8553 z m -0.3756,-5.2309 h -0.6361 v 0.7512 h 0.6361 z"
         fill="#3aff33"
         id="path4"
         style="fill:#06df59;fill-opacity:1" /></g></g></svg>
