<svg width="155" height="30" viewBox="0 0 155 30" fill="none" xmlns="http://www.w3.org/2000/svg">
<path d="M10.8342 12.6077L17.6613 0.734549H20.9052L12.0851 16H9.56211L0.742071 0.734549H3.98598L10.8342 12.6077ZM22.4726 16V0.734549H25.2713V16H22.4726ZM27.1525 0.734549H39.4497C40.2695 0.734549 40.9691 1.02431 41.5487 1.60383C42.1282 2.16922 42.4179 2.86182 42.4179 3.68163V13.0529C42.4179 13.8727 42.1282 14.5724 41.5487 15.1519C40.9691 15.7173 40.2695 16 39.4497 16H27.1525V0.734549ZM39.5981 13.0529V3.68163C39.5981 3.58269 39.5486 3.53322 39.4497 3.53322H30.0996C30.0006 3.53322 29.9512 3.58269 29.9512 3.68163V13.0529C29.9512 13.1519 30.0006 13.2013 30.0996 13.2013H39.4497C39.5486 13.2013 39.5981 13.1519 39.5981 13.0529ZM58.8704 0.734549V3.53322H47.6545V6.96794H56.6866V9.76661H47.6545V13.2013H58.8704V16H44.8346V0.734549H58.8704ZM63.5363 0.734549H72.9076C73.7133 0.734549 74.4059 1.02431 74.9854 1.60383C75.5649 2.16922 75.8547 2.86182 75.8547 3.68163V13.0529C75.8547 13.8727 75.5649 14.5724 74.9854 15.1519C74.4059 15.7173 73.7133 16 72.9076 16H63.5363C62.7165 16 62.0168 15.7173 61.4373 15.1519C60.8719 14.5724 60.5892 13.8727 60.5892 13.0529V3.68163C60.5892 2.86182 60.8719 2.16922 61.4373 1.60383C62.0168 1.02431 62.7165 0.734549 63.5363 0.734549ZM63.5363 13.2013H72.9076C72.9924 13.2013 73.0348 13.1519 73.0348 13.0529V3.68163C73.0348 3.58269 72.9924 3.53322 72.9076 3.53322H63.5363C63.4374 3.53322 63.3879 3.58269 63.3879 3.68163V13.0529C63.3879 13.1519 63.4374 13.2013 63.5363 13.2013ZM93.455 3.68163V4.86894H90.6351V3.68163C90.6351 3.58269 90.5857 3.53322 90.4867 3.53322H81.1366C81.0377 3.53322 80.9882 3.58269 80.9882 3.68163V13.0529C80.9882 13.1519 81.0377 13.2013 81.1366 13.2013H90.4867C90.5857 13.2013 90.6351 13.1519 90.6351 13.0529V10.1694H87.1792V7.37078H93.455V13.0529C93.455 13.8727 93.1652 14.5724 92.5857 15.1519C92.0062 15.7173 91.3065 16 90.4867 16H81.1366C80.3168 16 79.6172 15.7173 79.0376 15.1519C78.4722 14.5724 78.1896 13.8727 78.1896 13.0529V3.68163C78.1896 2.86182 78.4722 2.16922 79.0376 1.60383C79.6172 1.02431 80.3168 0.734549 81.1366 0.734549H90.4867C91.3065 0.734549 92.0062 1.02431 92.5857 1.60383C93.1652 2.16922 93.455 2.86182 93.455 3.68163ZM98.7784 0.734549H108.128C108.948 0.734549 109.648 1.02431 110.227 1.60383C110.807 2.16922 111.097 2.86182 111.097 3.68163V16H108.277V10.8691H98.63V16H95.8313V3.68163C95.8313 2.86182 96.114 2.16922 96.6794 1.60383C97.2589 1.02431 97.9586 0.734549 98.7784 0.734549ZM98.63 8.07045H108.277V3.68163C108.277 3.58269 108.227 3.53322 108.128 3.53322H98.7784C98.6794 3.53322 98.63 3.58269 98.63 3.68163V8.07045ZM122.12 7.34958L127.654 0.734549H130.728V16H127.909V4.80534L122.12 11.696L116.311 4.80534V16H113.512V0.734549H116.566L122.12 7.34958ZM147.26 0.734549V3.53322H136.045V6.96794H145.077V9.76661H136.045V13.2013H147.26V16H133.225V0.734549H147.26Z" fill="#3AFF33"/>
<path d="M10.8342 12.6077L10.1886 12.9801L10.8352 14.1013L11.4804 12.9792L10.8342 12.6077ZM17.6613 0.734549V-0.0108347H17.2301L17.0151 0.362997L17.6613 0.734549ZM20.9052 0.734549L21.5506 1.10745L22.1967 -0.0108347H20.9052V0.734549ZM12.0851 16V16.7454H12.5153L12.7306 16.3729L12.0851 16ZM9.56211 16L8.91671 16.3729L9.13192 16.7454H9.56211V16ZM0.742071 0.734549V-0.0108347H-0.549449L0.0966691 1.10745L0.742071 0.734549ZM3.98598 0.734549L4.63166 0.36213L4.41654 -0.0108347H3.98598V0.734549ZM11.4804 12.9792L18.3075 1.1061L17.0151 0.362997L10.1881 12.2361L11.4804 12.9792ZM17.6613 1.47993H20.9052V-0.0108347H17.6613V1.47993ZM20.2598 0.36165L11.4397 15.6271L12.7306 16.3729L21.5506 1.10745L20.2598 0.36165ZM12.0851 15.2546H9.56211V16.7454H12.0851V15.2546ZM10.2075 15.6271L1.38747 0.36165L0.0966691 1.10745L8.91671 16.3729L10.2075 15.6271ZM0.742071 1.47993H3.98598V-0.0108347H0.742071V1.47993ZM3.3403 1.10697L10.1886 12.9801L11.4799 12.2353L4.63166 0.36213L3.3403 1.10697ZM22.4726 16H21.7273V16.7454H22.4726V16ZM22.4726 0.734549V-0.0108347H21.7273V0.734549H22.4726ZM25.2713 0.734549H26.0167V-0.0108347H25.2713V0.734549ZM25.2713 16V16.7454H26.0167V16H25.2713ZM23.218 16V0.734549H21.7273V16H23.218ZM22.4726 1.47993H25.2713V-0.0108347H22.4726V1.47993ZM24.5259 0.734549V16H26.0167V0.734549H24.5259ZM25.2713 15.2546H22.4726V16.7454H25.2713V15.2546ZM27.1525 0.734549V-0.0108347H26.4071V0.734549H27.1525ZM41.5487 1.60383L41.0216 2.13094L41.0281 2.13736L41.5487 1.60383ZM41.5487 15.1519L42.0692 15.6855L42.0757 15.679L41.5487 15.1519ZM27.1525 16H26.4071V16.7454H27.1525V16ZM27.1525 1.47993H39.4497V-0.0108347H27.1525V1.47993ZM39.4497 1.47993C40.0719 1.47993 40.5819 1.69121 41.0216 2.1309L42.0757 1.07677C41.3564 0.357411 40.4671 -0.0108347 39.4497 -0.0108347V1.47993ZM41.0281 2.13736C41.4619 2.5605 41.6726 3.05985 41.6726 3.68163H43.1633C43.1633 2.66379 42.7945 1.77794 42.0692 1.0703L41.0281 2.13736ZM41.6726 3.68163V13.0529H43.1633V3.68163H41.6726ZM41.6726 13.0529C41.6726 13.6751 41.4613 14.1852 41.0216 14.6249L42.0757 15.679C42.7951 14.9596 43.1633 14.0704 43.1633 13.0529H41.6726ZM41.0281 14.6184C40.5898 15.0461 40.0777 15.2546 39.4497 15.2546V16.7454C40.4612 16.7454 41.3485 16.3886 42.0692 15.6855L41.0281 14.6184ZM39.4497 15.2546H27.1525V16.7454H39.4497V15.2546ZM27.8979 16V0.734549H26.4071V16H27.8979ZM40.3435 13.0529V3.68163H38.8527V13.0529H40.3435ZM40.3435 3.68163C40.3435 3.51726 40.3019 3.25707 40.088 3.04325C39.8742 2.82943 39.614 2.78783 39.4497 2.78783V4.2786C39.3842 4.2786 39.1983 4.26174 39.0339 4.09739C38.8696 3.93303 38.8527 3.74706 38.8527 3.68163H40.3435ZM39.4497 2.78783H30.0996V4.2786H39.4497V2.78783ZM30.0996 2.78783C29.9352 2.78783 29.675 2.82943 29.4612 3.04325C29.2474 3.25708 29.2058 3.51726 29.2058 3.68163H30.6965C30.6965 3.74706 30.6797 3.93303 30.5153 4.09739C30.351 4.26174 30.165 4.2786 30.0996 4.2786V2.78783ZM29.2058 3.68163V13.0529H30.6965V3.68163H29.2058ZM29.2058 13.0529C29.2058 13.2173 29.2474 13.4775 29.4612 13.6913C29.675 13.9051 29.9352 13.9467 30.0996 13.9467V12.456C30.165 12.456 30.351 12.4728 30.5153 12.6372C30.6797 12.8015 30.6965 12.9875 30.6965 13.0529H29.2058ZM30.0996 13.9467H39.4497V12.456H30.0996V13.9467ZM39.4497 13.9467C39.614 13.9467 39.8742 13.9051 40.088 13.6913C40.3019 13.4775 40.3435 13.2173 40.3435 13.0529H38.8527C38.8527 12.9875 38.8696 12.8015 39.0339 12.6372C39.1983 12.4728 39.3842 12.456 39.4497 12.456V13.9467ZM58.8704 0.734549H59.6158V-0.0108347H58.8704V0.734549ZM58.8704 3.53322V4.2786H59.6158V3.53322H58.8704ZM47.6545 3.53322V2.78783H46.9091V3.53322H47.6545ZM47.6545 6.96794H46.9091V7.71332H47.6545V6.96794ZM56.6866 6.96794H57.432V6.22256H56.6866V6.96794ZM56.6866 9.76661V10.512H57.432V9.76661H56.6866ZM47.6545 9.76661V9.02122H46.9091V9.76661H47.6545ZM47.6545 13.2013H46.9091V13.9467H47.6545V13.2013ZM58.8704 13.2013H59.6158V12.456H58.8704V13.2013ZM58.8704 16V16.7454H59.6158V16H58.8704ZM44.8346 16H44.0893V16.7454H44.8346V16ZM44.8346 0.734549V-0.0108347H44.0893V0.734549H44.8346ZM58.125 0.734549V3.53322H59.6158V0.734549H58.125ZM58.8704 2.78783H47.6545V4.2786H58.8704V2.78783ZM46.9091 3.53322V6.96794H48.3999V3.53322H46.9091ZM47.6545 7.71332H56.6866V6.22256H47.6545V7.71332ZM55.9412 6.96794V9.76661H57.432V6.96794H55.9412ZM56.6866 9.02122H47.6545V10.512H56.6866V9.02122ZM46.9091 9.76661V13.2013H48.3999V9.76661H46.9091ZM47.6545 13.9467H58.8704V12.456H47.6545V13.9467ZM58.125 13.2013V16H59.6158V13.2013H58.125ZM58.8704 15.2546H44.8346V16.7454H58.8704V15.2546ZM45.58 16V0.734549H44.0893V16H45.58ZM44.8346 1.47993H58.8704V-0.0108347H44.8346V1.47993ZM74.9854 1.60383L74.4583 2.13094L74.4649 2.13736L74.9854 1.60383ZM74.9854 15.1519L75.506 15.6855L75.5125 15.679L74.9854 15.1519ZM61.4373 15.1519L60.9038 15.6724L60.9102 15.679L60.9168 15.6855L61.4373 15.1519ZM61.4373 1.60383L61.9644 2.1309L61.9644 2.1309L61.4373 1.60383ZM63.5363 1.47993H72.9076V-0.0108347H63.5363V1.47993ZM72.9076 1.47993C73.5118 1.47993 74.0159 1.68846 74.4583 2.1309L75.5125 1.07677C74.7959 0.360162 73.9148 -0.0108347 72.9076 -0.0108347V1.47993ZM74.4649 2.13736C74.8986 2.5605 75.1093 3.05985 75.1093 3.68163H76.6001C76.6001 2.66379 76.2313 1.77794 75.5059 1.0703L74.4649 2.13736ZM75.1093 3.68163V13.0529H76.6001V3.68163H75.1093ZM75.1093 13.0529C75.1093 13.6751 74.898 14.1852 74.4583 14.6249L75.5125 15.679C76.2318 14.9596 76.6001 14.0704 76.6001 13.0529H75.1093ZM74.4649 14.6184C74.0238 15.0487 73.5177 15.2546 72.9076 15.2546V16.7454C73.9088 16.7454 74.7879 16.3859 75.5059 15.6855L74.4649 14.6184ZM72.9076 15.2546H63.5363V16.7454H72.9076V15.2546ZM63.5363 15.2546C62.9083 15.2546 62.3962 15.0461 61.9578 14.6184L60.9168 15.6855C61.6375 16.3886 62.5247 16.7454 63.5363 16.7454V15.2546ZM61.9708 14.6314C61.5432 14.193 61.3346 13.681 61.3346 13.0529H59.8438C59.8438 14.0645 60.2007 14.9517 60.9038 15.6724L61.9708 14.6314ZM61.3346 13.0529V3.68163H59.8438V13.0529H61.3346ZM61.3346 3.68163C61.3346 3.0539 61.5427 2.55259 61.9644 2.1309L60.9102 1.07677C60.2012 1.78585 59.8438 2.66973 59.8438 3.68163H61.3346ZM61.9644 2.1309C62.4041 1.69121 62.9141 1.47993 63.5363 1.47993V-0.0108347C62.5189 -0.0108347 61.6296 0.357411 60.9102 1.07677L61.9644 2.1309ZM63.5363 13.9467H72.9076V12.456H63.5363V13.9467ZM72.9076 13.9467C73.0975 13.9467 73.3661 13.886 73.5689 13.6493C73.7529 13.4347 73.7802 13.1916 73.7802 13.0529H72.2894C72.2894 13.0132 72.2955 12.8443 72.4371 12.6791C72.5975 12.492 72.8025 12.456 72.9076 12.456V13.9467ZM73.7802 13.0529V3.68163H72.2894V13.0529H73.7802ZM73.7802 3.68163C73.7802 3.54297 73.7529 3.29988 73.5689 3.08523C73.3661 2.84859 73.0975 2.78783 72.9076 2.78783V4.2786C72.8025 4.2786 72.5975 4.24258 72.4371 4.05541C72.2955 3.89023 72.2894 3.72135 72.2894 3.68163H73.7802ZM72.9076 2.78783H63.5363V4.2786H72.9076V2.78783ZM63.5363 2.78783C63.3719 2.78783 63.1118 2.82943 62.8979 3.04325C62.6841 3.25708 62.6425 3.51726 62.6425 3.68163H64.1333C64.1333 3.74706 64.1164 3.93303 63.9521 4.09739C63.7877 4.26174 63.6017 4.2786 63.5363 4.2786V2.78783ZM62.6425 3.68163V13.0529H64.1333V3.68163H62.6425ZM62.6425 13.0529C62.6425 13.2173 62.6841 13.4775 62.8979 13.6913C63.1118 13.9051 63.3719 13.9467 63.5363 13.9467V12.456C63.6017 12.456 63.7877 12.4728 63.9521 12.6372C64.1164 12.8015 64.1333 12.9875 64.1333 13.0529H62.6425ZM93.455 4.86894V5.61432H94.2004V4.86894H93.455ZM90.6351 4.86894H89.8898V5.61432H90.6351V4.86894ZM90.6351 10.1694H91.3805V9.42406H90.6351V10.1694ZM87.1792 10.1694H86.4338V10.9148H87.1792V10.1694ZM87.1792 7.37078V6.6254H86.4338V7.37078H87.1792ZM93.455 7.37078H94.2004V6.6254H93.455V7.37078ZM92.5857 15.1519L93.1063 15.6855L93.1128 15.679L92.5857 15.1519ZM79.0376 15.1519L78.5041 15.6724L78.5105 15.679L78.5171 15.6855L79.0376 15.1519ZM79.0376 1.60383L79.5647 2.1309L79.5647 2.1309L79.0376 1.60383ZM92.5857 1.60383L92.0586 2.13094L92.0652 2.13736L92.5857 1.60383ZM92.7096 3.68163V4.86894H94.2004V3.68163H92.7096ZM93.455 4.12356H90.6351V5.61432H93.455V4.12356ZM91.3805 4.86894V3.68163H89.8898V4.86894H91.3805ZM91.3805 3.68163C91.3805 3.51726 91.3389 3.25708 91.1251 3.04325C90.9113 2.82943 90.6511 2.78783 90.4867 2.78783V4.2786C90.4213 4.2786 90.2353 4.26174 90.071 4.09738C89.9066 3.93303 89.8898 3.74705 89.8898 3.68163H91.3805ZM90.4867 2.78783H81.1366V4.2786H90.4867V2.78783ZM81.1366 2.78783C80.9723 2.78783 80.7121 2.82943 80.4983 3.04325C80.2844 3.25708 80.2428 3.51726 80.2428 3.68163H81.7336C81.7336 3.74706 81.7167 3.93303 81.5524 4.09739C81.388 4.26174 81.2021 4.2786 81.1366 4.2786V2.78783ZM80.2428 3.68163V13.0529H81.7336V3.68163H80.2428ZM80.2428 13.0529C80.2428 13.2173 80.2844 13.4775 80.4983 13.6913C80.7121 13.9051 80.9723 13.9467 81.1366 13.9467V12.456C81.2021 12.456 81.388 12.4728 81.5524 12.6372C81.7167 12.8015 81.7336 12.9875 81.7336 13.0529H80.2428ZM81.1366 13.9467H90.4867V12.456H81.1366V13.9467ZM90.4867 13.9467C90.6511 13.9467 90.9113 13.9051 91.1251 13.6913C91.3389 13.4775 91.3805 13.2173 91.3805 13.0529H89.8898C89.8898 12.9875 89.9066 12.8015 90.071 12.6372C90.2353 12.4728 90.4213 12.456 90.4867 12.456V13.9467ZM91.3805 13.0529V10.1694H89.8898V13.0529H91.3805ZM90.6351 9.42406H87.1792V10.9148H90.6351V9.42406ZM87.9246 10.1694V7.37078H86.4338V10.1694H87.9246ZM87.1792 8.11616H93.455V6.6254H87.1792V8.11616ZM92.7096 7.37078V13.0529H94.2004V7.37078H92.7096ZM92.7096 13.0529C92.7096 13.6751 92.4983 14.1852 92.0587 14.6249L93.1128 15.679C93.8321 14.9596 94.2004 14.0704 94.2004 13.0529H92.7096ZM92.0652 14.6184C91.6269 15.0461 91.1148 15.2546 90.4867 15.2546V16.7454C91.4983 16.7454 92.3856 16.3886 93.1062 15.6855L92.0652 14.6184ZM90.4867 15.2546H81.1366V16.7454H90.4867V15.2546ZM81.1366 15.2546C80.5086 15.2546 79.9965 15.0461 79.5582 14.6184L78.5171 15.6855C79.2378 16.3886 80.1251 16.7454 81.1366 16.7454V15.2546ZM79.5712 14.6314C79.1435 14.193 78.9349 13.681 78.9349 13.0529H77.4442C77.4442 14.0645 77.801 14.9517 78.5041 15.6724L79.5712 14.6314ZM78.9349 13.0529V3.68163H77.4442V13.0529H78.9349ZM78.9349 3.68163C78.9349 3.0539 79.143 2.55259 79.5647 2.1309L78.5106 1.07677C77.8015 1.78585 77.4442 2.66973 77.4442 3.68163H78.9349ZM79.5647 2.1309C80.0044 1.69121 80.5144 1.47993 81.1366 1.47993V-0.0108347C80.1192 -0.0108347 79.2299 0.357411 78.5106 1.07677L79.5647 2.1309ZM81.1366 1.47993H90.4867V-0.0108347H81.1366V1.47993ZM90.4867 1.47993C91.1089 1.47993 91.619 1.69121 92.0587 2.1309L93.1128 1.07677C92.3934 0.357411 91.5042 -0.0108347 90.4867 -0.0108347V1.47993ZM92.0652 2.13736C92.4989 2.5605 92.7096 3.05985 92.7096 3.68163H94.2004C94.2004 2.66379 93.8316 1.77794 93.1062 1.0703L92.0652 2.13736ZM110.227 1.60383L109.7 2.13094L109.707 2.13736L110.227 1.60383ZM111.097 16V16.7454H111.842V16H111.097ZM108.277 16H107.531V16.7454H108.277V16ZM108.277 10.8691H109.022V10.1237H108.277V10.8691ZM98.63 10.8691V10.1237H97.8846V10.8691H98.63ZM98.63 16V16.7454H99.3753V16H98.63ZM95.8313 16H95.0859V16.7454H95.8313V16ZM96.6794 1.60383L97.2064 2.1309L97.2064 2.1309L96.6794 1.60383ZM98.63 8.07045H97.8846V8.81583H98.63V8.07045ZM108.277 8.07045V8.81583H109.022V8.07045H108.277ZM98.7784 1.47993H108.128V-0.0108347H98.7784V1.47993ZM108.128 1.47993C108.751 1.47993 109.261 1.69121 109.7 2.1309L110.755 1.07677C110.035 0.357411 109.146 -0.0108347 108.128 -0.0108347V1.47993ZM109.707 2.13736C110.141 2.5605 110.351 3.05985 110.351 3.68163H111.842C111.842 2.66379 111.473 1.77794 110.748 1.0703L109.707 2.13736ZM110.351 3.68163V16H111.842V3.68163H110.351ZM111.097 15.2546H108.277V16.7454H111.097V15.2546ZM109.022 16V10.8691H107.531V16H109.022ZM108.277 10.1237H98.63V11.6145H108.277V10.1237ZM97.8846 10.8691V16H99.3753V10.8691H97.8846ZM98.63 15.2546H95.8313V16.7454H98.63V15.2546ZM96.5767 16V3.68163H95.0859V16H96.5767ZM96.5767 3.68163C96.5767 3.0539 96.7847 2.55259 97.2064 2.1309L96.1523 1.07677C95.4432 1.78585 95.0859 2.66973 95.0859 3.68163H96.5767ZM97.2064 2.1309C97.6461 1.69121 98.1562 1.47993 98.7784 1.47993V-0.0108347C97.7609 -0.0108347 96.8717 0.357411 96.1523 1.07677L97.2064 2.1309ZM98.63 8.81583H108.277V7.32506H98.63V8.81583ZM109.022 8.07045V3.68163H107.531V8.07045H109.022ZM109.022 3.68163C109.022 3.51726 108.981 3.25707 108.767 3.04325C108.553 2.82943 108.293 2.78783 108.128 2.78783V4.2786C108.063 4.2786 107.877 4.26174 107.713 4.09739C107.548 3.93303 107.531 3.74706 107.531 3.68163H109.022ZM108.128 2.78783H98.7784V4.2786H108.128V2.78783ZM98.7784 2.78783C98.614 2.78783 98.3538 2.82943 98.14 3.04325C97.9262 3.25708 97.8846 3.51726 97.8846 3.68163H99.3753C99.3753 3.74706 99.3585 3.93303 99.1941 4.09739C99.0298 4.26174 98.8438 4.2786 98.7784 4.2786V2.78783ZM97.8846 3.68163V8.07045H99.3753V3.68163H97.8846ZM122.12 7.34958L121.55 7.82892L122.122 8.50997L122.692 7.82784L122.12 7.34958ZM127.654 0.734549V-0.0108347H127.306L127.082 0.256285L127.654 0.734549ZM130.728 0.734549H131.474V-0.0108347H130.728V0.734549ZM130.728 16V16.7454H131.474V16H130.728ZM127.909 16H127.163V16.7454H127.909V16ZM127.909 4.80534H128.654V2.75909L127.338 4.32591L127.909 4.80534ZM122.12 11.696L121.551 12.1764L122.122 12.8536L122.691 12.1754L122.12 11.696ZM116.311 4.80534L116.881 4.32488L115.566 2.76481V4.80534H116.311ZM116.311 16V16.7454H117.056V16H116.311ZM113.512 16H112.767V16.7454H113.512V16ZM113.512 0.734549V-0.0108347H112.767V0.734549H113.512ZM116.566 0.734549L117.136 0.25521L116.913 -0.0108347H116.566V0.734549ZM122.692 7.82784L128.226 1.21281L127.082 0.256285L121.549 6.87131L122.692 7.82784ZM127.654 1.47993H130.728V-0.0108347H127.654V1.47993ZM129.983 0.734549V16H131.474V0.734549H129.983ZM130.728 15.2546H127.909V16.7454H130.728V15.2546ZM128.654 16V4.80534H127.163V16H128.654ZM127.338 4.32591L121.55 11.2166L122.691 12.1754L128.479 5.28476L127.338 4.32591ZM122.69 11.2155L116.881 4.32488L115.741 5.28579L121.551 12.1764L122.69 11.2155ZM115.566 4.80534V16H117.056V4.80534H115.566ZM116.311 15.2546H113.512V16.7454H116.311V15.2546ZM114.258 16V0.734549H112.767V16H114.258ZM113.512 1.47993H116.566V-0.0108347H113.512V1.47993ZM115.995 1.21389L121.55 7.82892L122.691 6.87024L117.136 0.25521L115.995 1.21389ZM147.26 0.734549H148.006V-0.0108347H147.26V0.734549ZM147.26 3.53322V4.2786H148.006V3.53322H147.26ZM136.045 3.53322V2.78783H135.299V3.53322H136.045ZM136.045 6.96794H135.299V7.71332H136.045V6.96794ZM145.077 6.96794H145.822V6.22256H145.077V6.96794ZM145.077 9.76661V10.512H145.822V9.76661H145.077ZM136.045 9.76661V9.02122H135.299V9.76661H136.045ZM136.045 13.2013H135.299V13.9467H136.045V13.2013ZM147.26 13.2013H148.006V12.456H147.26V13.2013ZM147.26 16V16.7454H148.006V16H147.26ZM133.225 16H132.479V16.7454H133.225V16ZM133.225 0.734549V-0.0108347H132.479V0.734549H133.225ZM146.515 0.734549V3.53322H148.006V0.734549H146.515ZM147.26 2.78783H136.045V4.2786H147.26V2.78783ZM135.299 3.53322V6.96794H136.79V3.53322H135.299ZM136.045 7.71332H145.077V6.22256H136.045V7.71332ZM144.331 6.96794V9.76661H145.822V6.96794H144.331ZM145.077 9.02122H136.045V10.512H145.077V9.02122ZM135.299 9.76661V13.2013H136.79V9.76661H135.299ZM136.045 13.9467H147.26V12.456H136.045V13.9467ZM146.515 13.2013V16H148.006V13.2013H146.515ZM147.26 15.2546H133.225V16.7454H147.26V15.2546ZM133.97 16V0.734549H132.479V16H133.97ZM133.225 1.47993H147.26V-0.0108347H133.225V1.47993Z" fill="#3AFF33"/>
<path d="M56.5725 29V21.3672H58.6079V22.756H57.9612V27.6113H58.6079V29H56.5725ZM59.4601 22.7666V21.3672H67.0928V22.8938L61.4955 27.6007H67.0928V29H59.4601V27.4734L65.0574 22.7666H59.4601ZM69.672 21.3672H74.3576C74.7605 21.3672 75.1068 21.5121 75.3965 21.8019C75.6863 22.0846 75.8312 22.4309 75.8312 22.8408V27.5265C75.8312 27.9364 75.6863 28.2862 75.3965 28.576C75.1068 28.8587 74.7605 29 74.3576 29H69.672C69.262 29 68.9122 28.8587 68.6225 28.576C68.3398 28.2862 68.1984 27.9364 68.1984 27.5265V22.8408C68.1984 22.4309 68.3398 22.0846 68.6225 21.8019C68.9122 21.5121 69.262 21.3672 69.672 21.3672ZM69.672 27.6007H74.3576C74.4 27.6007 74.4212 27.5759 74.4212 27.5265V22.8408C74.4212 22.7913 74.4 22.7666 74.3576 22.7666H69.672C69.6225 22.7666 69.5977 22.7913 69.5977 22.8408V27.5265C69.5977 27.5759 69.6225 27.6007 69.672 27.6007ZM83.2214 26.9646V21.3672H84.6314V29H83.1048L78.3979 23.4026V29H76.9986V21.3672H78.5252L83.2214 26.9646ZM92.8581 21.3672V22.7666H87.2501V24.484H91.7662V25.8833H87.2501V27.6007H92.8581V29H85.8402V21.3672H92.8581ZM93.8824 22.756V21.3672H95.9178V29H93.8824V27.6113H94.5185V22.756H93.8824Z" fill="#3AFF33"/>
<path d="M56.5725 29H56.1968V29.3756H56.5725V29ZM56.5725 21.3672V20.9916H56.1968V21.3672H56.5725ZM58.6079 21.3672H58.9835V20.9916H58.6079V21.3672ZM58.6079 22.756V23.1316H58.9835V22.756H58.6079ZM57.9612 22.756V22.3804H57.5856V22.756H57.9612ZM57.9612 27.6113H57.5856V27.9869H57.9612V27.6113ZM58.6079 27.6113H58.9835V27.2356H58.6079V27.6113ZM58.6079 29V29.3756H58.9835V29H58.6079ZM56.9481 29V21.3672H56.1968V29H56.9481ZM56.5725 21.7429H58.6079V20.9916H56.5725V21.7429ZM58.2322 21.3672V22.756H58.9835V21.3672H58.2322ZM58.6079 22.3804H57.9612V23.1316H58.6079V22.3804ZM57.5856 22.756V27.6113H58.3368V22.756H57.5856ZM57.9612 27.9869H58.6079V27.2356H57.9612V27.9869ZM58.2322 27.6113V29H58.9835V27.6113H58.2322ZM58.6079 28.6244H56.5725V29.3756H58.6079V28.6244ZM59.4601 22.7666H59.0845V23.1422H59.4601V22.7666ZM59.4601 21.3672V20.9916H59.0845V21.3672H59.4601ZM67.0928 21.3672H67.4685V20.9916H67.0928V21.3672ZM67.0928 22.8938L67.3346 23.1813L67.4685 23.0687V22.8938H67.0928ZM61.4955 27.6007L61.2537 27.3132L60.4652 27.9763H61.4955V27.6007ZM67.0928 27.6007H67.4685V27.225H67.0928V27.6007ZM67.0928 29V29.3756H67.4685V29H67.0928ZM59.4601 29H59.0845V29.3756H59.4601V29ZM59.4601 27.4734L59.2183 27.186L59.0845 27.2985V27.4734H59.4601ZM65.0574 22.7666L65.2992 23.0541L66.0878 22.391H65.0574V22.7666ZM59.8357 22.7666V21.3672H59.0845V22.7666H59.8357ZM59.4601 21.7429H67.0928V20.9916H59.4601V21.7429ZM66.7172 21.3672V22.8938H67.4685V21.3672H66.7172ZM66.8511 22.6063L61.2537 27.3132L61.7372 27.8882L67.3346 23.1813L66.8511 22.6063ZM61.4955 27.9763H67.0928V27.225H61.4955V27.9763ZM66.7172 27.6007V29H67.4685V27.6007H66.7172ZM67.0928 28.6244H59.4601V29.3756H67.0928V28.6244ZM59.8357 29V27.4734H59.0845V29H59.8357ZM59.7018 27.7609L65.2992 23.0541L64.8157 22.4791L59.2183 27.186L59.7018 27.7609ZM65.0574 22.391H59.4601V23.1422H65.0574V22.391ZM75.3965 21.8019L75.1309 22.0675L75.1342 22.0708L75.3965 21.8019ZM75.3965 28.576L75.6589 28.8448L75.6621 28.8416L75.3965 28.576ZM68.6225 28.576L68.3535 28.8383L68.3601 28.8448L68.6225 28.576ZM68.6225 21.8019L68.8881 22.0675L68.8881 22.0675L68.6225 21.8019ZM69.672 21.7429H74.3576V20.9916H69.672V21.7429ZM74.3576 21.7429C74.6589 21.7429 74.9102 21.8468 75.1309 22.0675L75.6621 21.5363C75.3033 21.1774 74.862 20.9916 74.3576 20.9916V21.7429ZM75.1342 22.0708C75.3505 22.2818 75.4555 22.5307 75.4555 22.8408H76.2068C76.2068 22.3311 76.0221 21.8874 75.6588 21.533L75.1342 22.0708ZM75.4555 22.8408V27.5265H76.2068V22.8408H75.4555ZM75.4555 27.5265C75.4555 27.8368 75.3502 28.0911 75.1309 28.3103L75.6621 28.8416C76.0224 28.4813 76.2068 28.036 76.2068 27.5265H75.4555ZM75.1342 28.3071C74.9142 28.5217 74.6619 28.6244 74.3576 28.6244V29.3756C74.859 29.3756 75.2993 29.1956 75.6588 28.8448L75.1342 28.3071ZM74.3576 28.6244H69.672V29.3756H74.3576V28.6244ZM69.672 28.6244C69.3587 28.6244 69.1034 28.5204 68.8848 28.3071L68.3601 28.8448C68.721 29.1969 69.1654 29.3756 69.672 29.3756V28.6244ZM68.8913 28.3136C68.678 28.095 68.574 27.8397 68.574 27.5265H67.8228C67.8228 28.033 68.0015 28.4774 68.3536 28.8383L68.8913 28.3136ZM68.574 27.5265V22.8408H67.8228V27.5265H68.574ZM68.574 22.8408C68.574 22.5277 68.6778 22.2778 68.8881 22.0675L68.3568 21.5363C68.0017 21.8914 67.8228 22.3341 67.8228 22.8408H68.574ZM68.8881 22.0675C69.1074 21.8482 69.3616 21.7429 69.672 21.7429V20.9916C69.1625 20.9916 68.7171 21.1761 68.3568 21.5363L68.8881 22.0675ZM69.672 27.9763H74.3576V27.225H69.672V27.9763ZM74.3576 27.9763C74.4531 27.9763 74.5884 27.9457 74.6905 27.8266C74.7832 27.7185 74.7969 27.5961 74.7969 27.5265H74.0456C74.0456 27.5062 74.0487 27.421 74.1201 27.3377C74.2011 27.2432 74.3045 27.225 74.3576 27.225V27.9763ZM74.7969 27.5265V22.8408H74.0456V27.5265H74.7969ZM74.7969 22.8408C74.7969 22.7711 74.7832 22.6488 74.6905 22.5407C74.5884 22.4215 74.4531 22.391 74.3576 22.391V23.1422C74.3045 23.1422 74.2011 23.124 74.1201 23.0296C74.0487 22.9463 74.0456 22.861 74.0456 22.8408H74.7969ZM74.3576 22.391H69.672V23.1422H74.3576V22.391ZM69.672 22.391C69.5893 22.391 69.4583 22.4119 69.3507 22.5195C69.243 22.6272 69.2221 22.7582 69.2221 22.8408H69.9734C69.9734 22.874 69.9648 22.9678 69.8819 23.0507C69.799 23.1337 69.7051 23.1422 69.672 23.1422V22.391ZM69.2221 22.8408V27.5265H69.9734V22.8408H69.2221ZM69.2221 27.5265C69.2221 27.6091 69.243 27.7401 69.3507 27.8477C69.4583 27.9554 69.5893 27.9763 69.672 27.9763V27.225C69.7051 27.225 69.799 27.2336 69.8819 27.3165C69.9648 27.3994 69.9734 27.4933 69.9734 27.5265H69.2221ZM83.2214 26.9646L82.9337 27.206L83.597 27.9967V26.9646H83.2214ZM83.2214 21.3672V20.9916H82.8458V21.3672H83.2214ZM84.6314 21.3672H85.007V20.9916H84.6314V21.3672ZM84.6314 29V29.3756H85.007V29H84.6314ZM83.1048 29L82.8173 29.2418L82.9299 29.3756H83.1048V29ZM78.3979 23.4026L78.6854 23.1609L78.0223 22.3723V23.4026H78.3979ZM78.3979 29V29.3756H78.7736V29H78.3979ZM76.9986 29H76.623V29.3756H76.9986V29ZM76.9986 21.3672V20.9916H76.623V21.3672H76.9986ZM78.5252 21.3672L78.8129 21.1258L78.7003 20.9916H78.5252V21.3672ZM83.597 26.9646V21.3672H82.8458V26.9646H83.597ZM83.2214 21.7429H84.6314V20.9916H83.2214V21.7429ZM84.2557 21.3672V29H85.007V21.3672H84.2557ZM84.6314 28.6244H83.1048V29.3756H84.6314V28.6244ZM83.3923 28.7582L78.6854 23.1609L78.1105 23.6444L82.8173 29.2418L83.3923 28.7582ZM78.0223 23.4026V29H78.7736V23.4026H78.0223ZM78.3979 28.6244H76.9986V29.3756H78.3979V28.6244ZM77.3742 29V21.3672H76.623V29H77.3742ZM76.9986 21.7429H78.5252V20.9916H76.9986V21.7429ZM78.2374 21.6087L82.9337 27.206L83.5092 26.7232L78.8129 21.1258L78.2374 21.6087ZM92.8581 21.3672H93.2337V20.9916H92.8581V21.3672ZM92.8581 22.7666V23.1422H93.2337V22.7666H92.8581ZM87.2501 22.7666V22.391H86.8745V22.7666H87.2501ZM87.2501 24.484H86.8745V24.8596H87.2501V24.484ZM91.7662 24.484H92.1418V24.1083H91.7662V24.484ZM91.7662 25.8833V26.2589H92.1418V25.8833H91.7662ZM87.2501 25.8833V25.5077H86.8745V25.8833H87.2501ZM87.2501 27.6007H86.8745V27.9763H87.2501V27.6007ZM92.8581 27.6007H93.2337V27.225H92.8581V27.6007ZM92.8581 29V29.3756H93.2337V29H92.8581ZM85.8402 29H85.4646V29.3756H85.8402V29ZM85.8402 21.3672V20.9916H85.4646V21.3672H85.8402ZM92.4825 21.3672V22.7666H93.2337V21.3672H92.4825ZM92.8581 22.391H87.2501V23.1422H92.8581V22.391ZM86.8745 22.7666V24.484H87.6258V22.7666H86.8745ZM87.2501 24.8596H91.7662V24.1083H87.2501V24.8596ZM91.3906 24.484V25.8833H92.1418V24.484H91.3906ZM91.7662 25.5077H87.2501V26.2589H91.7662V25.5077ZM86.8745 25.8833V27.6007H87.6258V25.8833H86.8745ZM87.2501 27.9763H92.8581V27.225H87.2501V27.9763ZM92.4825 27.6007V29H93.2337V27.6007H92.4825ZM92.8581 28.6244H85.8402V29.3756H92.8581V28.6244ZM86.2158 29V21.3672H85.4646V29H86.2158ZM85.8402 21.7429H92.8581V20.9916H85.8402V21.7429ZM93.8824 22.756H93.5068V23.1316H93.8824V22.756ZM93.8824 21.3672V20.9916H93.5068V21.3672H93.8824ZM95.9178 21.3672H96.2935V20.9916H95.9178V21.3672ZM95.9178 29V29.3756H96.2935V29H95.9178ZM93.8824 29H93.5068V29.3756H93.8824V29ZM93.8824 27.6113V27.2356H93.5068V27.6113H93.8824ZM94.5185 27.6113V27.9869H94.8941V27.6113H94.5185ZM94.5185 22.756H94.8941V22.3804H94.5185V22.756ZM94.2581 22.756V21.3672H93.5068V22.756H94.2581ZM93.8824 21.7429H95.9178V20.9916H93.8824V21.7429ZM95.5422 21.3672V29H96.2935V21.3672H95.5422ZM95.9178 28.6244H93.8824V29.3756H95.9178V28.6244ZM94.2581 29V27.6113H93.5068V29H94.2581ZM93.8824 27.9869H94.5185V27.2356H93.8824V27.9869ZM94.8941 27.6113V22.756H94.1429V27.6113H94.8941ZM94.5185 22.3804H93.8824V23.1316H94.5185V22.3804Z" fill="#3AFF33"/>
</svg>
