<svg width="193" height="19" viewBox="0 0 193 19" fill="none" xmlns="http://www.w3.org/2000/svg">
<path d="M10.8342 12.6077L17.6613 0.734549H20.9052L12.0851 16H9.56211L0.742071 0.734549H3.98598L10.8342 12.6077ZM22.4726 16V0.734549H25.2713V16H22.4726ZM27.1525 0.734549H39.4497C40.2695 0.734549 40.9691 1.02431 41.5487 1.60383C42.1282 2.16922 42.4179 2.86182 42.4179 3.68163V13.0529C42.4179 13.8727 42.1282 14.5724 41.5487 15.1519C40.9691 15.7173 40.2695 16 39.4497 16H27.1525V0.734549ZM39.5981 13.0529V3.68163C39.5981 3.58269 39.5486 3.53322 39.4497 3.53322H30.0996C30.0006 3.53322 29.9512 3.58269 29.9512 3.68163V13.0529C29.9512 13.1519 30.0006 13.2013 30.0996 13.2013H39.4497C39.5486 13.2013 39.5981 13.1519 39.5981 13.0529ZM58.8704 0.734549V3.53322H47.6545V6.96794H56.6866V9.76661H47.6545V13.2013H58.8704V16H44.8346V0.734549H58.8704ZM63.5363 0.734549H72.9076C73.7133 0.734549 74.4059 1.02431 74.9854 1.60383C75.5649 2.16922 75.8547 2.86182 75.8547 3.68163V13.0529C75.8547 13.8727 75.5649 14.5724 74.9854 15.1519C74.4059 15.7173 73.7133 16 72.9076 16H63.5363C62.7165 16 62.0168 15.7173 61.4373 15.1519C60.8719 14.5724 60.5892 13.8727 60.5892 13.0529V3.68163C60.5892 2.86182 60.8719 2.16922 61.4373 1.60383C62.0168 1.02431 62.7165 0.734549 63.5363 0.734549ZM63.5363 13.2013H72.9076C72.9924 13.2013 73.0348 13.1519 73.0348 13.0529V3.68163C73.0348 3.58269 72.9924 3.53322 72.9076 3.53322H63.5363C63.4374 3.53322 63.3879 3.58269 63.3879 3.68163V13.0529C63.3879 13.1519 63.4374 13.2013 63.5363 13.2013ZM93.455 3.68163V4.86894H90.6351V3.68163C90.6351 3.58269 90.5857 3.53322 90.4867 3.53322H81.1366C81.0377 3.53322 80.9882 3.58269 80.9882 3.68163V13.0529C80.9882 13.1519 81.0377 13.2013 81.1366 13.2013H90.4867C90.5857 13.2013 90.6351 13.1519 90.6351 13.0529V10.1694H87.1792V7.37078H93.455V13.0529C93.455 13.8727 93.1652 14.5724 92.5857 15.1519C92.0062 15.7173 91.3065 16 90.4867 16H81.1366C80.3168 16 79.6172 15.7173 79.0376 15.1519C78.4722 14.5724 78.1896 13.8727 78.1896 13.0529V3.68163C78.1896 2.86182 78.4722 2.16922 79.0376 1.60383C79.6172 1.02431 80.3168 0.734549 81.1366 0.734549H90.4867C91.3065 0.734549 92.0062 1.02431 92.5857 1.60383C93.1652 2.16922 93.455 2.86182 93.455 3.68163ZM98.7784 0.734549H108.128C108.948 0.734549 109.648 1.02431 110.227 1.60383C110.807 2.16922 111.097 2.86182 111.097 3.68163V16H108.277V10.8691H98.63V16H95.8313V3.68163C95.8313 2.86182 96.114 2.16922 96.6794 1.60383C97.2589 1.02431 97.9586 0.734549 98.7784 0.734549ZM98.63 8.07045H108.277V3.68163C108.277 3.58269 108.227 3.53322 108.128 3.53322H98.7784C98.6794 3.53322 98.63 3.58269 98.63 3.68163V8.07045ZM122.12 7.34958L127.654 0.734549H130.728V16H127.909V4.80534L122.12 11.696L116.311 4.80534V16H113.512V0.734549H116.566L122.12 7.34958ZM147.26 0.734549V3.53322H136.045V6.96794H145.077V9.76661H136.045V13.2013H147.26V16H133.225V0.734549H147.26Z" fill="#3AFF33"/>
<path d="M10.8342 12.6077L10.1886 12.9801L10.8352 14.1013L11.4804 12.9792L10.8342 12.6077ZM17.6613 0.734549V-0.0108347H17.2301L17.0151 0.362997L17.6613 0.734549ZM20.9052 0.734549L21.5506 1.10745L22.1967 -0.0108347H20.9052V0.734549ZM12.0851 16V16.7454H12.5153L12.7306 16.3729L12.0851 16ZM9.56211 16L8.91671 16.3729L9.13192 16.7454H9.56211V16ZM0.742071 0.734549V-0.0108347H-0.549449L0.0966691 1.10745L0.742071 0.734549ZM3.98598 0.734549L4.63166 0.36213L4.41654 -0.0108347H3.98598V0.734549ZM11.4804 12.9792L18.3075 1.1061L17.0151 0.362997L10.1881 12.2361L11.4804 12.9792ZM17.6613 1.47993H20.9052V-0.0108347H17.6613V1.47993ZM20.2598 0.36165L11.4397 15.6271L12.7306 16.3729L21.5506 1.10745L20.2598 0.36165ZM12.0851 15.2546H9.56211V16.7454H12.0851V15.2546ZM10.2075 15.6271L1.38747 0.36165L0.0966691 1.10745L8.91671 16.3729L10.2075 15.6271ZM0.742071 1.47993H3.98598V-0.0108347H0.742071V1.47993ZM3.3403 1.10697L10.1886 12.9801L11.4799 12.2353L4.63166 0.36213L3.3403 1.10697ZM22.4726 16H21.7273V16.7454H22.4726V16ZM22.4726 0.734549V-0.0108347H21.7273V0.734549H22.4726ZM25.2713 0.734549H26.0167V-0.0108347H25.2713V0.734549ZM25.2713 16V16.7454H26.0167V16H25.2713ZM23.218 16V0.734549H21.7273V16H23.218ZM22.4726 1.47993H25.2713V-0.0108347H22.4726V1.47993ZM24.5259 0.734549V16H26.0167V0.734549H24.5259ZM25.2713 15.2546H22.4726V16.7454H25.2713V15.2546ZM27.1525 0.734549V-0.0108347H26.4071V0.734549H27.1525ZM41.5487 1.60383L41.0216 2.13094L41.0281 2.13736L41.5487 1.60383ZM41.5487 15.1519L42.0692 15.6855L42.0757 15.679L41.5487 15.1519ZM27.1525 16H26.4071V16.7454H27.1525V16ZM27.1525 1.47993H39.4497V-0.0108347H27.1525V1.47993ZM39.4497 1.47993C40.0719 1.47993 40.5819 1.69121 41.0216 2.1309L42.0757 1.07677C41.3564 0.357411 40.4671 -0.0108347 39.4497 -0.0108347V1.47993ZM41.0281 2.13736C41.4619 2.5605 41.6726 3.05985 41.6726 3.68163H43.1633C43.1633 2.66379 42.7945 1.77794 42.0692 1.0703L41.0281 2.13736ZM41.6726 3.68163V13.0529H43.1633V3.68163H41.6726ZM41.6726 13.0529C41.6726 13.6751 41.4613 14.1852 41.0216 14.6249L42.0757 15.679C42.7951 14.9596 43.1633 14.0704 43.1633 13.0529H41.6726ZM41.0281 14.6184C40.5898 15.0461 40.0777 15.2546 39.4497 15.2546V16.7454C40.4612 16.7454 41.3485 16.3886 42.0692 15.6855L41.0281 14.6184ZM39.4497 15.2546H27.1525V16.7454H39.4497V15.2546ZM27.8979 16V0.734549H26.4071V16H27.8979ZM40.3435 13.0529V3.68163H38.8527V13.0529H40.3435ZM40.3435 3.68163C40.3435 3.51726 40.3019 3.25707 40.088 3.04325C39.8742 2.82943 39.614 2.78783 39.4497 2.78783V4.2786C39.3842 4.2786 39.1983 4.26174 39.0339 4.09739C38.8696 3.93303 38.8527 3.74706 38.8527 3.68163H40.3435ZM39.4497 2.78783H30.0996V4.2786H39.4497V2.78783ZM30.0996 2.78783C29.9352 2.78783 29.675 2.82943 29.4612 3.04325C29.2474 3.25708 29.2058 3.51726 29.2058 3.68163H30.6965C30.6965 3.74706 30.6797 3.93303 30.5153 4.09739C30.351 4.26174 30.165 4.2786 30.0996 4.2786V2.78783ZM29.2058 3.68163V13.0529H30.6965V3.68163H29.2058ZM29.2058 13.0529C29.2058 13.2173 29.2474 13.4775 29.4612 13.6913C29.675 13.9051 29.9352 13.9467 30.0996 13.9467V12.456C30.165 12.456 30.351 12.4728 30.5153 12.6372C30.6797 12.8015 30.6965 12.9875 30.6965 13.0529H29.2058ZM30.0996 13.9467H39.4497V12.456H30.0996V13.9467ZM39.4497 13.9467C39.614 13.9467 39.8742 13.9051 40.088 13.6913C40.3019 13.4775 40.3435 13.2173 40.3435 13.0529H38.8527C38.8527 12.9875 38.8696 12.8015 39.0339 12.6372C39.1983 12.4728 39.3842 12.456 39.4497 12.456V13.9467ZM58.8704 0.734549H59.6158V-0.0108347H58.8704V0.734549ZM58.8704 3.53322V4.2786H59.6158V3.53322H58.8704ZM47.6545 3.53322V2.78783H46.9091V3.53322H47.6545ZM47.6545 6.96794H46.9091V7.71332H47.6545V6.96794ZM56.6866 6.96794H57.432V6.22256H56.6866V6.96794ZM56.6866 9.76661V10.512H57.432V9.76661H56.6866ZM47.6545 9.76661V9.02122H46.9091V9.76661H47.6545ZM47.6545 13.2013H46.9091V13.9467H47.6545V13.2013ZM58.8704 13.2013H59.6158V12.456H58.8704V13.2013ZM58.8704 16V16.7454H59.6158V16H58.8704ZM44.8346 16H44.0893V16.7454H44.8346V16ZM44.8346 0.734549V-0.0108347H44.0893V0.734549H44.8346ZM58.125 0.734549V3.53322H59.6158V0.734549H58.125ZM58.8704 2.78783H47.6545V4.2786H58.8704V2.78783ZM46.9091 3.53322V6.96794H48.3999V3.53322H46.9091ZM47.6545 7.71332H56.6866V6.22256H47.6545V7.71332ZM55.9412 6.96794V9.76661H57.432V6.96794H55.9412ZM56.6866 9.02122H47.6545V10.512H56.6866V9.02122ZM46.9091 9.76661V13.2013H48.3999V9.76661H46.9091ZM47.6545 13.9467H58.8704V12.456H47.6545V13.9467ZM58.125 13.2013V16H59.6158V13.2013H58.125ZM58.8704 15.2546H44.8346V16.7454H58.8704V15.2546ZM45.58 16V0.734549H44.0893V16H45.58ZM44.8346 1.47993H58.8704V-0.0108347H44.8346V1.47993ZM74.9854 1.60383L74.4583 2.13094L74.4649 2.13736L74.9854 1.60383ZM74.9854 15.1519L75.506 15.6855L75.5125 15.679L74.9854 15.1519ZM61.4373 15.1519L60.9038 15.6724L60.9102 15.679L60.9168 15.6855L61.4373 15.1519ZM61.4373 1.60383L61.9644 2.1309L61.9644 2.1309L61.4373 1.60383ZM63.5363 1.47993H72.9076V-0.0108347H63.5363V1.47993ZM72.9076 1.47993C73.5118 1.47993 74.0159 1.68846 74.4583 2.1309L75.5125 1.07677C74.7959 0.360162 73.9148 -0.0108347 72.9076 -0.0108347V1.47993ZM74.4649 2.13736C74.8986 2.5605 75.1093 3.05985 75.1093 3.68163H76.6001C76.6001 2.66379 76.2313 1.77794 75.5059 1.0703L74.4649 2.13736ZM75.1093 3.68163V13.0529H76.6001V3.68163H75.1093ZM75.1093 13.0529C75.1093 13.6751 74.898 14.1852 74.4583 14.6249L75.5125 15.679C76.2318 14.9596 76.6001 14.0704 76.6001 13.0529H75.1093ZM74.4649 14.6184C74.0238 15.0487 73.5177 15.2546 72.9076 15.2546V16.7454C73.9088 16.7454 74.7879 16.3859 75.5059 15.6855L74.4649 14.6184ZM72.9076 15.2546H63.5363V16.7454H72.9076V15.2546ZM63.5363 15.2546C62.9083 15.2546 62.3962 15.0461 61.9578 14.6184L60.9168 15.6855C61.6375 16.3886 62.5247 16.7454 63.5363 16.7454V15.2546ZM61.9708 14.6314C61.5432 14.193 61.3346 13.681 61.3346 13.0529H59.8438C59.8438 14.0645 60.2007 14.9517 60.9038 15.6724L61.9708 14.6314ZM61.3346 13.0529V3.68163H59.8438V13.0529H61.3346ZM61.3346 3.68163C61.3346 3.0539 61.5427 2.55259 61.9644 2.1309L60.9102 1.07677C60.2012 1.78585 59.8438 2.66973 59.8438 3.68163H61.3346ZM61.9644 2.1309C62.4041 1.69121 62.9141 1.47993 63.5363 1.47993V-0.0108347C62.5189 -0.0108347 61.6296 0.357411 60.9102 1.07677L61.9644 2.1309ZM63.5363 13.9467H72.9076V12.456H63.5363V13.9467ZM72.9076 13.9467C73.0975 13.9467 73.3661 13.886 73.5689 13.6493C73.7529 13.4347 73.7802 13.1916 73.7802 13.0529H72.2894C72.2894 13.0132 72.2955 12.8443 72.4371 12.6791C72.5975 12.492 72.8025 12.456 72.9076 12.456V13.9467ZM73.7802 13.0529V3.68163H72.2894V13.0529H73.7802ZM73.7802 3.68163C73.7802 3.54297 73.7529 3.29988 73.5689 3.08523C73.3661 2.84859 73.0975 2.78783 72.9076 2.78783V4.2786C72.8025 4.2786 72.5975 4.24258 72.4371 4.05541C72.2955 3.89023 72.2894 3.72135 72.2894 3.68163H73.7802ZM72.9076 2.78783H63.5363V4.2786H72.9076V2.78783ZM63.5363 2.78783C63.3719 2.78783 63.1118 2.82943 62.8979 3.04325C62.6841 3.25708 62.6425 3.51726 62.6425 3.68163H64.1333C64.1333 3.74706 64.1164 3.93303 63.9521 4.09739C63.7877 4.26174 63.6017 4.2786 63.5363 4.2786V2.78783ZM62.6425 3.68163V13.0529H64.1333V3.68163H62.6425ZM62.6425 13.0529C62.6425 13.2173 62.6841 13.4775 62.8979 13.6913C63.1118 13.9051 63.3719 13.9467 63.5363 13.9467V12.456C63.6017 12.456 63.7877 12.4728 63.9521 12.6372C64.1164 12.8015 64.1333 12.9875 64.1333 13.0529H62.6425ZM93.455 4.86894V5.61432H94.2004V4.86894H93.455ZM90.6351 4.86894H89.8898V5.61432H90.6351V4.86894ZM90.6351 10.1694H91.3805V9.42406H90.6351V10.1694ZM87.1792 10.1694H86.4338V10.9148H87.1792V10.1694ZM87.1792 7.37078V6.6254H86.4338V7.37078H87.1792ZM93.455 7.37078H94.2004V6.6254H93.455V7.37078ZM92.5857 15.1519L93.1063 15.6855L93.1128 15.679L92.5857 15.1519ZM79.0376 15.1519L78.5041 15.6724L78.5105 15.679L78.5171 15.6855L79.0376 15.1519ZM79.0376 1.60383L79.5647 2.1309L79.5647 2.1309L79.0376 1.60383ZM92.5857 1.60383L92.0586 2.13094L92.0652 2.13736L92.5857 1.60383ZM92.7096 3.68163V4.86894H94.2004V3.68163H92.7096ZM93.455 4.12356H90.6351V5.61432H93.455V4.12356ZM91.3805 4.86894V3.68163H89.8898V4.86894H91.3805ZM91.3805 3.68163C91.3805 3.51726 91.3389 3.25708 91.1251 3.04325C90.9113 2.82943 90.6511 2.78783 90.4867 2.78783V4.2786C90.4213 4.2786 90.2353 4.26174 90.071 4.09738C89.9066 3.93303 89.8898 3.74705 89.8898 3.68163H91.3805ZM90.4867 2.78783H81.1366V4.2786H90.4867V2.78783ZM81.1366 2.78783C80.9723 2.78783 80.7121 2.82943 80.4983 3.04325C80.2844 3.25708 80.2428 3.51726 80.2428 3.68163H81.7336C81.7336 3.74706 81.7167 3.93303 81.5524 4.09739C81.388 4.26174 81.2021 4.2786 81.1366 4.2786V2.78783ZM80.2428 3.68163V13.0529H81.7336V3.68163H80.2428ZM80.2428 13.0529C80.2428 13.2173 80.2844 13.4775 80.4983 13.6913C80.7121 13.9051 80.9723 13.9467 81.1366 13.9467V12.456C81.2021 12.456 81.388 12.4728 81.5524 12.6372C81.7167 12.8015 81.7336 12.9875 81.7336 13.0529H80.2428ZM81.1366 13.9467H90.4867V12.456H81.1366V13.9467ZM90.4867 13.9467C90.6511 13.9467 90.9113 13.9051 91.1251 13.6913C91.3389 13.4775 91.3805 13.2173 91.3805 13.0529H89.8898C89.8898 12.9875 89.9066 12.8015 90.071 12.6372C90.2353 12.4728 90.4213 12.456 90.4867 12.456V13.9467ZM91.3805 13.0529V10.1694H89.8898V13.0529H91.3805ZM90.6351 9.42406H87.1792V10.9148H90.6351V9.42406ZM87.9246 10.1694V7.37078H86.4338V10.1694H87.9246ZM87.1792 8.11616H93.455V6.6254H87.1792V8.11616ZM92.7096 7.37078V13.0529H94.2004V7.37078H92.7096ZM92.7096 13.0529C92.7096 13.6751 92.4983 14.1852 92.0587 14.6249L93.1128 15.679C93.8321 14.9596 94.2004 14.0704 94.2004 13.0529H92.7096ZM92.0652 14.6184C91.6269 15.0461 91.1148 15.2546 90.4867 15.2546V16.7454C91.4983 16.7454 92.3856 16.3886 93.1062 15.6855L92.0652 14.6184ZM90.4867 15.2546H81.1366V16.7454H90.4867V15.2546ZM81.1366 15.2546C80.5086 15.2546 79.9965 15.0461 79.5582 14.6184L78.5171 15.6855C79.2378 16.3886 80.1251 16.7454 81.1366 16.7454V15.2546ZM79.5712 14.6314C79.1435 14.193 78.9349 13.681 78.9349 13.0529H77.4442C77.4442 14.0645 77.801 14.9517 78.5041 15.6724L79.5712 14.6314ZM78.9349 13.0529V3.68163H77.4442V13.0529H78.9349ZM78.9349 3.68163C78.9349 3.0539 79.143 2.55259 79.5647 2.1309L78.5106 1.07677C77.8015 1.78585 77.4442 2.66973 77.4442 3.68163H78.9349ZM79.5647 2.1309C80.0044 1.69121 80.5144 1.47993 81.1366 1.47993V-0.0108347C80.1192 -0.0108347 79.2299 0.357411 78.5106 1.07677L79.5647 2.1309ZM81.1366 1.47993H90.4867V-0.0108347H81.1366V1.47993ZM90.4867 1.47993C91.1089 1.47993 91.619 1.69121 92.0587 2.1309L93.1128 1.07677C92.3934 0.357411 91.5042 -0.0108347 90.4867 -0.0108347V1.47993ZM92.0652 2.13736C92.4989 2.5605 92.7096 3.05985 92.7096 3.68163H94.2004C94.2004 2.66379 93.8316 1.77794 93.1062 1.0703L92.0652 2.13736ZM110.227 1.60383L109.7 2.13094L109.707 2.13736L110.227 1.60383ZM111.097 16V16.7454H111.842V16H111.097ZM108.277 16H107.531V16.7454H108.277V16ZM108.277 10.8691H109.022V10.1237H108.277V10.8691ZM98.63 10.8691V10.1237H97.8846V10.8691H98.63ZM98.63 16V16.7454H99.3753V16H98.63ZM95.8313 16H95.0859V16.7454H95.8313V16ZM96.6794 1.60383L97.2064 2.1309L97.2064 2.1309L96.6794 1.60383ZM98.63 8.07045H97.8846V8.81583H98.63V8.07045ZM108.277 8.07045V8.81583H109.022V8.07045H108.277ZM98.7784 1.47993H108.128V-0.0108347H98.7784V1.47993ZM108.128 1.47993C108.751 1.47993 109.261 1.69121 109.7 2.1309L110.755 1.07677C110.035 0.357411 109.146 -0.0108347 108.128 -0.0108347V1.47993ZM109.707 2.13736C110.141 2.5605 110.351 3.05985 110.351 3.68163H111.842C111.842 2.66379 111.473 1.77794 110.748 1.0703L109.707 2.13736ZM110.351 3.68163V16H111.842V3.68163H110.351ZM111.097 15.2546H108.277V16.7454H111.097V15.2546ZM109.022 16V10.8691H107.531V16H109.022ZM108.277 10.1237H98.63V11.6145H108.277V10.1237ZM97.8846 10.8691V16H99.3753V10.8691H97.8846ZM98.63 15.2546H95.8313V16.7454H98.63V15.2546ZM96.5767 16V3.68163H95.0859V16H96.5767ZM96.5767 3.68163C96.5767 3.0539 96.7847 2.55259 97.2064 2.1309L96.1523 1.07677C95.4432 1.78585 95.0859 2.66973 95.0859 3.68163H96.5767ZM97.2064 2.1309C97.6461 1.69121 98.1562 1.47993 98.7784 1.47993V-0.0108347C97.7609 -0.0108347 96.8717 0.357411 96.1523 1.07677L97.2064 2.1309ZM98.63 8.81583H108.277V7.32506H98.63V8.81583ZM109.022 8.07045V3.68163H107.531V8.07045H109.022ZM109.022 3.68163C109.022 3.51726 108.981 3.25707 108.767 3.04325C108.553 2.82943 108.293 2.78783 108.128 2.78783V4.2786C108.063 4.2786 107.877 4.26174 107.713 4.09739C107.548 3.93303 107.531 3.74706 107.531 3.68163H109.022ZM108.128 2.78783H98.7784V4.2786H108.128V2.78783ZM98.7784 2.78783C98.614 2.78783 98.3538 2.82943 98.14 3.04325C97.9262 3.25708 97.8846 3.51726 97.8846 3.68163H99.3753C99.3753 3.74706 99.3585 3.93303 99.1941 4.09739C99.0298 4.26174 98.8438 4.2786 98.7784 4.2786V2.78783ZM97.8846 3.68163V8.07045H99.3753V3.68163H97.8846ZM122.12 7.34958L121.55 7.82892L122.122 8.50997L122.692 7.82784L122.12 7.34958ZM127.654 0.734549V-0.0108347H127.306L127.082 0.256285L127.654 0.734549ZM130.728 0.734549H131.474V-0.0108347H130.728V0.734549ZM130.728 16V16.7454H131.474V16H130.728ZM127.909 16H127.163V16.7454H127.909V16ZM127.909 4.80534H128.654V2.75909L127.338 4.32591L127.909 4.80534ZM122.12 11.696L121.551 12.1764L122.122 12.8536L122.691 12.1754L122.12 11.696ZM116.311 4.80534L116.881 4.32488L115.566 2.76481V4.80534H116.311ZM116.311 16V16.7454H117.056V16H116.311ZM113.512 16H112.767V16.7454H113.512V16ZM113.512 0.734549V-0.0108347H112.767V0.734549H113.512ZM116.566 0.734549L117.136 0.25521L116.913 -0.0108347H116.566V0.734549ZM122.692 7.82784L128.226 1.21281L127.082 0.256285L121.549 6.87131L122.692 7.82784ZM127.654 1.47993H130.728V-0.0108347H127.654V1.47993ZM129.983 0.734549V16H131.474V0.734549H129.983ZM130.728 15.2546H127.909V16.7454H130.728V15.2546ZM128.654 16V4.80534H127.163V16H128.654ZM127.338 4.32591L121.55 11.2166L122.691 12.1754L128.479 5.28476L127.338 4.32591ZM122.69 11.2155L116.881 4.32488L115.741 5.28579L121.551 12.1764L122.69 11.2155ZM115.566 4.80534V16H117.056V4.80534H115.566ZM116.311 15.2546H113.512V16.7454H116.311V15.2546ZM114.258 16V0.734549H112.767V16H114.258ZM113.512 1.47993H116.566V-0.0108347H113.512V1.47993ZM115.995 1.21389L121.55 7.82892L122.691 6.87024L117.136 0.25521L115.995 1.21389ZM147.26 0.734549H148.006V-0.0108347H147.26V0.734549ZM147.26 3.53322V4.2786H148.006V3.53322H147.26ZM136.045 3.53322V2.78783H135.299V3.53322H136.045ZM136.045 6.96794H135.299V7.71332H136.045V6.96794ZM145.077 6.96794H145.822V6.22256H145.077V6.96794ZM145.077 9.76661V10.512H145.822V9.76661H145.077ZM136.045 9.76661V9.02122H135.299V9.76661H136.045ZM136.045 13.2013H135.299V13.9467H136.045V13.2013ZM147.26 13.2013H148.006V12.456H147.26V13.2013ZM147.26 16V16.7454H148.006V16H147.26ZM133.225 16H132.479V16.7454H133.225V16ZM133.225 0.734549V-0.0108347H132.479V0.734549H133.225ZM146.515 0.734549V3.53322H148.006V0.734549H146.515ZM147.26 2.78783H136.045V4.2786H147.26V2.78783ZM135.299 3.53322V6.96794H136.79V3.53322H135.299ZM136.045 7.71332H145.077V6.22256H136.045V7.71332ZM144.331 6.96794V9.76661H145.822V6.96794H144.331ZM145.077 9.02122H136.045V10.512H145.077V9.02122ZM135.299 9.76661V13.2013H136.79V9.76661H135.299ZM136.045 13.9467H147.26V12.456H136.045V13.9467ZM146.515 13.2013V16H148.006V13.2013H146.515ZM147.26 15.2546H133.225V16.7454H147.26V15.2546ZM133.97 16V0.734549H132.479V16H133.97ZM133.225 1.47993H147.26V-0.0108347H133.225V1.47993Z" fill="#3AFF33"/>
<path d="M152.572 19V11.3672H154.608V12.756H153.961V17.6113H154.608V19H152.572ZM155.46 12.7666V11.3672H163.093V12.8938L157.495 17.6007H163.093V19H155.46V17.4734L161.057 12.7666H155.46ZM165.672 11.3672H170.358C170.76 11.3672 171.107 11.5121 171.397 11.8019C171.686 12.0846 171.831 12.4309 171.831 12.8408V17.5265C171.831 17.9364 171.686 18.2862 171.397 18.576C171.107 18.8587 170.76 19 170.358 19H165.672C165.262 19 164.912 18.8587 164.622 18.576C164.34 18.2862 164.198 17.9364 164.198 17.5265V12.8408C164.198 12.4309 164.34 12.0846 164.622 11.8019C164.912 11.5121 165.262 11.3672 165.672 11.3672ZM165.672 17.6007H170.358C170.4 17.6007 170.421 17.5759 170.421 17.5265V12.8408C170.421 12.7913 170.4 12.7666 170.358 12.7666H165.672C165.622 12.7666 165.598 12.7913 165.598 12.8408V17.5265C165.598 17.5759 165.622 17.6007 165.672 17.6007ZM179.221 16.9646V11.3672H180.631V19H179.105L174.398 13.4026V19H172.999V11.3672H174.525L179.221 16.9646ZM188.858 11.3672V12.7666H183.25V14.484H187.766V15.8833H183.25V17.6007H188.858V19H181.84V11.3672H188.858ZM189.882 12.756V11.3672H191.918V19H189.882V17.6113H190.518V12.756H189.882Z" fill="#3AFF33"/>
<path d="M152.572 19H152.197V19.3756H152.572V19ZM152.572 11.3672V10.9916H152.197V11.3672H152.572ZM154.608 11.3672H154.983V10.9916H154.608V11.3672ZM154.608 12.756V13.1316H154.983V12.756H154.608ZM153.961 12.756V12.3804H153.586V12.756H153.961ZM153.961 17.6113H153.586V17.9869H153.961V17.6113ZM154.608 17.6113H154.983V17.2356H154.608V17.6113ZM154.608 19V19.3756H154.983V19H154.608ZM152.948 19V11.3672H152.197V19H152.948ZM152.572 11.7429H154.608V10.9916H152.572V11.7429ZM154.232 11.3672V12.756H154.983V11.3672H154.232ZM154.608 12.3804H153.961V13.1316H154.608V12.3804ZM153.586 12.756V17.6113H154.337V12.756H153.586ZM153.961 17.9869H154.608V17.2356H153.961V17.9869ZM154.232 17.6113V19H154.983V17.6113H154.232ZM154.608 18.6244H152.572V19.3756H154.608V18.6244ZM155.46 12.7666H155.084V13.1422H155.46V12.7666ZM155.46 11.3672V10.9916H155.084V11.3672H155.46ZM163.093 11.3672H163.468V10.9916H163.093V11.3672ZM163.093 12.8938L163.335 13.1813L163.468 13.0687V12.8938H163.093ZM157.495 17.6007L157.254 17.3132L156.465 17.9763H157.495V17.6007ZM163.093 17.6007H163.468V17.225H163.093V17.6007ZM163.093 19V19.3756H163.468V19H163.093ZM155.46 19H155.084V19.3756H155.46V19ZM155.46 17.4734L155.218 17.186L155.084 17.2985V17.4734H155.46ZM161.057 12.7666L161.299 13.0541L162.088 12.391H161.057V12.7666ZM155.836 12.7666V11.3672H155.084V12.7666H155.836ZM155.46 11.7429H163.093V10.9916H155.46V11.7429ZM162.717 11.3672V12.8938H163.468V11.3672H162.717ZM162.851 12.6063L157.254 17.3132L157.737 17.8882L163.335 13.1813L162.851 12.6063ZM157.495 17.9763H163.093V17.225H157.495V17.9763ZM162.717 17.6007V19H163.468V17.6007H162.717ZM163.093 18.6244H155.46V19.3756H163.093V18.6244ZM155.836 19V17.4734H155.084V19H155.836ZM155.702 17.7609L161.299 13.0541L160.816 12.4791L155.218 17.186L155.702 17.7609ZM161.057 12.391H155.46V13.1422H161.057V12.391ZM171.397 11.8019L171.131 12.0675L171.134 12.0708L171.397 11.8019ZM171.397 18.576L171.659 18.8448L171.662 18.8416L171.397 18.576ZM164.622 18.576L164.354 18.8383L164.36 18.8448L164.622 18.576ZM164.622 11.8019L164.888 12.0675L164.888 12.0675L164.622 11.8019ZM165.672 11.7429H170.358V10.9916H165.672V11.7429ZM170.358 11.7429C170.659 11.7429 170.91 11.8468 171.131 12.0675L171.662 11.5363C171.303 11.1774 170.862 10.9916 170.358 10.9916V11.7429ZM171.134 12.0708C171.35 12.2818 171.456 12.5307 171.456 12.8408H172.207C172.207 12.3311 172.022 11.8874 171.659 11.533L171.134 12.0708ZM171.456 12.8408V17.5265H172.207V12.8408H171.456ZM171.456 17.5265C171.456 17.8368 171.35 18.0911 171.131 18.3103L171.662 18.8416C172.022 18.4813 172.207 18.036 172.207 17.5265H171.456ZM171.134 18.3071C170.914 18.5217 170.662 18.6244 170.358 18.6244V19.3756C170.859 19.3756 171.299 19.1956 171.659 18.8448L171.134 18.3071ZM170.358 18.6244H165.672V19.3756H170.358V18.6244ZM165.672 18.6244C165.359 18.6244 165.103 18.5204 164.885 18.3071L164.36 18.8448C164.721 19.1969 165.165 19.3756 165.672 19.3756V18.6244ZM164.891 18.3136C164.678 18.095 164.574 17.8397 164.574 17.5265H163.823C163.823 18.033 164.001 18.4774 164.354 18.8383L164.891 18.3136ZM164.574 17.5265V12.8408H163.823V17.5265H164.574ZM164.574 12.8408C164.574 12.5277 164.678 12.2778 164.888 12.0675L164.357 11.5363C164.002 11.8914 163.823 12.3341 163.823 12.8408H164.574ZM164.888 12.0675C165.107 11.8482 165.362 11.7429 165.672 11.7429V10.9916C165.162 10.9916 164.717 11.1761 164.357 11.5363L164.888 12.0675ZM165.672 17.9763H170.358V17.225H165.672V17.9763ZM170.358 17.9763C170.453 17.9763 170.588 17.9457 170.691 17.8266C170.783 17.7185 170.797 17.5961 170.797 17.5265H170.046C170.046 17.5062 170.049 17.421 170.12 17.3377C170.201 17.2432 170.304 17.225 170.358 17.225V17.9763ZM170.797 17.5265V12.8408H170.046V17.5265H170.797ZM170.797 12.8408C170.797 12.7711 170.783 12.6488 170.691 12.5407C170.588 12.4215 170.453 12.391 170.358 12.391V13.1422C170.305 13.1422 170.201 13.124 170.12 13.0296C170.049 12.9463 170.046 12.861 170.046 12.8408H170.797ZM170.358 12.391H165.672V13.1422H170.358V12.391ZM165.672 12.391C165.589 12.391 165.458 12.4119 165.351 12.5195C165.243 12.6272 165.222 12.7582 165.222 12.8408H165.973C165.973 12.874 165.965 12.9678 165.882 13.0507C165.799 13.1337 165.705 13.1422 165.672 13.1422V12.391ZM165.222 12.8408V17.5265H165.973V12.8408H165.222ZM165.222 17.5265C165.222 17.6091 165.243 17.7401 165.351 17.8477C165.458 17.9554 165.589 17.9763 165.672 17.9763V17.225C165.705 17.225 165.799 17.2336 165.882 17.3165C165.965 17.3994 165.973 17.4933 165.973 17.5265H165.222ZM179.221 16.9646L178.934 17.206L179.597 17.9967V16.9646H179.221ZM179.221 11.3672V10.9916H178.846V11.3672H179.221ZM180.631 11.3672H181.007V10.9916H180.631V11.3672ZM180.631 19V19.3756H181.007V19H180.631ZM179.105 19L178.817 19.2418L178.93 19.3756H179.105V19ZM174.398 13.4026L174.685 13.1609L174.022 12.3723V13.4026H174.398ZM174.398 19V19.3756H174.774V19H174.398ZM172.999 19H172.623V19.3756H172.999V19ZM172.999 11.3672V10.9916H172.623V11.3672H172.999ZM174.525 11.3672L174.813 11.1258L174.7 10.9916H174.525V11.3672ZM179.597 16.9646V11.3672H178.846V16.9646H179.597ZM179.221 11.7429H180.631V10.9916H179.221V11.7429ZM180.256 11.3672V19H181.007V11.3672H180.256ZM180.631 18.6244H179.105V19.3756H180.631V18.6244ZM179.392 18.7582L174.685 13.1609L174.11 13.6444L178.817 19.2418L179.392 18.7582ZM174.022 13.4026V19H174.774V13.4026H174.022ZM174.398 18.6244H172.999V19.3756H174.398V18.6244ZM173.374 19V11.3672H172.623V19H173.374ZM172.999 11.7429H174.525V10.9916H172.999V11.7429ZM174.237 11.6087L178.934 17.206L179.509 16.7232L174.813 11.1258L174.237 11.6087ZM188.858 11.3672H189.234V10.9916H188.858V11.3672ZM188.858 12.7666V13.1422H189.234V12.7666H188.858ZM183.25 12.7666V12.391H182.875V12.7666H183.25ZM183.25 14.484H182.875V14.8596H183.25V14.484ZM187.766 14.484H188.142V14.1083H187.766V14.484ZM187.766 15.8833V16.2589H188.142V15.8833H187.766ZM183.25 15.8833V15.5077H182.875V15.8833H183.25ZM183.25 17.6007H182.875V17.9763H183.25V17.6007ZM188.858 17.6007H189.234V17.225H188.858V17.6007ZM188.858 19V19.3756H189.234V19H188.858ZM181.84 19H181.465V19.3756H181.84V19ZM181.84 11.3672V10.9916H181.465V11.3672H181.84ZM188.482 11.3672V12.7666H189.234V11.3672H188.482ZM188.858 12.391H183.25V13.1422H188.858V12.391ZM182.875 12.7666V14.484H183.626V12.7666H182.875ZM183.25 14.8596H187.766V14.1083H183.25V14.8596ZM187.391 14.484V15.8833H188.142V14.484H187.391ZM187.766 15.5077H183.25V16.2589H187.766V15.5077ZM182.875 15.8833V17.6007H183.626V15.8833H182.875ZM183.25 17.9763H188.858V17.225H183.25V17.9763ZM188.482 17.6007V19H189.234V17.6007H188.482ZM188.858 18.6244H181.84V19.3756H188.858V18.6244ZM182.216 19V11.3672H181.465V19H182.216ZM181.84 11.7429H188.858V10.9916H181.84V11.7429ZM189.882 12.756H189.507V13.1316H189.882V12.756ZM189.882 11.3672V10.9916H189.507V11.3672H189.882ZM191.918 11.3672H192.293V10.9916H191.918V11.3672ZM191.918 19V19.3756H192.293V19H191.918ZM189.882 19H189.507V19.3756H189.882V19ZM189.882 17.6113V17.2356H189.507V17.6113H189.882ZM190.518 17.6113V17.9869H190.894V17.6113H190.518ZM190.518 12.756H190.894V12.3804H190.518V12.756ZM190.258 12.756V11.3672H189.507V12.756H190.258ZM189.882 11.7429H191.918V10.9916H189.882V11.7429ZM191.542 11.3672V19H192.293V11.3672H191.542ZM191.918 18.6244H189.882V19.3756H191.918V18.6244ZM190.258 19V17.6113H189.507V19H190.258ZM189.882 17.9869H190.518V17.2356H189.882V17.9869ZM190.894 17.6113V12.756H190.143V17.6113H190.894ZM190.518 12.3804H189.882V13.1316H190.518V12.3804Z" fill="#3AFF33"/>
</svg>
