<?xml version="1.0" encoding="UTF-8" standalone="no"?>
<!-- Created with Inkscape (http://www.inkscape.org/) -->

<svg
   width="113.99591mm"
   height="14.938882mm"
   viewBox="0 0 113.99591 14.938882"
   version="1.1"
   id="svg1"
   xml:space="preserve"
   xmlns:inkscape="http://www.inkscape.org/namespaces/inkscape"
   xmlns:sodipodi="http://sodipodi.sourceforge.net/DTD/sodipodi-0.dtd"
   xmlns="http://www.w3.org/2000/svg"
   xmlns:svg="http://www.w3.org/2000/svg"><sodipodi:namedview
     id="namedview1"
     pagecolor="#ffffff"
     bordercolor="#000000"
     borderopacity="0.25"
     inkscape:showpageshadow="2"
     inkscape:pageopacity="0.0"
     inkscape:pagecheckerboard="0"
     inkscape:deskcolor="#d1d1d1"
     inkscape:document-units="mm"
     inkscape:export-bgcolor="#00000000" /><defs
     id="defs1" /><g
     inkscape:label="Layer 1"
     inkscape:groupmode="layer"
     id="layer1"
     transform="translate(-46.263265,-162.39964)"><path
       style="fill:#09ff00;fill-opacity:1"
       d="m 51.310197,176.93044 c -0.61944,-0.31554 -2.136516,-3.42668 -2.136516,-4.38147 0,-0.22128 -0.654844,-2.1033 -1.455208,-4.18227 -0.800365,-2.07897 -1.455208,-4.02295 -1.455208,-4.31996 0,-1.07152 0.909358,-1.59834 2.758921,-1.59834 1.513305,0 1.759778,0.0752 2.238053,0.68327 0.295606,0.37581 0.600369,0.88182 0.677251,1.12448 0.118082,0.3727 0.417607,0.42067 1.929134,0.30891 l 1.789349,-0.13229 0.08212,-0.99218 0.08212,-0.99219 2.431424,-0.0333 c 4.937274,-0.0676 7.18754,0.0801 8.647449,0.56762 1.422721,0.47513 1.463592,0.47461 1.928536,-0.0245 0.426716,-0.45802 0.864014,-0.50986 4.301162,-0.50986 h 3.826151 v 1.08185 1.08185 l 0.859896,-0.72507 c 1.236698,-1.04279 2.354309,-1.43863 4.061847,-1.43863 2.074358,0 3.381171,0.4506 4.717054,1.62649 l 1.140817,1.00419 0.49685,-0.54901 c 0.273268,-0.30196 1.022709,-0.85719 1.665426,-1.23385 1.02206,-0.59896 1.539578,-0.69903 4.127608,-0.79809 2.822904,-0.10805 2.98521,-0.0852 3.5281,0.49756 0.436966,0.46903 0.571664,0.9524 0.580252,2.08229 l 0.01118,1.47146 0.650274,-1.5663 c 0.357651,-0.86147 0.650275,-1.71193 0.650275,-1.88992 0,-0.59349 1.841246,-0.89551 2.584236,-0.4239 0.18441,0.11705 0.67489,1.01776 1.08996,2.00158 l 0.75466,1.78877 0.1221,-1.47237 c 0.1745,-2.10423 0.65105,-2.5389 2.78348,-2.5389 1.78075,0 2.71973,0.31028 2.71973,0.89872 0,0.19302 0.49522,1.40772 1.10049,2.69934 l 1.1005,2.3484 1.15879,-2.50079 c 0.63733,-1.37543 1.35119,-2.71338 1.58634,-2.97323 0.38309,-0.4233 0.97371,-0.47244 5.67822,-0.47244 4.97456,0 5.25066,0.0263 5.25066,0.50064 0,0.49114 0.0186,0.49114 0.98198,0 1.08746,-0.55441 3.06735,-0.65711 4.22631,-0.21923 0.90524,0.34203 2.11826,1.45608 2.60999,2.39703 0.6264,1.19868 0.51022,3.67156 -0.17251,3.67156 -0.16175,0 -0.15836,0.18254 0.009,0.49564 0.5558,1.03851 0.78768,2.80047 0.52337,3.97681 -0.52922,2.35542 -2.22134,3.6715 -5.05034,3.92802 l -1.5405,0.13969 v -2.55859 c 0,-2.03981 -0.0812,-2.58974 -0.40025,-2.71218 -0.88048,-0.33788 -1.18725,0.40317 -1.18725,2.86794 v 2.36837 l -3.82776,-0.0857 c -4.24392,-0.095 -4.54254,-0.20785 -4.87419,-1.84234 -0.14395,-0.70944 -0.32281,-0.90582 -0.88494,-0.97156 -0.5886,-0.0688 -0.79199,0.089 -1.23609,0.95955 -0.29236,0.57308 -0.72497,1.11618 -0.96135,1.20688 -0.63943,0.24538 -3.10945,0.19177 -3.5334,-0.0767 -0.2399,-0.1519 -0.65597,-0.0584 -1.19062,0.26765 -0.64865,0.39554 -1.33402,0.50137 -3.25203,0.50215 -3.09412,0.001 -3.68008,-0.22407 -4.28468,-1.64765 l -0.47789,-1.12525 -0.32985,0.99944 c -0.563197,1.70652 -1.096483,1.87753 -5.295088,1.69796 -3.953576,-0.16909 -5.008849,-0.45 -6.662386,-1.77353 l -0.959233,-0.76779 -0.588153,0.62606 c -1.650247,1.75661 -5.645461,2.36311 -7.94484,1.20608 -0.654614,-0.3294 -1.398566,-0.78208 -1.653228,-1.00596 -0.431992,-0.37978 -0.463021,-0.33339 -0.463021,0.69228 v 1.09934 h -3.716193 c -3.611729,0 -3.734797,-0.0186 -4.37803,-0.66183 -0.625427,-0.62543 -0.703985,-0.64005 -1.427954,-0.26567 -0.421364,0.2179 -1.57664,0.51337 -2.567281,0.6566 -2.347367,0.3394 -8.319222,0.3448 -9.2042,0.008 -0.379835,-0.14442 -0.845314,-0.63051 -1.034399,-1.08021 l -0.34379,-0.81764 -0.347062,0.83788 c -0.190884,0.46084 -0.633875,0.94693 -0.984425,1.08021 -0.805371,0.3062 -0.865743,0.30281 -1.641399,-0.0923 z m 2.571159,-5.55235 c 2.225886,-5.71277 2.145874,-5.22553 0.858101,-5.22553 -0.629937,0 -1.132599,0.13862 -1.199306,0.33073 -0.06316,0.1819 -0.394277,1.09238 -0.735812,2.02328 l -0.620973,1.69254 -0.612212,-1.69254 c -1.72847,-4.77859 -1.552924,-4.47067 -2.548775,-4.47067 -0.498867,0 -0.907056,0.0893 -0.907086,0.19844 -2.03e-4,0.74024 3.798291,11.17864 4.067868,11.17864 0.06934,0 0.833524,-1.8157 1.698195,-4.03489 z m 6.933991,3.10885 c 0,-0.81139 -0.08189,-0.92604 -0.661458,-0.92604 h -0.661458 v -4.7625 -4.7625 h -0.919937 -0.919936 l -0.07225,4.69635 c -0.07144,4.64391 -0.0789,4.6973 -0.667564,4.7809 -0.485238,0.0689 -0.595312,0.25238 -0.595312,0.99219 v 0.90764 h 2.248958 2.248958 z m 5.985989,0.19129 c 0.600158,-0.31073 1.40383,-0.9365 1.785937,-1.39061 0.646244,-0.76802 0.694741,-1.0062 0.694741,-3.41206 0,-2.2401 -0.07976,-2.70678 -0.595695,-3.48543 -0.900473,-1.359 -2.687337,-2.12193 -5.36031,-2.28869 l -2.246078,-0.14013 v 2.41854 2.41855 h 1.058333 1.058333 v -1.35673 -1.35674 l 1.12448,0.17948 c 1.498982,0.23926 2.275962,0.78819 2.761932,1.95127 0.49943,1.19531 0.329816,3.04245 -0.349392,3.80497 -0.59896,0.67243 -1.954727,1.27566 -2.867063,1.27566 -0.617634,0 -0.669957,-0.093 -0.669957,-1.19062 v -1.19063 h -1.058333 -1.058333 v 2.28133 2.28132 l 2.315104,-0.11726 c 1.671876,-0.0847 2.618282,-0.27424 3.406301,-0.68222 z m 8.301511,-0.32358 v -1.05834 h -1.5875 -1.5875 v -1.19062 -1.19063 h 2.248958 2.248959 v -1.05833 -1.05833 h -2.248959 -2.248958 v -1.32292 -1.32292 h 1.5875 1.5875 v -1.05833 -1.05833 h -2.645833 -2.645833 v 5.68854 5.68854 h 2.645833 2.645833 z m 8.938185,0.64742 c 2.168467,-0.90582 3.291937,-2.69664 3.310915,-5.27763 0.0428,-5.82144 -7.305005,-7.7884 -9.928139,-2.65769 -1.418842,2.77517 -0.0085,6.97042 2.706122,8.04971 1.001777,0.39828 2.81043,0.34539 3.911102,-0.11439 z m -4.094785,-2.34431 c -0.699258,-0.60147 -0.742358,-0.76242 -0.742358,-2.77211 0,-1.93499 0.06288,-2.19644 0.675679,-2.80924 0.819376,-0.81937 2.331743,-1.11225 3.418652,-0.66204 2.232363,0.92467 2.535887,5.02797 0.478516,6.46901 -0.936915,0.65624 -2.942611,0.53811 -3.830489,-0.22562 z m 2.818968,-2.12686 c 0.702854,-0.84689 -0.329468,-2.14783 -1.246222,-1.5705 -0.587833,0.37019 -0.731501,1.07489 -0.320181,1.5705 0.408678,0.49243 1.157725,0.49243 1.566403,0 z m 13.504298,1.31021 v -3.57188 H 94.152846 92.03618 v 1.19063 1.19062 h 1.058333 1.058333 v 1.32292 c 0,1.31633 -0.0043,1.32291 -0.859895,1.32193 -1.998234,-0.002 -3.571897,-1.94927 -3.287758,-4.06769 0.284075,-2.11794 1.64375,-3.01883 4.610674,-3.05495 l 1.653646,-0.0201 v -1.05833 -1.05833 h -1.309894 c -1.674192,0 -3.904851,0.46923 -4.853554,1.02098 -0.410966,0.23901 -1.041002,1.04634 -1.41818,1.81726 -0.585267,1.19625 -0.665012,1.6581 -0.579314,3.35516 0.08543,1.6918 0.214588,2.12862 0.920381,3.1128 1.027961,1.43343 2.603116,2.04288 5.322332,2.0593 l 1.918229,0.0116 z m 2.99722,2.51354 c 0.422755,-1.65837 1.552927,-5.06305 1.648827,-4.96715 0.0514,0.0514 0.55953,1.39843 1.12913,2.99334 l 1.03564,2.89985 1.09251,0.0814 c 0.60088,0.0447 1.0925,-0.0203 1.0925,-0.14443 0,-0.26129 -3.87123,-10.26071 -4.19943,-10.84718 -0.15851,-0.28323 -0.41358,0.0935 -0.92034,1.35939 -0.38558,0.96317 -0.701057,1.92049 -0.701057,2.12738 0,0.20689 -0.595313,1.89231 -1.322917,3.74538 -0.727604,1.85307 -1.322916,3.47533 -1.322916,3.60502 0,0.12969 0.502196,0.19919 1.115992,0.15444 1.030057,-0.0751 1.134169,-0.15267 1.352061,-1.0074 z m 8.702197,-2.05052 0.0745,-3.10886 0.70041,1.45521 c 0.38523,0.80037 0.97113,2.08029 1.302,2.84427 0.58559,1.35213 0.63044,1.38906 1.68677,1.38906 h 1.08519 l 1.36769,-2.71197 1.36769,-2.71198 0.0154,1.65364 0.0154,1.65365 h 1.05834 1.05833 v -4.36563 -4.36562 h -1.01543 -1.01543 l -1.9411,4.10784 c -1.06761,2.25931 -2.02135,4.01549 -2.11943,3.9026 -0.0981,-0.11288 -0.62424,-1.21726 -1.16925,-2.45419 -2.54776,-5.78222 -2.40197,-5.55625 -3.58481,-5.55625 h -1.0608 v 5.68854 5.68854 h 1.04994 1.04993 z m 15.55266,2.05052 v -1.05834 h -1.5875 -1.5875 v -1.19062 -1.19063 h 2.24896 2.24896 v -1.05833 -1.05833 h -2.24896 -2.24896 v -1.32292 -1.32292 h 1.5875 1.5875 v -1.05833 -1.05833 h -2.51354 -2.51354 v 5.68854 5.68854 h 2.51354 2.51354 z m 7.54063,-0.021 c 0.68783,-0.67846 0.79375,-0.97412 0.79375,-2.21569 0,-1.22329 -0.11314,-1.55084 -0.77395,-2.24057 -0.44931,-0.46898 -1.17069,-0.87931 -1.71979,-0.97824 -1.47598,-0.26593 -1.87189,-0.56704 -1.87189,-1.42368 0,-1.32244 1.6359,-1.82229 2.16481,-0.66146 0.2453,0.53838 0.49042,0.66146 1.31725,0.66146 1.19672,0 1.31463,-0.43277 0.48752,-1.78935 -1.08519,-1.77986 -3.35084,-2.09475 -5.01238,-0.69666 -2.25017,1.8934 -1.10849,5.318 1.92453,5.77283 0.96788,0.14514 1.21375,0.29689 1.34806,0.83203 0.17247,0.68719 -0.21604,1.70198 -0.6516,1.70198 -0.1404,0 -0.25527,0.48916 -0.25527,1.08702 0,1.05233 0.0232,1.08137 0.7276,0.91015 0.40019,-0.0973 1.0848,-0.5292 1.52136,-0.95982 z m -65.488424,-4.65974 c 0.0022,-0.46436 -0.115011,-0.91787 -0.260532,-1.0078 -0.16387,-0.10128 -0.263041,0.37116 -0.260532,1.24115 0.0029,1.00451 0.07712,1.29162 0.260532,1.0078 0.141064,-0.21828 0.258303,-0.7768 0.260532,-1.24115 z m 78.188424,7.33793 c -2.06451,-0.33368 -3.43589,-1.01068 -4.34901,-2.14693 -1.32017,-1.64279 -1.6904,-2.77222 -1.6866,-5.14522 0.004,-2.40725 0.5376,-3.91347 1.90108,-5.36482 1.25118,-1.33181 2.43058,-1.71055 5.75611,-1.84848 2.74111,-0.11369 2.98351,-0.0831 3.50941,0.44279 0.53945,0.53945 0.59559,0.54483 1.245,0.11931 0.43143,-0.28268 1.42588,-0.48877 2.71986,-0.56368 1.70229,-0.0986 2.26933,-0.0193 3.42724,0.47879 3.31426,1.42575 4.67744,4.94032 3.62501,9.34602 -0.82905,3.47054 -4.09334,5.3236 -8.13399,4.61746 -0.83099,-0.14522 -1.65253,-0.4347 -1.82565,-0.6433 -0.26857,-0.3236 -0.40726,-0.29236 -0.94505,0.21287 -0.713,0.66983 -2.89059,0.87548 -5.24341,0.49519 z m 4.10104,-2.65719 v -1.05834 h -1.86058 c -3.23565,0 -4.59118,-1.02133 -4.59118,-3.45926 0,-2.15137 0.85398,-3.13995 3.07188,-3.55603 l 0.96747,-0.1815 0.0817,1.28329 0.0817,1.2833 h 1.05833 1.05834 v -2.24896 -2.24896 l -2.33608,0.0412 c -2.58525,0.0456 -4.31352,0.68726 -5.23815,1.94481 -0.60271,0.81973 -0.88886,3.16036 -0.63488,5.19315 0.16063,1.28563 0.34324,1.68193 1.10686,2.40212 1.15671,1.09092 2.87167,1.6216 5.31631,1.64508 l 1.91823,0.0184 z m 7.81615,0.561 c 2.14208,-0.97301 3.16127,-2.93483 2.98258,-5.74111 -0.12964,-2.03594 -1.08631,-3.59665 -2.72894,-4.45196 -1.29571,-0.67468 -3.83552,-0.71918 -5.04449,-0.0884 -1.74,0.90786 -2.99619,3.78839 -2.65227,6.08184 0.23688,1.57958 1.594,3.63008 2.80197,4.23353 1.19849,0.59871 3.28197,0.5835 4.64115,-0.0339 z m -4.53532,-2.51892 c -1.59094,-1.59094 -1.21023,-4.86572 0.67926,-5.84281 2.95268,-1.52689 5.78023,1.6985 4.39513,5.01353 -0.45503,1.08904 -1.59373,1.72886 -3.07687,1.72886 -0.89585,0 -1.26351,-0.16557 -1.99752,-0.89958 z m 2.91798,-1.89744 c 0.51824,-0.51824 0.52985,-1.01226 0.0335,-1.42422 -0.60913,-0.50554 -1.58917,-0.23536 -1.68852,0.4655 -0.1659,1.17026 0.85319,1.76058 1.65506,0.95872 z m -7.57085,0.48192 c -0.0663,-0.34888 -0.39715,-0.4829 -1.34232,-0.54366 -1.2378,-0.0796 -1.25439,-0.0927 -1.25439,-0.99219 0,-0.9462 -0.3536,-1.22154 -0.63315,-0.49303 -0.26348,0.6866 -0.18503,1.28094 0.25128,1.90386 0.33255,0.47478 0.66752,0.58804 1.73919,0.58804 1.12121,0 1.31366,-0.0719 1.23939,-0.46302 z"
       id="path46" /></g></svg>
